<?xml version="1.0" encoding="utf-8"?>
<!-- Generator: Adobe Illustrator 23.0.1, SVG Export Plug-In . SVG Version: 6.00 Build 0)  -->
<svg version="1.1" id="Calque_1" xmlns="http://www.w3.org/2000/svg" xmlns:xlink="http://www.w3.org/1999/xlink" x="0px"
     y="0px"
     viewBox="0 0 24 28" style="enable-background:new 0 0 24 28;" xml:space="preserve">
    <title>Icone connecté</title>
    <desc>Created with Sketch.</desc>
    <defs>
        <filter id="themeRecruteur">
          <feColorMatrix color-interpolation-filters="sRGB"
              values="0.36 0 0 0 0
                          0 0.31 0 0 0
                          0 0 0.60 0 0
                          0 0 0 1 0 "/>
        </filter>
        <filter id="themeCandidat">
            <feColorMatrix color-interpolation-filters="sRGB"
              values="0.05 0 0 0 0
                      0 0.48 0 0 0
                      0 0 0.58 0 0
                      0 0 0 1 0 "/>
        </filter>
        <filter id="themeConseiller">
            <feColorMatrix color-interpolation-filters="sRGB"
               values="0 0 0 0 0
                      0 0 0 0 0
                      0 0 0 0 0
                      0 0 0 1 0 "/>
        </filter>
    </defs>
    <g id="c11462d1-b27a-48cd-87ee-d3f81e9d2d65" fill="none">
        <g id="M_Perspective_Home-2a-Menu" transform="translate(-14.000000, -222.000000)" fill="#FFFFFF">
            <g id="Compte" transform="translate(0.000000, 208.000000)">
                <path id="Combined-Shape-Copy" class="st0" d="M26,30.1c-3.6,0-6.6-3.4-6.6-7.6s3-7.6,6.6-7.6s6.6,3.4,6.6,7.6S29.6,30.1,26,30.1
                    z M26,41c-6.1,0-11-1.8-11-2c0-2.2,1.5-8.2,5.1-7.3c0,0,3.7,1.3,5.9,1.3c2.3,0,5.9-1.2,6.1-1.2c2.8-0.9,4.9,5.1,4.9,7.2
                    C37,39.2,32.1,41,26,41z"/>
            </g>
        </g>
    </g>
</svg>
