<?xml version="1.0" encoding="UTF-8"?>
<svg width="18px" height="12px" viewBox="0 0 18 12" version="1.1" xmlns="http://www.w3.org/2000/svg" xmlns:xlink="http://www.w3.org/1999/xlink">
    <!-- Generator: sketchtool 51.3 (57544) - http://www.bohemiancoding.com/sketch -->
    <title>Ouvrir menu</title>
    <desc>Created with sketchtool.</desc>
    <defs>
        <filter id="themeRecruteur">
            <feColorMatrix color-interpolation-filters="sRGB"
                values="0.36 0 0 0 0
                          0 0.31 0 0 0
                          0 0 0.60 0 0
                          0 0 0 1 0 "/>
        </filter>
        <filter id="themeCandidat">
            <feColorMatrix color-interpolation-filters="sRGB"
                values="0.05 0 0 0 0
                      0 0.48 0 0 0
                      0 0 0.58 0 0
                      0 0 0 1 0 "/>
        </filter>
        <filter id="themeConseiller">
            <feColorMatrix color-interpolation-filters="sRGB"
                values="0 0 0 0 0
                      0 0 0 0 0
                      0 0 0 0 0
                      0 0 0 1 0 "/>
        </filter>
    </defs>
    <g id="47040302-db49-4032-8a60-83a400b57d07" stroke="none" stroke-width="1" fill="none" fill-rule="evenodd">
        <g id="M_Perspective_Home-2a" transform="translate(-279.000000, -31.000000)">
            <g id="Header">
                <g id="menu" transform="translate(266.000000, 15.000000)">
                    <rect id="Path" x="0" y="0" width="44" height="44"></rect>
                    <path d="M14,16 L30,16 C30.5522847,16 31,16.4477153 31,17 L31,17 C31,17.5522847 30.5522847,18 30,18 L14,18 C13.4477153,18 13,17.5522847 13,17 L13,17 C13,16.4477153 13.4477153,16 14,16 Z M14,26 L30,26 C30.5522847,26 31,26.4477153 31,27 L31,27 C31,27.5522847 30.5522847,28 30,28 L14,28 C13.4477153,28 13,27.5522847 13,27 L13,27 C13,26.4477153 13.4477153,26 14,26 Z M14,21 L30,21 C30.5522847,21 31,21.4477153 31,22 L31,22 C31,22.5522847 30.5522847,23 30,23 L14,23 C13.4477153,23 13,22.5522847 13,22 L13,22 C13,21.4477153 13.4477153,21 14,21 Z" id="Shape" fill="#FFFFFF"></path>
                </g>
            </g>
        </g>
    </g>
</svg>