<?xml version="1.0" encoding="utf-8"?>
<!-- Generator: Adobe Illustrator 23.0.1, SVG Export Plug-In . SVG Version: 6.00 Build 0)  -->
<svg version="1.1" id="Calque_1" xmlns="http://www.w3.org/2000/svg" xmlns:xlink="http://www.w3.org/1999/xlink" x="0px" y="0px"
	 viewBox="0 0 44 44" style="enable-background:new 0 0 44 44;" xml:space="preserve">
<style type="text/css">
	.st0{fill:#334051;}
</style>
<title>Combined Shape Copy</title>
<desc>Created with Sketch.</desc>
<g id="New---Carole">
	<g id="M_Perspective_Home-2a-Menu" transform="translate(-14.000000, -272.000000)">
		<g id="Compte-Copy" transform="translate(0.000000, 258.000000)">
			<path id="Combined-Shape-Copy" class="st0" d="M35.2,40.9L35.2,40.9l-0.5,3.5l1.3,2.2l1.3-2.2l-0.5-3.5c2.2-0.2,5.1-1.1,5.3-1.2
				c2.8-0.9,4.9,5.1,4.9,7.2c0,0.2-4.9,2-11,2s-11-1.8-11-2c0-2.2,1.5-8.2,5.1-7.3C30.1,39.7,33,40.7,35.2,40.9z M36,38.1
				c-3.6,0-6.6-3.4-6.6-7.6s3-7.6,6.6-7.6s6.6,3.4,6.6,7.6S39.6,38.1,36,38.1z"/>
		</g>
	</g>
</g>
</svg>
