<?xml version="1.0" encoding="UTF-8"?>
<svg width="505px" height="403px" viewBox="0 0 505 403" version="1.1" xmlns="http://www.w3.org/2000/svg" xmlns:xlink="http://www.w3.org/1999/xlink">
    <!-- Generator: sketchtool 50.2 (55047) - http://www.bohemiancoding.com/sketch -->
    <title>30210BEF-08ED-460B-B415-2287576143B9</title>
    <desc>Created with sketchtool.</desc>
    <defs>
        <rect id="path-1" x="0" y="22.0087336" width="331.470588" height="80.4377771" rx="7.41311955"></rect>
        <filter x="-10.4%" y="-26.7%" width="125.0%" height="206.9%" filterUnits="objectBoundingBox" id="filter-2">
            <feOffset dx="7" dy="23" in="SourceAlpha" result="shadowOffsetOuter1"></feOffset>
            <feGaussianBlur stdDeviation="10" in="shadowOffsetOuter1" result="shadowBlurOuter1"></feGaussianBlur>
            <feColorMatrix values="0 0 0 0 0.2   0 0 0 0 0.250980392   0 0 0 0 0.317647059  0 0 0 0.15 0" type="matrix" in="shadowBlurOuter1"></feColorMatrix>
        </filter>
        <path d="M5.10659672,6.28542836 C-0.670277748,13.5752908 -0.119669302,25.0819071 1.62241937,31.9330071 C3.36450805,38.7841071 10.2775188,53.3357731 14.6131518,57.1866853 C18.9487848,61.0375976 22.315712,63.0300062 24.4495747,63.0300062 C26.5834375,63.0300062 31.8509604,60.0212964 34.2859977,57.1866853 C36.7210349,54.3520743 44.4394069,41.4835211 44.4394069,33.9333421 C44.4394069,26.383163 45.6290941,11.2563771 42.534079,6.28542836 C39.4390639,1.31447959 28.7240432,0.113901076 24.0593201,0.113901076 C19.3945969,0.113901076 9.99724296,0.113901076 5.10659672,6.28542836 Z" id="path-3"></path>
        <rect id="path-5" x="0" y="29.8895706" width="461.176471" height="111.312883" rx="10.2960003"></rect>
        <filter x="-7.5%" y="-19.3%" width="118.0%" height="177.3%" filterUnits="objectBoundingBox" id="filter-6">
            <feOffset dx="7" dy="23" in="SourceAlpha" result="shadowOffsetOuter1"></feOffset>
            <feGaussianBlur stdDeviation="10" in="shadowOffsetOuter1" result="shadowBlurOuter1"></feGaussianBlur>
            <feColorMatrix values="0 0 0 0 0.2   0 0 0 0 0.250980392   0 0 0 0 0.317647059  0 0 0 0.15 0" type="matrix" in="shadowBlurOuter1"></feColorMatrix>
        </filter>
        <path d="M7.10483022,8.69801703 C-0.932560346,18.7860085 -0.166496421,34.7093057 2.25727913,44.1901209 C4.68105467,53.6709361 14.2991567,73.8080901 20.3313417,79.1371302 C26.3635267,84.4661704 31.0479471,87.2233419 34.0167996,87.2233419 C36.9856521,87.2233419 44.3143797,83.0597737 47.7022576,79.1371302 C51.0901355,75.2144867 61.82874,57.4064888 61.82874,46.9582612 C61.82874,36.5100337 63.4839571,15.5770067 59.1778491,8.69801703 C54.8717411,1.81902731 39.9638863,0.157620681 33.4738366,0.157620681 C26.9837869,0.157620681 13.9092076,0.157620681 7.10483022,8.69801703 Z" id="path-7"></path>
        <path d="M29.3261719,0.587806748 L176.043095,0.587806748 C202.305419,27.8174847 215.436581,55.4913727 215.436581,83.6094709 C215.436581,111.727569 204.441445,138.394939 182.451172,163.61158 L30.7910766,163.61158 C10.8373748,135.767255 0.860523897,108.596626 0.860523897,82.0996933 C0.860523897,55.6027607 10.3490732,28.4321319 29.3261719,0.587806748 Z" id="path-9"></path>
        <linearGradient x1="-69.7515769%" y1="100%" x2="0%" y2="-7.26710478%" id="linearGradient-11">
            <stop stop-color="#82CCDD" offset="0%"></stop>
            <stop stop-color="#6A89CC" offset="100%"></stop>
        </linearGradient>
        <linearGradient x1="111.345861%" y1="50%" x2="5.02248149%" y2="71.0097236%" id="linearGradient-12">
            <stop stop-color="#82CCDD" offset="0%"></stop>
            <stop stop-color="#6A89CC" offset="100%"></stop>
        </linearGradient>
        <path d="M117.867647,236.02454 C52.7711431,236.02454 0,183.188647 0,118.01227 C0,52.835893 52.7711431,0 117.867647,0 C182.964151,0 235.735294,52.835893 235.735294,118.01227 C235.735294,183.188647 182.964151,236.02454 117.867647,236.02454 Z M119.411765,216.441718 C172.853436,216.441718 216.176471,173.065526 216.176471,119.558282 C216.176471,66.0510382 172.853436,22.6748466 119.411765,22.6748466 C65.9700933,22.6748466 22.6470588,66.0510382 22.6470588,119.558282 C22.6470588,173.065526 65.9700933,216.441718 119.411765,216.441718 Z" id="path-13"></path>
        <filter x="-7.6%" y="-7.6%" width="115.3%" height="115.3%" filterUnits="objectBoundingBox" id="filter-14">
            <feOffset dx="0" dy="0" in="SourceAlpha" result="shadowOffsetOuter1"></feOffset>
            <feGaussianBlur stdDeviation="6" in="shadowOffsetOuter1" result="shadowBlurOuter1"></feGaussianBlur>
            <feColorMatrix values="0 0 0 0 0   0 0 0 0 0   0 0 0 0 0  0 0 0 0.2 0" type="matrix" in="shadowBlurOuter1"></feColorMatrix>
        </filter>
    </defs>
    <g id="UI-Landing" stroke="none" stroke-width="1" fill="none" fill-rule="evenodd">
        <g id="landing-page-employeur-idea1" transform="translate(-759.000000, -368.000000)">
            <g id="Group-14" transform="translate(759.000000, 368.000000)">
                <g id="Group-10" transform="translate(77.852941, 0.000000)">
                    <g id="Rectangle-28">
                        <use fill="black" fill-opacity="1" filter="url(#filter-2)" xlink:href="#path-1"></use>
                        <use fill="#FFFFFF" fill-rule="evenodd" xlink:href="#path-1"></use>
                    </g>
                    <g id="Group-24" transform="translate(8.138787, 0.000000)">
                        <path d="M29.6908471,79.6929828 C17.7200749,80.9261689 10.2989657,82.5570128 7.42751956,84.5855145 C4.5560734,86.6140163 2.08023355,92.4311147 0,102.03681 L86.5670956,102.03681 C85.2785043,92.5845183 82.5142029,86.7674198 78.2741914,84.5855145 C74.0341799,82.4036092 65.7266291,80.7727653 53.3515392,79.6929828 L29.6908471,79.6929828 Z" id="Path-93" fill="#4A4A4A"></path>
                        <path d="M37.2539738,67.7762751 C36.3655086,74.0437943 34.9663901,78.2753781 33.0566184,80.4710264 C30.1919609,83.7644988 40.4057398,86.3961309 43.3518162,86.3961309 C46.2978926,86.3961309 53.2720588,84.4396486 53.2720588,82.4553375 C53.2720588,80.4710264 48.3644312,71.6444718 48.3644312,67.7762751 C46.0125695,67.7762751 42.3090837,67.7762751 37.2539738,67.7762751 Z" id="Path-91" fill="#F9ECD8"></path>
                        <g id="Group-23" transform="translate(17.757353, 0.000000)">
                            <g id="Path-88" transform="translate(2.249078, 10.038329)">
                                <mask id="mask-4" fill="white">
                                    <use xlink:href="#path-3"></use>
                                </mask>
                                <use id="Mask" fill="#F9ECD8" xlink:href="#path-3"></use>
                                <path d="" id="Path-86" stroke="#979797" stroke-width="0.571999991" mask="url(#mask-4)"></path>
                            </g>
                            <path d="M36.0495746,20.6343421 C31.1751039,24.8394282 27.1755703,26.9419713 24.0509737,26.9419713 C19.3640788,26.9419713 17.5797886,23.2944686 12.1592377,29.9256556 C6.73868681,36.5568426 7.8983678,47.3296986 5.1315013,44.2759197 C2.3646348,41.2221408 4.12514255e-16,27.4857794 0,23.2944686 C0,19.1031579 4.22045631,6.85115972 13.4766985,3.24821131 C22.7329408,-0.354737105 24.6412123,0.0103682465 27.9137854,0.0103682465 C31.1863585,0.0103682465 45.1357481,1.09458312 47.8193331,13.0345149 C50.502918,24.9744466 49.9539461,37.2648317 46.0236071,40.2288458 C42.0932681,43.1928598 43.2662423,39.0521211 42.6797552,37.340073 C42.0932681,35.628025 36.0495746,35.1509106 36.0495746,28.804502 C36.0495746,24.5735629 36.0495746,21.8501763 36.0495746,20.6343421 Z" id="Path-87" fill="#5E5E5E"></path>
                            <path d="M29.0962762,48.8616461 L26.2676655,50.6504437 C26.1015718,50.7554804 26.0520753,50.9752751 26.1571121,51.1413688 C26.222328,51.2444941 26.3358352,51.3070127 26.4578514,51.3070127 L30.4128185,51.3070127 C30.6093378,51.3070127 30.7686482,51.1477023 30.7686482,50.951183 C30.7686482,50.8840879 30.7496784,50.8183599 30.7139275,50.761583 L29.587571,48.9727854 C29.4828578,48.8064875 29.2631599,48.7565633 29.096862,48.8612764 C29.0966666,48.8613995 29.0964714,48.8615227 29.0962762,48.8616461 Z" id="Path-90" fill="#000000" opacity="0.169698661"></path>
                        </g>
                    </g>
                    <rect id="Rectangle-29" fill="#D8D8D8" x="129.480699" y="43.9428597" width="166.475184" height="11.9167077" rx="5.95835386"></rect>
                    <rect id="Rectangle-4" fill="#FB6B6B" x="129.480699" y="68.5210694" width="43.6534926" height="18.6198558" rx="2.96524782"></rect>
                    <rect id="Rectangle-4-Copy" fill="#82CCDD" x="180.533088" y="68.5210694" width="43.6534926" height="18.6198558" rx="2.96524782"></rect>
                    <rect id="Rectangle-4-Copy-2" fill="#6A89CC" x="231.585478" y="68.5210694" width="43.6534926" height="18.6198558" rx="2.96524782"></rect>
                </g>
                <g id="Group-10-Copy" transform="translate(13.000000, 118.527607)">
                    <g id="Rectangle-28">
                        <use fill="black" fill-opacity="1" filter="url(#filter-6)" xlink:href="#path-5"></use>
                        <use fill="#FFFFFF" fill-rule="evenodd" xlink:href="#path-5"></use>
                    </g>
                    <rect id="Rectangle-4-Copy-2" fill="#6A89CC" x="323.235294" y="99.9754601" width="60.7352941" height="27.8282209" rx="4.1184001"></rect>
                    <g id="Group-24" transform="translate(11.323529, 0.000000)">
                        <path d="M41.3090047,110.282209 C24.6540173,111.988739 14.3289958,114.245563 10.3339403,117.052682 C6.33888474,119.8598 2.89423799,127.909724 0,141.202454 L120.441176,141.202454 C118.648354,128.12201 114.802369,120.072086 108.903223,117.052682 C103.004076,114.033277 92.8421905,112.523575 78.4175653,112.523575 L41.3090047,110.282209 Z" id="Path-93" fill="#52607F"></path>
                        <path d="M51.8316157,93.791411 C50.5954902,102.464645 48.6488906,108.320473 45.9918169,111.358895 C42.0062065,115.916529 56.2166815,119.558282 60.3155704,119.558282 C64.4144592,119.558282 74.1176471,116.850827 74.1176471,114.104861 C74.1176471,111.358895 67.2896435,99.1443701 67.2896435,93.791411 C64.0174881,93.791411 58.8648121,93.791411 51.8316157,93.791411 Z" id="Path-91" fill="#F9ECD8"></path>
                        <g id="Group-23" transform="translate(24.705882, 0.000000)">
                            <g id="Path-88" transform="translate(3.129152, 13.891424)">
                                <mask id="mask-8" fill="white">
                                    <use xlink:href="#path-7"></use>
                                </mask>
                                <use id="Mask" fill="#F9ECD8" xlink:href="#path-7"></use>
                                <path d="" id="Path-86" stroke="#979797" stroke-width="0.571999991" mask="url(#mask-8)"></path>
                            </g>
                            <path d="M50.1559299,28.5545946 C43.3740576,34.3737542 37.809489,37.283334 33.4622242,37.283334 C26.941327,37.283334 24.4588364,32.2357798 16.9172003,41.4122709 C9.37556426,50.588762 10.9890335,65.4966536 7.13948007,61.2707171 C3.28992668,57.0447807 5.73932877e-16,38.0358765 0,32.2357798 C0,26.4356831 5.87193921,9.4808978 18.7501893,4.49499949 C31.6284394,-0.490898821 34.2834258,0.0143479774 38.836571,0.0143479774 C43.3897161,0.0143479774 62.7975626,1.51472614 66.531246,18.037662 C70.2649294,34.5605979 69.5011424,51.5685045 64.0328446,55.6702209 C58.5645469,59.7719373 60.196511,54.0418241 59.3805289,51.6726263 C58.5645469,49.3034285 50.1559299,48.6431793 50.1559299,39.8607755 C50.1559299,34.0058396 50.1559299,30.2371126 50.1559299,28.5545946 Z" id="Path-87" fill="#FAD390"></path>
                            <path d="M40.4838928,67.6152897 L36.5526068,70.088072 C36.3215676,70.2333959 36.2520816,70.5384985 36.3974055,70.7695377 C36.4878621,70.9133478 36.6458457,71.0006135 36.815739,71.0006135 L42.3124682,71.0006135 C42.5854117,71.0006135 42.8066762,70.7793491 42.8066762,70.5064055 C42.8066762,70.4128097 42.780098,70.3211381 42.7300343,70.2420572 L41.1645911,67.7692748 C41.0188958,67.5391338 40.7144568,67.4702647 40.4838928,67.6152897 Z" id="Path-90" fill="#000000" opacity="0.169698661"></path>
                        </g>
                    </g>
                    <rect id="Rectangle-29" fill="#D8D8D8" x="180.147059" y="57.7177914" width="231.617647" height="16.4907975" rx="8.24539877"></rect>
                    <g id="Group-12" transform="translate(125.588235, 8.245399)">
                        <g id="Rectangle-29-+-Rectangle-4-Copy-+-Rectangle-4-Copy-2-Mask">
                            <mask id="mask-10" fill="white">
                                <use xlink:href="#path-9"></use>
                            </mask>
                            <use id="Mask" fill="#FFFFFF" xlink:href="#path-9"></use>
                            <rect id="Rectangle-29" fill="#D8D8D8" mask="url(#mask-10)" x="54.5588235" y="43.2883436" width="231.617647" height="25.7668712" rx="12.8834356"></rect>
                            <rect id="Rectangle-4-Copy" fill="#82CCDD" mask="url(#mask-10)" x="54.5588235" y="92.7607362" width="82.3529412" height="39.1656442" rx="4.1184001"></rect>
                            <rect id="Rectangle-4-Copy-2" fill="#6A89CC" mask="url(#mask-10)" x="166.764706" y="92.7607362" width="60.7352941" height="39.1656442" rx="4.1184001"></rect>
                        </g>
                    </g>
                </g>
                <g id="Group-11" transform="translate(297.296328, 262.311517) rotate(-45.000000) translate(-297.296328, -262.311517) translate(179.296328, 70.311517)">
                    <rect id="Rectangle-30" fill="url(#linearGradient-11)" x="105" y="221.595092" width="22" height="162" rx="11"></rect>
                    <path d="M115.970544,117.853828 C172.823386,117.853828 223.382353,175.450207 223.382353,118.527607 C223.382353,61.6050074 177.294018,15.4601227 120.441176,15.4601227 C63.5883346,15.4601227 17.5,61.6050074 17.5,118.527607 C17.5,175.450207 59.1177024,117.853828 115.970544,117.853828 Z" id="Oval" fill="#FFFFFF" opacity="0.299999982"></path>
                    <g id="Combined-Shape">
                        <use fill="black" fill-opacity="1" filter="url(#filter-14)" xlink:href="#path-13"></use>
                        <use fill="url(#linearGradient-12)" fill-rule="evenodd" xlink:href="#path-13"></use>
                    </g>
                </g>
                <rect id="Rectangle-32" fill="#334051" opacity="0.150000006" x="496.823529" y="22.6748466" width="8" height="50" rx="4"></rect>
            </g>
        </g>
    </g>
</svg>