<?xml version="1.0" encoding="UTF-8"?>
<svg width="101px" height="96px" viewBox="0 0 101 96" version="1.1" xmlns="http://www.w3.org/2000/svg">
    <!-- Generator: Sketch 51.2 (57519) - http://www.bohemiancoding.com/sketch -->
    <title>Group 25</title>
    <desc>Created with Sketch.</desc>
    <defs></defs>
    <g id="old-search-ui-copy" stroke="none" stroke-width="1" fill="none" fill-rule="evenodd">
        <g id="landing-page-candidat-6-copy" transform="translate(-273.000000, -1603.000000)" fill-rule="nonzero">
            <g id="Group-25" transform="translate(273.000000, 1603.000000)">
                <circle id="Oval-3" fill="#6A89CC" opacity="0.1" cx="32" cy="32" r="32"></circle>
                <g id="noun_Agriculture_1187379" transform="translate(31.000000, 26.000000)" fill="#334051">
                    <path d="M0.259259259,69.6188889 C0.427777778,69.7874074 0.649012346,69.8720988 0.870246914,69.8720988 C1.09148148,69.8720988 1.31271605,69.7874074 1.48123457,69.6188889 C10.0609877,61.0391358 20.6180247,54.1074074 32.8697531,48.9887654 L32.8697531,55.9101235 C26.2923457,59.0851852 19.5732099,63.1425926 13.1867901,68.3390123 C12.8169136,68.6406173 12.7607407,69.1850617 13.0614815,69.5549383 C13.2325926,69.7649383 13.4814815,69.8738272 13.7320988,69.8738272 C13.9239506,69.8738272 14.1166667,69.8107407 14.2774074,69.6802469 C33.8246914,53.7764198 56.5746914,48.6681481 68.3960494,47.0382716 C68.8687654,46.9725926 69.1988889,46.537037 69.1340741,46.064321 C69.0683951,45.5907407 68.6302469,45.2614815 68.1601235,45.3262963 C60.3546914,46.4022222 47.8532099,48.9775309 34.5990123,55.0934568 L34.5990123,53.1109877 C34.934321,53.1403704 35.367284,53.1671605 35.8702469,53.1671605 C37.6893827,53.1671605 40.3606173,52.8249383 42.1149383,51.0706173 C43.8390123,49.3465432 44.1976543,46.7401235 44.2097531,44.9235802 C57.8381481,40.8117284 68.2111111,40.3269136 68.3148148,40.3225926 C68.7918519,40.302716 69.1617284,39.8991358 69.1418519,39.422963 C69.1219753,38.9459259 68.7279012,38.5691358 68.2422222,38.5959259 C68.175679,38.5985185 64.0016049,38.7920988 57.4916049,39.961358 L57.4916049,38.3504938 C57.7646914,38.3720988 58.0991358,38.3885185 58.4785185,38.3885185 C60.0790123,38.3885185 62.4348148,38.0860494 63.9860494,36.5348148 C66.4732099,34.0467901 65.7498765,29.4907407 65.717037,29.2971605 C65.6565432,28.9324691 65.371358,28.647284 65.0066667,28.5867901 C64.8139506,28.5548148 60.257037,27.8297531 57.7690123,30.3177778 C57.6687654,30.4180247 57.5814815,30.5269136 57.4916049,30.6332099 L57.4916049,26.2016049 C57.7906173,26.2292593 58.187284,26.254321 58.6496296,26.254321 C60.2501235,26.254321 62.6067901,25.9518519 64.1580247,24.4006173 C66.6460494,21.9125926 65.9218519,17.3565432 65.8890123,17.162963 C65.8285185,16.7982716 65.5433333,16.5130864 65.178642,16.4525926 C64.9859259,16.4197531 60.4290123,15.6955556 57.9409877,18.1835802 C57.7767901,18.3477778 57.6290123,18.5214815 57.4916049,18.7012346 L57.4916049,13.3665432 C58.4577778,12.5818519 61.022716,10.2251852 61.022716,7.30506173 C61.022716,3.78691358 57.2885185,1.07679012 57.1295062,0.963580247 C56.8287654,0.748395062 56.4251852,0.748395062 56.1244444,0.963580247 C55.9654321,1.07679012 52.2312346,3.78691358 52.2312346,7.30506173 C52.2312346,10.2251852 54.7961728,12.5818519 55.7623457,13.3665432 L55.7623457,14.481358 C55.72,14.4355556 55.6845679,14.3862963 55.6404938,14.3422222 C53.1524691,11.8541975 48.5964198,12.5783951 48.4028395,12.6112346 C48.0381481,12.6717284 47.752963,12.9569136 47.6924691,13.3216049 C47.6604938,13.514321 46.9362963,18.0712346 49.4234568,20.5592593 C50.9746914,22.1104938 53.3304938,22.412963 54.9309877,22.412963 C55.2420988,22.412963 55.5195062,22.4008642 55.7623457,22.3853086 L55.7623457,26.8117284 C55.667284,26.6976543 55.5739506,26.582716 55.4676543,26.4764198 C52.9804938,23.9892593 48.4235802,24.7134568 48.23,24.7454321 C47.8653086,24.8059259 47.5801235,25.0911111 47.5196296,25.4558025 C47.4876543,25.6485185 46.7634568,30.2054321 49.2506173,32.6934568 C50.8018519,34.2446914 53.1576543,34.5471605 54.7590123,34.5471605 C55.1461728,34.5471605 55.4858025,34.5290123 55.7623457,34.5074074 L55.7623457,40.2845679 C52.3435802,40.95 48.3907407,41.8720988 44.1120988,43.1467901 C44.0922222,42.9808642 44.0749383,42.8771605 44.0706173,42.8495062 C44.0101235,42.4848148 43.7249383,42.1996296 43.3602469,42.1391358 C43.2375309,42.1183951 41.5540741,41.851358 39.6018519,42.1166667 C39.5811111,42.1054321 39.567284,42.0864198 39.5448148,42.0760494 C37.9322222,41.3544444 36.2738272,40.6725926 34.597284,40.0149383 L34.597284,39.1196296 C34.9490123,39.1567901 35.4571605,39.1948148 36.067284,39.1948148 C37.8864198,39.1948148 40.5576543,38.8525926 42.3119753,37.0982716 C45.1292593,34.2809877 44.305679,29.0983951 44.2685185,28.8788889 C44.2080247,28.5141975 43.9228395,28.2290123 43.5581481,28.1685185 C43.338642,28.1322222 38.1569136,27.308642 35.3387654,30.1259259 C35.052716,30.4119753 34.8133333,30.7274074 34.597284,31.0540741 L34.597284,24.4248148 C35.6533333,23.577037 38.6641975,20.8669136 38.6641975,17.5077778 C38.6641975,13.522963 34.4166667,10.4412346 34.2360494,10.3116049 C33.9353086,10.0964198 33.5317284,10.0964198 33.2309877,10.3116049 C33.0503704,10.4403704 28.8028395,13.522963 28.8028395,17.5077778 C28.8028395,20.8669136 31.8137037,23.577037 32.8697531,24.4248148 L32.8697531,26.1169136 C32.7539506,25.9760494 32.637284,25.834321 32.5059259,25.702963 C29.688642,22.8848148 24.5060494,23.7101235 24.2865432,23.7464198 C23.9218519,23.8069136 23.6366667,24.0920988 23.5761728,24.4567901 C23.5398765,24.6762963 22.7154321,29.8580247 25.5335802,32.6761728 C27.2879012,34.4304938 29.9591358,34.772716 31.7782716,34.772716 C32.1939506,34.772716 32.5646914,34.7545679 32.8706173,34.7320988 L32.8706173,39.3641975 C32.2337037,39.125679 31.6045679,38.8724691 30.9633333,38.6451852 C30.9339506,38.6348148 30.9045679,38.64 30.8751852,38.6330864 C30.1233333,38.228642 29.312716,37.9650617 28.5176543,37.8069136 C22.3896296,35.765679 16.804321,34.4581481 12.2819753,33.6207407 L12.2819753,32.2259259 C12.4790123,32.2380247 12.6959259,32.2483951 12.945679,32.2483951 C14.2990123,32.2483951 16.2979012,31.9917284 17.6201235,30.6695062 C19.7348148,28.5548148 19.122963,24.705679 19.0961728,24.5423457 C19.035679,24.1776543 18.7504938,23.8924691 18.3858025,23.8319753 C18.2224691,23.8051852 14.402716,23.1993827 12.2819753,25.287284 L12.2819753,22.1588889 C12.5101235,22.1761728 12.7737037,22.1917284 13.0891358,22.1917284 C14.4424691,22.1917284 16.441358,21.9350617 17.7635802,20.6128395 C19.8782716,18.4981481 19.2664198,14.6490123 19.2396296,14.485679 C19.1791358,14.1209877 18.8939506,13.8358025 18.5292593,13.7753086 C18.3659259,13.7485185 14.5167901,13.1366667 12.4020988,15.251358 C12.3588889,15.2945679 12.3234568,15.342963 12.2819753,15.3879012 L12.2819753,11.4341975 C13.1392593,10.7246914 15.2090123,8.76382716 15.2090123,6.34061728 C15.2090123,3.34962963 12.0546914,1.06037037 11.9207407,0.964444444 C11.62,0.749259259 11.2164198,0.749259259 10.915679,0.964444444 C10.7817284,1.06037037 7.62654321,3.34962963 7.62654321,6.34061728 C7.62654321,8.76382716 9.6962963,10.7255556 10.5535802,11.4341975 L10.5535802,11.9345679 C8.41209877,9.98666667 4.73666667,10.5648148 4.57765432,10.5916049 C4.21296296,10.6520988 3.92777778,10.937284 3.86728395,11.3019753 C3.84049383,11.4644444 3.22864198,15.3144444 5.34333333,17.4291358 C6.66555556,18.751358 8.66444444,19.0080247 10.0177778,19.0080247 C10.211358,19.0080247 10.3902469,19.0019753 10.5535802,18.9941975 L10.5535802,22.1165432 C8.4362963,20.0096296 4.59753086,20.6197531 4.43419753,20.6474074 C4.06950617,20.7079012 3.78432099,20.9930864 3.72382716,21.3577778 C3.69703704,21.5202469 3.08518519,25.3702469 5.19987654,27.4849383 C6.52209877,28.8071605 8.52098765,29.0638272 9.87432099,29.0638272 C10.1309877,29.0638272 10.3522222,29.0534568 10.552716,29.0404938 L10.552716,33.311358 C4.66234568,32.3132099 0.967901235,32.1611111 0.901358025,32.1585185 C0.439876543,32.1490123 0.0233333333,32.5145679 0.00604938272,32.9907407 C-0.0112345679,33.4677778 0.361234568,33.8687654 0.838271605,33.8860494 C0.943703704,33.8895062 10.5146914,34.2818519 23.5390123,38.0644444 C23.4612346,38.1707407 23.3990123,38.29 23.3765432,38.4265432 C23.3480247,38.5959259 22.8597531,41.7061728 23.9209877,44.4145679 C14.6040741,41.1945679 6.39506173,39.6346914 0.988641975,38.8888889 C0.518518519,38.8258025 0.0795061728,39.1541975 0.014691358,39.6269136 C-0.0501234568,40.0996296 0.28,40.5360494 0.752716049,40.6008642 C6.50135802,41.3933333 15.4630864,43.1174074 25.5474074,46.8265432 C26.6751852,47.8471605 28.1175309,48.3483951 29.4769136,48.5722222 C26.9949383,49.6861728 24.5838272,50.8744444 22.2479012,52.1396296 C15.4518519,49.4839506 8.31617284,47.4211111 1.03444444,46.0098765 C0.565185185,45.9217284 0.112345679,46.2259259 0.0216049383,46.694321 C-0.0691358025,47.162716 0.237654321,47.6164198 0.706049383,47.7071605 C7.40703704,49.0060494 13.9792593,50.8701235 20.2723457,53.2397531 C18.0124691,54.5282716 15.8234568,55.8885185 13.711358,57.3196296 C9.62283951,55.8254321 5.37530864,54.5265432 1.07765432,53.4635802 C0.615308642,53.3477778 0.145185185,53.6312346 0.0311111111,54.0944444 C-0.0838271605,54.5576543 0.198765432,55.0269136 0.661975309,55.1409877 C4.49728395,56.0890123 8.28765432,57.2358025 11.9622222,58.5355556 C7.74148148,61.5351852 3.83012346,64.8225926 0.258395062,68.394321 C-0.0786419753,68.7348148 -0.0786419753,69.2809877 0.259259259,69.6188889 Z M58.9901235,31.5397531 C60.3875309,30.1432099 62.9083951,30.1380247 64.0845679,30.2235802 C64.185679,31.5916049 64.067284,34.007037 62.7623457,35.3119753 C61.3675309,36.7076543 58.8544444,36.7137037 57.6730864,36.6281481 C57.5883951,35.4493827 57.5953086,32.9345679 58.9901235,31.5397531 Z M55.7346914,20.654321 C54.5533333,20.7390123 52.0402469,20.7320988 50.6454321,19.3381481 C49.2480247,17.9407407 49.2437037,15.4207407 49.3292593,14.2437037 C50.6990123,14.144321 53.1135802,14.2618519 54.4176543,15.5659259 C55.8124691,16.9598765 55.8202469,19.4746914 55.7346914,20.654321 Z M55.5618519,32.7876543 C54.3796296,32.8706173 51.8682716,32.8654321 50.4725926,31.4714815 C49.0751852,30.0740741 49.0708642,27.5540741 49.1564198,26.3761728 C50.5253086,26.2750617 52.9398765,26.3934568 54.2448148,27.6983951 C55.6404938,29.0940741 55.6474074,31.6080247 55.5618519,32.7876543 Z M59.1620988,19.4064198 C60.5603704,18.0090123 63.0803704,18.0038272 64.2565432,18.0902469 C64.3576543,19.4582716 64.2392593,21.8737037 62.934321,23.178642 C61.5395062,24.574321 59.027284,24.5812346 57.8450617,24.4948148 C57.7603704,23.3151852 57.767284,20.8012346 59.1620988,19.4064198 Z M53.9587654,7.30592593 C53.9587654,5.32950617 55.737284,3.54493827 56.63,2.77320988 C57.6687654,3.66851852 59.2934568,5.46 59.2934568,7.30592593 C59.2934568,9.27888889 57.5209877,11.0617284 56.6265432,11.8351852 C55.7320988,11.0617284 53.9587654,9.27888889 53.9587654,7.30592593 Z M36.5616049,31.347037 C38.2511111,29.6583951 41.3120988,29.6955556 42.6369136,29.8018519 C42.7466667,31.1249383 42.7864198,34.1790123 41.0908642,35.8754321 C39.401358,37.5640741 36.3403704,37.528642 35.0155556,37.4206173 C34.9049383,36.0975309 34.8651852,33.0434568 36.5616049,31.347037 Z M30.5312346,17.5069136 C30.5312346,15.1191358 32.7202469,12.9811111 33.7339506,12.1195062 C34.7467901,12.9811111 36.9366667,15.1191358 36.9366667,17.5069136 C36.9366667,19.8946914 34.7476543,22.032716 33.7339506,22.894321 C32.7202469,22.0335802 30.5312346,19.8946914 30.5312346,17.5069136 Z M32.8291358,32.9985185 C31.5017284,33.105679 28.4433333,33.1419753 26.7546914,31.4533333 C25.0660494,29.7646914 25.1023457,26.7054321 25.2095062,25.3797531 C26.5360494,25.2725926 29.5953086,25.2362963 31.2839506,26.9249383 C32.5465432,28.1875309 32.8446914,30.2149383 32.8697531,31.7125926 L32.8697531,31.7955556 C32.8740741,32.265679 32.8541975,32.6830864 32.8291358,32.9985185 Z M13.4797531,26.53 C14.5461728,25.4635802 16.4517284,25.4134568 17.4516049,25.4730864 C17.5077778,26.472963 17.4559259,28.3888889 16.397284,29.4475309 C15.33,30.5148148 13.4244444,30.5649383 12.4228395,30.5044444 C12.3640741,29.5062963 12.4124691,27.5981481 13.4797531,26.53 Z M13.6232099,16.4733333 C14.6896296,15.4069136 16.5951852,15.3567901 17.5950617,15.4164198 C17.6512346,16.4162963 17.5993827,18.3322222 16.5407407,19.3908642 C15.474321,20.457284 13.567037,20.5065432 12.5688889,20.4477778 C12.512716,19.4479012 12.5645679,17.5328395 13.6232099,16.4733333 Z M10.3954321,27.3181481 C9.39555556,27.3717284 7.47962963,27.3224691 6.42098765,26.2638272 C5.3545679,25.1974074 5.30530864,23.2909877 5.36407407,22.2919753 C6.36222222,22.2349383 8.27901235,22.2867901 9.33851852,23.3462963 C10.4058025,24.4135802 10.4541975,26.3191358 10.3954321,27.3181481 Z M9.35407407,6.34061728 C9.35407407,4.8308642 10.6693827,3.44728395 11.4169136,2.78358025 C12.1644444,3.44814815 13.4797531,4.8308642 13.4797531,6.34061728 C13.4797531,7.85037037 12.1644444,9.23395062 11.4169136,9.89765432 C10.6693827,9.23395062 9.35407407,7.85037037 9.35407407,6.34061728 Z M10.5388889,17.2623457 C9.53814815,17.3185185 7.62308642,17.2666667 6.56444444,16.2080247 C5.49802469,15.1416049 5.44876543,13.2351852 5.50753086,12.2361728 C6.50481481,12.1782716 8.42246914,12.2309877 9.48197531,13.2904938 C10.3850617,14.1935802 10.5561728,15.6938272 10.552716,16.7403704 L10.552716,16.882963 C10.5501235,17.018642 10.5458025,17.1474074 10.5388889,17.2623457 Z M25.0107407,39.3503704 C26.3390123,39.2449383 29.3974074,39.2077778 31.0851852,40.8955556 C32.7738272,42.5841975 32.7375309,45.6434568 32.6303704,46.9691358 C31.3055556,47.0780247 28.2445679,47.1134568 26.5559259,45.4239506 C24.867284,43.7344444 24.9035802,40.6760494 25.0107407,39.3503704 Z M42.4364198,43.7733333 C42.5435802,45.0990123 42.5798765,48.1591358 40.8912346,49.8477778 C39.2025926,51.5355556 36.1433333,51.4975309 34.8167901,51.392963 C34.7096296,50.067284 34.6733333,47.0071605 36.3619753,45.3185185 C38.0514815,43.6298765 41.107284,43.6661728 42.4364198,43.7733333 Z M36.9530864,42.8555556 C36.2971605,43.1580247 35.6758025,43.5607407 35.14,44.0965432 C34.9395062,44.297037 34.7623457,44.511358 34.597284,44.7325926 L34.597284,41.8617284 C35.3958025,42.1806173 36.1701235,42.5219753 36.9530864,42.8555556 Z" id="Shape"></path>
                    <path d="M28.2480247,69.8720988 C28.4087654,69.8720988 28.5712346,69.8280247 28.7155556,69.7338272 C43.1804938,60.4082716 58.3030864,56.1080247 68.442716,54.1428395 C68.9111111,54.0520988 69.217037,53.5983951 69.1271605,53.13 C69.0364198,52.6616049 68.582716,52.3565432 68.114321,52.4455556 C57.8260494,54.4401235 42.4761728,58.8060494 27.7796296,68.2811111 C27.378642,68.5395062 27.2628395,69.0744444 27.5220988,69.4754321 C27.6854321,69.7320988 27.9637037,69.8720988 28.2480247,69.8720988 Z" id="Shape"></path>
                    <path d="M69.1167901,60.5309877 C69.0018519,60.0669136 68.53,59.7825926 68.0702469,59.9001235 C59.8422222,61.9344444 51.9823457,64.7603704 44.7092593,68.2975309 C44.2797531,68.5066667 44.1017284,69.0234568 44.31,69.452963 C44.4595062,69.7606173 44.7671605,69.938642 45.0877778,69.938642 C45.2148148,69.938642 45.3435802,69.9109877 45.4654321,69.851358 C52.6296296,66.3669136 60.3737037,63.5824691 68.4850617,61.5766667 C68.9482716,61.4634568 69.2308642,60.9950617 69.1167901,60.5309877 Z" id="Shape"></path>
                </g>
            </g>
        </g>
    </g>
</svg>