<?xml version="1.0" encoding="UTF-8"?>
<svg width="79px" height="75px" viewBox="0 0 79 75" version="1.1" xmlns="http://www.w3.org/2000/svg">
    <!-- Generator: Sketch 51.2 (57519) - http://www.bohemiancoding.com/sketch -->
    <title>Group 24</title>
    <desc>Created with Sketch.</desc>
    <defs></defs>
    <g id="old-search-ui-copy" stroke="none" stroke-width="1" fill="none" fill-rule="evenodd">
        <g id="landing-page-candidat-6-copy" transform="translate(-827.000000, -1807.000000)" fill-rule="nonzero">
            <g id="Group-24" transform="translate(827.000000, 1807.000000)">
                <circle id="Oval-3-Copy-4" fill="#6A89CC" opacity="0.1" cx="55" cy="24" r="24"></circle>
                <g id="noun_textiles_1241517" transform="translate(0.000000, 5.000000)" fill="#334051">
                    <path d="M68.2906173,29.9816049 C69.5990123,27.5255556 69.8712346,24.7065432 69.0588889,22.045679 C68.9197531,21.5902469 68.4383951,21.3292593 67.9803704,21.4718519 L48.2585185,27.4901235 C46.6934568,25.5188889 45.1232099,23.2330864 43.4648148,20.5117284 L49.337037,2.42061728 C49.4848148,1.96691358 49.2359259,1.47950617 48.781358,1.3317284 C46.1360494,0.473580247 43.312716,0.694814815 40.8341975,1.96 C38.355679,3.22345679 36.5175309,5.37703704 35.6585185,8.02407407 L35.3707407,8.90987654 C23.8734568,-0.589382716 1.86061728,0.812345679 0.912592593,0.875432099 C0.459753086,0.907407407 0.108024691,1.28419753 0.108024691,1.73790123 L0.108024691,31.578642 C0.108024691,31.8180247 0.207407407,32.0479012 0.383703704,32.2112346 C0.559135802,32.3745679 0.795925926,32.4592593 1.03444444,32.4402469 C1.14938272,32.4333333 11.8637037,31.7220988 20.7104938,35.8953086 L13.724321,38.027284 C11.1541975,36.3438272 7.98604938,36.1122222 5.16358025,37.4249383 C1.58839506,39.0876543 -0.475308642,43.111358 0.255802469,46.9916049 C0.722469136,49.4675309 2.21753086,51.6297531 4.35555556,52.9234568 C5.74345679,53.764321 7.32580247,54.1955556 8.91765432,54.1955556 C9.77925926,54.1955556 10.644321,54.0693827 11.484321,53.812716 C14.0017284,53.0453086 15.9971605,51.2374074 17.0160494,48.8176543 L23.0101235,46.9881481 L21.0708642,52.9606173 C18.6346914,53.9362963 16.791358,55.8980247 15.977284,58.4033333 C15.251358,60.6398765 15.4397531,63.0259259 16.5079012,65.1198765 C17.5760494,67.2155556 19.3969136,68.7693827 21.6334568,69.4944444 C22.5330864,69.7865432 23.4465432,69.9248148 24.3453086,69.9248148 C28.0579012,69.9248148 31.5190123,67.5560494 32.7254321,63.8382716 C33.538642,61.3346914 33.1990123,58.6625926 31.7998765,56.4398765 L33.5092593,51.1181481 C41.448642,64.0811111 56.5625926,69.9265432 68.3779012,69.9265432 C68.8558025,69.9265432 69.2420988,69.5402469 69.2420988,69.0623457 L69.2420988,39.2216049 C69.2420988,38.7437037 68.8558025,38.3574074 68.3779012,38.3574074 C64.75,38.3574074 61.4885185,37.6323457 58.4577778,36.1709877 L62.1358025,35.0483951 C64.7975309,34.2369136 66.9839506,32.4376543 68.2906173,29.9816049 Z M46.4920988,28.0293827 L40.4237037,29.881358 L42.7682716,22.6583951 C44.0377778,24.6711111 45.2692593,26.4461728 46.4920988,28.0293827 Z M41.6197531,3.4991358 C43.4267901,2.57876543 45.4559259,2.32037037 47.4124691,2.74901235 L38.4066667,30.4958025 L29.2764198,33.2819753 L37.3022222,8.55641975 C38.018642,6.35012346 39.5525926,4.55345679 41.6197531,3.4991358 Z M1.83641975,30.6720988 L1.83641975,2.56061728 C5.99320988,2.39814815 25.1697531,2.15530864 34.7960494,10.6797531 L27.2602469,33.897284 L23.0861728,35.1711111 C14.9385185,30.6461728 4.91555556,30.5709877 1.83641975,30.6720988 Z M30.1432099,57.0681481 C31.43,58.9097531 31.7730864,61.1834568 31.0834568,63.3059259 C29.8787654,67.0159259 25.882716,69.0554321 22.1692593,67.8516049 C20.3717284,67.2682716 18.9095062,66.0195062 18.0496296,64.3360494 C17.1914815,62.6525926 17.0402469,60.7349383 17.6235802,58.9374074 C18.3132099,56.8140741 19.9258025,55.1746914 22.0482716,54.4418519 C22.3040741,54.3528395 22.5037037,54.1497531 22.5875309,53.891358 L25.0288889,46.3728395 L34.1107407,43.601358 L30.0291358,56.3085185 C29.9453086,56.5651852 29.9876543,56.8460494 30.1432099,57.0681481 Z M67.5154321,40.0737037 L67.5154321,68.1877778 C55.9334568,67.9034568 41.3795062,61.9223457 34.2109877,48.9490123 C34.2101235,48.9481481 34.2092593,48.947284 34.2083951,48.9464198 L36.1225926,42.9869136 L56.1158025,36.8865432 C59.5907407,38.8958025 63.3301235,39.9483951 67.5154321,40.0737037 Z M16.1138272,47.2862963 C15.8545679,47.3649383 15.6480247,47.5611111 15.5546914,47.8151852 C14.7820988,49.9246914 13.1159259,51.5079012 10.981358,52.1595062 C9.06197531,52.7462963 6.97148148,52.4853086 5.2517284,51.4448148 C3.50691358,50.3896296 2.33679012,48.6940741 1.95567901,46.6709877 C1.36802469,43.5564198 3.02469136,40.3260494 5.89469136,38.9917284 C6.87296296,38.5371605 7.90308642,38.3124691 8.9237037,38.3124691 C10.3850617,38.3124691 11.8265432,38.7722222 13.072716,39.6753086 C13.2922222,39.834321 13.5730864,39.8809877 13.8323457,39.8014815 L67.62,23.3895062 C68.0149383,25.3538272 67.7211111,27.3769136 66.7679012,29.1692593 C65.6764198,31.2182716 63.8538272,32.7185185 61.6345679,33.3969136 L16.1138272,47.2862963 Z" id="Shape"></path>
                    <path d="M10.977037,41.4875309 C9.91753086,40.9249383 8.70074074,40.8048148 7.55567901,41.1565432 C6.40888889,41.5065432 5.46604938,42.2825926 4.90259259,43.3412346 C4.3391358,44.3998765 4.22160494,45.6149383 4.57160494,46.7617284 C4.92160494,47.9085185 5.69765432,48.851358 6.7554321,49.4148148 C7.41481481,49.765679 8.13469136,49.9437037 8.86061728,49.9437037 C9.30135802,49.9437037 9.74296296,49.8780247 10.1767901,49.7458025 C11.3235802,49.3966667 12.2664198,48.6206173 12.8298765,47.5619753 C13.3933333,46.5033333 13.5108642,45.2882716 13.1608642,44.1406173 C12.8117284,42.9938272 12.0365432,42.0509877 10.977037,41.4875309 Z M11.3045679,46.7496296 C10.9580247,47.4012346 10.3790123,47.8791358 9.67209877,48.094321 C8.96518519,48.308642 8.21851852,48.2369136 7.56777778,47.8903704 C6.91617284,47.5438272 6.4391358,46.9639506 6.22308642,46.2579012 C6.00790123,45.552716 6.08049383,44.8051852 6.42703704,44.1535802 C6.77358025,43.5019753 7.35345679,43.0249383 8.05950617,42.8088889 C8.32740741,42.7276543 8.59703704,42.6887654 8.86407407,42.6887654 C10.0480247,42.6887654 11.1455556,43.4561728 11.5085185,44.6453086 C11.7237037,45.351358 11.6511111,46.0988889 11.3045679,46.7496296 Z" id="Shape"></path>
                    <path d="M26.4254321,57.2124691 C25.3659259,56.6481481 24.1525926,56.5297531 23.0040741,56.8814815 C21.857284,57.2306173 20.9144444,58.0066667 20.3509877,59.0653086 C19.7883951,60.1248148 19.67,61.3390123 20.02,62.4866667 C20.37,63.6334568 21.1460494,64.5762963 22.2046914,65.1397531 C22.8640741,65.4906173 23.5830864,65.668642 24.3098765,65.668642 C24.7506173,65.668642 25.1930864,65.602963 25.6260494,65.4707407 C27.9930864,64.7482716 29.3325926,62.2334568 28.6101235,59.8655556 C28.2601235,58.7187654 27.4849383,57.7759259 26.4254321,57.2124691 Z M25.121358,63.8192593 C24.4144444,64.0335802 23.668642,63.9618519 23.0161728,63.6153086 C22.3645679,63.2687654 21.8875309,62.6888889 21.6714815,61.9828395 C21.227284,60.5258025 22.0508642,58.9788889 23.5079012,58.5346914 C23.7749383,58.4534568 24.0471605,58.4128395 24.3185185,58.4128395 C24.7653086,58.4128395 25.2069136,58.5225926 25.6130864,58.738642 C26.2638272,59.0851852 26.7417284,59.6641975 26.9577778,60.3711111 C27.4019753,61.827284 26.5783951,63.3741975 25.121358,63.8192593 Z" id="Shape"></path>
                    <path d="M30.6280247,36.4302469 C30.0550617,36.7223457 29.6290123,37.2201235 29.4302469,37.8319753 C29.2314815,38.4446914 29.2824691,39.0980247 29.5754321,39.672716 C30.0006173,40.5066667 30.8492593,40.9871605 31.7255556,40.9871605 C32.0937037,40.9871605 32.467037,40.9024691 32.817037,40.7235802 C34.0001235,40.1212346 34.4728395,38.6667901 33.8696296,37.4811111 C33.2664198,36.2971605 31.8093827,35.8235802 30.6280247,36.4302469 Z M32.0314815,39.1844444 C31.6953086,39.3555556 31.2865432,39.2207407 31.1145679,38.8871605 C31.0316049,38.7246914 31.0177778,38.5406173 31.0739506,38.3660494 C31.1292593,38.1932099 31.2502469,38.0523457 31.412716,37.9693827 C31.412716,37.9693827 31.412716,37.9693827 31.4135802,37.9693827 C31.5120988,37.9183951 31.6175309,37.8950617 31.7212346,37.8950617 C31.9692593,37.8950617 32.208642,38.0307407 32.3287654,38.2658025 C32.5007407,38.6019753 32.3676543,39.0141975 32.0314815,39.1844444 Z" id="Shape"></path>
                </g>
            </g>
        </g>
    </g>
</svg>