<?xml version="1.0" encoding="UTF-8"?>
<svg width="101px" height="70px" viewBox="0 0 101 70" version="1.1" xmlns="http://www.w3.org/2000/svg">
    <!-- Generator: Sketch 51.2 (57519) - http://www.bohemiancoding.com/sketch -->
    <title>Group 12</title>
    <desc>Created with Sketch.</desc>
    <defs></defs>
    <g id="old-search-ui-copy" stroke="none" stroke-width="1" fill="none" fill-rule="evenodd">
        <g id="landing-page-candidat-6-copy" transform="translate(-284.000000, -1812.000000)" fill-rule="nonzero">
            <g id="Group-12" transform="translate(284.000000, 1812.000000)">
                <circle id="Oval-3-Copy-3" fill="#6A89CC" opacity="0.1" cx="32" cy="33" r="32"></circle>
                <g id="noun_Shop_1908190" transform="translate(31.000000, 0.000000)" fill="#334051">
                    <path d="M69.8903333,18.1731667 L62.3525,2.0195 C61.7745516,0.789592957 60.5392614,0.00316879878 59.1803333,0 L11.9,0 C10.6074919,-2.87280191e-05 9.42017381,0.712272419 8.81183333,1.85266667 L0.137666667,18.1171667 C-0.0553849403,18.4787319 -0.0445403828,18.9150826 0.166233649,19.2666116 C0.377007681,19.6181406 0.756790655,19.8332787 1.16666667,19.8333333 L1.16666667,30.3333333 C1.17016467,33.1042843 3.1191804,35.4918286 5.83333333,36.05 L5.83333333,68.8333333 C5.83333333,69.4776655 6.35566779,70 7,70 L63,70 C63.6443322,70 64.1666667,69.4776655 64.1666667,68.8333333 L64.1666667,36.05 C66.8808196,35.4918286 68.8298353,33.1042843 68.8333333,30.3333333 L68.8333333,19.8333333 C69.2320691,19.8332816 69.6031634,19.6295945 69.8173114,19.2932452 C70.0314593,18.9568958 70.0589986,18.534473 69.8903333,18.1731667 Z M10.8698333,2.9505 C11.072849,2.57027266 11.4689686,2.33295981 11.9,2.33333333 L59.1803333,2.33333333 C59.633504,2.3333921 60.0456421,2.59586861 60.2373333,3.0065 L67.0016667,17.5 L3.1115,17.5 L10.8698333,2.9505 Z M57.1666667,30.3333333 C57.1666667,32.26633 55.5996633,33.8333333 53.6666667,33.8333333 C51.73367,33.8333333 50.1666667,32.26633 50.1666667,30.3333333 L50.1666667,19.8333333 L57.1666667,19.8333333 L57.1666667,30.3333333 Z M47.8333333,30.3333333 C47.8333333,32.26633 46.26633,33.8333333 44.3333333,33.8333333 C42.4003367,33.8333333 40.8333333,32.26633 40.8333333,30.3333333 L40.8333333,19.8333333 L47.8333333,19.8333333 L47.8333333,30.3333333 Z M38.5,30.3333333 C38.5,32.26633 36.9329966,33.8333333 35,33.8333333 C33.0670034,33.8333333 31.5,32.26633 31.5,30.3333333 L31.5,19.8333333 L38.5,19.8333333 L38.5,30.3333333 Z M29.1666667,30.3333333 C29.1666667,32.26633 27.5996633,33.8333333 25.6666667,33.8333333 C23.73367,33.8333333 22.1666667,32.26633 22.1666667,30.3333333 L22.1666667,19.8333333 L29.1666667,19.8333333 L29.1666667,30.3333333 Z M19.8333333,30.3333333 C19.8333333,32.26633 18.26633,33.8333333 16.3333333,33.8333333 C14.4003367,33.8333333 12.8333333,32.26633 12.8333333,30.3333333 L12.8333333,19.8333333 L19.8333333,19.8333333 L19.8333333,30.3333333 Z M3.5,30.3333333 L3.5,19.8333333 L10.5,19.8333333 L10.5,30.3333333 C10.5,32.26633 8.93299662,33.8333333 7,33.8333333 C5.06700338,33.8333333 3.5,32.26633 3.5,30.3333333 Z M12.8333333,67.6666667 L12.8333333,42 L25.6666667,42 L25.6666667,67.6666667 L12.8333333,67.6666667 Z M28,67.6666667 L28,40.8333333 C28,40.1890011 27.4776655,39.6666667 26.8333333,39.6666667 L11.6666667,39.6666667 C11.0223345,39.6666667 10.5,40.1890011 10.5,40.8333333 L10.5,67.6666667 L8.16666667,67.6666667 L8.16666667,36.05 C9.57074991,35.7559208 10.8169848,34.9541764 11.6666667,33.7983333 C12.7549198,35.287719 14.4887292,36.1681952 16.3333333,36.1681952 C18.1779375,36.1681952 19.9117469,35.287719 21,33.7983333 C22.0882531,35.287719 23.8220625,36.1681952 25.6666667,36.1681952 C27.5112708,36.1681952 29.2450802,35.287719 30.3333333,33.7983333 C31.4215864,35.287719 33.1553958,36.1681952 35,36.1681952 C36.8446042,36.1681952 38.5784136,35.287719 39.6666667,33.7983333 C40.7549198,35.287719 42.4887292,36.1681952 44.3333333,36.1681952 C46.1779375,36.1681952 47.9117469,35.287719 49,33.7983333 C50.0882531,35.287719 51.8220625,36.1681952 53.6666667,36.1681952 C55.5112708,36.1681952 57.2450802,35.287719 58.3333333,33.7983333 C59.1830152,34.9541764 60.4292501,35.7559208 61.8333333,36.05 L61.8333333,67.6666667 L28,67.6666667 Z M66.5,30.3333333 C66.5,32.26633 64.9329966,33.8333333 63,33.8333333 C61.0670034,33.8333333 59.5,32.26633 59.5,30.3333333 L59.5,19.8333333 L66.5,19.8333333 L66.5,30.3333333 Z" id="Shape"></path>
                    <path d="M58.3333333,39.6666667 L30.3333333,39.6666667 C29.6890011,39.6666667 29.1666667,40.1890011 29.1666667,40.8333333 L29.1666667,54.8333333 C29.1666667,55.4776655 29.6890011,56 30.3333333,56 L58.3333333,56 C58.9776655,56 59.5,55.4776655 59.5,54.8333333 L59.5,40.8333333 C59.5,40.1890011 58.9776655,39.6666667 58.3333333,39.6666667 Z M57.1666667,53.6666667 L31.5,53.6666667 L31.5,42 L57.1666667,42 L57.1666667,53.6666667 Z" id="Shape"></path>
                </g>
            </g>
        </g>
    </g>
</svg>