<?xml version="1.0" encoding="UTF-8"?>
<svg width="82px" height="76px" viewBox="0 0 82 76" version="1.1" xmlns="http://www.w3.org/2000/svg">
    <!-- Generator: Sketch 51.2 (57519) - http://www.bohemiancoding.com/sketch -->
    <title>Group 11</title>
    <desc>Created with Sketch.</desc>
    <defs></defs>
    <g id="old-search-ui-copy" stroke="none" stroke-width="1" fill="none" fill-rule="evenodd">
        <g id="landing-page-candidat-6-copy" transform="translate(-1070.000000, -1623.000000)" fill-rule="nonzero">
            <g id="Group-11" transform="translate(1070.000000, 1623.000000)">
                <circle id="Oval-3-Copy-2" fill="#6A89CC" opacity="0.06" cx="54.5" cy="27.5" r="27.5"></circle>
                <g id="noun_tools_1219895" transform="translate(0.000000, 6.000000)" fill="#334051">
                    <path d="M26.7417284,14.1149383 C26.7417284,7.31888889 21.6524691,1.63160494 14.9039506,0.884074074 C14.6524691,0.856419753 14.415679,0.935925926 14.2324691,1.09925926 C14.0492593,1.26259259 13.9446914,1.49765432 13.9446914,1.74308642 L13.9446914,13.2498765 L11.6925926,13.2498765 L11.6925926,3.7117284 C11.6925926,3.4662963 11.5880247,3.23123457 11.4048148,3.06790123 C11.2216049,2.9045679 10.981358,2.82506173 10.7333333,2.85271605 C5.36580247,3.44728395 1.30061728,7.88580247 1.12345679,13.2507407 L0.972222222,13.2507407 C0.494320988,13.2507407 0.108024691,13.637037 0.108024691,14.1149383 C0.108024691,19.4660494 3.36604938,24.3211111 8.27469136,26.3830864 L7.54703704,63.9281481 C7.51592593,65.52 8.11222222,67.0219753 9.22703704,68.1583951 C10.3418519,69.2948148 11.8325926,69.921358 13.4244444,69.921358 C15.0162963,69.921358 16.5061728,69.295679 17.6209877,68.1592593 C18.7358025,67.0237037 19.3320988,65.52 19.3018519,63.9281481 L18.5733333,26.3830864 C23.4845679,24.3211111 26.7417284,19.4669136 26.7417284,14.1149383 Z M9.96419753,4.72888889 L9.96419753,13.2507407 L2.85012346,13.2507407 C3.01345679,9.09395062 5.95432099,5.60777778 9.96419753,4.72888889 Z M17.4023457,24.9874074 C17.0566667,25.1144444 16.8285185,25.4471605 16.8354321,25.8161728 L17.5751852,63.962716 C17.5967901,65.0861728 17.1750617,66.1465432 16.388642,66.9493827 C15.601358,67.7522222 14.5496296,68.192963 13.4253086,68.192963 C12.3009877,68.192963 11.2483951,67.7504938 10.4611111,66.9485185 C9.67469136,66.1465432 9.25382716,65.0861728 9.2754321,63.962716 L10.014321,25.8161728 C10.0212346,25.4471605 9.79308642,25.1144444 9.44740741,24.9874074 C5.16790123,23.4214815 2.20802469,19.4660494 1.86839506,14.9791358 L14.8080247,14.9791358 C15.2859259,14.9791358 15.6722222,14.5928395 15.6722222,14.1149383 L15.6722222,2.74901235 C21.0604938,3.80246914 25.0133333,8.52876543 25.0133333,14.1149383 C25.0133333,18.952716 21.9549383,23.3212346 17.4023457,24.9874074 Z" id="Shape"></path>
                    <path d="M53.4566667,9.28666667 C56.9583951,7.62567901 65.117284,11.2838272 67.965679,12.8333333 C68.2914815,13.011358 68.6976543,12.9595062 68.9707407,12.7054321 C69.2420988,12.4496296 69.3198765,12.048642 69.1634568,11.7107407 C64.0992593,0.820987654 51.5658025,0.69654321 51.0351852,0.69654321 L44.4180247,0.69654321 C43.2928395,0.69654321 42.3776543,1.65925926 42.3776543,2.9054321 C42.3776543,3.13271605 42.2350617,3.3237037 42.065679,3.3237037 L38.5371605,3.3237037 C38.447284,3.3237037 38.3504938,3.27962963 38.2787654,3.20703704 C38.2312346,3.15777778 38.1750617,3.07654321 38.1785185,2.95901235 C38.1923457,2.36271605 37.9676543,1.78283951 37.5614815,1.3662963 C37.178642,0.974814815 36.6730864,0.758765432 36.1381481,0.758765432 L30.3134568,0.758765432 C29.8355556,0.758765432 29.4492593,1.14506173 29.4492593,1.62296296 L29.4492593,13.5903704 C29.4492593,14.0682716 29.8355556,14.4545679 30.3134568,14.4545679 L36.1381481,14.4545679 C37.2633333,14.4545679 38.1785185,13.4918519 38.1785185,12.3079012 C38.1785185,12.0814815 38.3211111,11.8904938 38.4904938,11.8904938 L42.065679,11.8904938 C42.2350617,11.8904938 42.3776543,12.0823457 42.3776543,12.3079012 L42.3776543,18.4255556 C41.9740741,18.4938272 41.6603704,18.8248148 41.6525926,19.2465432 L40.8834568,63.568642 C40.8540741,65.2676543 41.4935802,66.8698765 42.6853086,68.0823457 C43.8761728,69.2930864 45.4671605,69.9611111 47.1661728,69.9611111 C48.8651852,69.9611111 50.457037,69.2939506 51.6479012,68.0823457 C52.8387654,66.8707407 53.4782716,65.2676543 53.4488889,63.568642 L52.6797531,19.2465432 C52.6719753,18.8058025 52.3306173,18.4583951 51.9002469,18.414321 L51.9002469,11.4039506 C52.1102469,10.377284 52.6201235,9.68419753 53.4566667,9.28666667 Z M42.0648148,10.1612346 L38.4896296,10.1612346 C37.3644444,10.1612346 36.4492593,11.1239506 36.4492593,12.307037 C36.4492593,12.534321 36.3066667,12.7253086 36.137284,12.7253086 L31.1767901,12.7253086 L31.1767901,2.48716049 L36.137284,2.48716049 C36.2219753,2.48716049 36.2859259,2.53469136 36.3248148,2.57444444 C36.4077778,2.66 36.452716,2.78444444 36.4501235,2.91753086 C36.4362963,3.47753086 36.6480247,4.00987654 37.042963,4.41432099 C37.4379012,4.81876543 37.9832099,5.05123457 38.5371605,5.05123457 L42.065679,5.05123457 C43.1908642,5.05123457 44.1060494,4.08851852 44.1060494,2.84148148 C44.1060494,2.61506173 44.248642,2.42407407 44.4180247,2.42407407 L51.034321,2.42407407 C51.1432099,2.42407407 61.0123457,2.53987654 66.2312346,10.0549383 C62.6698765,8.4362963 56.2774074,6.03382716 52.7169136,7.72506173 C51.3428395,8.37666667 50.4916049,9.53209877 50.185679,11.1593827 C50.1753086,11.2120988 50.1701235,11.2648148 50.1701235,11.3192593 L50.1701235,18.397037 L44.104321,18.397037 L44.104321,12.307037 C44.1051852,11.1239506 43.19,10.1612346 42.0648148,10.1612346 Z M50.4138272,66.8698765 C49.5504938,67.7487654 48.3967901,68.2318519 47.1653086,68.2318519 C45.9338272,68.2318519 44.7801235,67.7479012 43.9167901,66.8698765 C43.0534568,65.9918519 42.5902469,64.8303704 42.6109877,63.5988889 L43.3645679,20.1254321 L50.9651852,20.1254321 L51.7187654,63.5988889 C51.7403704,64.8303704 51.2771605,65.9918519 50.4138272,66.8698765 Z" id="Shape"></path>
                    <path d="M13.5877778,16.8458025 C11.8792593,16.8458025 10.4904938,18.2345679 10.4904938,19.9422222 C10.4904938,21.6498765 11.8792593,23.038642 13.5877778,23.038642 C15.2954321,23.038642 16.6841975,21.6498765 16.6841975,19.9422222 C16.6841975,18.2345679 15.2945679,16.8458025 13.5877778,16.8458025 Z M13.5877778,21.3102469 C12.8333333,21.3102469 12.2188889,20.6966667 12.2188889,19.9422222 C12.2188889,19.1877778 12.8333333,18.5741975 13.5877778,18.5741975 C14.3422222,18.5741975 14.9558025,19.1877778 14.9558025,19.9422222 C14.9558025,20.6966667 14.3422222,21.3102469 13.5877778,21.3102469 Z" id="Shape"></path>
                </g>
            </g>
        </g>
    </g>
</svg>