<?xml version="1.0" encoding="UTF-8"?>
<svg width="69px" height="80px" viewBox="0 0 69 80" version="1.1" xmlns="http://www.w3.org/2000/svg">
    <!-- Generator: Sketch 51.2 (57519) - http://www.bohemiancoding.com/sketch -->
    <title>Group 4</title>
    <desc>Created with Sketch.</desc>
    <defs></defs>
    <g id="old-search-ui-copy" stroke="none" stroke-width="1" fill="none" fill-rule="evenodd">
        <g id="landing-page-candidat-6-copy" transform="translate(-564.000000, -1619.000000)" fill-rule="nonzero">
            <g id="Group-4" transform="translate(564.000000, 1619.000000)">
                <circle id="Oval-3-Copy" fill="#6A89CC" opacity="0.1" cx="34" cy="26" r="26"></circle>
                <g id="noun_Hotel_959371" transform="translate(0.000000, 10.000000)" fill="#334051">
                    <path d="M1.22278481,69.825 L67.864557,69.825 C68.3886076,69.825 68.7379747,69.475 68.7379747,68.95 C68.7379747,68.425 68.3886076,68.075 67.864557,68.075 L64.5455696,68.075 L64.5455696,65.45 C66.3797468,65.0125 67.6898734,63.4375 67.6898734,61.5125 L67.6898734,59.0625 C67.6898734,56.7875 65.8556962,55.0375 63.6721519,55.0375 C61.4886076,55.0375 59.6544304,56.875 59.6544304,59.0625 L59.6544304,61.5125 C59.6544304,63.4375 61.0518987,65.1 62.7987342,65.45 L62.7987342,68.075 L57.9949367,68.075 L57.9949367,52.9375 L58.7810127,52.9375 C59.3050633,52.9375 59.6544304,52.5875 59.6544304,52.0625 L59.6544304,46.9 C59.6544304,46.375 59.3050633,46.025 58.7810127,46.025 L56.5101266,46.025 C56.5101266,46.025 56.5101266,46.025 56.5101266,45.9375 L56.5101266,22.75 L57.3835443,22.75 C57.9075949,22.75 58.256962,22.4 58.256962,21.875 L58.256962,16.0125 C58.256962,15.4875 57.9075949,15.1375 57.3835443,15.1375 L11.7037975,15.1375 C11.1797468,15.1375 10.8303797,15.4875 10.8303797,16.0125 L10.8303797,21.875 C10.8303797,22.4 11.1797468,22.75 11.7037975,22.75 L12.5772152,22.75 L12.5772152,68.075 L7.42405063,68.075 L7.42405063,63.875 C8.99620253,63.4375 10.2189873,62.0375 10.2189873,60.2875 L10.2189873,55.65 C10.2189873,53.6375 8.55949367,51.975 6.55063291,51.975 C4.54177215,51.975 2.88227848,53.6375 2.88227848,55.65 L2.88227848,60.2875 C2.88227848,62.0375 4.10506329,63.4375 5.67721519,63.875 L5.67721519,68.075 L1.22278481,68.075 C0.698734177,68.075 0.349367089,68.425 0.349367089,68.95 C0.349367089,69.475 0.698734177,69.825 1.22278481,69.825 Z M61.4012658,61.5125 L61.4012658,59.0625 C61.4012658,57.75 62.4493671,56.7875 63.6721519,56.7875 C64.8949367,56.7875 65.943038,57.8375 65.943038,59.0625 L65.943038,61.5125 C65.943038,62.825 64.8949367,63.7875 63.6721519,63.7875 C62.4493671,63.7875 61.4012658,62.825 61.4012658,61.5125 Z M4.54177215,60.2875 L4.54177215,55.65 C4.54177215,54.6 5.41518987,53.725 6.46329114,53.725 C7.51139241,53.725 8.38481013,54.6 8.38481013,55.65 L8.38481013,60.2875 C8.38481013,61.3375 7.51139241,62.2125 6.46329114,62.2125 C5.41518987,62.2125 4.54177215,61.3375 4.54177215,60.2875 Z M49.0860759,68.075 L44.5443038,68.075 L44.5443038,59.2375 L48.9987342,59.2375 L48.9987342,68.075 L49.0860759,68.075 Z M42.4481013,68.075 L37.9936709,68.075 L37.9936709,59.2375 L42.4481013,59.2375 L42.4481013,68.075 Z M56.2481013,68.075 L50.8329114,68.075 L50.8329114,58.3625 C50.8329114,57.8375 50.4835443,57.4875 49.9594937,57.4875 L37.0329114,57.4875 C36.5088608,57.4875 36.1594937,57.8375 36.1594937,58.3625 L36.1594937,68.1625 L30.2202532,68.1625 L30.2202532,52.9375 L56.1607595,52.9375 L56.1607595,68.075 L56.2481013,68.075 Z M57.9075949,51.1875 L28.5607595,51.1875 L28.5607595,47.775 L57.9075949,47.775 L57.9075949,51.1875 Z M54.7632911,46.025 L35.3734177,46.025 C35.3734177,46.025 35.3734177,46.025 35.3734177,45.9375 L35.3734177,22.75 L54.7632911,22.75 L54.7632911,46.025 C54.7632911,46.025 54.7632911,46.025 54.7632911,46.025 Z M12.5772152,16.8875 L56.5101266,16.8875 L56.5101266,21 L12.5772152,21 L12.5772152,16.8875 Z M14.3240506,22.75 L33.7139241,22.75 L33.7139241,45.9375 C33.7139241,45.9375 33.7139241,45.9375 33.7139241,46.025 L27.6873418,46.025 C27.1632911,46.025 26.8139241,46.375 26.8139241,46.9 L26.8139241,52.0625 C26.8139241,52.5875 27.1632911,52.9375 27.6873418,52.9375 L28.5607595,52.9375 L28.5607595,68.1625 L14.3240506,68.1625 L14.3240506,22.75 Z" id="Shape"></path>
                    <path d="M39.1291139,27.3875 C38.6050633,27.3875 38.2556962,27.7375 38.2556962,28.2625 L38.2556962,32.2 C38.2556962,32.725 38.6050633,33.075 39.1291139,33.075 C39.6531646,33.075 40.0025316,32.725 40.0025316,32.2 L40.0025316,28.2625 C40.0025316,27.7375 39.5658228,27.3875 39.1291139,27.3875 Z" id="Shape"></path>
                    <path d="M44.8063291,27.3875 C44.2822785,27.3875 43.9329114,27.7375 43.9329114,28.2625 L43.9329114,32.2 C43.9329114,32.725 44.2822785,33.075 44.8063291,33.075 C45.3303797,33.075 45.6797468,32.725 45.6797468,32.2 L45.6797468,28.2625 C45.6797468,27.7375 45.3303797,27.3875 44.8063291,27.3875 Z" id="Shape"></path>
                    <path d="M50.4835443,27.3875 C49.9594937,27.3875 49.6101266,27.7375 49.6101266,28.2625 L49.6101266,32.2 C49.6101266,32.725 49.9594937,33.075 50.4835443,33.075 C51.0075949,33.075 51.356962,32.725 51.356962,32.2 L51.356962,28.2625 C51.356962,27.7375 51.0075949,27.3875 50.4835443,27.3875 Z" id="Shape"></path>
                    <path d="M39.1291139,37.7125 C38.6050633,37.7125 38.2556962,38.0625 38.2556962,38.5875 L38.2556962,42.525 C38.2556962,43.05 38.6050633,43.4 39.1291139,43.4 C39.6531646,43.4 40.0025316,43.05 40.0025316,42.525 L40.0025316,38.5875 C40.0025316,38.0625 39.5658228,37.7125 39.1291139,37.7125 Z" id="Shape"></path>
                    <path d="M44.8063291,37.7125 C44.2822785,37.7125 43.9329114,38.0625 43.9329114,38.5875 L43.9329114,42.525 C43.9329114,43.05 44.2822785,43.4 44.8063291,43.4 C45.3303797,43.4 45.6797468,43.05 45.6797468,42.525 L45.6797468,38.5875 C45.6797468,38.0625 45.3303797,37.7125 44.8063291,37.7125 Z" id="Shape"></path>
                    <path d="M50.4835443,37.7125 C49.9594937,37.7125 49.6101266,38.0625 49.6101266,38.5875 L49.6101266,42.525 C49.6101266,43.05 49.9594937,43.4 50.4835443,43.4 C51.0075949,43.4 51.356962,43.05 51.356962,42.525 L51.356962,38.5875 C51.356962,38.0625 51.0075949,37.7125 50.4835443,37.7125 Z" id="Shape"></path>
                    <path d="M17.9924051,27.3875 C17.4683544,27.3875 17.1189873,27.7375 17.1189873,28.2625 L17.1189873,32.2 C17.1189873,32.725 17.4683544,33.075 17.9924051,33.075 C18.5164557,33.075 18.8658228,32.725 18.8658228,32.2 L18.8658228,28.2625 C18.8658228,27.7375 18.4291139,27.3875 17.9924051,27.3875 Z" id="Shape"></path>
                    <path d="M23.6696203,27.3875 C23.1455696,27.3875 22.7962025,27.7375 22.7962025,28.2625 L22.7962025,32.2 C22.7962025,32.725 23.1455696,33.075 23.6696203,33.075 C24.1936709,33.075 24.543038,32.725 24.543038,32.2 L24.543038,28.2625 C24.543038,27.7375 24.1063291,27.3875 23.6696203,27.3875 Z" id="Shape"></path>
                    <path d="M29.3468354,32.9875 C29.8708861,32.9875 30.2202532,32.6375 30.2202532,32.1125 L30.2202532,28.175 C30.2202532,27.65 29.8708861,27.3 29.3468354,27.3 C28.8227848,27.3 28.4734177,27.65 28.4734177,28.175 L28.4734177,32.1125 C28.4734177,32.6375 28.9101266,32.9875 29.3468354,32.9875 Z" id="Shape"></path>
                    <path d="M17.9924051,37.7125 C17.4683544,37.7125 17.1189873,38.0625 17.1189873,38.5875 L17.1189873,42.525 C17.1189873,43.05 17.4683544,43.4 17.9924051,43.4 C18.5164557,43.4 18.8658228,43.05 18.8658228,42.525 L18.8658228,38.5875 C18.8658228,38.0625 18.4291139,37.7125 17.9924051,37.7125 Z" id="Shape"></path>
                    <path d="M23.6696203,37.7125 C23.1455696,37.7125 22.7962025,38.0625 22.7962025,38.5875 L22.7962025,42.525 C22.7962025,43.05 23.1455696,43.4 23.6696203,43.4 C24.1936709,43.4 24.543038,43.05 24.543038,42.525 L24.543038,38.5875 C24.543038,38.0625 24.1063291,37.7125 23.6696203,37.7125 Z" id="Shape"></path>
                    <path d="M29.3468354,43.3125 C29.8708861,43.3125 30.2202532,42.9625 30.2202532,42.4375 L30.2202532,38.5 C30.2202532,37.975 29.8708861,37.625 29.3468354,37.625 C28.8227848,37.625 28.4734177,37.975 28.4734177,38.5 L28.4734177,42.4375 C28.4734177,42.9625 28.9101266,43.3125 29.3468354,43.3125 Z" id="Shape"></path>
                    <path d="M17.9924051,48.0375 C17.4683544,48.0375 17.1189873,48.3875 17.1189873,48.9125 L17.1189873,52.85 C17.1189873,53.375 17.4683544,53.725 17.9924051,53.725 C18.5164557,53.725 18.8658228,53.375 18.8658228,52.85 L18.8658228,48.9125 C18.8658228,48.3875 18.4291139,48.0375 17.9924051,48.0375 Z" id="Shape"></path>
                    <path d="M23.6696203,48.0375 C23.1455696,48.0375 22.7962025,48.3875 22.7962025,48.9125 L22.7962025,52.85 C22.7962025,53.375 23.1455696,53.725 23.6696203,53.725 C24.1936709,53.725 24.543038,53.375 24.543038,52.85 L24.543038,48.9125 C24.543038,48.3875 24.1063291,48.0375 23.6696203,48.0375 Z" id="Shape"></path>
                    <path d="M17.9924051,58.3625 C17.4683544,58.3625 17.1189873,58.7125 17.1189873,59.2375 L17.1189873,63.175 C17.1189873,63.7 17.4683544,64.05 17.9924051,64.05 C18.5164557,64.05 18.8658228,63.7 18.8658228,63.175 L18.8658228,59.2375 C18.8658228,58.7125 18.4291139,58.3625 17.9924051,58.3625 Z" id="Shape"></path>
                    <path d="M23.6696203,58.3625 C23.1455696,58.3625 22.7962025,58.7125 22.7962025,59.2375 L22.7962025,63.175 C22.7962025,63.7 23.1455696,64.05 23.6696203,64.05 C24.1936709,64.05 24.543038,63.7 24.543038,63.175 L24.543038,59.2375 C24.543038,58.7125 24.1063291,58.3625 23.6696203,58.3625 Z" id="Shape"></path>
                    <path d="M16.0708861,3.9375 C15.9835443,3.675 15.721519,3.4125 15.4594937,3.325 L13.1886076,2.7125 L11.9658228,0.7 C11.7911392,0.4375 11.5291139,0.2625 11.2670886,0.2625 C11.0050633,0.2625 10.6556962,0.4375 10.5683544,0.7 L9.34556962,2.7125 L7.07468354,3.325 C6.81265823,3.4125 6.55063291,3.5875 6.46329114,3.9375 C6.37594937,4.2 6.46329114,4.55 6.63797468,4.8125 L8.21012658,6.65 L8.03544304,9.0125 C8.03544304,9.275 8.12278481,9.625 8.38481013,9.8 C8.64683544,9.975 8.90886076,9.975 9.25822785,9.8875 L11.4417722,9.0125 L13.6253165,9.8875 C13.7126582,9.8875 13.8,9.975 13.9746835,9.975 C14.1493671,9.975 14.3240506,9.8875 14.4987342,9.8 C14.7607595,9.625 14.8481013,9.3625 14.8481013,9.0125 L14.6734177,6.65 L16.2455696,4.8125 C16.0708861,4.55 16.1582278,4.2 16.0708861,3.9375 Z M12.8392405,5.6875 C12.664557,5.8625 12.664557,6.125 12.664557,6.3 L12.7518987,7.6125 L11.5291139,7.0875 C11.4417722,7.0875 11.3544304,7 11.1797468,7 C11.0050633,7 10.9177215,7 10.8303797,7.0875 L9.60759494,7.7 L9.69493671,6.3875 C9.69493671,6.125 9.60759494,5.95 9.52025316,5.775 L8.64683544,4.725 L9.95696203,4.375 C10.2189873,4.2875 10.3936709,4.2 10.4810127,4.025 L11.1797468,2.8875 L11.878481,4.025 C11.9658228,4.2 12.2278481,4.375 12.4025316,4.375 L13.7126582,4.725 L12.8392405,5.6875 Z" id="Shape"></path>
                    <path d="M27.6,3.9375 C27.5126582,3.675 27.2506329,3.4125 26.9886076,3.325 L24.7177215,2.7125 L23.4949367,0.7 C23.1455696,0.175 22.3594937,0.175 22.0101266,0.7 L20.7873418,2.7125 L18.5164557,3.325 C18.2544304,3.4125 17.9924051,3.5875 17.9050633,3.9375 C17.8177215,4.2 17.9050633,4.55 18.0797468,4.8125 L19.6518987,6.65 L19.4772152,9.0125 C19.4772152,9.275 19.564557,9.625 19.8265823,9.8 C20.0012658,9.8875 20.1759494,9.975 20.3506329,9.975 C20.4379747,9.975 20.6126582,9.975 20.7,9.8875 L22.8835443,9.0125 L25.0670886,9.8875 C25.3291139,9.975 25.678481,9.975 25.9405063,9.8 C26.2025316,9.625 26.2898734,9.3625 26.2898734,9.0125 L26.1151899,6.65 L27.6873418,4.8125 C27.6873418,4.55 27.6873418,4.2 27.6,3.9375 Z M24.3683544,5.6875 C24.1936709,5.8625 24.1936709,6.125 24.1936709,6.3 L24.2810127,7.6125 L23.0582278,7.0875 C22.9708861,7.0875 22.8835443,7 22.7088608,7 C22.5341772,7 22.4468354,7 22.3594937,7.0875 L21.1367089,7.6125 L21.2240506,6.3 C21.2240506,6.0375 21.1367089,5.8625 21.0493671,5.6875 L20.1759494,4.6375 L21.4860759,4.2875 C21.7481013,4.2 21.9227848,4.1125 22.0101266,3.9375 L22.7088608,2.8 L23.4075949,3.9375 C23.4949367,4.1125 23.756962,4.2875 23.9316456,4.2875 L25.2417722,4.6375 L24.3683544,5.6875 Z" id="Shape"></path>
                    <path d="M39.2164557,3.9375 C39.1291139,3.675 38.8670886,3.4125 38.6050633,3.325 L36.3341772,2.7125 L35.1113924,0.7 C34.7620253,0.175 33.9759494,0.175 33.6265823,0.7 L32.4037975,2.7125 L30.1329114,3.325 C29.8708861,3.4125 29.6088608,3.5875 29.521519,3.9375 C29.4341772,4.2 29.521519,4.55 29.6962025,4.8125 L31.2683544,6.65 L31.0936709,9.0125 C31.0936709,9.275 31.1810127,9.625 31.443038,9.8 C31.7050633,9.975 31.9670886,9.975 32.3164557,9.8875 L34.5,9.0125 L36.6835443,9.8875 C36.7708861,9.8875 36.8582278,9.975 37.0329114,9.975 C37.2075949,9.975 37.3822785,9.8875 37.556962,9.8 C37.8189873,9.625 37.9063291,9.3625 37.9063291,9.0125 L37.7316456,6.65 L39.3037975,4.8125 C39.2164557,4.55 39.3037975,4.2 39.2164557,3.9375 Z M35.8974684,5.6875 C35.7227848,5.8625 35.7227848,6.125 35.7227848,6.3 L35.8101266,7.6125 L34.5873418,7.0875 C34.5,7.0875 34.4126582,7 34.2379747,7 C34.0632911,7 33.9759494,7 33.8886076,7.0875 L32.6658228,7.6125 L32.7531646,6.3 C32.7531646,6.0375 32.6658228,5.8625 32.578481,5.6875 L31.7050633,4.6375 L33.0151899,4.2875 C33.2772152,4.2 33.4518987,4.1125 33.5392405,3.9375 L34.2379747,2.8 L34.9367089,3.9375 C35.0240506,4.1125 35.2860759,4.2875 35.4607595,4.2875 L36.7708861,4.6375 L35.8974684,5.6875 Z" id="Shape"></path>
                    <path d="M50.7455696,3.9375 C50.6582278,3.675 50.3962025,3.4125 50.1341772,3.325 L47.8632911,2.7125 L46.6405063,0.7 C46.4658228,0.4375 46.2037975,0.2625 45.9417722,0.2625 C45.6797468,0.2625 45.3303797,0.4375 45.243038,0.7 L44.0202532,2.7125 L41.7493671,3.325 C41.4873418,3.4125 41.2253165,3.5875 41.1379747,3.9375 C41.0506329,4.2 41.1379747,4.55 41.3126582,4.8125 L42.8848101,6.65 L42.7101266,9.0125 C42.7101266,9.275 42.7974684,9.625 43.0594937,9.8 C43.321519,9.975 43.5835443,9.975 43.9329114,9.8875 L46.1164557,9.0125 L48.3,9.8875 C48.3873418,9.8875 48.4746835,9.975 48.6493671,9.975 C48.8240506,9.975 48.9987342,9.8875 49.1734177,9.8 C49.435443,9.625 49.5227848,9.3625 49.5227848,9.0125 L49.3481013,6.65 L50.9202532,4.8125 C50.7455696,4.55 50.8329114,4.2 50.7455696,3.9375 Z M47.4265823,5.6875 C47.2518987,5.8625 47.2518987,6.125 47.2518987,6.3 L47.3392405,7.6125 L46.1164557,7.0875 C45.9417722,7 45.6797468,7 45.5050633,7.0875 L44.2822785,7.6125 L44.3696203,6.3 C44.3696203,6.0375 44.2822785,5.8625 44.1949367,5.6875 L43.321519,4.6375 L44.5443038,4.375 C44.8063291,4.2875 44.9810127,4.2 45.0683544,4.025 L45.7670886,2.8875 L46.4658228,4.025 C46.5531646,4.2 46.8151899,4.375 46.9898734,4.375 L48.3,4.725 L47.4265823,5.6875 Z" id="Shape"></path>
                    <path d="M62.2746835,3.9375 C62.1873418,3.675 61.9253165,3.4125 61.6632911,3.325 L59.3924051,2.7125 L58.1696203,0.7 C57.8202532,0.175 57.0341772,0.175 56.6848101,0.7 L55.4620253,2.7125 L53.1911392,3.325 C52.9291139,3.4125 52.6670886,3.5875 52.5797468,3.9375 C52.4924051,4.2 52.5797468,4.55 52.7544304,4.8125 L54.3265823,6.65 L54.1518987,9.0125 C54.1518987,9.275 54.2392405,9.625 54.5012658,9.8 C54.7632911,9.975 55.0253165,9.975 55.3746835,9.8875 L57.5582278,9.0125 L59.7417722,9.8875 C59.8291139,9.8875 59.9164557,9.975 60.0911392,9.975 C60.2658228,9.975 60.4405063,9.8875 60.6151899,9.8 C60.8772152,9.625 60.964557,9.3625 60.964557,9.0125 L60.7898734,6.65 L62.3620253,4.8125 C62.2746835,4.55 62.3620253,4.2 62.2746835,3.9375 Z M59.043038,5.6875 C58.8683544,5.8625 58.8683544,6.125 58.8683544,6.3 L58.9556962,7.6125 L57.6455696,7.175 C57.5582278,7.175 57.4708861,7.0875 57.2962025,7.0875 C57.121519,7.0875 57.0341772,7.0875 56.9468354,7.175 L55.7240506,7.7 L55.8113924,6.3875 C55.8113924,6.125 55.7240506,5.95 55.6367089,5.775 L54.7632911,4.725 L56.0734177,4.375 C56.335443,4.2875 56.5101266,4.2 56.5974684,4.025 L57.2962025,2.8875 L57.9949367,4.025 C58.0822785,4.2 58.3443038,4.375 58.5189873,4.375 L59.8291139,4.725 L59.043038,5.6875 Z" id="Shape"></path>
                </g>
            </g>
        </g>
    </g>
</svg>