<?xml version="1.0" encoding="UTF-8"?>
<svg width="101px" height="88px" viewBox="0 0 101 88" version="1.1" xmlns="http://www.w3.org/2000/svg">
    <!-- Generator: Sketch 51.2 (57519) - http://www.bohemiancoding.com/sketch -->
    <title>Group 6</title>
    <desc>Created with Sketch.</desc>
    <defs></defs>
    <g id="old-search-ui-copy" stroke="none" stroke-width="1" fill="none" fill-rule="evenodd">
        <g id="landing-page-candidat-6-copy" transform="translate(-821.000000, -1610.000000)" fill-rule="nonzero">
            <g id="Group-6" transform="translate(820.000000, 1610.000000)">
                <circle id="Oval-3-Copy-5" fill="#6A89CC" opacity="0.1" cx="75.5" cy="26.5" r="26.5"></circle>
                <g id="noun_Industry_1777241" transform="translate(0.000000, 18.000000)" fill="#334051">
                    <path d="M74.4190141,23.4606061 C74.0525203,23.282913 73.616951,23.332422 73.2992958,23.5878788 L69.7183099,26.5151515 L68.8309859,7.98636364 L68.5140845,1.15606061 C68.4859159,0.591110922 68.0211269,0.147777357 67.4577465,0.148484848 L62.5457746,0.148484848 C61.9823942,0.147777357 61.5176052,0.591110922 61.4894366,1.15606061 L59.8943662,34.5651515 L51.0739437,41.7878788 L51.0739437,24.4151515 C51.0753348,24.0054922 50.8416259,23.6316566 50.4735815,23.4548256 C50.1055371,23.2779946 49.6689718,23.3297896 49.3521127,23.5878788 L27.1690141,41.7878788 L27.1690141,24.3939394 C27.1719503,23.9821385 26.9372055,23.6058562 26.5669014,23.4287879 C26.1984194,23.2540438 25.7626881,23.3076985 25.4471831,23.5666667 L1.41549296,43.1984848 C1.17407736,43.4003781 1.03470103,43.6996931 1.03521127,44.0151515 L1.03521127,68.8121212 C1.03521127,69.3978778 1.50814991,69.8727273 2.0915493,69.8727273 L73.943662,69.8727273 C74.5270614,69.8727273 75,69.3978778 75,68.8121212 L75,24.3939394 C74.9948499,23.9983872 74.770879,23.6385859 74.4190141,23.4606061 Z M66.4330986,2.24848485 L66.6549296,6.92575758 L63.3802817,6.92575758 L63.6021127,2.24848485 L66.4330986,2.24848485 Z M63.2640845,9.0469697 L66.7605634,9.0469697 L67.6690141,28.2015152 L62.1021127,32.7621212 L63.2640845,9.0469697 Z M31.193662,67.7515152 L31.193662,58.6090909 L44.8098592,58.6090909 L44.8098592,67.7515152 L31.193662,67.7515152 Z M72.8556338,67.7515152 L46.9225352,67.7515152 L46.9225352,57.5484848 C46.9225352,56.9627283 46.4495966,56.4878788 45.8661972,56.4878788 L30.1373239,56.4878788 C29.5539246,56.4878788 29.0809859,56.9627283 29.0809859,57.5484848 L29.0809859,67.7515152 L3.16901408,67.7515152 L3.16901408,44.5454545 L24.971831,26.6424242 L24.971831,44.0151515 C24.9729812,44.4231237 25.2070946,44.7942699 25.5739437,44.969697 C25.9404374,45.14739 26.3760067,45.0978811 26.693662,44.8424242 L48.8767606,26.6424242 L48.8767606,44.0151515 C48.8738243,44.4269524 49.1085692,44.8032347 49.4788732,44.980303 C49.8744378,45.2032891 50.3676348,45.1477937 50.7042254,44.8424242 L72.8873239,26.6530303 L72.8556338,67.7515152 Z" id="Shape"></path>
                    <path d="M12.9823944,56.5939394 L8.59859155,56.5939394 C8.01519217,56.5939394 7.54225352,57.0687889 7.54225352,57.6545455 L7.54225352,62.0348485 C7.54225352,62.620605 8.01519217,63.0954545 8.59859155,63.0954545 L12.9823944,63.0954545 C13.5657937,63.0954545 14.0387324,62.620605 14.0387324,62.0348485 L14.0387324,57.6545455 C14.0387324,57.0687889 13.5657937,56.5939394 12.9823944,56.5939394 Z M11.9260563,60.9742424 L9.65492958,60.9742424 L9.65492958,58.7151515 L11.9260563,58.7151515 L11.9260563,60.9742424 Z" id="Shape"></path>
                    <path d="M23.8098592,56.5939394 L19.4366197,56.5939394 C18.8532203,56.5939394 18.3802817,57.0687889 18.3802817,57.6545455 L18.3802817,62.0348485 C18.3802817,62.620605 18.8532203,63.0954545 19.4366197,63.0954545 L23.8098592,63.0954545 C24.3932585,63.0954545 24.8661972,62.620605 24.8661972,62.0348485 L24.8661972,57.6545455 C24.8661972,57.0687889 24.3932585,56.5939394 23.8098592,56.5939394 Z M22.7535211,60.9742424 L20.4929577,60.9742424 L20.4929577,58.7151515 L22.7535211,58.7151515 L22.7535211,60.9742424 Z" id="Shape"></path>
                    <path d="M63.1161972,63.0954545 L67.4894366,63.0954545 C68.072836,63.0954545 68.5457746,62.620605 68.5457746,62.0348485 L68.5457746,57.6545455 C68.5457746,57.0687889 68.072836,56.5939394 67.4894366,56.5939394 L63.1161972,56.5939394 C62.5327978,56.5939394 62.0598592,57.0687889 62.0598592,57.6545455 L62.0598592,62.0348485 C62.0598592,62.620605 62.5327978,63.0954545 63.1161972,63.0954545 Z M64.1725352,58.7151515 L66.4330986,58.7151515 L66.4330986,60.9742424 L64.1725352,60.9742424 L64.1725352,58.7151515 Z" id="Shape"></path>
                    <path d="M52.2887324,63.0954545 L56.6619718,63.0954545 C57.2453712,63.0954545 57.7183099,62.620605 57.7183099,62.0348485 L57.7183099,57.6545455 C57.7183099,57.0687889 57.2453712,56.5939394 56.6619718,56.5939394 L52.2887324,56.5939394 C51.705333,56.5939394 51.2323944,57.0687889 51.2323944,57.6545455 L51.2323944,62.0348485 C51.2323944,62.620605 51.705333,63.0954545 52.2887324,63.0954545 Z M53.3450704,58.7151515 L55.6056338,58.7151515 L55.6056338,60.9742424 L53.3450704,60.9742424 L53.3450704,58.7151515 Z" id="Shape"></path>
                </g>
            </g>
        </g>
    </g>
</svg>