<?xml version="1.0" encoding="UTF-8"?>
<svg width="77px" height="97px" viewBox="0 0 77 97" version="1.1" xmlns="http://www.w3.org/2000/svg">
    <!-- Generator: Sketch 51.2 (57519) - http://www.bohemiancoding.com/sketch -->
    <title>Group 23</title>
    <desc>Created with Sketch.</desc>
    <defs></defs>
    <g id="old-search-ui-copy" stroke="none" stroke-width="1" fill="none" fill-rule="evenodd">
        <g id="landing-page-candidat-6-copy" transform="translate(-576.000000, -1786.000000)" fill-rule="nonzero">
            <g id="Group-23" transform="translate(576.000000, 1786.000000)">
                <g id="noun_care_1628819" transform="translate(0.000000, 25.000000)" fill="#000000">
                    <path d="M76.9699219,42.114 C76.8439731,41.3304295 76.3682207,40.6462427 75.6765625,40.254 C73.7996875,39.096 69.4925,38.13 65.3357031,40.2 C63.6032031,41.064 61.8586719,42.102 60.2344531,43.098 C60.196658,43.0235746 60.1544747,42.9514482 60.108125,42.882 C59.5607031,42.078 58.5380469,41.682 57.0521875,41.682 C55.2114063,41.682 51.8065625,43.482 47.2046094,46.056 C45.8136047,46.8791789 44.3776507,47.6243361 42.9034375,48.288 C41.9409375,48.174 41.0025,48.084 39.9798437,47.988 C38.4217969,47.838 36.6471875,47.676 34.2770312,47.388 C33.4606394,47.0847451 32.6832011,46.6859582 31.9610156,46.2 C26.6571984,43.0523772 20.7992113,40.9445806 14.7021875,39.99 C5.23359375,38.364 1.203125,40.2 1.00460937,40.302 C0.60579555,40.4797631 0.334915714,40.8591637 0.296921623,41.2932039 C0.258927532,41.7272442 0.459789067,42.1477249 0.821682897,42.3917317 C1.18357673,42.6357385 1.64963972,42.6649315 2.03929687,42.468 C2.07539062,42.468 5.70882812,40.878 14.293125,42.354 C20.1142952,43.2668323 25.7068962,45.2809674 30.7699219,48.288 C32.1775781,49.086 33.1039844,49.62 33.9642187,49.734 C36.3704687,50.058 38.1751562,50.226 39.7572656,50.376 C42.35285,50.5669797 44.9306219,50.950034 47.4692969,51.522 C51.9689844,52.536 54.9226562,54.348 55.7889062,56.616 C56.2303702,57.789572 56.0638597,59.1047304 55.34375,60.132 L54.4353906,60.732 C52.5765625,61.116 48.365625,59.91 45.9172656,59.208 C44.2457863,58.6429316 42.5232538,58.2410466 40.7739062,58.008 C35.6003261,57.8150569 30.4212565,58.1953848 25.3317969,59.142 C24.9016045,59.2176418 24.5463156,59.5199077 24.4035859,59.9316855 C24.2608561,60.3434632 24.3531123,60.8000516 24.6446099,61.1245466 C24.9361075,61.4490416 25.3810446,61.5904563 25.8070312,61.494 C30.7014217,60.5931727 35.6796618,60.2270113 40.6535937,60.402 C42.2143338,60.6328442 43.7520704,60.9982122 45.2495312,61.494 C47.1745312,62.046 49.1235937,62.598 50.8982031,62.916 C44.7983594,66.6 39.1617187,69.414 36.5148437,69.414 C31.3053125,69.414 9.65507812,58.938 1.75054687,54.906 C1.16274404,54.6278329 0.459719866,54.8661277 0.163562979,55.4439189 C-0.132593908,56.0217102 0.0854211726,56.7296503 0.655703125,57.042 C1.85882812,57.642 29.6690625,71.814 36.5208594,71.814 C40.0219531,71.814 47.6798437,67.818 55.3257031,62.958 C56.035886,62.7777131 56.6687986,62.3737011 57.1303906,61.806 C66.171875,55.872 74.7682031,49.05 75.796875,46.632 C76.0763246,46.0341893 76.2240188,45.3835673 76.23,44.724 C76.7897978,43.9742351 77.0531954,43.0451266 76.9699219,42.114 Z M66.4125,42.348 C69.6669531,40.728 73.0296875,41.454 74.4132812,42.294 C74.452076,42.3183528 74.4883481,42.3464911 74.5215625,42.378 C73.1379688,41.892 71.0144531,42.192 68.1570313,43.284 C66.0811923,44.083924 64.1130436,45.1379981 62.2978125,46.422 C60.5833594,47.538 58.2432813,49.068 53.9721875,51.378 C53.2987524,50.9938026 52.5992382,50.6569832 51.87875,50.37 C53.6172656,49.566 55.680625,48.57 56.5528906,48.114 C57.6236719,47.514 58.8749219,46.758 60.204375,45.936 C62.129375,44.748 64.3070313,43.398 66.4125,42.348 Z M48.365625,48.144 C51.1027344,46.62 55.6866406,44.076 57.0401563,44.076 C57.412869,44.0318081 57.7904969,44.0942358 58.1289844,44.256 C58.0958739,44.2215418 58.0747791,44.1773578 58.0688281,44.13 C58.0667388,44.1120603 58.0667388,44.0939397 58.0688281,44.076 L58.3996875,44.208 C57.2928125,44.892 56.2521094,45.528 55.391875,46.008 C54.0925,46.71 49.7492188,48.708 48.4558594,49.296 L48.0046875,49.2 L46.921875,48.948 L48.365625,48.144 Z M73.583125,45.678 C72.8010938,47.478 66.0635938,52.878 58.42375,58.062 C58.4400775,57.2732759 58.3032122,56.4888538 58.0207031,55.752 C57.5958837,54.6821279 56.9336413,53.7221142 56.0836719,52.944 C59.8253906,50.886 61.9789844,49.476 63.5911719,48.426 C65.2673775,47.2365931 67.0861885,46.2610175 69.0052344,45.522 C72.38,44.226 73.6613281,44.532 73.8177344,44.67 C73.846814,45.021869 73.771502,45.3744985 73.6011719,45.684 L73.583125,45.678 Z" id="Shape"></path>
                    <path d="M37.3750781,39.888 C37.1174964,39.8884427 36.866572,39.8064206 36.6592188,39.654 L35.2876563,38.652 C28.3396094,33.6 15.4,24.192 15.4,11.706 C15.4062169,6.35899012 19.1004338,1.71910683 24.3206067,0.50184624 C29.5407796,-0.715414351 34.914534,1.8099635 37.296875,6.6 C39.6802196,1.80796365 45.0572743,-0.717253526 50.2789938,0.503229331 C55.5007133,1.72371219 59.19311,6.3687502 59.19375,11.718 C59.19375,24.114 46.4646875,33.486 39.6309375,38.52 L38.1029688,39.654 C37.8923126,39.8088846 37.6367671,39.8910366 37.3750781,39.888 Z M26.95,2.586 C21.9027943,2.59261077 17.812878,6.6719039 17.80625,11.706 C17.80625,22.974 30.078125,31.908 36.6953125,36.708 L37.3630469,37.194 L38.1932031,36.594 C44.6900781,31.794 56.7814844,22.902 56.7814844,11.718 C56.7814844,6.68116308 52.6876881,2.598 47.6377344,2.598 C42.5877807,2.598 38.4939844,6.68116308 38.4939844,11.718 C38.4939844,12.3807417 37.955327,12.918 37.2908594,12.918 C36.6263918,12.918 36.0877344,12.3807417 36.0877344,11.718 C36.0877442,6.68155675 31.9995492,2.59592729 26.95,2.586 Z" id="Shape"></path>
                </g>
                <circle id="Oval-3-Copy-6" fill="#6A89CC" opacity="0.1" cx="26.5" cy="26.5" r="26.5"></circle>
            </g>
        </g>
    </g>
</svg>