<?xml version="1.0" encoding="UTF-8"?>
<svg width="103px" height="70px" viewBox="0 0 103 70" version="1.1" xmlns="http://www.w3.org/2000/svg">
    <!-- Generator: Sketch 51.2 (57519) - http://www.bohemiancoding.com/sketch -->
    <title>Group 26</title>
    <desc>Created with Sketch.</desc>
    <defs></defs>
    <g id="old-search-ui-copy" stroke="none" stroke-width="1" fill="none" fill-rule="evenodd">
        <g id="landing-page-candidat-6-copy" transform="translate(-1046.000000, -1803.000000)">
            <g id="Group-26" transform="translate(1046.000000, 1803.000000)">
                <g id="if_23_-_Truck_2102059" transform="translate(17.000000, 17.000000)">
                    <g id="Layer_x0020_1">
                        <path d="M1.91023701,-0.38479083 L55.1174564,-0.38479083 C56.3680653,-0.38479083 57.3808742,0.630606092 57.3808742,1.88185541 L57.3808742,41.2966571 C57.3808742,42.5479064 56.3680653,43.5633034 55.1174564,43.5633034 L26.8041353,43.5633034 L26.7814143,42.586559 C26.7348961,40.5867995 25.9280982,38.696512 24.5157072,37.2805206 C23.0595468,35.8206393 21.1026121,35.0078554 19.04397,35.0078554 C16.9853116,35.0078554 15.0283315,35.820646 13.5721676,37.2805206 C12.1597884,38.6965089 11.3529865,40.5868099 11.3064604,42.586563 L11.2837357,43.5633034 L1.91023701,43.5633034 C0.659628065,43.5633034 -0.353180851,42.5479064 -0.353180851,41.2966571 L-0.353180851,1.88185541 C-0.353180851,0.630606092 0.659628065,-0.38479083 1.91023701,-0.38479083 Z M11.5440449,20.6075225 L44.4459249,20.6075225 C44.2419017,20.6075225 44.0776339,20.4428121 44.0776339,20.2409093 C44.0776339,20.0389365 44.2419065,19.8742324 44.4459249,19.8742324 L11.5440449,19.8742324 C11.7480634,19.8742324 11.912336,20.0389365 11.912336,20.2409093 C11.912336,20.4428127 11.7480692,20.6075225 11.5440449,20.6075225 Z M11.5440449,10.8833281 L44.4459249,10.8833281 C44.241945,10.8833281 44.0776339,10.7185971 44.0776339,10.5166512 C44.0776339,10.3147053 44.241945,10.1499743 44.4459249,10.1499743 L11.5440449,10.1499743 C11.7480249,10.1499743 11.912336,10.3147053 11.912336,10.5166512 C11.912336,10.7185971 11.7480249,10.8833281 11.5440449,10.8833281 Z" id="Shape" stroke="#334051" stroke-width="2" fill-rule="nonzero"></path>
                        <path d="M25.3637941,36.6429421 C23.735207,35.0101149 21.4851732,34 19.0000294,34 C16.5148072,34 14.2647754,35.010109 12.6361275,36.6429421 C11.0074619,38.2757694 10,40.5316313 10,43.0231056 C10,45.5145996 11.0074561,47.7703809 12.6361275,49.4031314 C14.2648695,51.0360353 16.5149053,52.0460736 19.0000294,52.0460736 C21.4851732,52.0460736 23.735205,51.0360432 25.3637941,49.4031314 C26.9925361,47.7703828 28,45.5145996 28,43.0231056 C28,40.5316116 26.9925439,38.2757517 25.3637941,36.6429421 Z M21.3160542,43.0231056 C21.3160542,44.3054557 20.2791111,45.3450484 19.0000294,45.3450484 C17.7208713,45.3450484 16.6839262,44.3054557 16.6839262,43.0231056 C16.6839262,41.7406789 17.7208693,40.7010055 19.0000294,40.7010055 C20.2791111,40.7010055 21.3160542,41.7406749 21.3160542,43.0231056 Z" id="Shape" fill="#334051"></path>
                        <path d="M78.3637941,35.6429421 C76.735207,34.0101149 74.4851732,33 72.0000294,33 C69.5148072,33 67.2647754,34.010109 65.6361275,35.6429421 C64.0074619,37.2757694 63,39.5316313 63,42.0231056 C63,44.5145996 64.0074561,46.7703809 65.6361275,48.4031314 C67.2648695,50.0360353 69.5149053,51.0460736 72.0000294,51.0460736 C74.4851732,51.0460736 76.735205,50.0360432 78.3637941,48.4031314 C79.9925361,46.7703828 81,44.5145996 81,42.0231056 C81,39.5316116 79.9925439,37.2757517 78.3637941,35.6429421 Z M74.3160542,42.0231056 C74.3160542,43.3054557 73.2791111,44.3450484 72.0000294,44.3450484 C70.7208713,44.3450484 69.6839262,43.3054557 69.6839262,42.0231056 C69.6839262,40.7406789 70.7208693,39.7010055 72.0000294,39.7010055 C73.2791111,39.7010055 74.3160542,40.7406749 74.3160542,42.0231056 Z" id="Shape-Copy" fill="#334051"></path>
                        <path d="M71.7618699,34.0077313 C73.9877019,34.0077313 76.1052362,34.9264739 77.6788498,36.5741926 C79.2057964,38.1731215 80.0772562,40.308437 80.1274209,42.5631793 L83.7903288,42.5631793 C84.458398,42.5631793 85,41.9960681 85,41.296533 L85,22.4472535 C85,18.9885289 83.735628,15.8386332 81.6985676,13.5503205 C79.6397744,11.2376462 76.7949853,9.80213191 73.6611686,9.80213191 L59.7335015,9.80213191 L59.7334401,9.80213191 L59.7334401,41.2965167 C59.7334401,41.7415527 59.6236095,42.1597177 59.4310223,42.5232424 C59.527715,42.5493417 59.6290128,42.5631626 59.7335009,42.5631626 L63.3964712,42.5631626 C63.4466287,40.308404 64.3180286,38.1731016 65.8450423,36.574176 C67.4186403,34.9264621 69.5361278,34.0077146 71.7618974,34.0077146 L71.7618699,34.0077313 Z M78.0191492,21.0413877 L78.0191492,28.1395887 L68.959932,28.1395887 L68.959932,16.7564794 L74.2047337,16.7564794 C76.3026825,16.7564794 78.0191492,18.6846767 78.0191492,21.0413714 L78.0191492,21.0413877 Z" id="Shape" stroke="#334051" stroke-width="2" fill="#FFFFFF"></path>
                    </g>
                </g>
                <circle id="Oval-3-Copy-4" fill="#6A89CC" fill-rule="nonzero" opacity="0.1" cx="24" cy="24" r="24"></circle>
            </g>
        </g>
    </g>
</svg>