<?xml version="1.0" encoding="UTF-8"?>
<svg width="116px" height="76px" viewBox="0 0 116 76" version="1.1" xmlns="http://www.w3.org/2000/svg" xmlns:xlink="http://www.w3.org/1999/xlink">
    <!-- Generator: sketchtool 51.3 (57544) - http://www.bohemiancoding.com/sketch -->
    <title>4C1371F6-6598-4DDC-8C7D-0DE8B40D8C42</title>
    <desc>Created with sketchtool.</desc>
    <defs></defs>
    <g id="New---Carole" stroke="none" stroke-width="1" fill="none" fill-rule="evenodd" opacity="0.5">
        <g id="D_inscription-Step_4" transform="translate(-515.000000, -329.000000)" fill="#0D7A93">
            <g id="cloud-download" transform="translate(515.000000, 329.000000)">
                <path d="M93.7666667,28.5 C90.3833333,12.35 75.8833333,0 58,0 C43.9833333,0 31.9,7.6 26.1,19 C11.1166667,20.9 0,32.775 0,47.5 C0,63.175 13.05,76 29,76 L91.8333333,76 C105.366667,76 116,65.55 116,52.25 C116,39.9 105.85,29.45 93.7666667,28.5 L93.7666667,28.5 Z M82.1666667,47.5 L58,23.75 L33.8333333,47.5 L48.3333333,47.5 L48.3333333,66.5 L67.6666667,66.5 L67.6666667,47.5 L82.1666667,47.5 L82.1666667,47.5 Z" id="Shape"></path>
            </g>
        </g>
    </g>
</svg>