<?xml version="1.0" encoding="UTF-8"?>
<svg width="52px" height="62px" viewBox="0 0 52 62" version="1.1" xmlns="http://www.w3.org/2000/svg" xmlns:xlink="http://www.w3.org/1999/xlink">
    <!-- Generator: sketchtool 51.3 (57544) - http://www.bohemiancoding.com/sketch -->
    <title>6038CD7A-7EFE-4C5D-B293-3B48E1A30FB9</title>
    <desc>Created with sketchtool.</desc>
    <defs></defs>
    <g id="New-Perspectives" stroke="none" stroke-width="1" fill="none" fill-rule="evenodd">
        <g id="D_Inscription-déclinaisons" transform="translate(-989.000000, -964.000000)" fill="#D80505" fill-rule="nonzero">
            <g id="Bad-file" transform="translate(989.000000, 964.000000)">
                <path d="M33.5,43.188 C30.1669884,42.5959937 27.6669884,42.2999905 26,42.2999905 C24.3336551,42.2999905 21.8336551,42.5959937 18.5,43.188 C17.981,43.188 17.562,43.607 17.562,44.126 C17.562,44.645 17.9635047,44.8580208 18.5,45.064 C19.0364953,45.2699792 22.25,44.064 26,44.064 C29.75,44.064 32.964525,45.2554816 33.5,45.064 C34.035475,44.8725184 34.438,44.645 34.438,44.126 C34.438,43.607 34.019,43.188 33.5,43.188 Z" id="Shape"></path>
                <path d="M18.5,39.438 C18.74,39.438 18.979,39.346 19.163,39.164 C19.529,38.798 19.529,38.204 19.163,37.838 L17.951,36.626 L19.163,35.414 C19.529,35.048 19.529,34.454 19.163,34.088 C18.797,33.722 18.203,33.722 17.837,34.088 L16.625,35.3 L15.413,34.088 C15.047,33.722 14.453,33.722 14.087,34.088 C13.721,34.454 13.721,35.048 14.087,35.414 L15.299,36.626 L14.087,37.838 C13.721,38.204 13.721,38.798 14.087,39.164 C14.271,39.347 14.51,39.438 14.75,39.438 C14.99,39.438 15.229,39.346 15.413,39.164 L16.625,37.952 L17.837,39.164 C18.021,39.346 18.26,39.438 18.5,39.438 Z" id="Shape"></path>
                <path d="M37.913,34.087 C37.547,33.721 36.953,33.721 36.587,34.087 L35.375,35.299 L34.163,34.087 C33.797,33.721 33.203,33.721 32.837,34.087 C32.471,34.453 32.471,35.047 32.837,35.413 L34.049,36.625 L32.837,37.837 C32.471,38.203 32.471,38.797 32.837,39.163 C33.021,39.346 33.26,39.437 33.5,39.437 C33.74,39.437 33.979,39.345 34.163,39.163 L35.375,37.951 L36.587,39.163 C36.771,39.346 37.01,39.437 37.25,39.437 C37.49,39.437 37.729,39.345 37.913,39.163 C38.279,38.797 38.279,38.203 37.913,37.837 L36.701,36.625 L37.913,35.413 C38.279,35.047 38.279,34.453 37.913,34.087 Z" id="Shape"></path>
                <path d="M51.036,13.462 L37.915,0.337 C37.827,0.251 37.723,0.184 37.609,0.136 C37.493,0.088 37.373,0.063 37.25,0.063 L5.375,0.063 C2.789,0.063 0.687,2.165 0.687,4.751 L0.687,57.251 C0.687,59.836 2.789,61.939 5.375,61.939 L46.625,61.939 C49.211,61.939 51.313,59.837 51.313,57.251 L51.313,14.125 C51.313,14.004 51.288,13.881 51.242,13.766 C51.193,13.652 51.124,13.548 51.036,13.462 Z M41,13.188 C39.449,13.188 38.188,11.926 38.188,10.376 L38.188,3.264 L48.112,13.188 L41,13.188 Z M46.625,60.062 L5.375,60.062 C3.824,60.062 2.563,58.8 2.563,57.25 L2.563,4.75 C2.563,3.199 3.825,1.938 5.375,1.938 L36.313,1.938 L36.313,10.376 C36.313,12.961 38.415,15.064 41.001,15.064 L49.439,15.064 L49.439,57.25 C49.438,58.801 48.176,60.062 46.625,60.062 Z" id="Shape"></path>
            </g>
        </g>
    </g>
</svg>