<?xml version="1.0" encoding="UTF-8"?>
<svg width="52px" height="62px" viewBox="0 0 52 62" version="1.1" xmlns="http://www.w3.org/2000/svg" xmlns:xlink="http://www.w3.org/1999/xlink">
    <!-- Generator: sketchtool 51.3 (57544) - http://www.bohemiancoding.com/sketch -->
    <title>AC6737D8-21AA-4BAE-843D-280B3C98FB9B</title>
    <desc>Created with sketchtool.</desc>
    <defs></defs>
    <g id="New-Perspectives" stroke="none" stroke-width="1" fill="none" fill-rule="evenodd">
        <g id="D_Inscription-déclinaisons" transform="translate(-325.000000, -689.000000)" fill="#17BEBB" fill-rule="nonzero">
            <g id="Good-file-" transform="translate(325.000000, 689.000000)">
                <path d="M33.5,44.2077784 C32.6135991,43.8938392 28.8210589,42.460711 26.0407468,42.460711 C23.2604348,42.460711 19.3173696,43.9131202 18.5,44.2077784 C17.6826304,44.5024367 17.5021745,45.1291022 17.7058551,45.5779645 C17.9095356,46.0268268 18.5942686,45.9944424 18.9315206,45.8533655 C19.2687726,45.7122886 22.25,44.0837784 26,44.0837784 C29.75,44.0837784 32.6294309,45.7006141 33.1106234,45.8533655 C33.5918158,46.0061169 34.1985987,46.0061169 34.3864009,45.4938429 C34.574203,44.9815688 34.3864009,44.5217176 33.5,44.2077784 Z" id="Shape" transform="translate(26.040747, 44.203721) scale(1, -1) translate(-26.040747, -44.203721) "></path>
                <circle id="Oval-2" cx="17" cy="36" r="3"></circle>
                <circle id="Oval-2-Copy" cx="35" cy="36" r="3"></circle>
                <path d="M51.036,13.462 L37.915,0.337 C37.827,0.251 37.723,0.184 37.609,0.136 C37.493,0.088 37.373,0.063 37.25,0.063 L5.375,0.063 C2.789,0.063 0.687,2.165 0.687,4.751 L0.687,57.251 C0.687,59.836 2.789,61.939 5.375,61.939 L46.625,61.939 C49.211,61.939 51.313,59.837 51.313,57.251 L51.313,14.125 C51.313,14.004 51.288,13.881 51.242,13.766 C51.193,13.652 51.124,13.548 51.036,13.462 Z M41,13.188 C39.449,13.188 38.188,11.926 38.188,10.376 L38.188,3.264 L48.112,13.188 L41,13.188 Z M46.625,60.062 L5.375,60.062 C3.824,60.062 2.563,58.8 2.563,57.25 L2.563,4.75 C2.563,3.199 3.825,1.938 5.375,1.938 L36.313,1.938 L36.313,10.376 C36.313,12.961 38.415,15.064 41.001,15.064 L49.439,15.064 L49.439,57.25 C49.438,58.801 48.176,60.062 46.625,60.062 Z" id="Shape"></path>
            </g>
        </g>
    </g>
</svg>