<?xml version="1.0" encoding="UTF-8"?>
<svg width="16px" height="15px" viewBox="0 0 16 15" version="1.1" xmlns="http://www.w3.org/2000/svg" xmlns:xlink="http://www.w3.org/1999/xlink">
    <title>1C61C206-676C-488C-AEE5-E0B88F09C67C</title>
    <defs></defs>
    <g id="1C61C206-676C-488C-AEE5-E0B88F09C67C" stroke="none" stroke-width="1" fill="none" fill-rule="evenodd" opacity="0.5">
        <g id="D_Perspective_Fiche-view" transform="translate(-142.000000, -184.000000)" fill="#0D7A93">
            <g id="work-2" transform="translate(142.000000, 184.000000)">
                <path d="M14.4,3.15789474 L11.2,3.15789474 L11.2,1.57894737 L9.6,0 L6.4,0 L4.8,1.57894737 L4.8,3.15789474 L1.6,3.15789474 C0.72,3.15789474 0,3.86842105 0,4.73684211 L0,13.4210526 C0,14.2894737 0.72,15 1.6,15 L14.4,15 C15.28,15 16,14.2894737 16,13.4210526 L16,4.73684211 C16,3.86842105 15.28,3.15789474 14.4,3.15789474 L14.4,3.15789474 Z M9.6,3.15789474 L6.4,3.15789474 L6.4,1.57894737 L9.6,1.57894737 L9.6,3.15789474 L9.6,3.15789474 Z" id="Shape"></path>
            </g>
        </g>
    </g>
</svg>