<?xml version="1.0" encoding="UTF-8"?>
<svg width="15px" height="16px" viewBox="0 0 15 16" version="1.1" xmlns="http://www.w3.org/2000/svg" xmlns:xlink="http://www.w3.org/1999/xlink">
    <!-- Generator: sketchtool 51.3 (57544) - http://www.bohemiancoding.com/sketch -->
    <title>703625D4-40CE-48FD-AEF0-681C1E68ED30</title>
    <desc>Created with sketchtool.</desc>
    <defs></defs>
    <g id="New---Carole" stroke="none" stroke-width="1" fill="none" fill-rule="evenodd">
        <g id="D_Perspective_Fiche-v1" transform="translate(-141.000000, -886.000000)" fill="#0D7A93" fill-rule="nonzero">
            <path d="M143.21118,893.583916 C143.041719,893.583916 142.842757,893.673515 142.726982,893.801513 L141.125166,895.575538 C140.95845,895.75918 140.958278,896.047177 141.124652,896.230997 L142.726982,898.005378 C142.842757,898.133376 143.041719,898.222975 143.21118,898.222975 L147.508074,898.222975 L147.508074,901.700448 C147.508074,901.865957 147.637399,902 147.797083,902 L149.259111,902 C149.418795,902 149.54812,901.865957 149.54812,901.700448 L149.54812,898.222975 L152.658789,898.222975 C152.907663,898.222975 153.110227,898.013022 153.110227,897.755069 L153.110227,894.051466 C153.110227,893.793691 152.907663,893.583916 152.658789,893.583916 L149.547949,893.583916 L149.547949,892.431929 L153.971938,892.431929 C154.146544,892.431929 154.347222,892.335218 154.460081,892.196376 L155.88832,890.434262 C156.037198,890.250975 156.037198,889.974178 155.888491,889.791069 L154.459738,888.028422 C154.347222,887.889935 154.146544,887.793047 153.971938,887.793047 L149.547949,887.793047 L149.547949,887.14221 C149.547949,886.51235 149.090336,886 148.528097,886 C147.965686,886 147.508074,886.51235 147.508074,887.142032 L147.508074,887.792869 L144.337545,887.792869 C144.088671,887.792869 143.886107,888.002822 143.886107,888.260953 L143.886107,891.964023 C143.886107,892.221975 144.088671,892.431929 144.337545,892.431929 L147.507902,892.431929 L147.507902,893.583916 L143.21118,893.583916 Z" id="Déplacements"></path>
        </g>
    </g>
</svg>