<?xml version="1.0" encoding="UTF-8"?>
<svg width="15px" height="16px" viewBox="0 0 15 16" version="1.1" xmlns="http://www.w3.org/2000/svg" xmlns:xlink="http://www.w3.org/1999/xlink">
    <title>3647910A-22D1-4551-A15F-7BED9D51D20F</title>
    <defs></defs>
    <g id="3647910A-22D1-4551-A15F-7BED9D51D20F" stroke="none" stroke-width="1" fill="none" fill-rule="evenodd" opacity="0.5">
        <g id="D_Perspective_Fiche-view" transform="translate(-472.000000, -183.000000)" fill="#0D7A93">
            <path d="M482,190.578947 L482,185.526316 L479.5,183 L477,185.526316 L477,187.210526 L472,187.210526 L472,199 L487,199 L487,190.578947 L482,190.578947 L482,190.578947 Z M475.333333,197.315789 L473.666667,197.315789 L473.666667,195.631579 L475.333333,195.631579 L475.333333,197.315789 L475.333333,197.315789 Z M475.333333,193.947368 L473.666667,193.947368 L473.666667,192.263158 L475.333333,192.263158 L475.333333,193.947368 L475.333333,193.947368 Z M475.333333,190.578947 L473.666667,190.578947 L473.666667,188.894737 L475.333333,188.894737 L475.333333,190.578947 L475.333333,190.578947 Z M480.333333,197.315789 L478.666667,197.315789 L478.666667,195.631579 L480.333333,195.631579 L480.333333,197.315789 L480.333333,197.315789 Z M480.333333,193.947368 L478.666667,193.947368 L478.666667,192.263158 L480.333333,192.263158 L480.333333,193.947368 L480.333333,193.947368 Z M480.333333,190.578947 L478.666667,190.578947 L478.666667,188.894737 L480.333333,188.894737 L480.333333,190.578947 L480.333333,190.578947 Z M480.333333,187.210526 L478.666667,187.210526 L478.666667,185.526316 L480.333333,185.526316 L480.333333,187.210526 L480.333333,187.210526 Z M485.333333,197.315789 L483.666667,197.315789 L483.666667,195.631579 L485.333333,195.631579 L485.333333,197.315789 L485.333333,197.315789 Z M485.333333,193.947368 L483.666667,193.947368 L483.666667,192.263158 L485.333333,192.263158 L485.333333,193.947368 L485.333333,193.947368 Z" id="Shape-Copy-2"></path>
        </g>
    </g>
</svg>