<?xml version="1.0" encoding="UTF-8"?>
<svg width="16px" height="16px" viewBox="0 0 16 16" version="1.1" xmlns="http://www.w3.org/2000/svg" xmlns:xlink="http://www.w3.org/1999/xlink">
    <!-- Generator: sketchtool 51.3 (57544) - http://www.bohemiancoding.com/sketch -->
    <title>2C9DFF11-28D9-4094-836A-D46C7ABB52AD</title>
    <desc>Created with sketchtool.</desc>
    <defs></defs>
    <g id="New---Carole" stroke="none" stroke-width="1" fill="none" fill-rule="evenodd">
        <g id="D_Perspective_Fiche-v1" transform="translate(-140.000000, -808.000000)" fill="#0D7A93">
            <g id="schedule" transform="translate(140.000000, 808.000000)">
                <path d="M8,0 C3.6,0 0,3.6 0,8 C0,12.4 3.6,16 8,16 C12.4,16 16,12.4 16,8 C16,3.6 12.4,0 8,0 L8,0 Z M8,14.4 C4.48,14.4 1.6,11.52 1.6,8 C1.6,4.48 4.48,1.6 8,1.6 C11.52,1.6 14.4,4.48 14.4,8 C14.4,11.52 11.52,14.4 8,14.4 L8,14.4 Z" id="Shape"></path>
                <polygon id="Shape" points="9 4 8 4 8 7.65217391 11.4666667 9.6 12 8.80869565 9 7.16521739"></polygon>
            </g>
        </g>
    </g>
</svg>