<?xml version="1.0" encoding="UTF-8"?>
<svg width="14px" height="13px" viewBox="0 0 14 13" version="1.1" xmlns="http://www.w3.org/2000/svg" xmlns:xlink="http://www.w3.org/1999/xlink">
    <!-- Generator: sketchtool 51.3 (57544) - http://www.bohemiancoding.com/sketch -->
    <title>C067F37C-C955-4904-AD21-F398DD989E45</title>
    <desc>Created with sketchtool.</desc>
    <defs></defs>
    <g id="New---Carole" stroke="none" stroke-width="1" fill="none" fill-rule="evenodd">
        <g id="D_Perspective_Fiche-v1" transform="translate(-582.000000, -808.000000)" fill="#0D7A93" fill-rule="nonzero">
            <path d="M592.908333,820.979912 L583.75,819.587218 C582.758333,819.442378 582,818.840734 582,817.837994 L582,809.671233 C582,808 582,808 583.75,808 L594.81,808 C595.498333,808 596,808.479087 596,809.136439 L596,816.890961 C596,817.548313 595.498333,818.0274 594.81,818.0274 L584.065,818.0274 C583.563333,818.0274 583.516667,818.406213 584.065,818.461921 L594.25,819.475802 L594.25,820.021738 C594.25,820.734798 593.62,821.091328 592.908333,820.979912 Z M593.818333,812.267216 C593.246667,812.267216 592.791667,812.690595 592.791667,813.236531 C592.791667,813.782467 593.246667,814.216988 593.818333,814.216988 C594.39,814.216988 594.833333,813.782467 594.833333,813.236531 C594.833333,812.690595 594.39,812.267216 593.818333,812.267216 Z" id="Salaire" transform="translate(589.000000, 814.500000) scale(-1, 1) rotate(-180.000000) translate(-589.000000, -814.500000) "></path>
        </g>
    </g>
</svg>