<?xml version="1.0" encoding="UTF-8"?>
<svg width="176px" height="41px" viewBox="0 0 176 41" version="1.1" xmlns="http://www.w3.org/2000/svg" xmlns:xlink="http://www.w3.org/1999/xlink">
    <!-- Generator: Sketch 53.2 (72643) - https://sketchapp.com -->
    <title>LOGO</title>
    <desc>Created with Sketch.</desc>
    <g id="Guerillas-Test" stroke="none" stroke-width="1" fill="none" fill-rule="evenodd">
        <g id="Artboard" transform="translate(-579.000000, -210.000000)" fill="#334051">
            <g id="LOGO" transform="translate(579.000000, 210.000000)">
                <path d="M0.990546528,10.3814916 L6.05289662,10.3814916 C9.0239152,10.3814916 10.7334957,11.8421041 10.7334957,14.4313717 C10.7334957,17.1534222 9.0239152,18.7302198 6.05289662,18.7302198 L3.94496724,18.7302198 L3.94496724,22 L0.990546528,22 L0.990546528,10.3814916 Z M3.94496724,12.7051933 L3.94496724,16.4065181 L5.9035158,16.4065181 C7.19814959,16.4065181 7.94505371,15.7592012 7.94505371,14.5309589 C7.94505371,13.3193144 7.19814959,12.7051933 5.9035158,12.7051933 L3.94496724,12.7051933 Z M25.5134496,12.7051933 L19.372238,12.7051933 L19.372238,15.0122971 L24.9159263,15.0122971 L24.9159263,17.3359988 L19.372238,17.3359988 L19.372238,19.6762983 L25.6960262,19.6762983 L25.6960262,22 L16.4178173,22 L16.4178173,10.3814916 L25.5134496,10.3814916 L25.5134496,12.7051933 Z M38.7498016,22 L37.0236232,18.7302198 L34.6999216,18.7302198 L34.6999216,22 L31.7455008,22 L31.7455008,10.3814916 L36.9406339,10.3814916 C40.0112397,10.3814916 41.7706138,11.8421041 41.7706138,14.4313717 C41.7706138,16.2073437 41.0237097,17.4853796 39.6626844,18.1658922 L42.1025712,22 L38.7498016,22 Z M34.6999216,16.4065181 L36.9406339,16.4065181 C38.2186698,16.4065181 38.9655739,15.7592012 38.9655739,14.5309589 C38.9655739,13.3193144 38.2186698,12.7051933 36.9406339,12.7051933 L34.6999216,12.7051933 L34.6999216,16.4065181 Z M52.3679047,10.2487086 C54.0442894,10.2487086 55.75387,10.7632426 56.9489165,11.5433424 L55.8368593,13.8504462 C54.608617,13.1367379 53.0650152,12.6388018 52.1189366,12.6388018 C51.3554346,12.6388018 50.8409007,12.9209656 50.8409007,13.4852931 C50.8409007,15.4936353 56.9821123,14.3483823 56.9821123,18.5476432 C56.9821123,20.8713449 54.9239765,22.0995872 52.3347089,22.0995872 C50.3927582,22.0995872 48.4010139,21.369281 47.0233908,20.2406259 L48.1686438,17.9667178 C49.3636903,19.0123836 51.1562602,19.7094941 52.3679047,19.7094941 C53.2973853,19.7094941 53.8783108,19.3609388 53.8783108,18.697024 C53.8783108,16.6388883 47.7370992,17.8671306 47.7370992,13.750859 C47.7370992,11.6097339 49.5794626,10.2487086 52.3679047,10.2487086 Z M62.7328253,10.3814916 L67.7951754,10.3814916 C70.766194,10.3814916 72.4757745,11.8421041 72.4757745,14.4313717 C72.4757745,17.1534222 70.766194,18.7302198 67.7951754,18.7302198 L65.687246,18.7302198 L65.687246,22 L62.7328253,22 L62.7328253,10.3814916 Z M65.687246,12.7051933 L65.687246,16.4065181 L67.6457946,16.4065181 C68.9404284,16.4065181 69.6873325,15.7592012 69.6873325,14.5309589 C69.6873325,13.3193144 68.9404284,12.7051933 67.6457946,12.7051933 L65.687246,12.7051933 Z M87.2557284,12.7051933 L81.1145168,12.7051933 L81.1145168,15.0122971 L86.6582051,15.0122971 L86.6582051,17.3359988 L81.1145168,17.3359988 L81.1145168,19.6762983 L87.438305,19.6762983 L87.438305,22 L78.1600961,22 L78.1600961,10.3814916 L87.2557284,10.3814916 L87.2557284,12.7051933 Z M98.9318807,10.2819044 C100.658059,10.2819044 102.450629,11.0454064 103.61248,12.2404529 L101.902899,14.265393 C101.139397,13.3359123 100.010742,12.7549869 98.9816743,12.7549869 C97.1393109,12.7549869 95.7450899,14.2155994 95.7450899,16.1243543 C95.7450899,18.066305 97.1393109,19.5435154 98.9816743,19.5435154 C99.9609486,19.5435154 101.089604,19.0123836 101.902899,18.1824901 L103.629078,20.0082557 C102.384238,21.2862916 100.541874,22.132783 98.8322935,22.132783 C95.3301431,22.132783 92.7242777,19.5601132 92.7242777,16.1575501 C92.7242777,12.8047805 95.3965346,10.2819044 98.9318807,10.2819044 Z M117.994085,12.7549869 L114.491934,12.7549869 L114.491934,22 L111.537514,22 L111.537514,12.7549869 L108.068559,12.7549869 L108.068559,10.3648937 L117.994085,10.3648937 L117.994085,12.7549869 Z M126.350663,22 L123.396243,22 L123.396243,10.3814916 L126.350663,10.3814916 L126.350663,22 Z M139.205264,22 L136.151256,22 L131.636636,10.3814916 L134.790231,10.3814916 L137.76125,18.9293942 L140.732268,10.3814916 L143.769678,10.3814916 L139.205264,22 Z M158.151283,12.7051933 L152.010072,12.7051933 L152.010072,15.0122971 L157.55376,15.0122971 L157.55376,17.3359988 L152.010072,17.3359988 L152.010072,19.6762983 L158.33386,19.6762983 L158.33386,22 L149.055651,22 L149.055651,10.3814916 L158.151283,10.3814916 L158.151283,12.7051933 Z M168.848161,10.2487086 C170.524546,10.2487086 172.234127,10.7632426 173.429173,11.5433424 L172.317116,13.8504462 C171.088874,13.1367379 169.545272,12.6388018 168.599193,12.6388018 C167.835691,12.6388018 167.321158,12.9209656 167.321158,13.4852931 C167.321158,15.4936353 173.462369,14.3483823 173.462369,18.5476432 C173.462369,20.8713449 171.404233,22.0995872 168.814966,22.0995872 C166.873015,22.0995872 164.881271,21.369281 163.503648,20.2406259 L164.648901,17.9667178 C165.843947,19.0123836 167.636517,19.7094941 168.848161,19.7094941 C169.777642,19.7094941 170.358568,19.3609388 170.358568,18.697024 C170.358568,16.6388883 164.217356,17.8671306 164.217356,13.750859 C164.217356,11.6097339 166.059719,10.2487086 168.848161,10.2487086 Z" id="PERSPECTIVES"></path>
                <path d="M1,29 L1.99143989,29 L1.99143989,32.8555996 L2.01347189,32.8555996 C2.18972875,32.5838702 2.44309419,32.3690604 2.7735758,32.2111636 C3.10405742,32.0532669 3.45656585,31.9743197 3.83111168,31.9743197 C4.23503366,31.9743197 4.60039396,32.044087 4.92720356,32.1836236 C5.25401316,32.3231603 5.53308233,32.5159384 5.76441946,32.7619636 C5.99575659,33.0079888 6.17384679,33.2980738 6.2986954,33.6322275 C6.42354401,33.9663811 6.48596738,34.3280695 6.48596738,34.7173034 C6.48596738,35.1065373 6.42354401,35.4663896 6.2986954,35.7968712 C6.17384679,36.1273528 5.99575659,36.4174379 5.76441946,36.6671351 C5.53308233,36.9168324 5.25401316,37.1114464 4.92720356,37.2509831 C4.60039396,37.3905198 4.23503366,37.460287 3.83111168,37.460287 C3.47859796,37.460287 3.13526943,37.3831758 2.8011158,37.2289511 C2.46696216,37.0747263 2.20441682,36.8580805 2.01347189,36.5790071 L1.99143989,36.5790071 L1.99143989,37.3280951 L1,37.3280951 L1,29 Z M3.70993569,36.5349432 C3.97432099,36.5349432 4.21299857,36.4890436 4.42597561,36.3972432 C4.63895266,36.3054427 4.81887884,36.180596 4.96575955,36.0226992 C5.11264027,35.8648024 5.22647112,35.6738604 5.30725552,35.4498673 C5.38803991,35.2258742 5.4284315,34.9816886 5.4284315,34.7173034 C5.4284315,34.4529181 5.38803991,34.2087325 5.30725552,33.9847394 C5.22647112,33.7607463 5.11264027,33.5698043 4.96575955,33.4119075 C4.81887884,33.2540107 4.63895266,33.129164 4.42597561,33.0373635 C4.21299857,32.9455631 3.97432099,32.8996636 3.70993569,32.8996636 C3.4455504,32.8996636 3.20687282,32.9455631 2.99389578,33.0373635 C2.78091873,33.129164 2.60099255,33.2540107 2.45411184,33.4119075 C2.30723112,33.5698043 2.19340027,33.7607463 2.11261587,33.9847394 C2.03183148,34.2087325 1.99143989,34.4529181 1.99143989,34.7173034 C1.99143989,34.9816886 2.03183148,35.2258742 2.11261587,35.4498673 C2.19340027,35.6738604 2.30723112,35.8648024 2.45411184,36.0226992 C2.60099255,36.180596 2.78091873,36.3054427 2.99389578,36.3972432 C3.20687282,36.4890436 3.4455504,36.5349432 3.70993569,36.5349432 Z M10.2262228,34.7173034 C10.2262228,34.9816886 10.2666144,35.2258742 10.3473988,35.4498673 C10.4281832,35.6738604 10.5420141,35.8648024 10.6888948,36.0226992 C10.8357755,36.180596 11.0157017,36.3054427 11.2286787,36.3972432 C11.4416558,36.4890436 11.6803334,36.5349432 11.9447187,36.5349432 C12.2091039,36.5349432 12.4477815,36.4890436 12.6607586,36.3972432 C12.8737356,36.3054427 13.0536618,36.180596 13.2005425,36.0226992 C13.3474232,35.8648024 13.4612541,35.6738604 13.5420385,35.4498673 C13.6228229,35.2258742 13.6632145,34.9816886 13.6632145,34.7173034 C13.6632145,34.4529181 13.6228229,34.2087325 13.5420385,33.9847394 C13.4612541,33.7607463 13.3474232,33.5698043 13.2005425,33.4119075 C13.0536618,33.2540107 12.8737356,33.129164 12.6607586,33.0373635 C12.4477815,32.9455631 12.2091039,32.8996636 11.9447187,32.8996636 C11.6803334,32.8996636 11.4416558,32.9455631 11.2286787,33.0373635 C11.0157017,33.129164 10.8357755,33.2540107 10.6888948,33.4119075 C10.5420141,33.5698043 10.4281832,33.7607463 10.3473988,33.9847394 C10.2666144,34.2087325 10.2262228,34.4529181 10.2262228,34.7173034 Z M9.16868696,34.7173034 C9.16868696,34.3354135 9.24029024,33.9792331 9.38349894,33.6487515 C9.52670764,33.3182699 9.72315765,33.0281848 9.97285487,32.7784876 C10.2225521,32.5287904 10.5163091,32.3323403 10.8541348,32.1891316 C11.1919604,32.0459229 11.5554847,31.9743197 11.9447187,31.9743197 C12.3339526,31.9743197 12.6974769,32.0459229 13.0353025,32.1891316 C13.3731282,32.3323403 13.6668852,32.5287904 13.9165824,32.7784876 C14.1662796,33.0281848 14.3627297,33.3182699 14.5059384,33.6487515 C14.6491471,33.9792331 14.7207503,34.3354135 14.7207503,34.7173034 C14.7207503,35.0991932 14.6491471,35.4572096 14.5059384,35.7913632 C14.3627297,36.1255169 14.1662796,36.4156019 13.9165824,36.6616271 C13.6668852,36.9076523 13.3731282,37.1022664 13.0353025,37.2454751 C12.6974769,37.3886838 12.3339526,37.460287 11.9447187,37.460287 C11.5554847,37.460287 11.1919604,37.3886838 10.8541348,37.2454751 C10.5163091,37.1022664 10.2225521,36.9076523 9.97285487,36.6616271 C9.72315765,36.4156019 9.52670764,36.1255169 9.38349894,35.7913632 C9.24029024,35.4572096 9.16868696,35.0991932 9.16868696,34.7173034 Z M18.4610058,34.7173034 C18.4610058,34.9816886 18.5013974,35.2258742 18.5821818,35.4498673 C18.6629662,35.6738604 18.776797,35.8648024 18.9236777,36.0226992 C19.0705585,36.180596 19.2504846,36.3054427 19.4634617,36.3972432 C19.6764387,36.4890436 19.9151163,36.5349432 20.1795016,36.5349432 C20.4438869,36.5349432 20.6825645,36.4890436 20.8955415,36.3972432 C21.1085186,36.3054427 21.2884447,36.180596 21.4353255,36.0226992 C21.5822062,35.8648024 21.696037,35.6738604 21.7768214,35.4498673 C21.8576058,35.2258742 21.8979974,34.9816886 21.8979974,34.7173034 C21.8979974,34.4529181 21.8576058,34.2087325 21.7768214,33.9847394 C21.696037,33.7607463 21.5822062,33.5698043 21.4353255,33.4119075 C21.2884447,33.2540107 21.1085186,33.129164 20.8955415,33.0373635 C20.6825645,32.9455631 20.4438869,32.8996636 20.1795016,32.8996636 C19.9151163,32.8996636 19.6764387,32.9455631 19.4634617,33.0373635 C19.2504846,33.129164 19.0705585,33.2540107 18.9236777,33.4119075 C18.776797,33.5698043 18.6629662,33.7607463 18.5821818,33.9847394 C18.5013974,34.2087325 18.4610058,34.4529181 18.4610058,34.7173034 Z M17.4034699,34.7173034 C17.4034699,34.3354135 17.4750732,33.9792331 17.6182819,33.6487515 C17.7614906,33.3182699 17.9579406,33.0281848 18.2076378,32.7784876 C18.457335,32.5287904 18.7510921,32.3323403 19.0889177,32.1891316 C19.4267434,32.0459229 19.7902677,31.9743197 20.1795016,31.9743197 C20.5687355,31.9743197 20.9322598,32.0459229 21.2700855,32.1891316 C21.6079111,32.3323403 21.9016682,32.5287904 22.1513654,32.7784876 C22.4010626,33.0281848 22.5975126,33.3182699 22.7407213,33.6487515 C22.88393,33.9792331 22.9555333,34.3354135 22.9555333,34.7173034 C22.9555333,35.0991932 22.88393,35.4572096 22.7407213,35.7913632 C22.5975126,36.1255169 22.4010626,36.4156019 22.1513654,36.6616271 C21.9016682,36.9076523 21.6079111,37.1022664 21.2700855,37.2454751 C20.9322598,37.3886838 20.5687355,37.460287 20.1795016,37.460287 C19.7902677,37.460287 19.4267434,37.3886838 19.0889177,37.2454751 C18.7510921,37.1022664 18.457335,36.9076523 18.2076378,36.6616271 C17.9579406,36.4156019 17.7614906,36.1255169 17.6182819,35.7913632 C17.4750732,35.4572096 17.4034699,35.0991932 17.4034699,34.7173034 Z M28.6676525,33.4174155 C28.550148,33.2705348 28.4051054,33.147524 28.2325206,33.0483795 C28.0599357,32.9492351 27.8487979,32.8996636 27.5991007,32.8996636 C27.3640915,32.8996636 27.1602976,32.9492351 26.9877127,33.0483795 C26.8151279,33.147524 26.7288368,33.2925666 26.7288368,33.4835115 C26.7288368,33.6377362 26.7784082,33.762583 26.8775527,33.8580555 C26.9766972,33.9535279 27.0942,34.0306391 27.2300647,34.0893914 C27.3659294,34.1481437 27.5109719,34.1922073 27.6651966,34.2215834 C27.8194214,34.2509596 27.9516121,34.2766633 28.0617726,34.2986954 C28.2747496,34.3501037 28.4748716,34.412527 28.6621445,34.4859674 C28.8494174,34.5594077 29.0109838,34.6548788 29.1468485,34.7723834 C29.2827131,34.8898879 29.3892001,35.0330945 29.4663124,35.2020073 C29.5434248,35.3709201 29.5819804,35.57655 29.5819804,35.8189032 C29.5819804,36.1126647 29.5195571,36.3641941 29.3947085,36.5734991 C29.2698598,36.7828042 29.1082935,36.9535504 28.9100045,37.0857431 C28.7117155,37.2179357 28.4858898,37.3134068 28.2325206,37.3721591 C27.9791513,37.4309113 27.7239499,37.460287 27.4669087,37.460287 C27.0336105,37.460287 26.6535624,37.3941917 26.3267528,37.2619991 C25.9999432,37.1298064 25.7080222,36.8874569 25.4509809,36.5349432 L26.2000688,35.9180472 C26.3616376,36.079616 26.5415638,36.2228226 26.7398527,36.3476712 C26.9381417,36.4725198 27.1804913,36.5349432 27.4669087,36.5349432 C27.5917573,36.5349432 27.71844,36.5220913 27.8469606,36.4963872 C27.9754813,36.470683 28.0893121,36.4302914 28.1884566,36.3752112 C28.2876011,36.3201309 28.3683843,36.2503636 28.4308086,36.1659072 C28.4932329,36.0814508 28.5244445,35.9841438 28.5244445,35.8739832 C28.5244445,35.7271025 28.478545,35.6059277 28.3867446,35.5104553 C28.2949441,35.4149828 28.1847852,35.3397076 28.0562646,35.2846273 C27.927744,35.229547 27.7918813,35.1854835 27.6486726,35.1524353 C27.5054639,35.1193871 27.3787812,35.0918474 27.2686207,35.0698153 C27.0556436,35.0184071 26.8536857,34.9596557 26.6627408,34.8935593 C26.4717958,34.827463 26.3028855,34.7393359 26.1560048,34.6291754 C26.0091241,34.5190148 25.8916213,34.3794802 25.8034929,34.2105674 C25.7153644,34.0416546 25.6713009,33.8323527 25.6713009,33.5826555 C25.6713009,33.3109262 25.7282163,33.0740846 25.8420489,32.8721236 C25.9558814,32.6701626 26.1064319,32.5030883 26.2937048,32.3708956 C26.4809777,32.238703 26.6939516,32.13956 26.9326327,32.0734637 C27.1713139,32.0073673 27.4118275,31.9743197 27.6541806,31.9743197 C28.0066944,31.9743197 28.344515,32.040415 28.6676525,32.1726076 C28.9907901,32.3048003 29.2478275,32.5251181 29.4387724,32.8335676 L28.6676525,33.4174155 Z M35.2720677,32.9657596 L33.8510038,32.9657596 L33.8510038,35.3341993 C33.8510038,35.48108 33.8546758,35.6261225 33.8620198,35.7693312 C33.8693639,35.9125399 33.8969036,36.0410586 33.9446398,36.1548912 C33.9923761,36.2687238 34.0658153,36.3605228 34.1649598,36.4302912 C34.2641043,36.5000595 34.4091468,36.5349432 34.6000917,36.5349432 C34.7175963,36.5349432 34.8387711,36.5239273 34.9636197,36.5018952 C35.0884683,36.479863 35.2022992,36.4394715 35.3051157,36.3807192 L35.3051157,37.2840311 C35.1876111,37.3501274 35.0352246,37.3960269 34.8479517,37.4217311 C34.6606788,37.4474352 34.5156363,37.460287 34.4128198,37.460287 C34.0309299,37.460287 33.7353369,37.4070436 33.5260319,37.3005551 C33.3167268,37.1940665 33.1625044,37.0563679 33.0633599,36.8874551 C32.9642154,36.7185423 32.905464,36.5294362 32.8871039,36.3201312 C32.8687438,36.1108262 32.8595639,35.8996883 32.8595639,35.6867112 L32.8595639,32.9657596 L31.7139001,32.9657596 L31.7139001,32.1065117 L32.8595639,32.1065117 L32.8595639,30.6413838 L33.8510038,30.6413838 L33.8510038,32.1065117 L35.2720677,32.1065117 L35.2720677,32.9657596 Z M38.9902911,35.0808313 C38.9902911,35.3084964 39.0398626,35.5159623 39.1390071,35.7032352 C39.2381516,35.8905082 39.3685063,36.0502385 39.5300751,36.1824312 C39.6916439,36.3146238 39.878914,36.4174388 40.091891,36.4908792 C40.3048681,36.5643195 40.5251858,36.6010391 40.7528509,36.6010391 C41.0613004,36.6010391 41.3293537,36.5294359 41.5570188,36.3862272 C41.784684,36.2430185 41.9939858,36.0539124 42.1849308,35.8189032 L42.9340187,36.3917352 C42.383216,37.1041066 41.6121038,37.460287 40.620659,37.460287 C40.2093929,37.460287 39.8366887,37.3905198 39.5025351,37.2509831 C39.1683814,37.1114464 38.8856403,36.9186683 38.6543032,36.6726431 C38.422966,36.4266179 38.2448758,36.1365329 38.1200272,35.8023792 C37.9951786,35.4682256 37.9327553,35.1065373 37.9327553,34.7173034 C37.9327553,34.3280695 38.0006866,33.9663811 38.1365512,33.6322275 C38.2724159,33.2980738 38.459686,33.0079888 38.6983672,32.7619636 C38.9370483,32.5159384 39.2216255,32.3231603 39.5521071,32.1836236 C39.8825887,32.044087 40.242441,31.9743197 40.6316749,31.9743197 C41.0943492,31.9743197 41.4854133,32.0551028 41.8048788,32.2166716 C42.1243444,32.3782404 42.3868897,32.5893783 42.5925227,32.8500916 C42.7981557,33.1108048 42.9468702,33.4045619 43.0386707,33.7313715 C43.1304711,34.0581811 43.1763707,34.3904937 43.1763707,34.7283194 L43.1763707,35.0808313 L38.9902911,35.0808313 Z M42.1188348,34.2876794 C42.1114907,34.0673583 42.0766071,33.8654004 42.0141828,33.6817995 C41.9517585,33.4981986 41.8581234,33.3384682 41.7332748,33.2026035 C41.6084262,33.0667389 41.4523678,32.9602519 41.2650949,32.8831396 C41.077822,32.8060272 40.8593402,32.7674716 40.609643,32.7674716 C40.3672898,32.7674716 40.145136,32.8133711 39.943175,32.9051716 C39.741214,32.996972 39.5704678,33.1163108 39.4309311,33.2631915 C39.2913944,33.4100722 39.1830715,33.5734746 39.1059591,33.7534035 C39.0288467,33.9333323 38.9902911,34.1114225 38.9902911,34.2876794 L42.1188348,34.2876794 Z M45.6938503,36.4357992 L48.6571539,32.9657596 L45.7929943,32.9657596 L45.7929943,32.1065117 L49.8689138,32.1065117 L49.8689138,32.9877916 L46.8835781,36.4688472 L50.0231378,36.4688472 L50.0231378,37.3280951 L45.6938503,37.3280951 L45.6938503,36.4357992 Z M56.9748808,32.1065117 L58.1205446,32.1065117 L59.6848165,36.1053192 L61.1829923,32.1065117 L62.2405282,32.1065117 L60.1915524,37.3280951 L59.1009685,37.3280951 L56.9748808,32.1065117 Z M65.6062397,34.7173034 C65.6062397,34.9816886 65.6466313,35.2258742 65.7274157,35.4498673 C65.8082,35.6738604 65.9220309,35.8648024 66.0689116,36.0226992 C66.2157923,36.180596 66.3957185,36.3054427 66.6086956,36.3972432 C66.8216726,36.4890436 67.0603502,36.5349432 67.3247355,36.5349432 C67.5891208,36.5349432 67.8277984,36.4890436 68.0407754,36.3972432 C68.2537524,36.3054427 68.4336786,36.180596 68.5805593,36.0226992 C68.7274401,35.8648024 68.8412709,35.6738604 68.9220553,35.4498673 C69.0028397,35.2258742 69.0432313,34.9816886 69.0432313,34.7173034 C69.0432313,34.4529181 69.0028397,34.2087325 68.9220553,33.9847394 C68.8412709,33.7607463 68.7274401,33.5698043 68.5805593,33.4119075 C68.4336786,33.2540107 68.2537524,33.129164 68.0407754,33.0373635 C67.8277984,32.9455631 67.5891208,32.8996636 67.3247355,32.8996636 C67.0603502,32.8996636 66.8216726,32.9455631 66.6086956,33.0373635 C66.3957185,33.129164 66.2157923,33.2540107 66.0689116,33.4119075 C65.9220309,33.5698043 65.8082,33.7607463 65.7274157,33.9847394 C65.6466313,34.2087325 65.6062397,34.4529181 65.6062397,34.7173034 Z M64.5487038,34.7173034 C64.5487038,34.3354135 64.6203071,33.9792331 64.7635158,33.6487515 C64.9067245,33.3182699 65.1031745,33.0281848 65.3528717,32.7784876 C65.6025689,32.5287904 65.8963259,32.3323403 66.2341516,32.1891316 C66.5719772,32.0459229 66.9355016,31.9743197 67.3247355,31.9743197 C67.7139694,31.9743197 68.0774937,32.0459229 68.4153194,32.1891316 C68.753145,32.3323403 69.046902,32.5287904 69.2965993,32.7784876 C69.5462965,33.0281848 69.7427465,33.3182699 69.8859552,33.6487515 C70.0291639,33.9792331 70.1007672,34.3354135 70.1007672,34.7173034 C70.1007672,35.0991932 70.0291639,35.4572096 69.8859552,35.7913632 C69.7427465,36.1255169 69.5462965,36.4156019 69.2965993,36.6616271 C69.046902,36.9076523 68.753145,37.1022664 68.4153194,37.2454751 C68.0774937,37.3886838 67.7139694,37.460287 67.3247355,37.460287 C66.9355016,37.460287 66.5719772,37.3886838 66.2341516,37.2454751 C65.8963259,37.1022664 65.6025689,36.9076523 65.3528717,36.6616271 C65.1031745,36.4156019 64.9067245,36.1255169 64.7635158,35.7913632 C64.6203071,35.4572096 64.5487038,35.0991932 64.5487038,34.7173034 Z M75.8128864,33.4174155 C75.6953818,33.2705348 75.5503393,33.147524 75.3777544,33.0483795 C75.2051696,32.9492351 74.9940317,32.8996636 74.7443345,32.8996636 C74.5093254,32.8996636 74.3055314,32.9492351 74.1329466,33.0483795 C73.9603617,33.147524 73.8740706,33.2925666 73.8740706,33.4835115 C73.8740706,33.6377362 73.9236421,33.762583 74.0227866,33.8580555 C74.1219311,33.9535279 74.2394339,34.0306391 74.3752986,34.0893914 C74.5111632,34.1481437 74.6562058,34.1922073 74.8104305,34.2215834 C74.9646553,34.2509596 75.0968459,34.2766633 75.2070065,34.2986954 C75.4199835,34.3501037 75.6201055,34.412527 75.8073784,34.4859674 C75.9946513,34.5594077 76.1562177,34.6548788 76.2920823,34.7723834 C76.427947,34.8898879 76.5344339,35.0330945 76.6115463,35.2020073 C76.6886587,35.3709201 76.7272143,35.57655 76.7272143,35.8189032 C76.7272143,36.1126647 76.6647909,36.3641941 76.5399423,36.5734991 C76.4150937,36.7828042 76.2535273,36.9535504 76.0552384,37.0857431 C75.8569494,37.2179357 75.6311237,37.3134068 75.3777544,37.3721591 C75.1243852,37.4309113 74.8691838,37.460287 74.6121425,37.460287 C74.1788444,37.460287 73.7987963,37.3941917 73.4719867,37.2619991 C73.1451771,37.1298064 72.853256,36.8874569 72.5962148,36.5349432 L73.3453027,35.9180472 C73.5068715,36.079616 73.6867976,36.2228226 73.8850866,36.3476712 C74.0833756,36.4725198 74.3257251,36.5349432 74.6121425,36.5349432 C74.7369911,36.5349432 74.8636739,36.5220913 74.9921945,36.4963872 C75.1207151,36.470683 75.234546,36.4302914 75.3336905,36.3752112 C75.4328349,36.3201309 75.5136181,36.2503636 75.5760424,36.1659072 C75.6384667,36.0814508 75.6696784,35.9841438 75.6696784,35.8739832 C75.6696784,35.7271025 75.6237789,35.6059277 75.5319784,35.5104553 C75.440178,35.4149828 75.3300191,35.3397076 75.2014985,35.2846273 C75.0729778,35.229547 74.9371152,35.1854835 74.7939065,35.1524353 C74.6506978,35.1193871 74.5240151,35.0918474 74.4138546,35.0698153 C74.2008775,35.0184071 73.9989196,34.9596557 73.8079746,34.8935593 C73.6170297,34.827463 73.4481194,34.7393359 73.3012387,34.6291754 C73.154358,34.5190148 73.0368552,34.3794802 72.9487267,34.2105674 C72.8605983,34.0416546 72.8165347,33.8323527 72.8165347,33.5826555 C72.8165347,33.3109262 72.8734502,33.0740846 72.9872827,32.8721236 C73.1011153,32.6701626 73.2516658,32.5030883 73.4389387,32.3708956 C73.6262116,32.238703 73.8391854,32.13956 74.0778666,32.0734637 C74.3165478,32.0073673 74.5570613,31.9743197 74.7994145,31.9743197 C75.1519282,31.9743197 75.4897488,32.040415 75.8128864,32.1726076 C76.136024,32.3048003 76.3930614,32.5251181 76.5840063,32.8335676 L75.8128864,33.4174155 Z M85.1771331,34.7173034 C85.1771331,34.9816886 85.2175247,35.2258742 85.2983091,35.4498673 C85.3790935,35.6738604 85.4929243,35.8648024 85.6398051,36.0226992 C85.7866858,36.180596 85.966612,36.3054427 86.179589,36.3972432 C86.392566,36.4890436 86.6312436,36.5349432 86.8956289,36.5349432 C87.1600142,36.5349432 87.3986918,36.4890436 87.6116688,36.3972432 C87.8246459,36.3054427 88.0045721,36.180596 88.1514528,36.0226992 C88.2983335,35.8648024 88.4121643,35.6738604 88.4929487,35.4498673 C88.5737331,35.2258742 88.6141247,34.9816886 88.6141247,34.7173034 C88.6141247,34.4529181 88.5737331,34.2087325 88.4929487,33.9847394 C88.4121643,33.7607463 88.2983335,33.5698043 88.1514528,33.4119075 C88.0045721,33.2540107 87.8246459,33.129164 87.6116688,33.0373635 C87.3986918,32.9455631 87.1600142,32.8996636 86.8956289,32.8996636 C86.6312436,32.8996636 86.392566,32.9455631 86.179589,33.0373635 C85.966612,33.129164 85.7866858,33.2540107 85.6398051,33.4119075 C85.4929243,33.5698043 85.3790935,33.7607463 85.2983091,33.9847394 C85.2175247,34.2087325 85.1771331,34.4529181 85.1771331,34.7173034 Z M84.1195972,34.7173034 C84.1195972,34.3354135 84.1912005,33.9792331 84.3344092,33.6487515 C84.4776179,33.3182699 84.6740679,33.0281848 84.9237651,32.7784876 C85.1734624,32.5287904 85.4672194,32.3323403 85.805045,32.1891316 C86.1428707,32.0459229 86.506395,31.9743197 86.8956289,31.9743197 C87.2848628,31.9743197 87.6483871,32.0459229 87.9862128,32.1891316 C88.3240384,32.3323403 88.6177955,32.5287904 88.8674927,32.7784876 C89.1171899,33.0281848 89.3136399,33.3182699 89.4568486,33.6487515 C89.6000573,33.9792331 89.6716606,34.3354135 89.6716606,34.7173034 C89.6716606,35.0991932 89.6000573,35.4572096 89.4568486,35.7913632 C89.3136399,36.1255169 89.1171899,36.4156019 88.8674927,36.6616271 C88.6177955,36.9076523 88.3240384,37.1022664 87.9862128,37.2454751 C87.6483871,37.3886838 87.2848628,37.460287 86.8956289,37.460287 C86.506395,37.460287 86.1428707,37.3886838 85.805045,37.2454751 C85.4672194,37.1022664 85.1734624,36.9076523 84.9237651,36.6616271 C84.6740679,36.4156019 84.4776179,36.1255169 84.3344092,35.7913632 C84.1912005,35.4572096 84.1195972,35.0991932 84.1195972,34.7173034 Z M92.6077482,32.1065117 L93.599188,32.1065117 L93.599188,32.8555996 L93.62122,32.8555996 C93.812165,32.5765262 94.0747103,32.3598804 94.408864,32.2056556 C94.7430176,32.0514309 95.0863461,31.9743197 95.4388598,31.9743197 C95.8427818,31.9743197 96.2081421,32.044087 96.5349517,32.1836236 C96.8617613,32.3231603 97.1408305,32.5177744 97.3721676,32.7674716 C97.6035048,33.0171688 97.781595,33.3090898 97.9064436,33.6432435 C98.0312922,33.9773971 98.0937155,34.3354135 98.0937155,34.7173034 C98.0937155,35.1065373 98.0312922,35.4682256 97.9064436,35.8023792 C97.781595,36.1365329 97.6035048,36.4266179 97.3721676,36.6726431 C97.1408305,36.9186683 96.8617613,37.1114464 96.5349517,37.2509831 C96.2081421,37.3905198 95.8427818,37.460287 95.4388598,37.460287 C95.064314,37.460287 94.7118056,37.3813398 94.381324,37.2234431 C94.0508423,37.0655463 93.7974769,36.8507365 93.62122,36.5790071 L93.599188,36.5790071 L93.599188,40.4346067 L92.6077482,40.4346067 L92.6077482,32.1065117 Z M95.3176839,32.8996636 C95.0532986,32.8996636 94.814621,32.9455631 94.6016439,33.0373635 C94.3886669,33.129164 94.2087407,33.2540107 94.06186,33.4119075 C93.9149793,33.5698043 93.8011484,33.7607463 93.720364,33.9847394 C93.6395796,34.2087325 93.599188,34.4529181 93.599188,34.7173034 C93.599188,34.9816886 93.6395796,35.2258742 93.720364,35.4498673 C93.8011484,35.6738604 93.9149793,35.8648024 94.06186,36.0226992 C94.2087407,36.180596 94.3886669,36.3054427 94.6016439,36.3972432 C94.814621,36.4890436 95.0532986,36.5349432 95.3176839,36.5349432 C95.5820691,36.5349432 95.8207467,36.4890436 96.0337238,36.3972432 C96.2467008,36.3054427 96.426627,36.180596 96.5735077,36.0226992 C96.7203884,35.8648024 96.8342193,35.6738604 96.9150037,35.4498673 C96.9957881,35.2258742 97.0361797,34.9816886 97.0361797,34.7173034 C97.0361797,34.4529181 96.9957881,34.2087325 96.9150037,33.9847394 C96.8342193,33.7607463 96.7203884,33.5698043 96.5735077,33.4119075 C96.426627,33.2540107 96.2467008,33.129164 96.0337238,33.0373635 C95.8207467,32.9455631 95.5820691,32.8996636 95.3176839,32.8996636 Z M101.029803,32.1065117 L102.021243,32.1065117 L102.021243,32.8555996 L102.043275,32.8555996 C102.23422,32.5765262 102.496765,32.3598804 102.830919,32.2056556 C103.165073,32.0514309 103.508401,31.9743197 103.860915,31.9743197 C104.264837,31.9743197 104.630197,32.044087 104.957007,32.1836236 C105.283816,32.3231603 105.562885,32.5177744 105.794223,32.7674716 C106.02556,33.0171688 106.20365,33.3090898 106.328498,33.6432435 C106.453347,33.9773971 106.51577,34.3354135 106.51577,34.7173034 C106.51577,35.1065373 106.453347,35.4682256 106.328498,35.8023792 C106.20365,36.1365329 106.02556,36.4266179 105.794223,36.6726431 C105.562885,36.9186683 105.283816,37.1114464 104.957007,37.2509831 C104.630197,37.3905198 104.264837,37.460287 103.860915,37.460287 C103.486369,37.460287 103.133861,37.3813398 102.803379,37.2234431 C102.472897,37.0655463 102.219532,36.8507365 102.043275,36.5790071 L102.021243,36.5790071 L102.021243,40.4346067 L101.029803,40.4346067 L101.029803,32.1065117 Z M103.739739,32.8996636 C103.475353,32.8996636 103.236676,32.9455631 103.023699,33.0373635 C102.810722,33.129164 102.630796,33.2540107 102.483915,33.4119075 C102.337034,33.5698043 102.223203,33.7607463 102.142419,33.9847394 C102.061635,34.2087325 102.021243,34.4529181 102.021243,34.7173034 C102.021243,34.9816886 102.061635,35.2258742 102.142419,35.4498673 C102.223203,35.6738604 102.337034,35.8648024 102.483915,36.0226992 C102.630796,36.180596 102.810722,36.3054427 103.023699,36.3972432 C103.236676,36.4890436 103.475353,36.5349432 103.739739,36.5349432 C104.004124,36.5349432 104.242802,36.4890436 104.455779,36.3972432 C104.668756,36.3054427 104.848682,36.180596 104.995563,36.0226992 C105.142443,35.8648024 105.256274,35.6738604 105.337059,35.4498673 C105.417843,35.2258742 105.458235,34.9816886 105.458235,34.7173034 C105.458235,34.4529181 105.417843,34.2087325 105.337059,33.9847394 C105.256274,33.7607463 105.142443,33.5698043 104.995563,33.4119075 C104.848682,33.2540107 104.668756,33.129164 104.455779,33.0373635 C104.242802,32.9455631 104.004124,32.8996636 103.739739,32.8996636 Z M110.256026,34.7173034 C110.256026,34.9816886 110.296418,35.2258742 110.377202,35.4498673 C110.457986,35.6738604 110.571817,35.8648024 110.718698,36.0226992 C110.865579,36.180596 111.045505,36.3054427 111.258482,36.3972432 C111.471459,36.4890436 111.710136,36.5349432 111.974522,36.5349432 C112.238907,36.5349432 112.477585,36.4890436 112.690562,36.3972432 C112.903539,36.3054427 113.083465,36.180596 113.230346,36.0226992 C113.377226,35.8648024 113.491057,35.6738604 113.571842,35.4498673 C113.652626,35.2258742 113.693018,34.9816886 113.693018,34.7173034 C113.693018,34.4529181 113.652626,34.2087325 113.571842,33.9847394 C113.491057,33.7607463 113.377226,33.5698043 113.230346,33.4119075 C113.083465,33.2540107 112.903539,33.129164 112.690562,33.0373635 C112.477585,32.9455631 112.238907,32.8996636 111.974522,32.8996636 C111.710136,32.8996636 111.471459,32.9455631 111.258482,33.0373635 C111.045505,33.129164 110.865579,33.2540107 110.718698,33.4119075 C110.571817,33.5698043 110.457986,33.7607463 110.377202,33.9847394 C110.296418,34.2087325 110.256026,34.4529181 110.256026,34.7173034 Z M109.19849,34.7173034 C109.19849,34.3354135 109.270093,33.9792331 109.413302,33.6487515 C109.556511,33.3182699 109.752961,33.0281848 110.002658,32.7784876 C110.252355,32.5287904 110.546112,32.3323403 110.883938,32.1891316 C111.221764,32.0459229 111.585288,31.9743197 111.974522,31.9743197 C112.363756,31.9743197 112.72728,32.0459229 113.065106,32.1891316 C113.402931,32.3323403 113.696688,32.5287904 113.946386,32.7784876 C114.196083,33.0281848 114.392533,33.3182699 114.535741,33.6487515 C114.67895,33.9792331 114.750553,34.3354135 114.750553,34.7173034 C114.750553,35.0991932 114.67895,35.4572096 114.535741,35.7913632 C114.392533,36.1255169 114.196083,36.4156019 113.946386,36.6616271 C113.696688,36.9076523 113.402931,37.1022664 113.065106,37.2454751 C112.72728,37.3886838 112.363756,37.460287 111.974522,37.460287 C111.585288,37.460287 111.221764,37.3886838 110.883938,37.2454751 C110.546112,37.1022664 110.252355,36.9076523 110.002658,36.6616271 C109.752961,36.4156019 109.556511,36.1255169 109.413302,35.7913632 C109.270093,35.4572096 109.19849,35.0991932 109.19849,34.7173034 Z M117.686641,32.1065117 L118.678081,32.1065117 L118.678081,32.9106796 L118.700113,32.9106796 C118.766209,32.7711429 118.854336,32.6444602 118.964497,32.5306276 C119.074657,32.416795 119.197668,32.319488 119.333533,32.2387036 C119.469397,32.1579192 119.618112,32.0936599 119.779681,32.0459237 C119.94125,31.9981874 120.102816,31.9743197 120.264385,31.9743197 C120.425953,31.9743197 120.572832,31.9963514 120.705025,32.0404157 L120.660961,33.1089675 C120.580176,33.0869354 120.499393,33.0685756 120.418609,33.0538875 C120.337824,33.0391995 120.257041,33.0318555 120.176257,33.0318555 C119.69155,33.0318555 119.320682,33.1677182 119.063641,33.4394475 C118.8066,33.7111768 118.678081,34.1334526 118.678081,34.7062874 L118.678081,37.3280951 L117.686641,37.3280951 L117.686641,32.1065117 Z M126.251904,32.9657596 L124.83084,32.9657596 L124.83084,35.3341993 C124.83084,35.48108 124.834512,35.6261225 124.841856,35.7693312 C124.8492,35.9125399 124.87674,36.0410586 124.924476,36.1548912 C124.972212,36.2687238 125.045652,36.3605228 125.144796,36.4302912 C125.243941,36.5000595 125.388983,36.5349432 125.579928,36.5349432 C125.697433,36.5349432 125.818607,36.5239273 125.943456,36.5018952 C126.068305,36.479863 126.182135,36.4394715 126.284952,36.3807192 L126.284952,37.2840311 C126.167447,37.3501274 126.015061,37.3960269 125.827788,37.4217311 C125.640515,37.4474352 125.495472,37.460287 125.392656,37.460287 C125.010766,37.460287 124.715173,37.4070436 124.505868,37.3005551 C124.296563,37.1940665 124.142341,37.0563679 124.043196,36.8874551 C123.944052,36.7185423 123.8853,36.5294362 123.86694,36.3201312 C123.84858,36.1108262 123.8394,35.8996883 123.8394,35.6867112 L123.8394,32.9657596 L122.693736,32.9657596 L122.693736,32.1065117 L123.8394,32.1065117 L123.8394,30.6413838 L124.83084,30.6413838 L124.83084,32.1065117 L126.251904,32.1065117 L126.251904,32.9657596 Z M133.847759,37.3280951 L132.856319,37.3280951 L132.856319,36.5239272 L132.834287,36.5239272 C132.709438,36.8030005 132.492793,37.0288262 132.184343,37.2014111 C131.875894,37.3739959 131.519713,37.460287 131.115791,37.460287 C130.85875,37.460287 130.6164,37.4217314 130.388735,37.3446191 C130.16107,37.2675067 129.960948,37.1481679 129.788363,36.9865991 C129.615779,36.8250303 129.47808,36.6175644 129.375263,36.3641952 C129.272447,36.1108259 129.221039,35.811561 129.221039,35.4663913 L129.221039,32.1065117 L130.212479,32.1065117 L130.212479,35.1909913 C130.212479,35.4333445 130.245527,35.6408104 130.311623,35.8133952 C130.37772,35.9859801 130.465847,36.1255147 130.576007,36.2320032 C130.686168,36.3384917 130.812851,36.4156029 130.956059,36.4633392 C131.099268,36.5110754 131.247982,36.5349432 131.402207,36.5349432 C131.60784,36.5349432 131.798782,36.5018955 131.975039,36.4357992 C132.151296,36.3697028 132.305518,36.2650519 132.437711,36.1218432 C132.569904,35.9786345 132.672719,35.7968723 132.746159,35.5765513 C132.819599,35.3562302 132.856319,35.0955208 132.856319,34.7944153 L132.856319,32.1065117 L133.847759,32.1065117 L133.847759,37.3280951 Z M137.037214,32.1065117 L138.028654,32.1065117 L138.028654,32.9106796 L138.050686,32.9106796 C138.175535,32.6316062 138.392181,32.4057805 138.70063,32.2331956 C139.00908,32.0606108 139.36526,31.9743197 139.769182,31.9743197 C140.018879,31.9743197 140.259393,32.0128753 140.49073,32.0899877 C140.722067,32.1671 140.924025,32.2864388 141.09661,32.4480076 C141.269195,32.6095764 141.406893,32.8170423 141.50971,33.0704115 C141.612526,33.3237808 141.663934,33.6230458 141.663934,33.9682154 L141.663934,37.3280951 L140.672494,37.3280951 L140.672494,34.2436154 C140.672494,34.0012622 140.639446,33.7937963 140.57335,33.6212115 C140.507254,33.4486266 140.419127,33.309092 140.308966,33.2026035 C140.198806,33.096115 140.072123,33.0190038 139.928914,32.9712676 C139.785705,32.9235313 139.636991,32.8996636 139.482766,32.8996636 C139.277133,32.8996636 139.086191,32.9327112 138.909934,32.9988075 C138.733677,33.0649039 138.579455,33.1695548 138.447262,33.3127635 C138.31507,33.4559722 138.212255,33.6377344 138.138814,33.8580555 C138.065374,34.0783765 138.028654,34.3390859 138.028654,34.6401914 L138.028654,37.3280951 L137.037214,37.3280951 L137.037214,32.1065117 Z M144.930501,32.1065117 L145.921941,32.1065117 L145.921941,37.3280951 L144.930501,37.3280951 L144.930501,32.1065117 Z M144.699165,30.2337919 C144.699165,30.0355029 144.770769,29.8647566 144.913977,29.7215479 C145.057186,29.5783392 145.227932,29.5067359 145.426221,29.5067359 C145.62451,29.5067359 145.795257,29.5783392 145.938465,29.7215479 C146.081674,29.8647566 146.153277,30.0355029 146.153277,30.2337919 C146.153277,30.4320808 146.081674,30.6028271 145.938465,30.7460358 C145.795257,30.8892445 145.62451,30.9608478 145.426221,30.9608478 C145.227932,30.9608478 145.057186,30.8892445 144.913977,30.7460358 C144.770769,30.6028271 144.699165,30.4320808 144.699165,30.2337919 Z M151.986573,32.9657596 L150.565509,32.9657596 L150.565509,35.3341993 C150.565509,35.48108 150.569181,35.6261225 150.576525,35.7693312 C150.583869,35.9125399 150.611408,36.0410586 150.659145,36.1548912 C150.706881,36.2687238 150.78032,36.3605228 150.879465,36.4302912 C150.978609,36.5000595 151.123652,36.5349432 151.314597,36.5349432 C151.432101,36.5349432 151.553276,36.5239273 151.678125,36.5018952 C151.802973,36.479863 151.916804,36.4394715 152.019621,36.3807192 L152.019621,37.2840311 C151.902116,37.3501274 151.749729,37.3960269 151.562457,37.4217311 C151.375184,37.4474352 151.230141,37.460287 151.127325,37.460287 C150.745435,37.460287 150.449842,37.4070436 150.240537,37.3005551 C150.031232,37.1940665 149.877009,37.0563679 149.777865,36.8874551 C149.67872,36.7185423 149.619969,36.5294362 149.601609,36.3201312 C149.583249,36.1108262 149.574069,35.8996883 149.574069,35.6867112 L149.574069,32.9657596 L148.428405,32.9657596 L148.428405,32.1065117 L149.574069,32.1065117 L149.574069,30.6413838 L150.565509,30.6413838 L150.565509,32.1065117 L151.986573,32.1065117 L151.986573,32.9657596 Z M155.704796,35.0808313 C155.704796,35.3084964 155.754367,35.5159623 155.853512,35.7032352 C155.952656,35.8905082 156.083011,36.0502385 156.24458,36.1824312 C156.406149,36.3146238 156.593419,36.4174388 156.806396,36.4908792 C157.019373,36.5643195 157.239691,36.6010391 157.467356,36.6010391 C157.775805,36.6010391 158.043859,36.5294359 158.271524,36.3862272 C158.499189,36.2430185 158.708491,36.0539124 158.899436,35.8189032 L159.648524,36.3917352 C159.097721,37.1041066 158.326609,37.460287 157.335164,37.460287 C156.923898,37.460287 156.551194,37.3905198 156.21704,37.2509831 C155.882886,37.1114464 155.600145,36.9186683 155.368808,36.6726431 C155.137471,36.4266179 154.959381,36.1365329 154.834532,35.8023792 C154.709683,35.4682256 154.64726,35.1065373 154.64726,34.7173034 C154.64726,34.3280695 154.715191,33.9663811 154.851056,33.6322275 C154.986921,33.2980738 155.174191,33.0079888 155.412872,32.7619636 C155.651553,32.5159384 155.93613,32.3231603 156.266612,32.1836236 C156.597094,32.044087 156.956946,31.9743197 157.34618,31.9743197 C157.808854,31.9743197 158.199918,32.0551028 158.519384,32.2166716 C158.838849,32.3782404 159.101395,32.5893783 159.307028,32.8500916 C159.512661,33.1108048 159.661375,33.4045619 159.753176,33.7313715 C159.844976,34.0581811 159.890876,34.3904937 159.890876,34.7283194 L159.890876,35.0808313 L155.704796,35.0808313 Z M158.83334,34.2876794 C158.825996,34.0673583 158.791112,33.8654004 158.728688,33.6817995 C158.666263,33.4981986 158.572628,33.3384682 158.44778,33.2026035 C158.322931,33.0667389 158.166873,32.9602519 157.9796,32.8831396 C157.792327,32.8060272 157.573845,32.7674716 157.324148,32.7674716 C157.081795,32.7674716 156.859641,32.8133711 156.65768,32.9051716 C156.455719,32.996972 156.284973,33.1163108 156.145436,33.2631915 C156.005899,33.4100722 155.897576,33.5734746 155.820464,33.7534035 C155.743352,33.9333323 155.704796,34.1114225 155.704796,34.2876794 L158.83334,34.2876794 Z M157.687676,29.5287679 L159.097724,29.5287679 L157.45634,31.1150718 L156.542012,31.1150718 L157.687676,29.5287679 Z M165.547915,33.4174155 C165.43041,33.2705348 165.285368,33.147524 165.112783,33.0483795 C164.940198,32.9492351 164.72906,32.8996636 164.479363,32.8996636 C164.244354,32.8996636 164.04056,32.9492351 163.867975,33.0483795 C163.69539,33.147524 163.609099,33.2925666 163.609099,33.4835115 C163.609099,33.6377362 163.65867,33.762583 163.757815,33.8580555 C163.856959,33.9535279 163.974462,34.0306391 164.110327,34.0893914 C164.246192,34.1481437 164.391234,34.1922073 164.545459,34.2215834 C164.699684,34.2509596 164.831874,34.2766633 164.942035,34.2986954 C165.155012,34.3501037 165.355134,34.412527 165.542407,34.4859674 C165.72968,34.5594077 165.891246,34.6548788 166.027111,34.7723834 C166.162975,34.8898879 166.269462,35.0330945 166.346575,35.2020073 C166.423687,35.3709201 166.462243,35.57655 166.462243,35.8189032 C166.462243,36.1126647 166.399819,36.3641941 166.274971,36.5734991 C166.150122,36.7828042 165.988556,36.9535504 165.790267,37.0857431 C165.591978,37.2179357 165.366152,37.3134068 165.112783,37.3721591 C164.859414,37.4309113 164.604212,37.460287 164.347171,37.460287 C163.913873,37.460287 163.533825,37.3941917 163.207015,37.2619991 C162.880205,37.1298064 162.588284,36.8874569 162.331243,36.5349432 L163.080331,35.9180472 C163.2419,36.079616 163.421826,36.2228226 163.620115,36.3476712 C163.818404,36.4725198 164.060754,36.5349432 164.347171,36.5349432 C164.47202,36.5349432 164.598702,36.5220913 164.727223,36.4963872 C164.855743,36.470683 164.969574,36.4302914 165.068719,36.3752112 C165.167863,36.3201309 165.248646,36.2503636 165.311071,36.1659072 C165.373495,36.0814508 165.404707,35.9841438 165.404707,35.8739832 C165.404707,35.7271025 165.358807,35.6059277 165.267007,35.5104553 C165.175206,35.4149828 165.065047,35.3397076 164.936527,35.2846273 C164.808006,35.229547 164.672144,35.1854835 164.528935,35.1524353 C164.385726,35.1193871 164.259043,35.0918474 164.148883,35.0698153 C163.935906,35.0184071 163.733948,34.9596557 163.543003,34.8935593 C163.352058,34.827463 163.183148,34.7393359 163.036267,34.6291754 C162.889386,34.5190148 162.771884,34.3794802 162.683755,34.2105674 C162.595627,34.0416546 162.551563,33.8323527 162.551563,33.5826555 C162.551563,33.3109262 162.608479,33.0740846 162.722311,32.8721236 C162.836144,32.6701626 162.986694,32.5030883 163.173967,32.3708956 C163.36124,32.238703 163.574214,32.13956 163.812895,32.0734637 C164.051576,32.0073673 164.29209,31.9743197 164.534443,31.9743197 C164.886957,31.9743197 165.224777,32.040415 165.547915,32.1726076 C165.871052,32.3048003 166.12809,32.5251181 166.319035,32.8335676 L165.547915,33.4174155 Z M175.396865,35.0808313 L174.33933,35.0808313 L174.33933,29.5287679 L175.396865,29.5287679 L175.396865,35.0808313 Z M174.163074,36.6671351 C174.163074,36.4688462 174.234677,36.2980999 174.377886,36.1548912 C174.521094,36.0116825 174.691841,35.9400792 174.890129,35.9400792 C175.088418,35.9400792 175.259165,36.0116825 175.402373,36.1548912 C175.545582,36.2980999 175.617185,36.4688462 175.617185,36.6671351 C175.617185,36.8654241 175.545582,37.0361704 175.402373,37.1793791 C175.259165,37.3225878 175.088418,37.3941911 174.890129,37.3941911 C174.691841,37.3941911 174.521094,37.3225878 174.377886,37.1793791 C174.234677,37.0361704 174.163074,36.8654241 174.163074,36.6671351 Z" id="boostez-vos-opportun"></path>
                <path d="M160.588867,0.716796875 L161.798828,0.716796875 C162.36719,0.716796875 162.778319,0.801756963 163.032227,0.971679688 C163.286134,1.14160241 163.413086,1.41015441 163.413086,1.77734375 C163.413086,2.03125127 163.342286,2.24072183 163.200684,2.40576172 C163.059081,2.57080161 162.85254,2.67773413 162.581055,2.7265625 L162.581055,2.75585938 C163.231449,2.86718806 163.556641,3.20898151 163.556641,3.78125 C163.556641,4.16406441 163.427247,4.46288955 163.168457,4.67773438 C162.909667,4.8925792 162.547854,5 162.083008,5 L160.588867,5 L160.588867,0.716796875 Z M161.086914,2.55078125 L161.907227,2.55078125 C162.258791,2.55078125 162.511718,2.49560602 162.666016,2.38525391 C162.820313,2.27490179 162.897461,2.0888685 162.897461,1.82714844 C162.897461,1.58691286 162.811524,1.41357475 162.639648,1.30712891 C162.467773,1.20068306 162.194338,1.14746094 161.819336,1.14746094 L161.086914,1.14746094 L161.086914,2.55078125 Z M161.086914,2.97265625 L161.086914,4.57519531 L161.980469,4.57519531 C162.326174,4.57519531 162.586425,4.50830145 162.76123,4.37451172 C162.936036,4.24072199 163.023438,4.03125143 163.023438,3.74609375 C163.023438,3.48046742 162.934083,3.28515688 162.755371,3.16015625 C162.576659,3.03515563 162.304689,2.97265625 161.939453,2.97265625 L161.086914,2.97265625 Z M167.334025,5 L164.94633,5 L164.94633,0.716796875 L167.334025,0.716796875 L167.334025,1.15917969 L165.444377,1.15917969 L165.444377,2.5390625 L167.219768,2.5390625 L167.219768,2.97851562 L165.444377,2.97851562 L165.444377,4.5546875 L167.334025,4.5546875 L167.334025,5 Z M170.071371,5 L169.573324,5 L169.573324,1.15917969 L168.216879,1.15917969 L168.216879,0.716796875 L171.427816,0.716796875 L171.427816,1.15917969 L170.071371,1.15917969 L170.071371,5 Z M174.815553,5 L174.28235,3.63769531 L172.565553,3.63769531 L172.038209,5 L171.534303,5 L173.227662,0.69921875 L173.646607,0.69921875 L175.331178,5 L174.815553,5 Z M174.127076,3.18945312 L173.629029,1.86230469 C173.564576,1.6943351 173.49817,1.48828247 173.42981,1.24414062 C173.386841,1.43164156 173.325319,1.63769419 173.24524,1.86230469 L172.741334,3.18945312 L174.127076,3.18945312 Z" id="BETA" opacity="0.5"></path>
            </g>
        </g>
    </g>
</svg>