<?xml version="1.0" encoding="UTF-8"?>
<svg width="129px" height="34px" viewBox="0 0 129 34" version="1.1" xmlns="http://www.w3.org/2000/svg" xmlns:xlink="http://www.w3.org/1999/xlink">
    <!-- Generator: sketchtool 51.3 (57544) - http://www.bohemiancoding.com/sketch -->
    <title>198E05F8-F738-46DA-B409-66F0F354AE28</title>
    <desc>Created with sketchtool.</desc>
    <defs></defs>
    <g id="New---Carole" stroke="none" stroke-width="1" fill="none" fill-rule="evenodd">
        <g id="D_Perspective_Home" transform="translate(-282.000000, -19.000000)" fill-rule="nonzero">
            <g id="Header">
                <g id="header-logo-pole-emploi-mono" transform="translate(282.000000, 19.000000)">
                    <g id="Group" transform="translate(43.000000, 8.000000)" fill="#1B2B66">
                        <path d="M8.413,9.267 C8.413,12.378 7.111,13.937 4.505,13.937 L2.252,13.937 L2.252,17.626 L0.613,17.626 L0.613,9.268 C0.613,6.14 1.91,4.578 4.506,4.578 C7.111,4.579 8.413,6.14 8.413,9.267 M6.775,9.267 C6.775,8.311 6.631,7.619 6.349,7.193 C5.992,6.664 5.377,6.397 4.505,6.397 C3.631,6.397 3.023,6.664 2.677,7.193 C2.393,7.618 2.251,8.312 2.251,9.267 L2.251,12.117 L4.504,12.117 C5.377,12.117 5.99,11.857 6.347,11.337 C6.63,10.898 6.775,10.21 6.775,9.267" id="Shape"></path>
                        <path d="M17.351,9.267 C17.351,12.378 16.053,13.937 13.458,13.937 C10.853,13.937 9.551,12.377 9.551,9.267 C9.551,6.141 10.853,4.579 13.458,4.579 C16.055,4.579 17.351,6.14 17.351,9.267 Z M16.737,2.795 L15.998,3.797 L13.381,2.315 L10.764,3.797 L10.023,2.795 L13.38,0.889 L16.737,2.795 Z M15.698,9.267 C15.698,8.311 15.556,7.619 15.276,7.193 C14.932,6.664 14.327,6.397 13.46,6.397 C12.595,6.397 11.983,6.664 11.629,7.193 C11.346,7.618 11.206,8.312 11.206,9.267 C11.206,10.21 11.346,10.9 11.629,11.339 C11.983,11.858 12.594,12.117 13.46,12.117 C14.327,12.117 14.932,11.857 15.276,11.339 C15.555,10.913 15.698,10.223 15.698,9.267 Z" id="Shape"></path>
                        <path d="M22.865,13.938 C20.07,13.938 18.673,12.807 18.673,10.545 L18.673,0.889 L20.313,0.889 L20.313,10.562 C20.313,11.041 20.459,11.404 20.753,11.636 C21.143,11.957 21.846,12.115 22.863,12.115 L22.863,13.936 L22.865,13.936 L22.865,13.938 Z" id="Shape"></path>
                        <path d="M60.025,13.938 L58.39,13.938 L58.39,9.255 C58.39,8.304 58.245,7.614 57.962,7.189 C57.605,6.662 56.991,6.395 56.116,6.395 C55.244,6.395 54.636,6.662 54.29,7.189 C54.004,7.614 53.862,8.304 53.862,9.255 L53.862,13.938 L52.225,13.938 L52.225,9.255 C52.225,8.304 52.083,7.614 51.798,7.189 C51.442,6.662 50.827,6.395 49.952,6.395 C49.081,6.395 48.473,6.662 48.126,7.189 C47.846,7.614 47.7,8.304 47.7,9.255 L47.7,13.938 L46.062,13.938 L46.062,9.267 C46.062,6.141 47.361,4.579 49.954,4.579 C51.344,4.579 52.371,5.05 53.044,5.992 C53.707,5.051 54.732,4.579 56.116,4.579 C58.724,4.579 60.025,6.141 60.025,9.267 L60.025,13.938 Z" id="Shape"></path>
                        <path d="M69.15,9.267 C69.15,12.378 67.849,13.937 65.244,13.937 L62.988,13.937 L62.988,17.626 L61.351,17.626 L61.351,9.268 C61.351,6.14 62.648,4.578 65.244,4.578 C67.85,4.579 69.15,6.14 69.15,9.267 M67.512,9.267 C67.512,8.311 67.37,7.619 67.087,7.193 C66.731,6.664 66.116,6.397 65.242,6.397 C64.372,6.397 63.76,6.664 63.415,7.193 C63.132,7.618 62.988,8.312 62.988,9.267 L62.988,12.117 L65.244,12.117 C66.117,12.117 66.728,11.857 67.087,11.337 C67.37,10.898 67.512,10.21 67.512,9.267" id="Shape"></path>
                        <path d="M74.54,13.938 C71.746,13.938 70.35,12.807 70.35,10.545 L70.35,0.889 L71.991,0.889 L71.991,10.562 C71.991,11.041 72.137,11.404 72.429,11.636 C72.818,11.957 73.525,12.115 74.541,12.115 L74.541,13.938 L74.54,13.938 Z" id="Shape"></path>
                        <path d="M82.814,9.267 C82.814,12.378 81.519,13.937 78.92,13.937 C76.314,13.937 75.013,12.377 75.013,9.267 C75.013,6.141 76.314,4.579 78.92,4.579 C81.52,4.579 82.814,6.14 82.814,9.267 M81.177,9.267 C81.177,8.311 81.034,7.619 80.751,7.193 C80.404,6.664 79.795,6.397 78.922,6.397 C78.051,6.397 77.443,6.664 77.093,7.193 C76.813,7.618 76.67,8.312 76.67,9.267 C76.67,10.223 76.813,10.913 77.093,11.339 C77.444,11.858 78.053,12.117 78.922,12.117 C79.796,12.117 80.404,11.857 80.751,11.339 C81.034,10.913 81.177,10.223 81.177,9.267" id="Shape"></path>
                        <path d="M85.667,2.706 L84.027,2.706 L84.027,0.889 L85.667,0.889 L85.667,2.706 Z M84.027,4.579 L85.667,4.579 L85.667,13.937 L84.027,13.937 L84.027,4.579 Z" id="Shape"></path>
                        <path d="M25.271,9.85 C25.271,11.438 26.109,12.442 27.625,12.442 C28.665,12.442 29.214,12.151 29.867,11.49 L31.054,12.602 C30.107,13.555 29.214,14.043 27.59,14.043 C25.273,14.043 23.431,12.82 23.431,9.302 C23.431,6.312 24.982,4.579 27.351,4.579 C29.834,4.579 31.275,6.399 31.275,9.028 L31.275,9.85 L25.271,9.85 Z M29.175,7.295 C28.885,6.603 28.225,6.128 27.352,6.128 C26.477,6.128 25.802,6.603 25.51,7.295 C25.328,7.716 25.291,7.989 25.274,8.554 L29.432,8.554 C29.412,7.989 29.359,7.715 29.175,7.295 Z" id="Shape"></path>
                        <path d="M38.75,9.85 C38.75,11.438 39.588,12.442 41.104,12.442 C42.143,12.442 42.69,12.151 43.348,11.49 L44.533,12.602 C43.585,13.555 42.69,14.043 41.069,14.043 C38.753,14.043 36.91,12.82 36.91,9.304 C36.91,6.312 38.462,4.578 40.832,4.578 C43.313,4.578 44.754,6.398 44.754,9.027 L44.754,9.848 L38.75,9.848 L38.75,9.85 Z M42.652,7.295 C42.361,6.603 41.705,6.128 40.83,6.128 C39.954,6.128 39.282,6.603 38.986,7.295 C38.804,7.716 38.769,7.989 38.75,8.554 L42.908,8.554 C42.891,7.989 42.834,7.715 42.652,7.295 Z" id="Shape"></path>
                        <path d="M8.413,9.267 C8.413,12.378 7.111,13.937 4.505,13.937 L2.252,13.937 L2.252,17.626 L0.613,17.626 L0.613,9.268 C0.613,6.14 1.91,4.578 4.506,4.578 C7.111,4.579 8.413,6.14 8.413,9.267 M6.775,9.267 C6.775,8.311 6.631,7.619 6.349,7.193 C5.992,6.664 5.377,6.397 4.505,6.397 C3.631,6.397 3.023,6.664 2.677,7.193 C2.393,7.618 2.251,8.312 2.251,9.267 L2.251,12.117 L4.504,12.117 C5.377,12.117 5.99,11.857 6.347,11.337 C6.63,10.898 6.775,10.21 6.775,9.267" id="Shape"></path>
                        <path d="M17.351,9.267 C17.351,12.378 16.053,13.937 13.458,13.937 C10.853,13.937 9.551,12.377 9.551,9.267 C9.551,6.141 10.853,4.579 13.458,4.579 C16.055,4.579 17.351,6.14 17.351,9.267 Z M16.737,2.795 L15.998,3.797 L13.381,2.315 L10.764,3.797 L10.023,2.795 L13.38,0.889 L16.737,2.795 Z M15.698,9.267 C15.698,8.311 15.556,7.619 15.276,7.193 C14.932,6.664 14.327,6.397 13.46,6.397 C12.595,6.397 11.983,6.664 11.629,7.193 C11.346,7.618 11.206,8.312 11.206,9.267 C11.206,10.21 11.346,10.9 11.629,11.339 C11.983,11.858 12.594,12.117 13.46,12.117 C14.327,12.117 14.932,11.857 15.276,11.339 C15.555,10.913 15.698,10.223 15.698,9.267 Z" id="Shape"></path>
                        <path d="M22.865,13.938 C20.07,13.938 18.673,12.807 18.673,10.545 L18.673,0.889 L20.313,0.889 L20.313,10.562 C20.313,11.041 20.459,11.404 20.753,11.636 C21.143,11.957 21.846,12.115 22.863,12.115 L22.863,13.936 L22.865,13.936 L22.865,13.938 Z" id="Shape"></path>
                        <path d="M60.025,13.938 L58.39,13.938 L58.39,9.255 C58.39,8.304 58.245,7.614 57.962,7.189 C57.605,6.662 56.991,6.395 56.116,6.395 C55.244,6.395 54.636,6.662 54.29,7.189 C54.004,7.614 53.862,8.304 53.862,9.255 L53.862,13.938 L52.225,13.938 L52.225,9.255 C52.225,8.304 52.083,7.614 51.798,7.189 C51.442,6.662 50.827,6.395 49.952,6.395 C49.081,6.395 48.473,6.662 48.126,7.189 C47.846,7.614 47.7,8.304 47.7,9.255 L47.7,13.938 L46.062,13.938 L46.062,9.267 C46.062,6.141 47.361,4.579 49.954,4.579 C51.344,4.579 52.371,5.05 53.044,5.992 C53.707,5.051 54.732,4.579 56.116,4.579 C58.724,4.579 60.025,6.141 60.025,9.267 L60.025,13.938 Z" id="Shape"></path>
                        <path d="M69.15,9.267 C69.15,12.378 67.849,13.937 65.244,13.937 L62.988,13.937 L62.988,17.626 L61.351,17.626 L61.351,9.268 C61.351,6.14 62.648,4.578 65.244,4.578 C67.85,4.579 69.15,6.14 69.15,9.267 M67.512,9.267 C67.512,8.311 67.37,7.619 67.087,7.193 C66.731,6.664 66.116,6.397 65.242,6.397 C64.372,6.397 63.76,6.664 63.415,7.193 C63.132,7.618 62.988,8.312 62.988,9.267 L62.988,12.117 L65.244,12.117 C66.117,12.117 66.728,11.857 67.087,11.337 C67.37,10.898 67.512,10.21 67.512,9.267" id="Shape"></path>
                        <path d="M74.54,13.938 C71.746,13.938 70.35,12.807 70.35,10.545 L70.35,0.889 L71.991,0.889 L71.991,10.562 C71.991,11.041 72.137,11.404 72.429,11.636 C72.818,11.957 73.525,12.115 74.541,12.115 L74.541,13.938 L74.54,13.938 Z" id="Shape"></path>
                        <path d="M82.814,9.267 C82.814,12.378 81.519,13.937 78.92,13.937 C76.314,13.937 75.013,12.377 75.013,9.267 C75.013,6.141 76.314,4.579 78.92,4.579 C81.52,4.579 82.814,6.14 82.814,9.267 M81.177,9.267 C81.177,8.311 81.034,7.619 80.751,7.193 C80.404,6.664 79.795,6.397 78.922,6.397 C78.051,6.397 77.443,6.664 77.093,7.193 C76.813,7.618 76.67,8.312 76.67,9.267 C76.67,10.223 76.813,10.913 77.093,11.339 C77.444,11.858 78.053,12.117 78.922,12.117 C79.796,12.117 80.404,11.857 80.751,11.339 C81.034,10.913 81.177,10.223 81.177,9.267" id="Shape"></path>
                        <path d="M85.667,2.706 L84.027,2.706 L84.027,0.889 L85.667,0.889 L85.667,2.706 Z M84.027,4.579 L85.667,4.579 L85.667,13.937 L84.027,13.937 L84.027,4.579 Z" id="Shape"></path>
                        <path d="M25.271,9.85 C25.271,11.438 26.109,12.442 27.625,12.442 C28.665,12.442 29.214,12.151 29.867,11.49 L31.054,12.602 C30.107,13.555 29.214,14.043 27.59,14.043 C25.273,14.043 23.431,12.82 23.431,9.302 C23.431,6.312 24.982,4.579 27.351,4.579 C29.834,4.579 31.275,6.399 31.275,9.028 L31.275,9.85 L25.271,9.85 Z M29.175,7.295 C28.885,6.603 28.225,6.128 27.352,6.128 C26.477,6.128 25.802,6.603 25.51,7.295 C25.328,7.716 25.291,7.989 25.274,8.554 L29.432,8.554 C29.412,7.989 29.359,7.715 29.175,7.295 Z" id="Shape"></path>
                        <path d="M38.75,9.85 C38.75,11.438 39.588,12.442 41.104,12.442 C42.143,12.442 42.69,12.151 43.348,11.49 L44.533,12.602 C43.585,13.555 42.69,14.043 41.069,14.043 C38.753,14.043 36.91,12.82 36.91,9.304 C36.91,6.312 38.462,4.578 40.832,4.578 C43.313,4.578 44.754,6.398 44.754,9.027 L44.754,9.848 L38.75,9.848 L38.75,9.85 Z M42.652,7.295 C42.361,6.603 41.705,6.128 40.83,6.128 C39.954,6.128 39.282,6.603 38.986,7.295 C38.804,7.716 38.769,7.989 38.75,8.554 L42.908,8.554 C42.891,7.989 42.834,7.715 42.652,7.295 Z" id="Shape"></path>
                    </g>
                    <g id="Group">
                        <path d="M35.562,22.674 C35.826,21.376 35.031,21.096 34.601,21.035 C34.519,21.027 34.436,21.021 34.346,21.021 C33.858,21.021 33.469,21.176 33.223,21.404 C32.926,21.675 32.062,22.486 31.618,22.873 C31.167,23.269 30.674,23.639 30.141,23.982 C29.594,24.335 29.026,24.597 28.438,24.763 C27.848,24.931 27.204,25.01 26.506,25.01 C25.451,25.01 24.471,24.747 23.592,24.224 C22.704,23.697 21.995,22.911 21.473,21.89 C20.987,20.947 20.725,19.869 20.675,18.674 C20.661,18.278 20.965,18.038 21.317,18.038 L31.979,18.038 C33.416,18.039 34.507,17.83 35.244,17.447 C35.902,17.107 36.275,16.355 36.281,14.991 C36.281,13.523 35.907,12.086 35.147,10.66 C34.394,9.248 33.267,8.097 31.741,7.197 C30.228,6.305 28.409,5.854 26.26,5.853 C24.607,5.853 23.114,6.119 21.77,6.643 C20.425,7.169 19.304,7.919 18.393,8.897 C17.479,9.877 16.781,11.052 16.302,12.433 C15.821,13.816 15.579,15.318 15.579,16.945 C15.581,20.411 16.556,23.103 18.49,25.091 C20.423,27.074 23.122,28.076 26.672,28.079 C28.185,28.08 29.517,27.888 30.672,27.505 C32.782,26.764 35.158,24.658 35.562,22.674 Z M20.701,14.885 C20.92,13.077 21.468,11.657 22.388,10.667 C23.343,9.635 24.601,9.107 26.075,9.11 C27.611,9.107 28.903,9.623 29.862,10.644 C30.793,11.633 31.316,13.075 31.481,14.926 C31.503,15.236 31.178,15.506 30.845,15.506 L21.337,15.506 C20.99,15.504 20.647,15.226 20.701,14.885 Z" id="Shape" fill="#1B2B66"></path>
                        <circle id="Oval" fill="#1B2B66" cx="17.477" cy="16.972" r="16.81"></circle>
                        <path d="M2.805,22.385 C2.001,20.219 1.667,17.841 1.916,15.39 C2.788,6.811 10.477,0.54 19.057,1.412 C26.068,2.125 31.343,7.356 32.628,13.295 C33.751,18.43 25.885,18.752 18.995,17.334 C13.265,15.314 5.78,15.478 2.805,22.385 Z" id="Shape" fill="#1B2B66"></path>
                        <circle id="Oval" fill="#1B2B66" cx="17.476" cy="16.972" r="15.641"></circle>
                        <path d="M33.774,21.104 C33.55,21.172 33.362,21.278 33.223,21.406 C32.926,21.678 32.062,22.487 31.618,22.876 C31.167,23.272 30.674,23.644 30.141,23.983 C29.594,24.337 29.026,24.598 28.438,24.766 C27.848,24.932 27.204,25.014 26.506,25.014 C25.451,25.014 24.471,24.75 23.592,24.225 C22.704,23.701 21.995,22.913 21.473,21.893 C20.987,20.951 20.725,19.872 20.675,18.678 C20.661,18.28 20.965,18.041 21.317,18.041 L31.979,18.041 C32.877,18.041 33.64,17.959 34.265,17.807 C34.279,17.531 34.286,17.251 34.286,16.974 C34.286,13.115 32.984,9.56 30.798,6.722 C29.487,6.151 27.98,5.86 26.259,5.859 C24.606,5.859 23.113,6.125 21.769,6.649 C20.424,7.175 19.303,7.925 18.392,8.903 C17.478,9.883 16.78,11.058 16.301,12.439 C15.82,13.822 15.578,15.324 15.578,16.951 C15.58,20.417 16.555,23.106 18.489,25.097 C20.422,27.079 23.121,28.081 26.671,28.084 C28.129,28.085 29.417,27.901 30.542,27.549 C32.051,25.686 33.169,23.497 33.774,21.104 Z M20.701,14.885 C20.92,13.077 21.468,11.657 22.388,10.667 C23.343,9.635 24.601,9.107 26.075,9.11 C27.611,9.107 28.903,9.623 29.862,10.644 C30.793,11.633 31.316,13.075 31.481,14.926 C31.503,15.236 31.178,15.506 30.845,15.506 L21.337,15.506 C20.99,15.504 20.647,15.226 20.701,14.885 Z" id="Shape" fill="#FFFFFF"></path>
                    </g>
                </g>
            </g>
        </g>
    </g>
</svg>