<?xml version="1.0" encoding="UTF-8"?>
<svg width="16px" height="16px" viewBox="0 0 16 16" version="1.1" xmlns="http://www.w3.org/2000/svg" xmlns:xlink="http://www.w3.org/1999/xlink">
    <!-- Generator: sketchtool 51.3 (57544) - http://www.bohemiancoding.com/sketch -->
    <title>47E11424-2AAF-43CD-B407-74380A1BC163</title>
    <desc>Created with sketchtool.</desc>
    <defs></defs>
    <g id="UI-Recruteur" stroke="none" stroke-width="1" fill="none" fill-rule="evenodd">
        <g id="D_Fiche-candidat_1a" transform="translate(-813.000000, -2593.000000)" fill="#5B4E98">
            <g id="check-circle-copy-6" transform="translate(813.000000, 2593.000000)">
                <path d="M14.4,0 L1.6,0 C0.72,0 0.008,0.72 0.008,1.6 L0,16 L3.2,12.8 L14.4,12.8 C15.28,12.8 16,12.08 16,11.2 L16,1.6 C16,0.72 15.28,0 14.4,0 L14.4,0 Z M3,10 L3,7.92 L8.78759201,2.12631579 C8.95583596,1.95789474 9.21661409,1.95789474 9.38485804,2.12631579 L10.873817,3.61684211 C11.042061,3.78526316 11.042061,4.04631579 10.873817,4.21473684 L5.07781283,10 L3,10 L3,10 Z M13,10 L7,10 L8.6,8 L13,8 L13,10 L13,10 Z" id="Langage"></path>
            </g>
        </g>
    </g>
</svg>