<?xml version="1.0" encoding="UTF-8"?>
<svg width="22px" height="11px" viewBox="0 0 22 11" version="1.1" xmlns="http://www.w3.org/2000/svg" xmlns:xlink="http://www.w3.org/1999/xlink">
    <!-- Generator: Sketch 51.3 (57544) - http://www.bohemiancoding.com/sketch -->
    <title>noun_origami boat_705862</title>
    <desc>Created with Sketch.</desc>
    <defs></defs>
    <g id="UI-Recruteur" stroke="none" stroke-width="1" fill="none" fill-rule="evenodd">
        <g id="D_Fiche-candidat_1b" transform="translate(-810.000000, -3238.000000)">
            <g id="noun_origami-boat_705862" transform="translate(810.000000, 3233.000000)">
                <rect id="Rectangle-path" x="0" y="0" width="22" height="22"></rect>
                <g id="Group" transform="translate(0.000000, 5.000000)" fill="#5B4E98" fill-rule="nonzero">
                    <path d="M11.2620444,6.4546087 C11.2701111,6.4593913 11.2794,6.46154348 11.2886889,6.46154348 C11.3001778,6.46154348 11.3114222,6.45819565 11.3214444,6.45126087 L13.7634444,4.81608696 C13.7881333,4.79958696 13.7957111,4.76754348 13.7812889,4.74195652 L11.3388,0.454826087 C11.3260889,0.432586957 11.2996889,0.421108696 11.2740222,0.427565217 C11.2486,0.43426087 11.2305111,0.4565 11.2305111,0.482326087 L11.2305111,6.40534783 C11.2307556,6.42615217 11.2429778,6.44528261 11.2620444,6.4546087 Z" id="Shape"></path>
                    <path d="M8.23704444,4.81608696 L10.6795333,6.45126087 C10.6890667,6.45819565 10.7003111,6.46154348 10.7118,6.46154348 C10.7210889,6.46154348 10.7303778,6.45915217 10.7389333,6.4546087 C10.7577556,6.44528261 10.7694889,6.42615217 10.7694889,6.4051087 L10.7694889,0.482326087 C10.7694889,0.45673913 10.7518889,0.43426087 10.7264667,0.427565217 C10.7008,0.421108696 10.6744,0.432586957 10.6614444,0.454826087 L8.2192,4.74195652 C8.20428889,4.76778261 8.21211111,4.79958696 8.23704444,4.81608696 Z" id="Shape"></path>
                    <path d="M10.5614667,7.22532609 C10.5622,7.20619565 10.5526667,7.18802174 10.5362889,7.17678261 L0.0950888889,0.185086957 C0.0740666667,0.17073913 0.0459555556,0.171934783 0.0264,0.187717391 C0.00635555556,0.20326087 -0.000488888889,0.229804348 0.00928888889,0.25276087 L4.35404444,10.7192609 C4.3604,10.7345652 4.37335556,10.7462826 4.389,10.7515435 C4.39511111,10.7539348 4.40146667,10.7548913 4.40782222,10.7548913 C4.4176,10.7548913 4.42786667,10.7520217 4.43691111,10.747 L10.5328667,7.27267391 C10.5497333,7.26215217 10.5609778,7.24493478 10.5614667,7.22532609 Z" id="Shape"></path>
                    <path d="M16.5943556,10.7168696 L11.0293333,7.54480435 C11.0114889,7.53452174 10.9892444,7.53452174 10.9714,7.54480435 L5.40173333,10.7192609 C5.37924444,10.732413 5.36848889,10.7584783 5.37508889,10.7828696 C5.38193333,10.8077391 5.40466667,10.8249565 5.43082222,10.8249565 L16.5694222,10.8249565 C16.5699111,10.8244783 16.5701556,10.8244783 16.5701556,10.8249565 C16.6021778,10.8249565 16.6276,10.7998478 16.6276,10.7685217 C16.6276,10.7460435 16.6144,10.7259565 16.5943556,10.7168696 Z" id="Shape"></path>
                    <path d="M21.9743333,0.187717391 C21.9542889,0.172173913 21.9264222,0.170978261 21.9054,0.185086957 L11.4639556,7.17678261 C11.4478222,7.18802174 11.4382889,7.20619565 11.4387778,7.22532609 C11.4397556,7.24493478 11.4502667,7.26215217 11.4671333,7.27243478 L17.5633333,10.7467609 C17.5726222,10.7517826 17.5824,10.7546522 17.5926667,10.7546522 C17.5990222,10.7546522 17.6053778,10.7536957 17.6112444,10.7513043 C17.6266444,10.7462826 17.6396,10.7345652 17.6464444,10.7190217 L21.9912,0.252521739 C22.0007333,0.229804348 21.9941333,0.20326087 21.9743333,0.187717391 Z" id="Shape"></path>
                </g>
            </g>
        </g>
    </g>
</svg>