<?xml version="1.0" encoding="UTF-8"?>
<svg width="18px" height="16px" viewBox="0 0 18 16" version="1.1" xmlns="http://www.w3.org/2000/svg" xmlns:xlink="http://www.w3.org/1999/xlink">
    <!-- Generator: sketchtool 51.3 (57544) - http://www.bohemiancoding.com/sketch -->
    <title>2EFB7F0B-8990-4A37-9E1E-A607281E15D5</title>
    <desc>Created with sketchtool.</desc>
    <defs></defs>
    <g id="UI-Recruteur" stroke="none" stroke-width="1" fill="none" fill-rule="evenodd">
        <g id="D_Fiche-candidat_1a" transform="translate(-812.000000, -2748.000000)" fill="#5B4E98">
            <g id="check-circle-copy-8" transform="translate(812.000000, 2748.000000)">
                <path d="M15.9,1 C15.7,0.4 15.1,0 14.5,0 L3.5,0 C2.8,0 2.3,0.4 2.1,1 L0,7 L0,15 C0,15.6 0.4,16 1,16 L2,16 C2.6,16 3,15.6 3,15 L3,14 L15,14 L15,15 C15,15.6 15.4,16 16,16 L17,16 C17.6,16 18,15.6 18,15 L18,7 L15.9,1 L15.9,1 Z M3.5,11 C2.7,11 2,10.3 2,9.5 C2,8.7 2.7,8 3.5,8 C4.3,8 5,8.7 5,9.5 C5,10.3 4.3,11 3.5,11 L3.5,11 Z M14.5,11 C13.7,11 13,10.3 13,9.5 C13,8.7 13.7,8 14.5,8 C15.3,8 16,8.7 16,9.5 C16,10.3 15.3,11 14.5,11 L14.5,11 Z M2,6 L3.5,1.5 L14.5,1.5 L16,6 L2,6 L2,6 Z" id="Shape"></path>
            </g>
        </g>
    </g>
</svg>