<?xml version="1.0" encoding="UTF-8"?>
<svg width="571px" height="452px" viewBox="0 0 571 452" version="1.1" xmlns="http://www.w3.org/2000/svg" xmlns:xlink="http://www.w3.org/1999/xlink">
    <!-- Generator: Sketch 50.2 (55047) - http://www.bohemiancoding.com/sketch -->
    <title>illustration-top-landing</title>
    <desc>Created with Sketch.</desc>
    <defs>
        <rect id="path-1" x="0" y="0" width="83.394844" height="116.190772" rx="41.697422"></rect>
    </defs>
    <g id="UI-Landing" stroke="none" stroke-width="1" fill="none" fill-rule="evenodd">
        <g id="landing-page-3" transform="translate(-744.000000, -297.000000)">
            <g id="Group-26" transform="translate(744.000000, 297.000000)">
                <g id="Group-22">
                    <g id="Group-7" transform="translate(0.000000, 39.732206)">
                        <path d="M207.508776,0.650195545 C112.649373,0.650195545 9.95042829,107.102562 65.861001,190.417167 C121.771574,273.731771 -2.13663026,248.813984 0.92394822,334.572061 C3.9845267,420.330138 95.7784214,414.493749 103.796199,408.230823 C105.258167,407.088836 318.107549,408.916907 320.04378,408.230823 C321.980011,407.544739 408.132582,408.230823 481.786807,408.230823 C555.441032,408.230823 570.63657,299.49562 570.63657,237.082101 C570.63657,174.668583 511.446923,135.632997 467.037699,135.632997 C422.628475,135.632997 364.519755,124.103427 350.487072,84.4105542 C336.454389,44.7176813 302.36818,0.650195545 207.508776,0.650195545 Z" id="Path-14" fill="#F1F6FF"></path>
                        <g id="Group-8" transform="translate(100.256513, 91.452854)">
                            <rect id="Rectangle-12" fill="#707273" x="0.573450237" y="312.866272" width="353.307188" height="4.50351829" rx="2.25175914"></rect>
                            <path d="M168.221325,139.030466 C168.221325,139.030466 114.970921,147.2848 104.264633,155.821304 C93.5583461,164.357808 89.6848506,256.501738 91.6215983,277.222563 C92.9127635,291.036447 152.235256,295.808413 269.589076,291.538461 C269.227911,208.953195 266.689598,164.460364 261.974136,158.059969 C257.258675,151.659574 234.826937,145.316406 194.678924,139.030466 C177.040525,139.030466 168.221325,139.030466 168.221325,139.030466 Z" id="Path-8" fill="#C2E3EA"></path>
                            <path d="M163.251445,119.173284 C166.564199,129.061 166.778985,135.969039 163.895805,139.897402 C159.571035,145.789946 169.767637,150.739614 180.917755,150.739614 C192.067873,150.739614 203.649273,143.961706 199.780551,139.897402 C195.911829,135.833098 195.21153,120.89129 195.21153,119.173284 C195.21153,118.027948 184.558169,118.027948 163.251445,119.173284 Z" id="Path-4" fill="#F9ECD8"></path>
                            <g id="Path-9" transform="translate(139.564857, 9.329139)">
                                <mask id="mask-2" fill="white">
                                    <use xlink:href="#path-1"></use>
                                </mask>
                                <use id="Mask" fill="#F9ECD8" xlink:href="#path-1"></use>
                                <path d="M46.5787486,28.1143584 C59.1160269,52.9134167 63.8757586,73.9012166 60.8579439,91.0777581 C56.3312218,116.84257 55.7068464,115.049271 58.2823951,115.049271 C60.8579439,115.049271 88.6850687,105.362726 88.6850687,91.0777581 C88.6850687,76.7927907 90.6650854,18.386862 70.3983331,18.386862 C56.8871648,18.386862 48.9473033,21.6293608 46.5787486,28.1143584 Z" fill="#E5CFC3" opacity="0.537220982" mask="url(#mask-2)"></path>
                            </g>
                            <path d="M138.13987,92.3168937 L130.468097,55.1469718 C130.337156,44.3090029 131.791257,35.5121279 134.830401,28.7563468 C136.08053,25.9774086 136.596111,20.8025614 138.13987,18.4750968 C139.773043,16.0128264 145.761363,13.7404999 147.723166,11.7835159 C154.124666,5.39774135 162.27573,1.7020165 172.176358,0.696341349 C174.027032,0.508355509 179.518596,3.85693274 181.491534,3.85693274 C191.024604,3.85693274 196.657511,-0.93039639 203.030597,1.99560462 C207.80612,4.18813556 210.358764,10.0880337 213.701093,13.5734009 C215.642227,15.5976082 220.623728,18.5654796 222.159357,20.9457999 C226.217556,27.2362627 224.443415,23.8189487 226.397784,31.8491202 C228.744548,41.4915743 228.576128,48.0954259 229.565753,58.5258781 C229.565753,58.5361933 227.096954,71.4053339 222.159357,97.1332999 C219.036039,91.0157318 216.564083,86.0834401 214.743487,82.3364249 C213.724849,80.2399382 214.797964,69.0113456 213.701093,67.1332999 C202.481734,47.9236958 192.724628,38.7391832 179.43587,38.7391832 C173.744786,38.7391832 166.150227,38.7917355 160.779914,41.1122757 C157.946591,42.336569 148.712069,44.192159 147.723166,47.0043937 C146.865084,49.4446025 148.92872,61.5272349 147.723166,67.1332999 C146.738986,71.7099333 143.544554,80.1044645 138.13987,92.3168937 Z" id="Path-5" fill="#334051"></path>
                            <path d="M153.015638,18.336176 C181.802303,35.4190242 196.195636,50.4025057 196.195636,63.2866202 C196.195636,82.6127921 206.818763,37.0106737 206.818763,29.7086096 C206.818763,24.8405669 188.884388,21.0497557 153.015638,18.336176 Z" id="Path-6" fill="#334051"></path>
                            <rect id="Rectangle" fill="#E5E6EA" x="82.2313916" y="192.357048" width="199.968282" height="120.69429" rx="4.0389516"></rect>
                            <ellipse id="Oval" fill="#FFFFFF" cx="182.158998" cy="252.969479" rx="13.0024219" ry="13.060203"></ellipse>
                            <g id="Group-2" transform="translate(23.888138, 284.020454)">
                                <path d="M2.30106074,2.09015371e-13 L43.819559,3.26405569e-14 C44.7118195,3.24766513e-14 45.4351396,0.723320091 45.4351396,1.61558064 C45.4351396,1.8396133 45.388545,2.06119732 45.2983158,2.26625661 L33.6560835,28.7249405 C33.5270765,29.018128 33.2370202,29.2073928 32.9167052,29.2073928 L13.2039146,29.2073928 C12.8835995,29.2073928 12.5935432,29.018128 12.4645362,28.7249405 L0.822303963,2.26625661 C0.462945549,1.44956179 0.833689954,0.496182282 1.65038477,0.136823868 C1.85544405,0.0465945956 2.07702808,2.09980032e-13 2.30106074,2.08943973e-13 Z" id="Rectangle-11" fill="#82CCDD"></path>
                                <path d="M2.30106074,2.09124677e-13 L26.2300758,6.86117829e-14 C27.1223363,6.44854445e-14 27.8456564,0.723320091 27.8456564,1.61558064 C27.8456564,1.8396133 27.7990618,2.06119732 27.7088325,2.26625661 L16.0666003,28.7249405 C15.9375933,29.018128 15.6475369,29.2073928 15.3272219,29.2073928 L13.2039146,29.2073928 C12.8835995,29.2073928 12.5935432,29.018128 12.4645362,28.7249405 L0.822303963,2.26625661 C0.462945549,1.44956179 0.833689954,0.496182282 1.65038477,0.136823868 C1.85544405,0.0465945956 2.07702808,2.09512879e-13 2.30106074,2.08277839e-13 Z" id="Rectangle-11" fill-opacity="0.25" fill="#478E9E"></path>
                            </g>
                            <path d="M45.3509392,280.417639 C38.9802182,278.024366 35.4801724,274.841081 34.8508018,270.867786 C33.9067459,264.907842 41.4070215,264.714929 40.0153672,259.553771 C38.6237129,254.392613 29.2684503,254.715265 29.2684503,253.50267 C29.2684503,252.290076 36.8933578,240.314222 38.3653397,242.971754 C39.8373216,245.629287 46.0763716,257.073833 45.3509392,261.946497 C44.6255068,266.819162 36.7153122,270.312366 38.3653397,273.118717 C39.465358,274.989617 41.7938912,277.422591 45.3509392,280.417639 Z" id="Path-11" fill="#B0BACF"></path>
                            <path d="M56.1407886,279.516935 C52.9554281,278.377282 51.2054052,276.861432 50.8907199,274.969386 C50.4186919,272.131318 54.1688297,272.039454 53.4730026,269.58176 C52.7771754,267.124066 48.0995441,267.27771 48.0995441,266.700284 C48.0995441,266.122858 51.9119979,260.42007 52.6479888,261.685562 C53.3839797,262.951053 56.5035048,268.400837 56.1407886,270.721154 C55.7780723,273.04147 51.8229751,274.704901 52.6479888,276.041258 C53.197998,276.932163 54.3622646,278.090722 56.1407886,279.516935 Z" id="Path-11-Copy" fill="#B0BACF"></path>
                            <path d="M122.527201,192.171982 L125.35394,187.916754 C125.600799,187.545146 126.102166,187.444016 126.473775,187.690875 C126.557045,187.746191 126.629324,187.816484 126.686939,187.89818 L129.700951,192.171982 L122.527201,192.171982 Z" id="Path-7" fill="#8DA6AC" opacity="0.506696429"></path>
                            <path d="M234.617045,192.171982 L237.443785,187.916754 C237.690643,187.545146 238.19201,187.444016 238.563619,187.690875 C238.646889,187.746191 238.719168,187.816484 238.776783,187.89818 L241.790795,192.171982 L234.617045,192.171982 Z" id="Path-7-Copy" fill="#8DA6AC" opacity="0.506696429"></path>
                            <path d="M293.93663,312.81967 C296.022241,309.152248 301.580105,301.110522 311.058815,301.110522 C320.537525,301.110522 326.958671,308.861574 328.908661,312.81967 C325.771115,312.81967 301.184543,312.81967 293.93663,312.81967 Z" id="Path-12" fill="#BFC3C8"></path>
                            <path d="M162.879544,140.332068 L165.379718,138.129762 C166.482715,144.752444 171.821403,148.063785 181.395781,148.063785 C190.97016,148.063785 196.75784,144.860921 198.758821,138.455193 L201.438451,139.940474 C199.783745,147.1399 193.008212,150.739614 181.111853,150.739614 C169.215493,150.739614 163.138057,147.270432 162.879544,140.332068 Z" id="Path-13" fill="#78969D"></path>
                        </g>
                    </g>
                    <path d="M115.393219,169.415392 L122.428742,169.415392 C123.448701,169.415392 124.275542,170.242232 124.275542,171.262192 L124.275542,172.009413 C124.275542,173.029373 123.448701,173.856213 122.428742,173.856213 L115.393219,173.856213 L115.393219,180.891736 C115.393219,181.911695 114.566379,182.738536 113.546419,182.738536 L112.799198,182.738536 C111.779239,182.738536 110.952398,181.911695 110.952398,180.891736 L110.952398,173.856213 L103.916876,173.856213 C102.896916,173.856213 102.070076,173.029373 102.070076,172.009413 L102.070076,171.262192 C102.070076,170.242232 102.896916,169.415392 103.916876,169.415392 L110.952398,169.415392 L110.952398,162.379869 C110.952398,161.35991 111.779239,160.533069 112.799198,160.533069 L113.546419,160.533069 C114.566379,160.533069 115.393219,161.35991 115.393219,162.379869 L115.393219,169.415392 Z" id="Combined-Shape" fill="#334051" opacity="0.659486607" transform="translate(113.172809, 171.635802) rotate(31.000000) translate(-113.172809, -171.635802) "></path>
                    <path d="M458.708818,334.615676 L470.078856,334.615676 C470.897859,334.615676 471.561793,335.279609 471.561793,336.098613 C471.561793,336.917616 470.897859,337.58155 470.078856,337.58155 L458.708818,337.58155 L458.708818,348.951588 C458.708818,349.770591 458.044884,350.434525 457.225881,350.434525 C456.406878,350.434525 455.742944,349.770591 455.742944,348.951588 L455.742944,337.58155 L444.372906,337.58155 C443.553902,337.58155 442.889969,336.917616 442.889969,336.098613 C442.889969,335.279609 443.553902,334.615676 444.372906,334.615676 L455.742944,334.615676 L455.742944,323.245638 C455.742944,322.426634 456.406878,321.762701 457.225881,321.762701 C458.044884,321.762701 458.708818,322.426634 458.708818,323.245638 L458.708818,334.615676 Z" id="Combined-Shape-Copy-2" fill="#6A89CC"></path>
                    <path d="M406.911245,168.397919 L412.746841,168.397919 C413.766801,168.397919 414.593641,169.224759 414.593641,170.244719 L414.593641,170.392023 C414.593641,171.411983 413.766801,172.238823 412.746841,172.238823 L406.911245,172.238823 L406.911245,178.07442 C406.911245,179.094379 406.084404,179.92122 405.064445,179.92122 L404.91714,179.92122 C403.897181,179.92122 403.07034,179.094379 403.07034,178.07442 L403.07034,172.238823 L397.234744,172.238823 C396.214784,172.238823 395.387944,171.411983 395.387944,170.392023 L395.387944,170.244719 C395.387944,169.224759 396.214784,168.397919 397.234744,168.397919 L403.07034,168.397919 L403.07034,162.562322 C403.07034,161.542363 403.897181,160.715522 404.91714,160.715522 L405.064445,160.715522 C406.084404,160.715522 406.911245,161.542363 406.911245,162.562322 L406.911245,168.397919 Z" id="Combined-Shape-Copy" fill="#334051" opacity="0.659486607" transform="translate(404.990792, 170.318371) rotate(-12.000000) translate(-404.990792, -170.318371) "></path>
                    <ellipse id="Oval-6" fill="#6A89CC" opacity="0.400000006" cx="116.417476" cy="321.553666" rx="13.8592233" ry="13.8600718"></ellipse>
                    <ellipse id="Oval-6" stroke="#334051" stroke-width="2.77019993" opacity="0.299999982" cx="139.978155" cy="354.355836" rx="5.08171521" ry="5.08202632"></ellipse>
                    <ellipse id="Oval-6" stroke="#334051" stroke-width="2.77019993" opacity="0.231808036" cx="474.909385" cy="356.665848" rx="2.77184466" ry="2.77201436"></ellipse>
                    <ellipse id="Oval-6-Copy" fill="#82CCDD" cx="393.601942" cy="133.056689" rx="6.46763754" ry="6.4680335"></ellipse>
                    <ellipse id="Oval-6-Copy-2" fill="#6A89CC" cx="87.7750809" cy="202.600812" rx="4.6197411" ry="4.62002393"></ellipse>
                    <path d="M161.228964,244.399266 L168.62055,262.879362" id="Line" stroke="#334051" stroke-width="2.77019993" opacity="0.219587054" stroke-linecap="round"></path>
                    <path d="M405.151294,269.347395 L412.54288,287.827491" id="Line-Copy-2" stroke="#334051" stroke-width="2.77019993" opacity="0.145926339" stroke-linecap="round" transform="translate(408.847087, 278.587443) scale(-1, 1) translate(-408.847087, -278.587443) "></path>
                    <path d="M165.848706,224.995165 L173.240291,243.475261" id="Line-Copy" stroke="#334051" stroke-width="2.77019993" opacity="0.219587054" stroke-linecap="round"></path>
                    <path d="M415.314725,256.411328 L418.08657,263.803366" id="Line-Copy-5" stroke="#334051" stroke-width="2.77019993" opacity="0.145926339" stroke-linecap="round" transform="translate(416.700647, 260.107347) scale(-1, 1) translate(-416.700647, -260.107347) "></path>
                    <path d="M255.995349,37.7094402 L280.280761,47.6927236 C290.46385,51.655458 293.887947,64.1827378 289.9745,74.4980403 L274.240965,115.974152 C270.329022,126.289455 258.796313,131.485209 248.613224,127.522475 L182.420725,99.7170889 L157.813098,110.677098 C154.164459,112.301819 149.969652,110.064398 149.230897,106.095567 L145.355064,85.2912115 L138.805568,82.7413443 C128.623984,78.7786099 123.494825,67.0961641 127.405263,56.7808616 L143.138798,15.3047495 C147.052246,4.98944703 158.584955,-0.207831559 168.768044,3.75642697 L255.995349,37.7094402 Z" id="Fill-81-Copy" fill="#82CCDD" transform="translate(208.822036, 65.639140) scale(-1, 1) translate(-208.822036, -65.639140) "></path>
                    <rect id="Rectangle-20" fill="#FFFFFF" opacity="0.381082589" transform="translate(203.450285, 49.874096) rotate(-22.000000) translate(-203.450285, -49.874096) " x="145.703521" y="45.2540725" width="115.493528" height="9.24004786" rx="4.62002393"></rect>
                    <rect id="Rectangle-20-Copy" fill="#FFFFFF" opacity="0.381082589" transform="translate(211.765819, 72.974216) rotate(-22.000000) translate(-211.765819, -72.974216) " x="154.019055" y="68.3541921" width="115.493528" height="9.24004786" rx="4.62002393"></rect>
                    <path d="M391.546059,35.7632817 C401.729148,39.7260161 406.859812,51.4084619 402.946364,61.7237644 L387.21283,103.199876 C383.300886,113.515179 371.768177,118.710933 361.585088,114.748199 L317.971436,97.7709303 L293.363809,108.730939 C289.715169,110.35566 285.520362,108.11824 284.781607,104.149409 L280.905774,83.345053 L274.356279,80.7951858 C264.174694,76.8324514 259.045535,65.1500055 262.955973,54.8347031 L278.689508,13.358591 C282.602956,3.04328852 294.135665,-2.15399007 304.318754,1.81026847 L391.546059,35.7632817 Z" id="Fill-81-Copy-2" fill="#6A89CC"></path>
                    <g id="Group-21" opacity="0.312332589" transform="translate(334.477318, 56.826365) rotate(1.000000) translate(-334.477318, -56.826365) translate(278.116477, 22.176185)" fill="#FFFFFF">
                        <rect id="Rectangle-21" transform="translate(60.609722, 23.526943) rotate(21.000000) translate(-60.609722, -23.526943) " x="7.48269973" y="18.9069189" width="106.254045" height="9.24004786" rx="4.62002393"></rect>
                        <rect id="Rectangle-21-Copy" transform="translate(52.294188, 44.779053) rotate(21.000000) translate(-52.294188, -44.779053) " x="-0.832834255" y="40.159029" width="106.254045" height="9.24004786" rx="4.62002393"></rect>
                    </g>
                </g>
            </g>
        </g>
    </g>
</svg>