<?xml version="1.0" encoding="UTF-8"?>
<svg width="115px" height="82px" viewBox="0 0 115 82" version="1.1" xmlns="http://www.w3.org/2000/svg">
    <!-- Generator: Sketch 51.2 (57519) - http://www.bohemiancoding.com/sketch -->
    <title>“</title>
    <desc>Created with Sketch.</desc>
    <defs></defs>
    <g id="old-search-ui-copy" stroke="none" stroke-width="1" fill="none" fill-rule="evenodd" opacity="0.08">
        <g id="landing-page-candidat-6-copy" transform="translate(-322.000000, -2328.000000)" fill="#334051">
            <g id="Group-2-Copy" transform="translate(322.000000, 2328.000000)">
                <path d="M0,48.0989399 C0,31.8727104 3.7468297,20.0895538 11.2406015,12.7491166 C18.7343733,5.40867943 29.7827173,1.1590164 44.3859649,0 L48.1328321,15.0671378 C30.4552165,18.3510176 22.2890492,27.3332599 23.6340852,42.0141343 L38.3333333,42.0141343 L38.3333333,82 L0,82 L0,48.0989399 Z M66.8671679,48.0989399 C66.8671679,31.8727104 70.6139976,20.0895538 78.1077694,12.7491166 C85.6015412,5.40867943 96.6498852,1.1590164 111.253133,0 L115,15.0671378 C97.3223845,18.3510176 89.0601446,27.3332599 90.2130326,42.0141343 L105.200501,42.0141343 L105.200501,82 L66.8671679,82 L66.8671679,48.0989399 Z" id="“"></path>
            </g>
        </g>
    </g>
</svg>