<svg enable-background="new -18 172 450 450" viewBox="-18 172 450 450" xmlns="http://www.w3.org/2000/svg"><g fill="#cfcfcf"><path d="m226.7 289c0 10.9-8.8 19.7-19.7 19.7s-19.7-8.8-19.7-19.7v-96.6c0-10.9 8.8-19.7 19.7-19.7 10.8 0 19.7 8.8 19.7 19.7z"/><path d="m226.7 601.6c0 10.9-8.8 19.7-19.7 19.7s-19.7-8.8-19.7-19.7v-96.6c0-10.9 8.8-19.7 19.7-19.7 10.8 0 19.7 8.8 19.7 19.7z"/><path d="m99 377.3c10.9 0 19.7 8.8 19.7 19.6 0 10.9-8.8 19.7-19.7 19.7h-96.6c-10.9 0-19.7-8.8-19.7-19.7s8.8-19.6 19.7-19.6z"/><path d="m411.6 377.3c10.9 0 19.7 8.8 19.7 19.6 0 10.9-8.8 19.7-19.7 19.7h-96.6c-10.9 0-19.7-8.8-19.7-19.7s8.8-19.6 19.7-19.6z"/><path d="m144.5 306.7c7.7 7.7 7.7 20.1 0 27.8s-20.2 7.7-27.9 0l-68.3-68.3c-7.7-7.7-7.7-20.1 0-27.9 7.7-7.7 20.1-7.7 27.8 0z"/><path d="m365.6 527.8c7.7 7.7 7.7 20.2 0 27.9s-20.1 7.7-27.8-.1l-68.3-68.3c-7.7-7.7-7.7-20.2 0-27.9s20.2-7.7 27.8 0z"/><path d="m116.7 459.5c7.7-7.7 20.2-7.7 27.9 0s7.7 20.2 0 27.9l-68.3 68.3c-7.7 7.7-20.1 7.7-27.8-.1-7.7-7.7-7.7-20.1 0-27.8z"/><path d="m337.8 238.4c7.7-7.7 20.1-7.7 27.8 0s7.7 20.2 0 27.9l-68.3 68.3c-7.7 7.7-20.2 7.7-27.8 0-7.7-7.7-7.7-20.2 0-27.8z"/></g></svg>