<?xml version="1.0" encoding="UTF-8"?>
<svg width="160px" height="247px" viewBox="0 0 160 247" version="1.1" xmlns="http://www.w3.org/2000/svg">
    <!-- Generator: Sketch 50.2 (55047) - http://www.bohemiancoding.com/sketch -->
    <title>step2-ccm</title>
    <desc>Created with Sketch.</desc>
    <defs></defs>
    <g id="UI-Landing" stroke="none" stroke-width="1" fill="none" fill-rule="evenodd">
        <g id="landing-page-3" transform="translate(-640.000000, -1087.000000)">
            <g id="Group-28" transform="translate(640.000000, 1087.000000)">
                <g id="Group-19" transform="translate(72.000000, 0.000000)">
                    <circle id="Oval-2-Copy" fill="#334051" cx="40.3" cy="40.3" r="40.3"></circle>
                    <path d="M28.2932,49.9588 L41.1632,38.3992 C41.8184033,37.806397 42.4735967,37.1356037 43.1288,36.3868 C43.7840033,35.6379963 44.1116,34.764405 44.1116,33.766 C44.1116,32.6427944 43.7060041,31.7614032 42.8948,31.1218 C42.0835959,30.4821968 41.1320055,30.1624 40.04,30.1624 C38.7295934,30.1624 37.7078037,30.5679959 36.9746,31.3792 C36.2413963,32.1904041 35.8280005,33.1887941 35.7344,34.3744 L28.7144,33.8596 C28.8080005,32.1435914 29.1667969,30.6538063 29.7908,29.3902 C30.4148031,28.1265937 31.2415949,27.0736042 32.2712,26.2312 C33.3008051,25.3887958 34.5097931,24.7570021 35.8982,24.3358 C37.2866069,23.9145979 38.7919919,23.704 40.4144,23.704 C41.9120075,23.704 43.3159934,23.9145979 44.6264,24.3358 C45.9368066,24.7570021 47.0755952,25.3809959 48.0428,26.2078 C49.0100048,27.0346041 49.7665973,28.0719938 50.3126,29.32 C50.8586027,30.5680062 51.1316,32.0187917 51.1316,33.6724 C51.1316,34.7332053 51.0224011,35.6925957 50.804,36.5506 C50.5855989,37.4086043 50.281402,38.1885965 49.8914,38.8906 C49.5013981,39.5926035 49.0412027,40.239997 48.5108,40.8328 C47.9803973,41.425603 47.4032031,42.0027972 46.7792,42.5644 L36.7172,51.2224 L51.4124,51.2224 L51.4124,57.4 L28.2932,57.4 L28.2932,49.9588 Z" id="2" fill="#FFFFFF"></path>
                </g>
                <ellipse id="Oval-4-Copy" fill="#334051" opacity="0.6" cx="80" cy="243.5" rx="80" ry="3.5"></ellipse>
                <rect id="Rectangle-16" fill="#D1B990" x="18" y="75" width="124" height="168" rx="4"></rect>
                <rect id="Rectangle-15" fill="#FFFFFF" x="22" y="79" width="116" height="160" rx="4"></rect>
                <rect id="Rectangle-15" fill="#E5E6EA" x="65" y="71" width="30" height="12" rx="1"></rect>
                <path d="M65,79 L95,75.109375 L95,82 C95,82.5522847 94.5522847,83 94,83 L66,83 C65.4477153,83 65,82.5522847 65,82 L65,79 Z" id="Rectangle-15" fill="#D0D1D7"></path>
                <g id="Group-15" transform="translate(35.000000, 94.000000)">
                    <rect id="Rectangle-17" fill="#334051" opacity="0.75" x="3" y="30" width="6" height="6" rx="1"></rect>
                    <rect id="Rectangle-19" fill="#6A89CC" opacity="0.5" x="0" y="0" width="90" height="4" rx="2"></rect>
                    <rect id="Rectangle-19-Copy" fill="#6A89CC" opacity="0.5" x="20" y="9" width="50" height="4" rx="2"></rect>
                    <rect id="Rectangle-17-Copy" fill="#82CCDD" opacity="0.75" x="3" y="45" width="6" height="6" rx="1"></rect>
                    <rect id="Rectangle-9-Copy-2" fill="#D8D8D8" opacity="0.756361607" x="18" y="61" width="70" height="4" rx="2"></rect>
                    <rect id="Rectangle-17-Copy-2" fill="#334051" opacity="0.75" x="3" y="60" width="6" height="6" rx="1"></rect>
                    <rect id="Rectangle-9-Copy-3" fill="#D8D8D8" opacity="0.756361607" x="18" y="76" width="70" height="4" rx="2"></rect>
                    <rect id="Rectangle-17-Copy-3" fill="#334051" opacity="0.75" x="3" y="75" width="6" height="6" rx="1"></rect>
                    <rect id="Rectangle-9-Copy-4" fill="#D8D8D8" opacity="0.756361607" x="18" y="91" width="70" height="4" rx="2"></rect>
                    <rect id="Rectangle-17-Copy-4" fill="#334051" opacity="0.75" x="3" y="90" width="6" height="6" rx="1"></rect>
                    <rect id="Rectangle-9-Copy-5" fill="#D8D8D8" opacity="0.756361607" x="18" y="106" width="70" height="4" rx="2"></rect>
                    <rect id="Rectangle-17-Copy-5" fill="#82CCDD" opacity="0.75" x="3" y="105" width="6" height="6" rx="1"></rect>
                    <rect id="Rectangle-9-Copy-6" fill="#D8D8D8" opacity="0.756361607" x="18" y="121" width="70" height="4" rx="2"></rect>
                    <rect id="Rectangle-17-Copy-6" fill="#334051" opacity="0.75" x="3" y="120" width="6" height="6" rx="1"></rect>
                    <rect id="Rectangle-9" fill="#D8D8D8" opacity="0.756361607" x="18" y="31" width="70" height="4" rx="2"></rect>
                    <rect id="Rectangle-9-Copy" fill="#D8D8D8" opacity="0.756361607" x="18" y="46" width="70" height="4" rx="2"></rect>
                </g>
            </g>
        </g>
    </g>
</svg>