<?xml version="1.0" encoding="UTF-8"?>
<svg width="171px" height="217px" viewBox="0 0 171 217" version="1.1" xmlns="http://www.w3.org/2000/svg">
    <!-- Generator: Sketch 50.2 (55047) - http://www.bohemiancoding.com/sketch -->
    <title>step3-ccm</title>
    <desc>Created with Sketch.</desc>
    <defs></defs>
    <g id="UI-Landing" stroke="none" stroke-width="1" fill="none" fill-rule="evenodd">
        <g id="landing-page-3" transform="translate(-981.000000, -1031.000000)">
            <g id="Group-29" transform="translate(981.000000, 1031.000000)">
                <g id="Group-20" transform="translate(90.000000, 0.000000)">
                    <circle id="Oval-2-Copy-2" fill="#334051" cx="40.3000022" cy="40.3000022" r="40.3000022"></circle>
                    <path d="M37.4088021,37.3227995 L39.7020022,37.3227995 C40.3572055,37.3227995 40.9967991,37.2759999 41.6208023,37.1823995 C42.2448054,37.088799 42.8141998,36.9094008 43.3290024,36.6441994 C43.843805,36.3789981 44.2572009,36.0046018 44.5692025,35.5209994 C44.881204,35.0373969 45.0372025,34.4056032 45.0372025,33.6255993 C45.0372025,32.6271942 44.6394064,31.8004024 43.8438024,31.1451991 C43.0481984,30.4899958 42.0732081,30.1623991 40.9188023,30.1623991 C39.8267967,30.1623991 38.9220057,30.4587961 38.2044021,31.0515991 C37.4867985,31.6444021 37.0188031,32.3775948 36.800402,33.2511992 L29.0784016,31.6599992 C29.4528035,30.2247919 30.0143979,29.0002041 30.7632017,27.986199 C31.5120055,26.9721938 32.4011966,26.153202 33.4308018,25.5291988 C34.460407,24.9051957 35.6069956,24.4450002 36.870602,24.1485987 C38.1342084,23.8521972 39.4679952,23.7039987 40.8720022,23.7039987 C42.3384097,23.7039987 43.7501956,23.8833969 45.1074025,24.2421987 C46.4646093,24.6010006 47.6579975,25.162595 48.6876027,25.9269988 C49.7172079,26.6914027 50.5361997,27.6507932 51.1446028,28.805199 C51.7530059,29.9596048 52.0572029,31.3323912 52.0572029,32.9235992 C52.0572029,34.7644085 51.5736077,36.3399929 50.6064028,37.6503995 C49.6391979,38.9608061 48.2352119,39.8031977 46.3944026,40.1775996 L46.3944026,40.3179996 C47.3928076,40.4428003 48.2741988,40.7391973 49.0386027,41.2071997 C49.8030066,41.675202 50.4504001,42.2523963 50.9808028,42.9387998 C51.5112055,43.6252032 51.9168015,44.4051955 52.1976029,45.2787999 C52.4784043,46.1524043 52.6188029,47.0727952 52.6188029,48.0400001 C52.6188029,49.6936084 52.2990061,51.144394 51.6594028,52.3924003 C51.0197996,53.6404066 50.1618081,54.6777963 49.0854027,55.5046005 C48.0089973,56.3314046 46.7454098,56.9475985 45.2946025,57.3532006 C43.8437952,57.7588026 42.3072104,57.9616006 40.6848022,57.9616006 C37.7207873,57.9616006 35.1702126,57.2752074 33.0330018,55.9024005 C30.895791,54.5295936 29.4840051,52.3612151 28.7976016,49.3972001 L36.192002,47.6656 C36.4416033,48.851206 36.9485982,49.7871967 37.7130021,50.4736002 C38.4774059,51.1600037 39.6083947,51.5032002 41.1060023,51.5032002 C42.63481,51.5032002 43.7657987,51.1054042 44.4990024,50.3098002 C45.2322062,49.5141962 45.5988025,48.4924063 45.5988025,47.2444 C45.5988025,46.3083953 45.4038044,45.5830025 45.0138025,45.0681999 C44.6238005,44.5533973 44.1168055,44.1712011 43.4928024,43.9215998 C42.8687992,43.6719986 42.1668062,43.5238 41.3868023,43.4769998 C40.6067983,43.4301996 39.8268061,43.4067998 39.0468021,43.4067998 L37.4088021,43.4067998 L37.4088021,37.3227995 Z" id="3" fill="#FFFFFF"></path>
                </g>
                <ellipse id="Oval-5" fill="#334051" opacity="0.6" cx="84.5" cy="213.5" rx="56.5" ry="3.5"></ellipse>
                <g id="Group-16" transform="translate(10.000000, 59.000000)">
                    <path d="M24.7620151,40.1552747 L20.6173876,34.6929087 C17.8148833,33.779499 15.477764,31.9957096 14.1392089,29.4618289 C11.0864264,23.6830946 14.3803119,16.1939174 21.4966746,12.7339137 C23.913312,11.5589011 26.4589115,11 28.8882923,11 C31.4965888,11 33.9692967,11.6449611 36.0005771,12.8644706 L36.0005771,12.8669155 C35.8812999,12.7950359 35.7604935,12.7256011 35.6381579,12.6576332 C35.7610032,12.7476051 35.8818096,12.8395328 36.0005771,12.9339054 L36.0005771,29.5385984 C34.7236995,30.8524805 33.1547457,32.0001104 31.3365331,32.8841814 C29.7426024,33.6587216 28.0926013,34.1638352 26.4568726,34.4190813 L26.4573824,34.4190813 L23.8195214,38.9127832 L24.7620151,40.1552747" id="Fill-5" fill="#FFFFFF"></path>
                    <path d="M24.9424937,39.4976414 L24,38.25515 L26.637861,33.7614481 L26.6373512,33.7614481 C28.2730799,33.5062019 29.923081,33.0010883 31.5170117,32.2265482 C33.3352243,31.3424772 34.9041781,30.1948473 36.1810557,28.8809652 L36.1810557,30.783576 C35.1646509,31.6309738 34.0106186,32.381554 32.7332313,33.0025553 C31.1398103,33.7775844 29.4898092,34.282209 27.8540805,34.5379442 L24.9424937,39.4976414 M36.1810557,12.2762722 C36.0622882,12.1818996 35.9414818,12.0899718 35.8186365,12 C35.9409721,12.0679679 36.0617785,12.1374026 36.1810557,12.2092823 L36.1810557,12.2762722" id="Fill-6" fill="#7A8DB0"></path>
                    <polygon id="Fill-10" fill="#575C59" points="34 53.2658662 35.2233559 53.2658662 35.2233559 26 34 26"></polygon>
                    <polygon id="Fill-11" fill="#575C59" points="34 21.8930724 35.2233559 21.8930724 35.2233559 14 34 14"></polygon>
                    <path d="M103.120267,154.861527 L46.9043034,154.861527 C40.3634971,154.861527 35.0122854,149.630212 35.0122854,143.235955 L35.0122854,12.5371018 C35.0122854,6.14284526 40.3634971,0.911530025 46.9043034,0.911530025 L103.120267,0.911530025 C109.661074,0.911530025 115.012285,6.14284526 115.012285,12.5371018 L115.012285,143.235955 C115.012285,149.630212 109.661074,154.861527 103.120267,154.861527" id="Fill-12" fill="#DADCE0"></path>
                    <path d="M48.5602026,153.18646 C42.2018108,153.18646 37,148.195957 37,142.096454 L37,14.0895174 C37,7.99050286 42.2018108,3 48.5602026,3 L101.483594,3 C107.841476,3 113.043797,7.99050286 113.043797,14.0895174 L113.043797,142.096454 C113.043797,148.195957 107.841476,153.18646 101.483594,153.18646 L48.5602026,153.18646 Z" id="Fill-13" fill="#D4D4D4"></path>
                    <path d="M80.258978,8.40336495 L70.9398246,8.40336495 C70.4207596,8.40336495 70,8.08922158 70,7.7014434 C70,7.31414336 70.4207596,7 70.9398246,7 L80.258978,7 C80.7777227,7 81.1988026,7.31414336 81.1988026,7.7014434 C81.1988026,8.08922158 80.7777227,8.40336495 80.258978,8.40336495" id="Fill-16" fill="#334051"></path>
                    <path d="M104.707826,156.292629 L46.366497,156.292629 C46.3598705,156.292629 46.3537537,156.292629 46.3471272,156.292629 C46.3537537,156.292629 46.3603802,156.292629 46.366497,156.292629 L104.707826,156.292629 C111.495921,156.292629 117.049447,150.965221 117.049447,144.45351 L117.049447,114 L117.049447,144.45351 C117.049447,150.965221 111.495921,156.292629 104.707826,156.292629 M46.3405007,156.292629 C46.3364228,156.292629 46.332345,156.292629 46.3282671,156.292629 C46.332345,156.292629 46.3364228,156.292629 46.3405007,156.292629 M46.3201114,156.292629 C46.3165433,156.292629 46.3124655,156.292629 46.3094071,156.292629 C46.3129752,156.292629 46.3160336,156.292629 46.3201114,156.292629 M46.3007416,156.292629 C46.2966638,156.292629 46.2941151,156.292629 46.2900373,156.292629 C46.2936054,156.292629 46.2966638,156.292629 46.3007416,156.292629 M46.2808621,156.292629 C46.2778037,156.292629 46.2742356,156.292629 46.2706675,156.292629 C46.2742356,156.292629 46.2778037,156.292629 46.2808621,156.292629 M46.262002,156.29214 C46.2584339,156.29214 46.2553755,156.29214 46.2518074,156.29214 C46.2553755,156.29214 46.2584339,156.29214 46.262002,156.29214 M46.2421225,156.29214 C46.2390641,156.29214 46.2360057,156.29214 46.2329473,156.29214 C46.2360057,156.29214 46.2395738,156.29214 46.2421225,156.29214 M46.2232624,156.29214 C46.220204,156.29214 46.2171457,156.29214 46.2140873,156.29214 C46.2176554,156.29214 46.220204,156.29214 46.2232624,156.29214 M46.2038926,156.291651 C46.201344,156.291651 46.1977759,156.291651 46.1952272,156.291651 C46.1982856,156.291651 46.2008342,156.291651 46.2038926,156.291651 M46.1850326,156.291651 C46.1819742,156.291651 46.1794255,156.291651 46.1763671,156.291162 C46.1794255,156.291651 46.1819742,156.291651 46.1850326,156.291651 M46.1656628,156.291162 C46.1636238,156.291162 46.1605654,156.291162 46.1585265,156.291162 C46.1610752,156.291162 46.1631141,156.291162 46.1656628,156.291162 M46.1468027,156.291162 C46.1457832,156.291162 46.1447638,156.290673 46.144254,156.290673 C46.1447638,156.290673 46.1457832,156.291162 46.1468027,156.291162 M46.0749305,156.289695 C46.0744208,156.289695 46.0734013,156.289695 46.0728916,156.289695 C46.0739111,156.289695 46.0744208,156.289695 46.0749305,156.289695 M46.0372104,156.288717 C46.0372104,156.288717 46.0367007,156.288717 46.0361909,156.288717 L46.0372104,156.288717 M46.0188601,156.288228 L46.0183503,156.288228 L46.0188601,156.288228 M46.0005097,156.287739 L46,156.287739 C46.0005097,156.287739 46,156.287739 46.0005097,156.287739" id="Fill-17" fill="#CCCDC9"></path>
                    <polygon id="Fill-22" fill="#334051" points="37 141.652345 113.043797 141.652345 113.043797 12 37 12"></polygon>
                    <path d="M110.223449,19.4551553 C109.25292,19.4551553 108.354263,18.8013926 108.160056,17.8136583 L108,17 C108,17.000489 108,17.000489 108,17.000489 L108.160056,17.8136583 C108.354263,18.8013926 109.25292,19.4551553 110.223449,19.4551553 C110.503802,19.4551553 110.790271,19.4003898 111.067565,19.2835242 L114.186103,17.9681752 L111.067565,19.2835242 C110.790271,19.4003898 110.503802,19.4551553 110.223449,19.4551553" id="Fill-84" fill="#82CCDD"></path>
                    <g id="Group-17" transform="translate(101.000000, 9.000000)">
                        <path d="M43.0979287,11.3198753 L14.158372,0.426926827 C10.7799106,-0.844903268 6.95368332,0.822509505 5.65531186,4.13190823 L0.435369397,17.4384489 C-0.862003699,20.7478477 0.839706529,24.4958591 4.21766872,25.7672002 L6.39060642,26.5852593 L7.67649834,33.2598002 C7.92159653,34.5330972 9.31331496,35.250916 10.5238304,34.7296661 L18.6879463,31.2134299 L33.1577246,36.6601487 C36.536186,37.9314898 40.3624133,36.264566 41.6602856,32.9551673 L46.880228,19.6486266 C48.1785995,16.3392278 46.4763901,12.5912164 43.0979287,11.3198753" id="Fill-81" fill="#82CCDD"></path>
                        <path d="M6.14736292,26.5963458 L4.1976396,25.8780381 C4.19356175,25.8765711 4.18999363,25.8751042 4.18540605,25.8736373 C4.18438658,25.8731483 4.18387685,25.8726593 4.18285739,25.8721703 C4.17928927,25.8711924 4.17623088,25.8702144 4.17317249,25.8687475 C4.17215303,25.8682585 4.17113356,25.8682585 4.1701141,25.8677695 C4.16195839,25.8648357 4.15380269,25.8614128 4.14513725,25.858479 C4.14513725,25.85799 4.14462752,25.85799 4.14411779,25.85799 C4.14003994,25.8565231 4.13647181,25.8550561 4.13239396,25.8535892 C4.13239396,25.8535892 4.1313745,25.8531002 4.13086477,25.8531002 C2.59861162,25.2702392 1.40991756,24.195467 0.686098714,22.8908754 C0.686098714,22.8903864 0.686098714,22.8903864 0.685588982,22.8903864 C0.682020861,22.8830518 0.677943008,22.8757171 0.673865156,22.8683825 C0.673355424,22.8678935 0.673355424,22.8674045 0.672845693,22.8669155 C0.671316498,22.8639817 0.669787303,22.8610478 0.668258108,22.8586029 C0.667748377,22.857136 0.667238645,22.856158 0.666219182,22.8551801 C0.665199719,22.8527352 0.663670524,22.8502903 0.662651061,22.8478454 C0.662141329,22.8468675 0.661631598,22.8458895 0.660612135,22.8444226 C0.65908294,22.8414887 0.657044013,22.8380659 0.655514819,22.835132 C0.655005087,22.8336651 0.653985624,22.8317092 0.652966161,22.8302422 C0.651946698,22.8287753 0.651436966,22.8273084 0.650417503,22.8253525 C0.64939804,22.8233965 0.648378576,22.8219296 0.647359113,22.8199737 C0.646849382,22.8185068 0.645829919,22.8175288 0.645320187,22.8160619 C0.63971314,22.8053044 0.634106092,22.7945469 0.627989313,22.7837894 C0.627989313,22.7837894 0.627989313,22.7837894 0.627989313,22.7833004 C0.330815799,22.2229324 0.118257728,21.6214902 0,21 C0.720760462,22.4111886 1.97317097,23.5769107 3.61399694,24.1817756 L5.83285853,24.9998347 L6.14736292,26.5963458" id="Fill-83" fill="#334051" opacity="0.516294643"></path>
                        <path d="M35.6437435,37.585375 C34.872437,37.585375 34.0892946,37.4479723 33.3288377,37.1584977 L19.0335297,31.711779 L10.9678533,35.2280151 C10.6995728,35.3448807 10.4224153,35.3996462 10.1511758,35.3996462 C9.21219398,35.3996462 8.3427481,34.7458835 8.1548531,33.7581492 L8,32.9449799 C8.3836806,33.4197769 8.97103741,33.7028948 9.58847714,33.7028948 C9.85873032,33.7028948 10.1353946,33.6486183 10.403182,33.5317527 L18.4688584,30.0160055 L32.7646595,35.4622353 C33.5246233,35.7517099 34.3077657,35.8891125 35.0795653,35.8891125 C37.6943141,35.8886235 40.1739363,34.3126495 41.1642071,31.7572539 L46.3212097,18.4507132 C46.7620972,17.3128629 46.8528391,16.123181 46.6457108,15 C47.4150446,16.5564149 47.558555,18.411595 46.885881,20.1469756 L41.7288784,33.4535163 C40.7386076,36.008912 38.2589855,37.585375 35.6437435,37.585375" id="Fill-85" fill="#334051" opacity="0.311049107"></path>
                    </g>
                    <path d="M141.718558,80.7373186 C129.14246,76.2147671 115.713072,80.8263125 111.722383,91.0381155 C109.971965,95.5156812 110.328267,100.32624 112.340178,104.698676 L110,115.848826 L119.726188,113.663098 C121.919054,115.316819 124.450381,116.704048 127.266648,117.71672 C139.842745,122.23976 153.272134,117.627726 157.262822,107.415923 C161.253511,97.20412 154.294146,85.2598702 141.718558,80.7373186" id="Fill-96" fill="#FFFFFF"></path>
                    <path d="M137.20627,119.06356 C133.994451,119.06356 130.656219,118.505148 127.378135,117.326224 C124.561868,116.313552 122.030541,114.926323 119.837676,113.272601 L117,113.910228 L119.837676,113.272601 C122.030541,114.926323 124.561868,116.313552 127.378135,117.326224 C130.656219,118.505148 133.994451,119.06356 137.20627,119.06356 C146.315683,119.064049 154.423983,114.575237 157.37431,107.025427 C157.377878,107.016625 157.380936,107.008802 157.384504,107 C157.380936,107.008313 157.377878,107.017114 157.37431,107.025427 C154.423983,114.575237 146.315683,119.064049 137.20627,119.06356" id="Fill-97" fill="#EEEEEE"></path>
                    <path d="M137.094782,119.986867 C133.882964,119.986867 130.544732,119.428455 127.266648,118.24953 C124.450381,117.236858 121.919054,115.849629 119.726188,114.195908 L116.888513,114.833534 L110,116.381637 L110.53216,113.8458 L119.34389,111.865442 L119.34389,111.864953 C121.536755,113.519163 124.068082,114.906392 126.884349,115.919064 C130.162943,117.098477 133.499136,117.656401 136.711464,117.656401 C145.820368,117.655912 153.930707,113.1671 156.881033,105.618267 C157.850543,103.137196 158.168615,100.554418 157.921905,98 C158.678857,101.249743 158.533073,104.613908 157.315325,107.812798 C157.314815,107.814753 157.314305,107.81622 157.313286,107.818176 C157.310737,107.825022 157.308188,107.831379 157.30564,107.837735 C157.304111,107.843114 157.301562,107.848982 157.299523,107.854361 C157.297994,107.858272 157.296465,107.862673 157.294935,107.866585 C157.292896,107.871964 157.290858,107.876854 157.289328,107.881743 C157.287799,107.885166 157.28678,107.8881 157.285251,107.891523 C157.282192,107.899835 157.279134,107.906681 157.276075,107.914994 C157.275056,107.917928 157.274036,107.920373 157.273017,107.923306 C157.269449,107.932108 157.26639,107.939932 157.262822,107.948733 C154.312496,115.498544 146.204196,119.987356 137.094782,119.986867" id="Fill-99" fill="#D6DBE5"></path>
                    <path d="M30.3166927,64.8036198 L3.98162483,73.5195601 C0.907967969,74.5369663 -0.739262637,77.7810937 0.322509519,80.7281963 L4.58971699,92.5783263 C5.65098617,95.5259111 9.03447328,97.1040961 12.1091361,96.0871721 L14.0863158,95.4323676 L18.9118213,99.2117181 C19.8322585,99.9325818 21.2129144,99.6452007 21.7375133,98.6220083 L25.2759156,91.729202 L38.443701,87.3712318 C41.5173579,86.3533434 43.1645885,83.1096982 42.1028163,80.1625956 L37.8356088,68.3124656 C36.7743397,65.3648808 33.3908526,63.7866958 30.3166927,64.8036198" id="Fill-102" fill="#82CCDD"></path>
                    <path d="M9.63267027,96.3205 C9.09541318,96.32 8.56580206,96.249 8.05607047,96.1125 C8.56529233,96.2485 9.09541318,96.32 9.63267027,96.32 C10.2774807,96.32 10.9324858,96.217 11.5742379,96 C10.9324858,96.217 10.2774807,96.3205 9.63267027,96.3205 M8.04944396,96.1105 C8.04740504,96.11 8.04536611,96.1095 8.04332718,96.109 C8.04536611,96.1095 8.04740504,96.11 8.04944396,96.1105 M8.03364228,96.1065 C8.03211309,96.106 8.03109363,96.1055 8.02956443,96.105 C8.0305839,96.1055 8.03262282,96.106 8.03364228,96.1065 M8.01835034,96.102 C8.01733087,96.102 8.01580168,96.1015 8.01478222,96.101 C8.01580168,96.1015 8.01682114,96.1015 8.01835034,96.102 M8.00203893,96.0975 C8.00152919,96.0975 8.00101946,96.0975 8,96.097 C8.00101946,96.0975 8.00152919,96.0975 8.00203893,96.0975" id="Fill-103" fill="#EA918F"></path>
                    <path d="M9.84286642,95.813128 C9.30560933,95.813128 8.77548848,95.7432043 8.26626663,95.6102024 C8.26371797,95.6092245 8.26167904,95.6087355 8.25964012,95.6082465 C8.25760119,95.6077575 8.25556226,95.6072686 8.25352334,95.6067796 C8.25046495,95.6058016 8.24740656,95.6048237 8.24383844,95.6043347 C8.24281898,95.6038457 8.24078005,95.6033567 8.23976059,95.6028678 C8.23568273,95.6018898 8.23211461,95.6009119 8.22854649,95.5999339 C8.2270173,95.5994449 8.22599783,95.5994449 8.22497837,95.5989559 C8.22090052,95.597978 8.21682266,95.597 8.21223508,95.5955331 C8.21172535,95.5955331 8.21121562,95.5955331 8.21019615,95.5950441 C7.40278132,95.3754933 6.64786884,94.9960469 6,94.4821317 C6.7584806,94.8033898 7.58628469,94.9764878 8.43192939,94.9764878 C9.07572039,94.9764878 9.73021574,94.8757584 10.3709483,94.6640312 L12.3747032,94 L13.5445372,94.9168325 L11.784434,95.5001825 C11.142682,95.7123987 10.4876769,95.813128 9.84286642,95.813128" id="Fill-104" fill="#82CCDD"></path>
                    <path d="M33.0718722,53.1915 C33.0713624,53.19 33.0708527,53.1875 33.0698332,53.186 C33.0708527,53.188 33.0713624,53.1895 33.0718722,53.1915 M33.0662651,53.175 C33.0652456,53.1725 33.0647359,53.1705 33.0637164,53.168 C33.0647359,53.1705 33.0652456,53.1725 33.0662651,53.175 M33.0596386,53.156 C33.0586191,53.154 33.0581094,53.152 33.0570899,53.15 C33.0575997,53.152 33.0586191,53.154 33.0596386,53.156 M33.0519926,53.136 C33.0509732,53.1335 33.0499537,53.131 33.049444,53.1285 C33.0499537,53.131 33.0509732,53.1335 33.0519926,53.136 M33.0458758,53.1195 C33.0448564,53.117 33.0438369,53.114 33.0428175,53.1115 C33.0438369,53.114 33.0448564,53.1165 33.0458758,53.1195 M33.0397591,53.1025 C33.0382299,53.0985 33.0367007,53.095 33.0351715,53.091 C33.0367007,53.095 33.0382299,53.0985 33.0397591,53.1025 M33.0310936,53.0805 C33.0300742,53.0775 33.0290547,53.0745 33.0280352,53.0715 C33.0290547,53.0745 33.0300742,53.0775 33.0310936,53.0805 M33.0249768,53.064 C33.0239574,53.0615 33.0229379,53.058 33.0219185,53.055 C33.0229379,53.058 33.0239574,53.061 33.0249768,53.064 M33.0188601,53.048 C33.0173309,53.0435 33.0158017,53.0395 33.0137628,53.035 C33.0152919,53.039 33.0173309,53.0435 33.0188601,53.048 M33.0101946,53.025 C33.0086654,53.022 33.007646,53.019 33.0066265,53.016 C33.007646,53.019 33.0086654,53.022 33.0101946,53.025 M33.0035681,53.0085 C33.0025487,53.0055 33.0015292,53.003 33,53 C33.0010195,53.0025 33.0025487,53.0055 33.0035681,53.0085" id="Fill-105" fill="#EA918F"></path>
                    <path d="M33.0708527,53.17 C33.0698332,53.1675 33.0688138,53.165 33.0677943,53.1625 C33.0688138,53.165 33.0698332,53.1675 33.0708527,53.17 M33.0616775,53.1475 C33.0606581,53.1455 33.0596386,53.1425 33.0586191,53.14 C33.0596386,53.1425 33.0606581,53.145 33.0616775,53.1475 M33.055051,53.1315 C33.0540315,53.1285 33.0530121,53.126 33.0519926,53.1235 C33.0530121,53.126 33.0540315,53.129 33.055051,53.1315 M33.0484245,53.114 C33.047405,53.112 33.0463856,53.1095 33.0453661,53.1075 C33.0463856,53.1095 33.047405,53.112 33.0484245,53.114 M33.0392493,53.0925 C33.0382299,53.0905 33.0377201,53.0885 33.0367007,53.087 C33.0377201,53.0885 33.0382299,53.0905 33.0392493,53.0925 M33.0321131,53.0755 C33.0316034,53.0735 33.0305839,53.072 33.0300742,53.07 C33.0305839,53.072 33.0316034,53.0735 33.0321131,53.0755 M33.0249768,53.0575 C33.0239574,53.0565 33.0234477,53.055 33.0229379,53.0535 C33.0234477,53.055 33.0239574,53.0565 33.0249768,53.0575 M33.0158017,53.037 C33.0158017,53.0365 33.0158017,53.036 33.0152919,53.0355 C33.0158017,53.036 33.0158017,53.0365 33.0158017,53.037 M33.0086654,53.02 C33.0081557,53.019 33.007646,53.0175 33.0071362,53.017 C33.007646,53.018 33.0081557,53.019 33.0086654,53.02 M33.0005097,53.001 C33.0005097,53.001 33,53.0005 33,53 C33.0005097,53.0005 33.0005097,53.001 33.0005097,53.001" id="Fill-106" fill="#503736"></path>
                    <path d="M19.7769243,100.116887 C19.3645515,100.116887 18.9470813,99.9863296 18.5958762,99.7110354 L18,99.244062 C18.1208064,99.2670439 18.243142,99.2787794 18.3654775,99.2787794 C19.0474984,99.2787794 19.7152468,98.9232928 20.0465723,98.2773538 L23.632534,91.2869335 L36.9767972,86.8670672 C40.0917669,85.835325 41.7611378,82.5459744 40.6856042,79.5573448 L36.3605317,67.5397484 C35.9909763,66.512407 35.3425977,65.6488729 34.5249883,65 C35.8773062,65.5730815 37.00942,66.618515 37.6221174,67.9979202 C37.6221174,67.9984091 37.6226271,67.9988981 37.6226271,67.9988981 C37.6251758,68.0042769 37.6272147,68.0091666 37.6292536,68.0145454 C37.6297633,68.0150344 37.6302731,68.0165013 37.6307828,68.0174792 C37.6328217,68.022369 37.6353704,68.0277478 37.6374093,68.0326375 C37.6379191,68.0331265 37.6379191,68.0336155 37.6379191,68.0341045 C37.6404677,68.0394832 37.6430164,68.044862 37.6450553,68.0502407 C37.645565,68.0517077 37.6460748,68.0531746 37.6470942,68.0541525 C37.6486234,68.0580644 37.6501526,68.0619762 37.6521915,68.066377 C37.6527013,68.0683329 37.6537207,68.0697998 37.6542305,68.0717557 C37.6557597,68.0756676 37.6572889,68.0790904 37.658818,68.0830022 C37.6598375,68.0844691 37.6603472,68.0864251 37.6613667,68.088381 C37.6634056,68.0932707 37.6654446,68.0981605 37.6674835,68.1030503 C37.6685029,68.1050062 37.6695224,68.1074511 37.6705419,68.109407 C37.6715613,68.1128298 37.6730905,68.1157637 37.67411,68.1186976 C37.6751295,68.1211424 37.6761489,68.1235873 37.6771684,68.1265212 C37.6786976,68.1294551 37.679717,68.1318999 37.6807365,68.1348338 C37.681756,68.1372787 37.6827754,68.1402126 37.6837949,68.1421685 C37.6858338,68.1470582 37.6878728,68.151948 37.6899117,68.1568378 C37.6909311,68.1592827 37.6919506,68.1617276 37.6929701,68.1641725 C37.6939895,68.1671063 37.695009,68.1695512 37.6960285,68.1724851 C37.6975577,68.1754189 37.6985771,68.1778638 37.6995966,68.1807977 C37.700616,68.1832426 37.7016355,68.1856875 37.702655,68.1881323 C37.7036744,68.1910662 37.7046939,68.1940001 37.7062231,68.1969339 C37.7072426,68.1998678 37.7087717,68.2032906 37.7097912,68.2067135 C37.7118301,68.2111143 37.7133593,68.2150261 37.7148885,68.2194269 C37.715908,68.2218718 37.7169275,68.2238277 37.7179469,68.2262726 C37.7189664,68.2292064 37.7199858,68.2326293 37.7210053,68.2350742 C37.7220248,68.2375191 37.7230442,68.2399639 37.7240637,68.2424088 C37.7250832,68.2453427 37.7261026,68.2482766 37.7271221,68.2512104 C37.7286513,68.2546333 37.7301805,68.2580561 37.7311999,68.2614789 C37.7327291,68.2653908 37.7342583,68.2688136 37.7357875,68.2727254 C37.736807,68.2756593 37.7378264,68.2785932 37.7388459,68.281527 C37.7398654,68.2839719 37.7408848,68.2869058 37.7419043,68.2893507 C37.7429238,68.2922845 37.7439432,68.2952184 37.7454724,68.2981522 C37.7459822,68.3005971 37.7470016,68.303042 37.7480211,68.3054869 C37.7495503,68.3098877 37.7515892,68.3147775 37.7531184,68.3191783 C37.7541379,68.3211342 37.7546476,68.3230901 37.7556671,68.325046 C37.7566865,68.3289578 37.7582157,68.3328696 37.7597449,68.3367815 C37.7607644,68.3392263 37.7612741,68.3411823 37.7622936,68.3436271 C37.763313,68.34705 37.7648422,68.3504728 37.7658617,68.3543846 C37.7668811,68.3558516 37.7673909,68.3582965 37.7679006,68.3597634 C37.7699395,68.3651421 37.7719785,68.3710099 37.7740174,68.3763886 L42.0985802,80.393496 C42.3192939,81.0066737 42.4248084,81.6320757 42.4253181,82.2481871 C42.4288862,84.368393 41.1973747,86.3771119 39.1885225,87.3751147 C38.9346762,87.5012709 38.6680866,87.6112908 38.3902829,87.7037075 L25.04551,92.1230848 L21.4595483,99.1130161 C21.1282227,99.7599331 20.4594549,100.116887 19.7769243,100.116887" id="Fill-107" fill="#6FA5B2"></path>
                </g>
            </g>
        </g>
    </g>
</svg>