<?xml version="1.0" encoding="UTF-8"?>
<svg width="56px" height="56px" viewBox="0 0 56 56" version="1.1" xmlns="http://www.w3.org/2000/svg" xmlns:xlink="http://www.w3.org/1999/xlink">
    <!-- Generator: Sketch 51.2 (57519) - http://www.bohemiancoding.com/sketch -->
    <title>Group 15</title>
    <desc>Created with Sketch.</desc>
    <defs>
        <circle id="path-1" cx="28" cy="28" r="28"></circle>
        <path d="M2.23209252,2.73583169 C-0.292978285,5.90885915 -0.0523074309,10.9172951 0.70915922,13.8993443 C1.47062587,16.8813935 4.49230167,23.2152353 6.38740608,24.8914055 C8.28251049,26.5675757 9.75419377,27.4348029 10.6869048,27.4348029 C11.6196158,27.4348029 13.9220492,26.1252146 14.9864035,24.8914055 C16.0507579,23.6575964 19.4244569,18.0563559 19.4244569,14.7700216 C19.4244569,11.4836873 19.944469,4.89951544 18.5916384,2.73583169 C17.2388079,0.572147945 12.5552742,0.0495772374 10.5163245,0.0495772374 C8.47737486,0.0495772374 4.36979313,0.0495772374 2.23209252,2.73583169 Z" id="path-3"></path>
    </defs>
    <g id="LAST-UI" stroke="none" stroke-width="1" fill="none" fill-rule="evenodd">
        <g id="1-Page-Matching-profil-d" transform="translate(-1150.000000, -225.000000)">
            <g id="Group-14" transform="translate(1113.000000, 150.000000)">
                <g id="Group-15" transform="translate(37.000000, 75.000000)">
                    <g id="Group-24">
                        <mask id="mask-2" fill="white">
                            <use xlink:href="#path-1"></use>
                        </mask>
                        <use id="Mask" fill="#A6AFC3" fill-rule="nonzero" opacity="0.280636161" xlink:href="#path-1"></use>
                        <g mask="url(#mask-2)">
                            <g transform="translate(9.032258, 6.322581)">
                                <path d="M13.3209297,35.2258065 C7.95018985,35.7741593 4.62067644,36.499336 3.33238945,37.4013366 C2.04410245,38.3033373 0.933305968,43.9007412 0,54.1935484 L38.8387097,54.1935484 C38.2605775,43.9689541 37.0203615,38.3715502 35.1180616,37.4013366 C33.2157617,36.431123 29.9388547,35.9460162 25.2873406,35.9460162 L13.3209297,35.2258065 Z" id="Path-93" fill="#52607F"></path>
                                <path d="M16.5002298,29.8064516 C16.1128725,32.5427169 15.5028782,34.3901362 14.6702468,35.3487095 C13.4212997,36.7865694 17.8743518,37.9354839 19.1587962,37.9354839 C20.4432407,37.9354839 23.483871,37.0813254 23.483871,36.2150174 C23.483871,35.3487095 21.3442201,31.4952239 21.3442201,29.8064516 C20.3188442,29.8064516 18.7041808,29.8064516 16.5002298,29.8064516 Z" id="Path-91" fill="#FCEACB"></path>
                                <g id="Group-23" stroke-width="1" fill="none" transform="translate(8.129032, 0.000000)">
                                    <g id="Path-88" transform="translate(0.983072, 4.369341)">
                                        <mask id="mask-4" fill="white">
                                            <use xlink:href="#path-3"></use>
                                        </mask>
                                        <use id="Mask" fill="#FCEACB" xlink:href="#path-3"></use>
                                        <path d="" id="Path-86" stroke="#979797" stroke-width="0.514799979" mask="url(#mask-4)"></path>
                                    </g>
                                    <path d="M15.7572627,8.98142238 C13.6266324,10.8117524 11.878437,11.7269174 10.5126763,11.7269174 C8.46403541,11.7269174 7.68412251,10.1392844 5.31480066,13.025613 C2.94547881,15.9119416 3.45237517,20.6009968 2.24297831,19.2717914 C1.03358145,17.942586 1.80309908e-16,11.9636184 0,10.1392844 C0,8.31495035 1.8447607,2.98207518 5.89066255,1.41383513 C9.9365644,-0.154404912 10.7706695,0.00451294257 12.2011107,0.00451294257 C13.6315518,0.00451294257 19.7288275,0.476434545 20.901822,5.6734779 C22.0748165,10.8705213 21.834861,16.2201049 20.1169105,17.5102387 C18.39896,18.8003725 18.9116669,16.9980508 18.6553134,16.2528549 C18.39896,15.507659 15.7572627,15.2999875 15.7572627,12.5376132 C15.7572627,10.6960303 15.7572627,9.51063338 15.7572627,8.98142238 Z" id="Path-87" fill="#334051"></path>
                                    <path d="M12.474007,21.4214391 L11.9387348,21.7585219 C11.7935196,21.8499698 11.7499327,22.0418231 11.8413806,22.1870382 C11.898271,22.2773776 11.9975557,22.3321854 12.1043158,22.3321854 L12.8964427,22.3321854 C13.1029186,22.3321854 13.2703003,22.1648036 13.2703003,21.9583278 C13.2703003,21.8875922 13.2502328,21.8183079 13.2124286,21.7585219 L13.0869612,21.5600999 C12.9558471,21.3527476 12.6816013,21.2907085 12.474007,21.4214391 Z" id="Path-90" fill="#000000" opacity="0.169698661"></path>
                                </g>
                            </g>
                        </g>
                    </g>
                </g>
            </g>
        </g>
    </g>
</svg>