<?xml version="1.0" encoding="UTF-8"?>
<svg width="35px" height="34px" viewBox="0 0 35 34" version="1.1" xmlns="http://www.w3.org/2000/svg">
    <!-- Generator: Sketch 51.3 (57544) - http://www.bohemiancoding.com/sketch -->
    <title>Combined Shape</title>
    <desc>Created with Sketch.</desc>
    <defs></defs>
    <g id="LAST-UI-Carole" stroke="none" stroke-width="1" fill="none" fill-rule="evenodd">
        <g id="Perspective_MatchingPage-Copy" transform="translate(-1199.000000, -168.000000)" fill="#FFFFFF" fill-rule="nonzero">
            <g id="Search" transform="translate(67.000000, 141.000000)">
                <g id="CTA" transform="translate(1105.000000, 21.000000)">
                    <path d="M43.3142065,29.7222349 C37.4231784,28.4847978 33,23.2589433 33,17 C33,9.82029825 38.8202983,4 46,4 C53.1797017,4 59,9.82029825 59,17 C59,23.2589433 54.5768216,28.4847978 48.6857935,29.7222349 C48.7509228,29.9584901 48.7857143,30.2073249 48.7857143,30.4642857 L48.7857143,41.6071429 C48.7857143,43.1456504 47.5385075,44.3928571 46,44.3928571 C44.4614925,44.3928571 43.2142857,43.1456504 43.2142857,41.6071429 L43.2142857,30.4642857 C43.2142857,30.2073249 43.2490772,29.9584901 43.3142065,29.7222349 Z M46,25.3571429 C50.6155226,25.3571429 54.3571429,21.6155226 54.3571429,17 C54.3571429,12.3844774 50.6155226,8.64285714 46,8.64285714 C41.3844774,8.64285714 37.6428571,12.3844774 37.6428571,17 C37.6428571,21.6155226 41.3844774,25.3571429 46,25.3571429 Z" id="Combined-Shape" transform="translate(46.000000, 24.196429) rotate(-45.000000) translate(-46.000000, -24.196429) "></path>
                </g>
            </g>
        </g>
    </g>
</svg>