<?xml version="1.0" encoding="UTF-8"?>
<svg width="46px" height="43px" viewBox="0 0 46 43" version="1.1" xmlns="http://www.w3.org/2000/svg" xmlns:xlink="http://www.w3.org/1999/xlink">
    <!-- Generator: sketchtool 51.3 (57544) - http://www.bohemiancoding.com/sketch -->
    <title>4BD5BBE9-FF59-4E77-A51F-AE2389F298D8</title>
    <desc>Created with sketchtool.</desc>
    <defs></defs>
    <g id="New-Perspectives" stroke="none" stroke-width="1" fill="none" fill-rule="evenodd">
        <g id="D_inscription-Step_3-Domaines" transform="translate(-276.000000, -603.000000)" fill-rule="nonzero">
            <g id="Ico-Agriculture" transform="translate(276.000000, 603.000000)">
                <ellipse id="Oval-3" fill="#6A89CC" opacity="0.1" cx="14.5742574" cy="14.3333333" rx="14.5742574" ry="14.3333333"></ellipse>
                <g id="noun_Agriculture_1187379" transform="translate(14.118812, 11.645833)" fill="#334051">
                    <path d="M0.118078475,31.1834606 C0.194829483,31.2589429 0.295589781,31.2968776 0.396350079,31.2968776 C0.497110378,31.2968776 0.597870676,31.2589429 0.674621684,31.1834606 C4.582232,27.3404462 9.39038748,24.2356096 14.9703826,21.9428845 L14.9703826,25.0430761 C11.9747317,26.4652392 8.91453123,28.2826196 6.00586481,30.6101826 C5.83740619,30.7452765 5.81182252,30.9891422 5.94879355,31.1548161 C6.02672534,31.2488786 6.14008067,31.2976517 6.2542232,31.2976517 C6.34160127,31.2976517 6.42937294,31.2693943 6.50258159,31.2109439 C15.405305,24.0873547 25.7666911,21.7992747 31.150676,21.0692258 C31.3659724,21.0398071 31.5163256,20.8447145 31.486806,20.6329771 C31.4568928,20.4208526 31.2573402,20.2733719 31.0432245,20.3024035 C27.4882753,20.7843287 21.7945312,21.9378524 15.757966,24.6772775 L15.757966,23.7892966 C15.9106808,23.8024576 16.1078719,23.8144573 16.3369441,23.8144573 C17.1654614,23.8144573 18.3820633,23.6611703 19.181061,22.8753807 C19.9662829,22.1031391 20.1296247,20.9356803 20.1351351,20.1220203 C26.3421269,18.2802533 31.0664466,18.0630967 31.113678,18.0611613 C31.3309424,18.0522582 31.4994011,17.8714879 31.4903484,17.6582022 C31.4812957,17.4445293 31.3018164,17.2757587 31.0806161,17.2877585 C31.0503093,17.2889198 29.1492458,17.3756276 26.1842953,17.8993583 L26.1842953,17.1778254 C26.3086713,17.1875026 26.4609925,17.1948573 26.6337807,17.1948573 C27.3627185,17.1948573 28.4356582,17.0593763 29.1421611,16.3645525 C30.2749273,15.2501247 29.9454883,13.2093943 29.9305317,13.1226865 C29.9029801,12.9593351 29.7730938,12.8315959 29.6069967,12.8044997 C29.519225,12.7901775 27.443799,12.4654102 26.3106393,13.579838 C26.2649823,13.6247402 26.2252292,13.6735134 26.1842953,13.7211253 L26.1842953,11.7361355 C26.3204792,11.7485224 26.5011392,11.7597479 26.7117125,11.7597479 C27.4406503,11.7597479 28.5139836,11.624267 29.2204865,10.9294432 C30.3536463,9.81501543 30.0238137,7.77428498 30.0088571,7.68757716 C29.9813055,7.52422582 29.8514191,7.39648663 29.6853221,7.36939043 C29.5975504,7.35468107 27.5221244,7.03030093 26.3889647,8.14472865 C26.3141816,8.21827546 26.2468769,8.29608025 26.1842953,8.37659465 L26.1842953,5.98709748 C26.6243344,5.63562114 27.7925241,4.58003086 27.7925241,3.2720589 C27.7925241,1.69622171 26.0918005,0.482312243 26.019379,0.431603652 C25.882408,0.335218621 25.6985992,0.335218621 25.5616282,0.431603652 C25.4892067,0.482312243 23.7884831,1.69622171 23.7884831,3.2720589 C23.7884831,4.58003086 24.9566728,5.63562114 25.3967119,5.98709748 L25.3967119,6.48644162 C25.3774257,6.46592593 25.3612884,6.44386188 25.341215,6.42412037 C24.2080552,5.30969264 22.1330229,5.63407279 22.0448576,5.64878215 C21.8787605,5.67587834 21.7488742,5.80361754 21.7213226,5.96696888 C21.7067596,6.05328961 21.376927,8.09440715 22.5096932,9.20883488 C23.2161961,9.90365869 24.2891358,10.0391397 25.0180736,10.0391397 C25.1597678,10.0391397 25.2861117,10.0337204 25.3967119,10.0267528 L25.3967119,12.00942 C25.3534165,11.9583243 25.3109082,11.9068416 25.262496,11.8592297 C24.1297299,10.745189 22.0543039,11.0695692 21.9661386,11.0838915 C21.8000416,11.1109877 21.6701552,11.2387269 21.6426036,11.4020782 C21.6280406,11.4883989 21.298208,13.5295165 22.4309742,14.6439442 C23.1374771,15.338768 24.2104168,15.474249 24.9397482,15.474249 C25.1160787,15.474249 25.2707615,15.4661201 25.3967119,15.4564429 L25.3967119,18.0441294 C23.8396504,18.3421875 22.0393473,18.7552109 20.0906588,19.3261664 C20.0816062,19.2518454 20.0737343,19.2053948 20.0717663,19.193008 C20.0442146,19.0296566 19.9143283,18.9019174 19.7482313,18.8748212 C19.6923408,18.8655311 18.9256179,18.7459208 18.036487,18.8647569 C18.0270407,18.8597248 18.0207432,18.8512088 18.0105097,18.8465638 C17.2760616,18.5233449 16.520753,18.2179321 15.7571788,17.9233578 L15.7571788,17.5223341 C15.917372,17.5389789 16.1488058,17.5560108 16.4266838,17.5560108 C17.2552011,17.5560108 18.471803,17.4027238 19.2708006,16.6169342 C20.5539201,15.3550257 20.1788241,13.0336561 20.1618995,12.9353356 C20.1343479,12.7719843 20.0044616,12.6442451 19.8383645,12.6171489 C19.7383914,12.6008912 17.3783963,12.2319959 16.0948833,13.4939043 C15.9646033,13.6220306 15.8555776,13.7633179 15.7571788,13.9096373 L15.7571788,10.9402816 C16.2381518,10.5605478 17.6094365,9.34663837 17.6094365,7.84202546 C17.6094365,6.05716049 15.6749175,4.67680298 15.5926562,4.61873971 C15.4556851,4.52235468 15.2718763,4.52235468 15.1349053,4.61873971 C15.0526439,4.6764159 13.1181249,6.05716049 13.1181249,7.84202546 C13.1181249,9.34663837 14.4894096,10.5605478 14.9703826,10.9402816 L14.9703826,11.6982009 C14.9176409,11.6351055 14.8645056,11.5716229 14.8046791,11.5127855 C13.5215597,10.25049 11.161171,10.6201595 11.0611979,10.6364172 C10.8951008,10.6635134 10.7652145,10.7912526 10.7376629,10.9546039 C10.7211319,11.0529244 10.3456423,13.3739069 11.6291554,14.6362024 C12.428153,15.421992 13.6447549,15.5752791 14.4732722,15.5752791 C14.6625914,15.5752791 14.8314436,15.5671502 14.9707762,15.5570859 L14.9707762,17.6318801 C14.6806967,17.5250437 14.3941596,17.4116268 14.1021122,17.3098225 C14.08873,17.3051775 14.0753478,17.3075 14.0619655,17.3044033 C13.719538,17.1232459 13.3503459,17.0051839 12.9882386,16.9343467 C10.1972571,16.0200437 7.65345312,15.4343789 5.59377093,15.0592901 L5.59377093,14.4345293 C5.68351057,14.4399486 5.7823029,14.4445936 5.89605183,14.4445936 C6.51242146,14.4445936 7.4228065,14.3296283 8.02500672,13.737383 C8.98813348,12.7901775 8.70946828,11.0660854 8.69726684,10.9929257 C8.66971519,10.8295743 8.53982887,10.7018351 8.37373182,10.6747389 C8.29934238,10.6627392 6.55965285,10.3913902 5.59377093,11.3265959 L5.59377093,9.92533565 C5.69767999,9.93307742 5.81772644,9.94004501 5.96138858,9.94004501 C6.57775822,9.94004501 7.48814326,9.82507973 8.09034348,9.23283436 C9.05347024,8.28562886 8.77480504,6.56153678 8.76260359,6.48837706 C8.73505195,6.32502572 8.60516563,6.19728652 8.43906857,6.17019033 C8.36467913,6.15819059 6.61160738,5.88413194 5.64848063,6.83133745 C5.62880088,6.85069187 5.61266349,6.87236883 5.59377093,6.89249743 L5.59377093,5.12156764 C5.98421709,4.803768 6.92687691,3.92546425 6.92687691,2.84006816 C6.92687691,1.50035494 5.49025547,0.474957562 5.42924826,0.431990741 C5.29227723,0.33560571 5.1084684,0.33560571 4.97149737,0.431990741 C4.91049016,0.474957562 3.47347513,1.50035494 3.47347513,2.84006816 C3.47347513,3.92546425 4.41613495,4.80415509 4.8065811,5.12156764 L4.8065811,5.34569187 C3.8312529,4.47319444 2.15729373,4.73215664 2.08487227,4.74415638 C1.91877521,4.77125257 1.78888889,4.89899177 1.76133724,5.06234311 C1.7491358,5.13511574 1.4704706,6.85959491 2.43359736,7.80680041 C3.03579758,8.39904578 3.94618262,8.51401106 4.56255226,8.51401106 C4.65071752,8.51401106 4.73219166,8.51130144 4.8065811,8.50781764 L4.8065811,9.90636831 C3.84227356,8.9626466 2.09392495,9.23593107 2.01953551,9.2483179 C1.85343845,9.27541409 1.72355213,9.40315329 1.69600049,9.56650463 C1.68379905,9.63927726 1.40513385,11.3637564 2.3682606,12.3109619 C2.97046082,12.9032073 3.88084586,13.0181726 4.4972155,13.0181726 C4.61411319,13.0181726 4.71487349,13.0135275 4.80618751,13.0077212 L4.80618751,14.9207124 C2.12344457,14.4736253 0.440826305,14.4054977 0.410519496,14.4043364 C0.200339812,14.4000784 0.0106270627,14.5638169 0.00275516441,14.7771026 C-0.0051167339,14.9907755 0.164522674,15.1703845 0.381787068,15.1781263 C0.429805647,15.1796746 4.78886933,15.3554128 10.7207383,17.0496991 C10.6853148,17.097311 10.6569759,17.1507292 10.6467425,17.2118891 C10.6337538,17.2877585 10.4113727,18.6808899 10.8947072,19.8940252 C6.65136047,18.4517335 2.91260237,17.7530388 0.450272583,17.4189815 C0.236156949,17.390724 0.0362107322,17.5378176 0.00669111356,17.749555 C-0.0228285051,17.9612924 0.127524752,18.1567721 0.342821171,18.1858038 C2.96101455,18.5407639 7.04259381,19.3130054 11.6354529,20.9743891 C12.1490942,21.4315406 12.8060042,21.656052 13.425129,21.7563079 C12.2947244,22.2552649 11.1965945,22.7875116 10.1327075,23.3542091 C7.03747708,22.1646862 3.78756387,21.240706 0.471133113,20.6085905 C0.257411074,20.5691075 0.051167339,20.7053627 0.00983987288,20.9151646 C-0.0314875932,21.1249666 0.108238602,21.328188 0.321567046,21.3688323 C3.37350202,21.9506263 6.36679135,22.7855761 9.23294952,23.8469727 C8.20369881,24.4241217 7.20672289,25.0333989 6.24477692,25.6744174 C4.38267938,25.0051415 2.44816037,24.4233475 0.490812859,23.9472287 C0.28023958,23.8953588 0.0661239457,24.0223238 0.0141694169,24.2298032 C-0.0381787068,24.4372827 0.0905268305,24.6474717 0.301493705,24.6985674 C2.04826794,25.1232034 3.77457524,25.6368699 5.44814081,26.2190509 C3.52582325,27.562635 1.74441266,29.0351196 0.11768488,30.6349563 C-0.0358171373,30.7874691 -0.0358171373,31.0321091 0.118078475,31.1834606 Z M26.8667889,14.1271811 C27.5032319,13.5016461 28.6513482,13.4993236 29.1870309,13.5376453 C29.2330815,14.1504064 29.179159,15.2323187 28.5848307,15.8168223 C27.9495685,16.4419702 26.8049945,16.4446798 26.2669503,16.406358 C26.2283779,15.8783693 26.2315267,14.7519419 26.8667889,14.1271811 Z M25.3841169,9.25141461 C24.8460726,9.28934928 23.7014986,9.28625257 23.0662364,8.66187886 C22.4297934,8.03595679 22.4278254,6.90720679 22.4667913,6.37999228 C23.0906393,6.33547711 24.1903435,6.38812114 24.7842782,6.97223765 C25.4195404,7.59661137 25.4230828,8.72303884 25.3841169,9.25141461 Z M25.3053979,14.6861368 C24.76696,14.7232973 23.6231732,14.7209748 22.9875174,14.0966011 C22.3510744,13.470679 22.3491065,12.341929 22.3880724,11.8143274 C23.0115267,11.7690381 24.1112309,11.8220692 24.7055592,12.4065728 C25.341215,13.0317207 25.3443638,14.1577611 25.3053979,14.6861368 Z M26.9451143,8.69245885 C27.5819509,8.06653678 28.7296736,8.06421425 29.2653563,8.1029231 C29.3114069,8.71568416 29.2574844,9.79759645 28.6631561,10.3821001 C28.0278939,11.0072479 26.8837135,11.0103447 26.3452756,10.9716358 C26.3067033,10.44326 26.3098521,9.31721965 26.9451143,8.69245885 Z M24.5752793,3.27244599 C24.5752793,2.38717464 25.3852976,1.58783693 25.7918812,1.24216692 C26.2649823,1.64319059 27.0049407,2.445625 27.0049407,3.27244599 C27.0049407,4.15616898 26.1976775,4.95473251 25.7903068,5.3011767 C25.3829361,4.95473251 24.5752793,4.15616898 24.5752793,3.27244599 Z M16.6518201,14.0408603 C17.4212981,13.2844895 18.8154113,13.3011343 19.4187923,13.3487461 C19.4687789,13.9413786 19.4868842,15.3093493 18.714651,16.069204 C17.945173,16.8255748 16.5510598,16.8097042 15.9476788,16.7613182 C15.8972986,16.1686857 15.8791933,14.800715 16.6518201,14.0408603 Z M13.9053148,7.84163837 C13.9053148,6.77211291 14.9022907,5.81445602 15.3639775,5.42852881 C15.8252707,5.81445602 16.8226403,6.77211291 16.8226403,7.84163837 C16.8226403,8.91116384 15.8256643,9.86882073 15.3639775,10.2547479 C14.9022907,9.86920782 13.9053148,8.91116384 13.9053148,7.84163837 Z M14.9518836,14.7805864 C14.3473218,14.8285854 12.9543894,14.8448431 12.185305,14.0884722 C11.4162205,13.3321013 11.4327515,11.9618081 11.4815573,11.3680144 C12.0857255,11.3200154 13.4790515,11.3037577 14.2481359,12.0601286 C14.8231781,12.6256649 14.9589683,13.5337744 14.9703826,14.2045988 L14.9703826,14.2417593 C14.9723506,14.4523354 14.9632979,14.6392991 14.9518836,14.7805864 Z M6.13929348,11.8832292 C6.62498961,11.405562 7.4928664,11.3831109 7.94825571,11.40982 C7.97383938,11.8576813 7.95022369,12.7158565 7.46806992,13.1900399 C6.9819802,13.6680941 6.11410341,13.6905453 5.6579269,13.6634491 C5.63116245,13.2163619 5.65320376,12.3616705 6.13929348,11.8832292 Z M6.20463024,7.37868056 C6.69032637,6.90101337 7.55820315,6.87856224 8.01359247,6.90527135 C8.03917614,7.35313272 8.01556044,8.21130787 7.53340667,8.68549126 C7.04771055,9.16315844 6.17904657,9.18522248 5.72444444,9.15890046 C5.69886077,8.71103909 5.72247647,7.85325103 6.20463024,7.37868056 Z M4.73455323,12.2362539 C4.27916392,12.2602533 3.40656399,12.2381893 2.92441022,11.7640059 C2.43871409,11.2863387 2.41627918,10.4324216 2.44304364,9.98494727 C2.89764576,9.95939943 3.77063929,9.98262474 4.25318665,10.4571952 C4.73927637,10.9352495 4.76131769,11.7887796 4.73455323,12.2362539 Z M4.26027136,2.84006816 C4.26027136,2.16382459 4.85932282,1.54409594 5.19978242,1.24681199 C5.54024202,1.54448302 6.13929348,2.16382459 6.13929348,2.84006816 C6.13929348,3.51631173 5.54024202,4.13604038 5.19978242,4.43332433 C4.85932282,4.13604038 4.26027136,3.51631173 4.26027136,2.84006816 Z M4.79988999,7.73209234 C4.34410708,7.75725309 3.47190075,7.73402778 2.98974697,7.25984439 C2.50405085,6.78217721 2.48161594,5.92826003 2.50838039,5.48078575 C2.96258893,5.45485082 3.83597604,5.47846322 4.31852341,5.95303369 C4.72983009,6.35754115 4.80776189,7.02952675 4.80618751,7.4982909 L4.80618751,7.56216049 C4.80500672,7.62293338 4.80303875,7.68060957 4.79988999,7.73209234 Z M11.3910304,17.6256867 C11.9959858,17.5784619 13.3889182,17.5618171 14.1576091,18.3178009 C14.9266936,19.0741718 14.9101626,20.444465 14.8613568,21.0382587 C14.2579758,21.0870319 12.8638626,21.1029025 12.0947781,20.3461445 C11.3256937,19.5893866 11.3422247,18.2194805 11.3910304,17.6256867 Z M19.3274783,19.6068056 C19.3762841,20.2005993 19.3928151,21.5712796 18.6237306,22.3276505 C17.8546461,23.0836343 16.4613201,23.0666024 15.8571519,23.0197647 C15.8083462,22.4259709 15.7918152,21.0552906 16.5608996,20.2989198 C17.3303777,19.5425489 18.7221293,19.5588066 19.3274783,19.6068056 Z M16.8301186,19.1957176 C16.53138,19.3311986 16.2483853,19.5115818 16.0043564,19.7515766 C15.9130424,19.8413812 15.8323555,19.9373791 15.7571788,20.0364738 L15.7571788,18.7505658 C16.1208605,18.8934015 16.4735216,19.0463014 16.8301186,19.1957176 Z" id="Shape"></path>
                    <path d="M12.865437,31.2968776 C12.9386456,31.2968776 13.0126415,31.2771361 13.0783718,31.2349434 C19.6663635,27.0578717 26.5538809,25.1317194 31.1719301,24.2514802 C31.3852585,24.2108359 31.5245911,24.0076145 31.4836573,23.7978125 C31.4423298,23.5880105 31.2356925,23.4513683 31.022364,23.4912384 C26.3366166,24.3846386 19.3455837,26.3402096 12.6521085,30.5842477 C12.4694805,30.6999871 12.4167388,30.9395949 12.5348173,31.119204 C12.6092067,31.2341692 12.7359443,31.2968776 12.865437,31.2968776 Z" id="Shape"></path>
                    <path d="M31.4789341,27.1128382 C31.426586,26.9049717 31.2116832,26.7776196 31.0022907,26.8302636 C27.2548735,27.7414699 23.6751277,29.0072492 20.3626329,30.5916024 C20.1670163,30.6852778 20.0859357,30.9167567 20.1807921,31.1091397 C20.248884,31.2469432 20.3890038,31.3266834 20.5350275,31.3266834 C20.592886,31.3266834 20.6515316,31.3142966 20.7070285,31.2875874 C23.9699303,29.7268467 27.4969344,28.4796476 31.1912162,27.5812153 C31.4021831,27.5305067 31.5308886,27.3207047 31.4789341,27.1128382 Z" id="Shape"></path>
                </g>
            </g>
        </g>
    </g>
</svg>