<?xml version="1.0" encoding="UTF-8"?>
<svg width="35px" height="37px" viewBox="0 0 35 37" version="1.1" xmlns="http://www.w3.org/2000/svg" xmlns:xlink="http://www.w3.org/1999/xlink">
    <!-- Generator: sketchtool 51.3 (57544) - http://www.bohemiancoding.com/sketch -->
    <title>502E7455-3068-437A-B6D4-FDA31B0925F8</title>
    <desc>Created with sketchtool.</desc>
    <defs></defs>
    <g id="New-Perspectives" stroke="none" stroke-width="1" fill="none" fill-rule="evenodd">
        <g id="D_inscription-Step_3-Domaines" transform="translate(-278.000000, -697.000000)" fill-rule="nonzero">
            <g id="Ico-Artisanat" transform="translate(278.000000, 697.000000)">
                <circle id="Oval-3-Copy-4" fill="#6A89CC" opacity="0.1" cx="15" cy="12" r="12"></circle>
                <g id="noun_textiles_1241517" transform="translate(0.000000, 2.000000)" fill="#334051">
                    <path d="M34.1453086,14.9908025 C34.7995062,13.7627778 34.9356173,12.3532716 34.5294444,11.0228395 C34.4598765,10.7951235 34.2191975,10.6646296 33.9901852,10.7359259 L24.1292593,13.7450617 C23.3467284,12.7594444 22.5616049,11.6165432 21.7324074,10.2558642 L24.6685185,1.21030864 C24.7424074,0.98345679 24.617963,0.739753086 24.390679,0.665864198 C23.0680247,0.236790123 21.656358,0.347407407 20.4170988,0.98 C19.1778395,1.6117284 18.2587654,2.68851852 17.8292593,4.01203704 L17.6853704,4.45493827 C11.9367284,-0.294691358 0.930308642,0.40617284 0.456296296,0.437716049 C0.229876543,0.453703704 0.0540123457,0.642098765 0.0540123457,0.868950617 L0.0540123457,15.789321 C0.0540123457,15.9090123 0.103703704,16.0239506 0.191851852,16.1056173 C0.279567901,16.187284 0.397962963,16.2296296 0.517222222,16.2201235 C0.574691358,16.2166667 5.93185185,15.8610494 10.3552469,17.9476543 L6.86216049,19.013642 C5.57709877,18.1719136 3.99302469,18.0561111 2.58179012,18.7124691 C0.794197531,19.5438272 -0.237654321,21.555679 0.127901235,23.4958025 C0.361234568,24.7337654 1.10876543,25.8148765 2.17777778,26.4617284 C2.8717284,26.8821605 3.66290123,27.0977778 4.45882716,27.0977778 C4.88962963,27.0977778 5.32216049,27.0346914 5.74216049,26.906358 C7.0008642,26.5226543 7.99858025,25.6187037 8.50802469,24.4088272 L11.5050617,23.4940741 L10.5354321,26.4803086 C9.31734568,26.9681481 8.39567901,27.9490123 7.98864198,29.2016667 C7.62567901,30.3199383 7.71987654,31.512963 8.25395062,32.5599383 C8.78802469,33.6077778 9.69845679,34.3846914 10.8167284,34.7472222 C11.2665432,34.8932716 11.7232716,34.9624074 12.1726543,34.9624074 C14.0289506,34.9624074 15.7595062,33.7780247 16.362716,31.9191358 C16.769321,30.6673457 16.5995062,29.3312963 15.8999383,28.2199383 L16.7546296,25.5590741 C20.724321,32.0405556 28.2812963,34.9632716 34.1889506,34.9632716 C34.4279012,34.9632716 34.6210494,34.7701235 34.6210494,34.5311728 L34.6210494,19.6108025 C34.6210494,19.3718519 34.4279012,19.1787037 34.1889506,19.1787037 C32.375,19.1787037 30.7442593,18.8161728 29.2288889,18.0854938 L31.0679012,17.5241975 C32.3987654,17.1184568 33.4919753,16.2188272 34.1453086,14.9908025 Z M23.2460494,14.0146914 L20.2118519,14.940679 L21.3841358,11.3291975 C22.0188889,12.3355556 22.6346296,13.2230864 23.2460494,14.0146914 Z M20.8098765,1.7495679 C21.7133951,1.28938272 22.727963,1.16018519 23.7062346,1.37450617 L19.2033333,15.2479012 L14.6382099,16.6409877 L18.6511111,4.27820988 C19.009321,3.17506173 19.7762963,2.2767284 20.8098765,1.7495679 Z M0.918209877,15.3360494 L0.918209877,1.28030864 C2.99660494,1.19907407 12.5848765,1.07765432 17.3980247,5.33987654 L13.6301235,16.948642 L11.5430864,17.5855556 C7.46925926,15.3230864 2.45777778,15.2854938 0.918209877,15.3360494 Z M15.0716049,28.5340741 C15.715,29.4548765 15.8865432,30.5917284 15.5417284,31.652963 C14.9393827,33.507963 12.941358,34.527716 11.0846296,33.9258025 C10.1858642,33.6341358 9.45475309,33.0097531 9.02481481,32.1680247 C8.59574074,31.3262963 8.52012346,30.3674691 8.81179012,29.4687037 C9.15660494,28.407037 9.96290123,27.5873457 11.0241358,27.2209259 C11.152037,27.1764198 11.2518519,27.0748765 11.2937654,26.945679 L12.5144444,23.1864198 L17.0553704,21.800679 L15.0145679,28.1542593 C14.9726543,28.2825926 14.9938272,28.4230247 15.0716049,28.5340741 Z M33.757716,20.0368519 L33.757716,34.0938889 C27.9667284,33.9517284 20.6897531,30.9611728 17.1054938,24.4745062 C17.1050617,24.4740741 17.1046296,24.473642 17.1041975,24.4732099 L18.0612963,21.4934568 L28.0579012,18.4432716 C29.7953704,19.4479012 31.6650617,19.9741975 33.757716,20.0368519 Z M8.05691358,23.6431481 C7.92728395,23.6824691 7.82401235,23.7805556 7.77734568,23.9075926 C7.39104938,24.9623457 6.55796296,25.7539506 5.49067901,26.0797531 C4.53098765,26.3731481 3.48574074,26.2426543 2.6258642,25.7224074 C1.75345679,25.1948148 1.16839506,24.347037 0.977839506,23.3354938 C0.684012346,21.7782099 1.51234568,20.1630247 2.94734568,19.4958642 C3.43648148,19.2685802 3.95154321,19.1562346 4.46185185,19.1562346 C5.19253086,19.1562346 5.9132716,19.3861111 6.53635802,19.8376543 C6.64611111,19.9171605 6.78654321,19.9404938 6.91617284,19.9007407 L33.81,11.6947531 C34.0074691,12.6769136 33.8605556,13.6884568 33.3839506,14.5846296 C32.8382099,15.6091358 31.9269136,16.3592593 30.817284,16.6984568 L8.05691358,23.6431481 Z" id="Shape"></path>
                    <path d="M5.48851852,20.7437654 C4.95876543,20.4624691 4.35037037,20.4024074 3.77783951,20.5782716 C3.20444444,20.7532716 2.73302469,21.1412963 2.4512963,21.6706173 C2.1695679,22.1999383 2.11080247,22.8074691 2.28580247,23.3808642 C2.46080247,23.9542593 2.84882716,24.425679 3.37771605,24.7074074 C3.70740741,24.8828395 4.06734568,24.9718519 4.43030864,24.9718519 C4.65067901,24.9718519 4.87148148,24.9390123 5.08839506,24.8729012 C5.66179012,24.6983333 6.13320988,24.3103086 6.41493827,23.7809877 C6.69666667,23.2516667 6.7554321,22.6441358 6.5804321,22.0703086 C6.4058642,21.4969136 6.0182716,21.0254938 5.48851852,20.7437654 Z M5.65228395,23.3748148 C5.47901235,23.7006173 5.18950617,23.9395679 4.83604938,24.0471605 C4.48259259,24.154321 4.10925926,24.1184568 3.78388889,23.9451852 C3.45808642,23.7719136 3.2195679,23.4819753 3.11154321,23.1289506 C3.00395062,22.776358 3.04024691,22.4025926 3.21351852,22.0767901 C3.38679012,21.7509877 3.6767284,21.5124691 4.02975309,21.4044444 C4.1637037,21.3638272 4.29851852,21.3443827 4.43203704,21.3443827 C5.02401235,21.3443827 5.57277778,21.7280864 5.75425926,22.3226543 C5.86185185,22.675679 5.82555556,23.0494444 5.65228395,23.3748148 Z" id="Shape"></path>
                    <path d="M13.212716,28.6062346 C12.682963,28.3240741 12.0762963,28.2648765 11.502037,28.4407407 C10.928642,28.6153086 10.4572222,29.0033333 10.1754938,29.5326543 C9.89419753,30.0624074 9.835,30.6695062 10.01,31.2433333 C10.185,31.8167284 10.5730247,32.2881481 11.1023457,32.5698765 C11.432037,32.7453086 11.7915432,32.834321 12.1549383,32.834321 C12.3753086,32.834321 12.5965432,32.8014815 12.8130247,32.7353704 C13.9965432,32.3741358 14.6662963,31.1167284 14.3050617,29.9327778 C14.1300617,29.3593827 13.7424691,28.887963 13.212716,28.6062346 Z M12.560679,31.9096296 C12.2072222,32.0167901 11.834321,31.9809259 11.5080864,31.8076543 C11.182284,31.6343827 10.9437654,31.3444444 10.8357407,30.9914198 C10.613642,30.2629012 11.0254321,29.4894444 11.7539506,29.2673457 C11.8874691,29.2267284 12.0235802,29.2064198 12.1592593,29.2064198 C12.3826543,29.2064198 12.6034568,29.2612963 12.8065432,29.369321 C13.1319136,29.5425926 13.3708642,29.8320988 13.4788889,30.1855556 C13.7009877,30.913642 13.2891975,31.6870988 12.560679,31.9096296 Z" id="Shape"></path>
                    <path d="M15.3140123,18.2151235 C15.0275309,18.3611728 14.8145062,18.6100617 14.7151235,18.9159877 C14.6157407,19.2223457 14.6412346,19.5490123 14.787716,19.836358 C15.0003086,20.2533333 15.4246296,20.4935802 15.8627778,20.4935802 C16.0468519,20.4935802 16.2335185,20.4512346 16.4085185,20.3617901 C17.0000617,20.0606173 17.2364198,19.3333951 16.9348148,18.7405556 C16.6332099,18.1485802 15.9046914,17.9117901 15.3140123,18.2151235 Z M16.0157407,19.5922222 C15.8476543,19.6777778 15.6432716,19.6103704 15.557284,19.4435802 C15.5158025,19.3623457 15.5088889,19.2703086 15.5369753,19.1830247 C15.5646296,19.0966049 15.6251235,19.0261728 15.706358,18.9846914 C15.706358,18.9846914 15.706358,18.9846914 15.7067901,18.9846914 C15.7560494,18.9591975 15.8087654,18.9475309 15.8606173,18.9475309 C15.9846296,18.9475309 16.104321,19.0153704 16.1643827,19.1329012 C16.2503704,19.3009877 16.1838272,19.5070988 16.0157407,19.5922222 Z" id="Shape"></path>
                </g>
            </g>
        </g>
    </g>
</svg>