<?xml version="1.0" encoding="UTF-8"?>
<svg width="46px" height="57px" viewBox="0 0 46 57" version="1.1" xmlns="http://www.w3.org/2000/svg" xmlns:xlink="http://www.w3.org/1999/xlink">
    <!-- Generator: sketchtool 51.3 (57544) - http://www.bohemiancoding.com/sketch -->
    <title>06DB85C1-DB76-4C90-AA88-992C65DBF7B5</title>
    <desc>Created with sketchtool.</desc>
    <defs></defs>
    <g id="New-Perspectives" stroke="none" stroke-width="1" fill="none" fill-rule="evenodd">
        <g id="D_inscription-Step_3-Domaines" transform="translate(-276.000000, -786.000000)">
            <g id="Ico-Banque,-assurance-&amp;-immobilier" transform="translate(276.000000, 786.000000)">
                <circle id="Oval-3-Copy-2" fill="#6A89CC" fill-rule="nonzero" opacity="0.06" cx="22.25" cy="34.75" r="13.75"></circle>
                <path d="M8,52 L0,52 L0,38 L7.99984794,38 L7.99984794,52 L8,52 Z M7,51 L6.99988596,51 L6.99988596,39 L1,39 L1,51 L7,51 Z" id="Combined-Shape" fill="#334051" fill-rule="nonzero"></path>
                <path d="M45.9688269,41.5793371 C45.9050347,41.1835129 45.6640691,40.8378927 45.3137488,40.6397495 C44.3631238,40.0547804 42.1815613,39.566801 40.0761706,40.6124711 C39.1986706,41.0489248 38.3150769,41.5732753 37.4924206,42.0764093 C37.4732777,42.0388129 37.4519121,42.002378 37.4284363,41.9672959 C37.1511706,41.5611516 36.6332019,41.3611103 35.8806238,41.3611103 C34.94828,41.3611103 33.2237488,42.2703887 30.8928894,43.5706567 C30.1883545,43.9864893 29.4610532,44.362909 28.7143738,44.6981619 C28.2268738,44.6405742 27.7515613,44.5951103 27.2335925,44.5466155 C26.4444519,44.4708423 25.5456238,44.3890072 24.345155,44.2435227 C23.9316578,44.0903321 23.5378904,43.888883 23.1721081,43.643399 C20.4857591,42.0533627 17.5187267,40.9885995 14.4306238,40.5063887 C9.63484251,39.6850072 7.59343626,40.6124711 7.49288938,40.6639969 C7.29089277,40.7537948 7.15369389,40.9454507 7.13445013,41.1647082 C7.11520637,41.3839656 7.21694144,41.5963734 7.40023831,41.7196346 C7.58353519,41.8428957 7.81959307,41.8576427 8.01695188,41.7581619 C8.03523313,41.7581619 9.87554563,40.954966 14.2234363,41.7005742 C17.1718212,42.1616957 20.0044372,43.1791454 22.5688269,44.6981619 C23.2817956,45.1012753 23.7510144,45.3710278 24.1867175,45.4286155 C25.4054675,45.5922856 26.31953,45.6771516 27.1208581,45.7529248 C28.4355048,45.8493991 29.7411295,46.0429007 31.0269519,46.331832 C33.3060144,46.8440588 34.80203,47.759399 35.24078,48.9050897 C35.4643786,49.497925 35.3800421,50.1622834 35.0153113,50.6812134 L34.5552331,50.9843062 C33.6137488,51.1782856 31.4809363,50.5690691 30.2408581,50.2144505 C29.3942647,49.9290036 28.5218132,49.7259895 27.63578,49.608265 C25.0153953,49.5107989 22.3922301,49.7029233 19.8144519,50.1811103 C19.5965623,50.2193211 19.4166107,50.3720121 19.344319,50.5800236 C19.2720274,50.788035 19.3187545,51.0186828 19.4663962,51.1826029 C19.6140378,51.3465231 19.8393955,51.4179594 20.055155,51.369234 C22.534132,50.9141769 25.0555783,50.7292088 27.5748425,50.8176052 C28.3653472,50.9342172 29.1442008,51.1187845 29.902655,51.369234 C30.877655,51.6480794 31.8648425,51.9269248 32.7636706,52.0875639 C29.6741394,53.9485536 26.8192175,55.3700588 25.4785925,55.3700588 C22.8399988,55.3700588 11.8742956,50.0780588 7.87070188,48.0412753 C7.57298357,47.9007579 7.21690639,48.0211336 7.06690485,48.3130075 C6.91690331,48.6048814 7.02732653,48.9625007 7.31617063,49.1202856 C7.92554563,49.4233784 22.0112488,56.5824299 25.4816394,56.5824299 C27.2549206,56.5824299 31.1335925,54.563832 35.0061706,52.1087804 C35.3658736,52.0177077 35.6864398,51.8136191 35.9202331,51.5268423 C40.4996863,48.5292546 44.8536706,45.0830897 45.3746863,43.8616258 C45.5162256,43.5596389 45.5910318,43.2309742 45.5940613,42.8977907 C45.8775952,42.5190435 46.0110044,42.0497 45.9688269,41.5793371 Z M40.6215613,41.6975433 C42.2699206,40.8791928 43.9731238,41.2459351 44.673905,41.670265 C44.6935543,41.6825669 44.7119259,41.6967811 44.7287488,41.7126979 C44.0279675,41.4671928 42.9524206,41.6187392 41.505155,42.1703681 C40.4537561,42.5744534 39.4569015,43.1069238 38.5374988,43.7555433 C37.6691394,44.3192959 36.483905,45.0921825 34.3206238,46.2590897 C33.9795333,46.0650106 33.6252339,45.8948647 33.2603113,45.7498938 C34.1408581,45.3437495 35.1859363,44.8406155 35.6277331,44.610265 C36.1700769,44.3071722 36.8038269,43.9252753 37.4771863,43.5100382 C38.4521863,42.9099144 39.555155,42.2279557 40.6215613,41.6975433 Z M31.4809363,44.6254196 C32.8672644,43.8555639 35.1889831,42.5704505 35.87453,42.5704505 C36.0633066,42.5481268 36.2545727,42.5796624 36.4260144,42.6613784 C36.4092441,42.6439716 36.3985598,42.6216519 36.3955456,42.5977289 C36.3944874,42.5886666 36.3944874,42.5795128 36.3955456,42.5704505 L36.5631238,42.6371309 C36.0024988,42.9826567 35.4753894,43.3039351 35.0396863,43.5464093 C34.3815613,43.9010278 32.1817175,44.9103268 31.5266394,45.2073577 L31.2981238,45.1588629 L30.7496863,45.0315639 L31.4809363,44.6254196 Z M44.2534363,43.3797083 C43.8573425,44.2889866 40.4448425,47.0168217 36.5753113,49.6355433 C36.583581,49.2371157 36.5142596,48.8408612 36.3711706,48.4686361 C36.1560023,47.9281852 35.8205809,47.4432299 35.3900769,47.0501619 C37.2852331,46.0105536 38.3760144,45.2982856 39.1925769,44.7678732 C40.0415642,44.1670388 40.9627801,43.6742222 41.9347644,43.3009041 C43.6440613,42.6462237 44.2930456,42.800801 44.3722644,42.8705124 C44.386993,43.0482607 44.348848,43.226393 44.2625769,43.3827392 L44.2534363,43.3797083 Z" id="Shape" fill="#334051" fill-rule="nonzero"></path>
                <path d="M31.4289185,21.692744 L31.4312316,21.6889155 L36.3768064,25.0673127 L35.8647836,25.9374623 L34.6221343,25.0844948 L34.6221343,39.2482721 L14.6221343,39.2482721 L14.6221343,25.0881136 L13.5120227,25.8501057 L13,24.9799561 L17.9455748,21.6015589 L24.6221343,17 L31.4289185,21.692744 Z M30.9184957,22.537614 L24.6342299,18.2482721 L15.6221343,24.3829895 L15.6221343,38.2482721 L33.6221343,38.2482721 L33.6221343,24.3980845 L30.9165036,22.5409115 L30.9184957,22.537614 Z" id="Combined-Shape" fill="#334051" fill-rule="nonzero"></path>
                <path d="M25.6184971,23.7016611 C24.7244657,23.7016611 23.9845887,24.0352126 23.3988439,24.7023256 C22.8130992,25.3694386 22.4149015,26.3381996 22.2042389,27.6086379 L26.0732177,27.6086379 L26.0732177,28.2624585 L22.1425819,28.2624585 L22.1117534,29.0916944 L22.1117534,29.2830565 C22.1117534,29.6285732 22.1220294,29.8598001 22.1425819,29.9767442 L25.6030829,29.9767442 L25.6030829,30.6305648 L22.1888247,30.6305648 C22.342968,31.7840589 22.7218981,32.6837177 23.3256262,33.3295681 C23.9293543,33.9754185 24.7039131,34.2983389 25.6493256,34.2983389 C26.4097662,34.2983389 27.1470741,34.1255831 27.8612717,33.7800664 L27.8612717,34.5295681 C27.4450846,34.7102999 27.0584475,34.8338867 26.7013487,34.9003322 C26.34425,34.9667777 25.983303,35 25.6184971,35 C24.4470076,35 23.5028938,34.6279107 22.7861272,33.8837209 C22.0693606,33.1395312 21.6030839,32.0551566 21.3872832,30.6305648 L20,30.6305648 L20,29.9767442 L21.3256262,29.9767442 C21.3050738,29.7747498 21.2947977,29.4744206 21.2947977,29.0757475 L21.3256262,28.2624585 L20,28.2624585 L20,27.6086379 L21.4181118,27.6086379 C21.6184981,26.1627835 22.0886283,25.0332267 22.8285164,24.2199336 C23.5684045,23.4066405 24.4983887,23 25.6184971,23 C26.0706509,23 26.4842627,23.0451823 26.8593449,23.1355482 C27.2344271,23.2259141 27.6146416,23.3774076 28,23.5900332 L27.699422,24.2757475 C27.0211912,23.8930213 26.3275565,23.7016611 25.6184971,23.7016611 Z" id="€" fill="#334051"></path>
                <path d="M19.5496183,14.2003817 L19.8167939,14.3740458 L20.1240458,14.2671756 C21.5935115,13.7194656 23.3301527,13.5725191 24.2385496,13.5458015 L24.3587786,13.5458015 L24.3587786,14.6259542 C24.3587786,14.9866412 24.6526718,15.2671756 25,15.2671756 C25.3473282,15.2671756 25.6412214,14.9732824 25.6412214,14.6259542 L25.6412214,13.519084 L25.7614504,13.519084 C26.870229,13.5725191 28.4866412,13.7328244 29.8759542,14.240458 L30.1832061,14.3473282 L30.4503817,14.1736641 C32.480916,12.8778626 35.2996183,12.2232824 38.1851145,12.3568702 L39,12.3969466 L38.8530534,11.5954198 C37.8778626,6.2519084 32.0534351,2.60496183 27.0706107,1.88358779 C26.6832061,1.83015267 26.269084,1.79007634 25.8416031,1.77671756 C25.7748092,1.77671756 25.7080153,1.77671756 25.6545802,1.77671756 L25.6545802,0.641221374 C25.6545802,0.280534351 25.360687,0 25.0133588,0 C24.6660305,0 24.3721374,0.29389313 24.3721374,0.641221374 L24.3721374,1.77671756 C24.3187023,1.77671756 24.2652672,1.77671756 24.1984733,1.77671756 C23.7442748,1.79007634 23.3301527,1.83015267 22.9427481,1.88358779 C17.9465649,2.63167939 12.1221374,6.27862595 11.1469466,11.6087786 L11,12.4103053 L11.8148855,12.370229 C14.7003817,12.2366412 17.519084,12.9045802 19.5496183,14.2003817 Z M23.0247845,2.84769779 C23.3890086,2.79353395 23.7672414,2.76645203 24.2155172,2.75291106 C24.7338362,2.72582914 25.2661638,2.72582914 25.8125,2.75291106 C26.2327586,2.76645203 26.6109914,2.79353395 26.9752155,2.84769779 C31.4719828,3.47058202 36.3929946,6.71699391 37.7238135,11.1042654 C34.8380377,11.1042654 32.4105603,11.7677725 30.2672414,13 C28.7262931,12.4989844 27.03125,12.3364929 25.8685345,12.29587 L25.4342672,12.282329 C25.2801724,12.282329 25.1400862,12.282329 25.0420259,12.282329 C24.8599138,12.282329 24.7338362,12.282329 24.59375,12.282329 L24.1454741,12.29587 C22.96875,12.3500339 21.2737069,12.5125254 19.7327586,13 C17.5894397,11.7677725 15.1543332,11.1042654 12.2685574,11.1042654 C13.5993763,6.71699391 18.5280172,3.47058202 23.0247845,2.84769779 Z" id="Shape" fill="#334051" fill-rule="nonzero"></path>
            </g>
        </g>
    </g>
</svg>