<?xml version="1.0" encoding="UTF-8"?>
<svg width="41px" height="38px" viewBox="0 0 41 38" version="1.1" xmlns="http://www.w3.org/2000/svg" xmlns:xlink="http://www.w3.org/1999/xlink">
    <!-- Generator: sketchtool 51.3 (57544) - http://www.bohemiancoding.com/sketch -->
    <title>1E83FC9D-5C6D-4881-96A3-91E00B2CB8DB</title>
    <desc>Created with sketchtool.</desc>
    <defs></defs>
    <g id="New-Perspectives" stroke="none" stroke-width="1" fill="none" fill-rule="evenodd">
        <g id="D_inscription-Step_3-Domaines" transform="translate(-278.000000, -891.000000)" fill-rule="nonzero">
            <g id="Ico-Commerce" transform="translate(278.000000, 891.000000)">
                <circle id="Oval-3-Copy-3" fill="#6A89CC" opacity="0.1" cx="26.5" cy="14.5" r="14.5"></circle>
                <g id="noun_Shop_1908190" transform="translate(0.000000, 6.000000)" fill="#334051">
                    <path d="M31.9498667,8.30773333 L28.504,0.9232 C28.239795,0.360956781 27.6750909,0.00144859373 27.0538667,0 L5.44,0 C4.84913916,-1.31328087e-05 4.30636517,0.325610249 4.02826667,0.846933333 L0.0629333333,8.28213333 C-0.0253188299,8.4474203 -0.0203613178,8.64689489 0.0759925252,8.80759388 C0.172346368,8.96829286 0.345961442,9.06664171 0.533333333,9.06666667 L0.533333333,13.8666667 C0.53493242,15.1333871 1.42591104,16.2248359 2.66666667,16.48 L2.66666667,31.4666667 C2.66666667,31.7612185 2.90544813,32 3.2,32 L28.8,32 C29.0945519,32 29.3333333,31.7612185 29.3333333,31.4666667 L29.3333333,16.48 C30.574089,16.2248359 31.4650676,15.1333871 31.4666667,13.8666667 L31.4666667,9.06666667 C31.6489459,9.06664303 31.818589,8.97352892 31.9164852,8.81976921 C32.0143814,8.6660095 32.0269708,8.47290195 31.9498667,8.30773333 Z M4.96906667,1.3488 C5.06187385,1.17498179 5.24295707,1.06649591 5.44,1.06666667 L27.0538667,1.06666667 C27.2610304,1.06669353 27.4494364,1.18668279 27.5370667,1.3744 L30.6293333,8 L1.4224,8 L4.96906667,1.3488 Z M26.1333333,13.8666667 C26.1333333,14.7503223 25.4169889,15.4666667 24.5333333,15.4666667 C23.6496777,15.4666667 22.9333333,14.7503223 22.9333333,13.8666667 L22.9333333,9.06666667 L26.1333333,9.06666667 L26.1333333,13.8666667 Z M21.8666667,13.8666667 C21.8666667,14.7503223 21.1503223,15.4666667 20.2666667,15.4666667 C19.3830111,15.4666667 18.6666667,14.7503223 18.6666667,13.8666667 L18.6666667,9.06666667 L21.8666667,9.06666667 L21.8666667,13.8666667 Z M17.6,13.8666667 C17.6,14.7503223 16.8836556,15.4666667 16,15.4666667 C15.1163444,15.4666667 14.4,14.7503223 14.4,13.8666667 L14.4,9.06666667 L17.6,9.06666667 L17.6,13.8666667 Z M13.3333333,13.8666667 C13.3333333,14.7503223 12.6169889,15.4666667 11.7333333,15.4666667 C10.8496777,15.4666667 10.1333333,14.7503223 10.1333333,13.8666667 L10.1333333,9.06666667 L13.3333333,9.06666667 L13.3333333,13.8666667 Z M9.06666667,13.8666667 C9.06666667,14.7503223 8.35032227,15.4666667 7.46666667,15.4666667 C6.58301107,15.4666667 5.86666667,14.7503223 5.86666667,13.8666667 L5.86666667,9.06666667 L9.06666667,9.06666667 L9.06666667,13.8666667 Z M1.6,13.8666667 L1.6,9.06666667 L4.8,9.06666667 L4.8,13.8666667 C4.8,14.7503223 4.0836556,15.4666667 3.2,15.4666667 C2.3163444,15.4666667 1.6,14.7503223 1.6,13.8666667 Z M5.86666667,30.9333333 L5.86666667,19.2 L11.7333333,19.2 L11.7333333,30.9333333 L5.86666667,30.9333333 Z M12.8,30.9333333 L12.8,18.6666667 C12.8,18.3721148 12.5612185,18.1333333 12.2666667,18.1333333 L5.33333333,18.1333333 C5.03878147,18.1333333 4.8,18.3721148 4.8,18.6666667 L4.8,30.9333333 L3.73333333,30.9333333 L3.73333333,16.48 C4.37519996,16.3455638 4.94490735,15.979052 5.33333333,15.4506667 C5.83082047,16.1315287 6.62341904,16.5340321 7.46666667,16.5340321 C8.30991429,16.5340321 9.10251286,16.1315287 9.6,15.4506667 C10.0974871,16.1315287 10.8900857,16.5340321 11.7333333,16.5340321 C12.576581,16.5340321 13.3691795,16.1315287 13.8666667,15.4506667 C14.3641538,16.1315287 15.1567524,16.5340321 16,16.5340321 C16.8432476,16.5340321 17.6358462,16.1315287 18.1333333,15.4506667 C18.6308205,16.1315287 19.423419,16.5340321 20.2666667,16.5340321 C21.1099143,16.5340321 21.9025129,16.1315287 22.4,15.4506667 C22.8974871,16.1315287 23.6900857,16.5340321 24.5333333,16.5340321 C25.376581,16.5340321 26.1691795,16.1315287 26.6666667,15.4506667 C27.0550927,15.979052 27.6248,16.3455638 28.2666667,16.48 L28.2666667,30.9333333 L12.8,30.9333333 Z M30.4,13.8666667 C30.4,14.7503223 29.6836556,15.4666667 28.8,15.4666667 C27.9163444,15.4666667 27.2,14.7503223 27.2,13.8666667 L27.2,9.06666667 L30.4,9.06666667 L30.4,13.8666667 Z" id="Shape"></path>
                    <path d="M26.6666667,18.1333333 L13.8666667,18.1333333 C13.5721148,18.1333333 13.3333333,18.3721148 13.3333333,18.6666667 L13.3333333,25.0666667 C13.3333333,25.3612185 13.5721148,25.6 13.8666667,25.6 L26.6666667,25.6 C26.9612185,25.6 27.2,25.3612185 27.2,25.0666667 L27.2,18.6666667 C27.2,18.3721148 26.9612185,18.1333333 26.6666667,18.1333333 Z M26.1333333,24.5333333 L14.4,24.5333333 L14.4,19.2 L26.1333333,19.2 L26.1333333,24.5333333 Z" id="Shape"></path>
                </g>
            </g>
        </g>
    </g>
</svg>