<?xml version="1.0" encoding="UTF-8"?>
<svg width="39px" height="48px" viewBox="0 0 39 48" version="1.1" xmlns="http://www.w3.org/2000/svg" xmlns:xlink="http://www.w3.org/1999/xlink">
    <!-- Generator: sketchtool 51.3 (57544) - http://www.bohemiancoding.com/sketch -->
    <title>4882B708-56CB-4DE0-ACD4-1D16053651C5</title>
    <desc>Created with sketchtool.</desc>
    <defs></defs>
    <g id="New-Perspectives" stroke="none" stroke-width="1" fill="none" fill-rule="evenodd">
        <g id="D_inscription-Step_3-Domaines" transform="translate(-278.000000, -1444.000000)" fill-rule="nonzero">
            <g id="Ico-Industrie-Graphique" transform="translate(278.000000, 1444.000000)">
                <path d="M33.9578027,18.1275791 C34.2237134,21.3102302 33.2204325,24.3273339 31.2999659,24.5100699 L4.03116159,26.9910958 C2.09592213,27.1662177 0.308410881,24.7373524 0.0351137057,21.5470872 C-0.238183469,18.3568221 1.11352958,15.6310108 3.05615545,15.4558889 L30.3341681,13.0117955 C32.2694075,12.8214456 33.6845055,14.9525419 33.9578027,18.1275791 Z M33.2148442,18.5699116 C32.8269662,14.4975902 31.5616819,13.7506369 29.0329275,14.0511277 L4.22681455,16.2824514 C1.7380628,16.4792162 0.487246087,18.8663231 0.733976597,21.4691644 C0.980707108,24.0720056 2.49879875,26.5352237 5.07038456,26.0539552 C19.73574,24.6433503 27.853201,23.8900996 29.4227675,23.7942031 C31.7771172,23.6503584 33.6027223,22.6422329 33.2148442,18.5699116 Z M3.77297818,25.3101966 C2.6206982,25.4167925 1.47992347,23.271071 1.31003604,21.3751855 C1.14014861,19.4793 1.94899966,17.4009593 3.10866605,17.2943633 C4.26833244,17.1877674 5.32824315,19.0909861 5.505517,20.9944856 C5.68279084,22.8979851 4.93264457,25.2036006 3.77297818,25.3101966 Z M3.62991925,23.7328888 C4.33322744,23.668241 4.78817208,22.2699438 4.68066,21.1155198 C4.57314792,19.9610957 3.93033902,18.806842 3.22703084,18.8714897 C2.52372265,18.9361375 2.03317505,20.1965982 2.13620746,21.3464046 C2.23923987,22.4962109 2.93109074,23.7975365 3.62991925,23.7328888 Z" id="Shape" fill="#334051"></path>
                <path d="M33.9578027,5.12757907 C34.2237134,8.31023021 33.2204325,11.3273339 31.2999659,11.5100699 L4.03116159,13.9910958 C2.09592213,14.1662177 0.308410881,11.7373524 0.0351137057,8.54708723 C-0.238183469,5.3568221 1.11352958,2.63101084 3.05615545,2.45588889 L30.3341681,0.0117955492 C32.2694075,-0.178554399 33.6845055,1.95254193 33.9578027,5.12757907 Z M33.2148442,5.56991156 C32.8269662,1.49759021 31.5616819,0.750636889 29.0329275,1.05112767 L4.22681455,3.28245141 C1.7380628,3.47921619 0.487246087,5.8663231 0.733976597,8.46916436 C0.980707108,11.0720056 2.49879875,13.5352237 5.07038456,13.0539552 C19.73574,11.6433503 27.853201,10.8900996 29.4227675,10.7942031 C31.7771172,10.6503584 33.6027223,9.64223291 33.2148442,5.56991156 Z M3.77297818,12.3101966 C2.6206982,12.4167925 1.47992347,10.271071 1.31003604,8.37518547 C1.14014861,6.47929998 1.94899966,4.40095931 3.10866605,4.29436334 C4.26833244,4.18776737 5.32824315,6.09098609 5.505517,7.99448557 C5.68279084,9.89798506 4.93264457,12.2036006 3.77297818,12.3101966 Z M3.62991925,10.7328888 C4.33322744,10.668241 4.78817208,9.26994383 4.68066,8.11551979 C4.57314792,6.96109574 3.93033902,5.80684197 3.22703084,5.87148972 C2.52372265,5.93613746 2.03317505,7.19659825 2.13620746,8.3464046 C2.23923987,9.49621095 2.93109074,10.7975365 3.62991925,10.7328888 Z" id="Shape-Copy-2" fill="#334051"></path>
                <path d="M29.0265945,13 C35.0162103,19.662069 24.8799373,27.7517241 30.9067096,34.4137931 L12.9898811,36 C6.97054005,29.3756979 17.106813,21.2482759 11.1171972,14.6013136 L29.0265945,13 Z M28.8496047,14.6726423 L13.0461828,15.9205373 C16.4789831,22.1379945 8.92364772,29.2926419 13.2382713,35.1608999 L29.5175578,33.8769869 C24.8523061,25.8675666 33.4040527,20.029271 28.8496047,14.6726423 Z M26.5371139,16.2328407 C26.6970521,16.7559877 26.7992413,17.2955947 26.8417966,17.8417077 L21.2163138,18.3402299 C21.1737585,17.7941169 21.0715692,17.2545099 20.9116311,16.7313629 L26.5371139,16.2328407 Z M28.2822169,18.2873563 C28.2855524,18.838293 28.3597611,18.4970285 28.2822169,19.0423086 L21.4037993,19.5797935 C21.4813434,19.0345133 21.4071348,19.3757778 21.4037993,18.8248411 L28.2822169,18.2873563 Z M28.2822169,19.3148241 C28.2855524,19.8657607 28.3597611,19.546439 28.2822169,20.0917192 L21.4037993,20.629204 C21.4813434,20.0839239 21.4071348,20.4032456 21.4037993,19.8523089 L28.2822169,19.3148241 Z M20.1090523,16.8144499 C20.4750722,18.0791621 20.5538415,19.4118305 20.3394221,20.7119869 L16.5048789,21.0669951 C16.7256623,19.7676326 16.6493821,18.4340597 16.2819404,17.1694581 L20.1090523,16.8144499 Z M26.8095988,24.6123347 L15.4587711,25.6419221 C15.585103,25.1881773 15.7541766,24.7803036 15.895371,24.3196839 L27.1373767,23.2946803 C26.9961823,23.7621749 26.943362,24.151715 26.8095988,24.6123347 Z M27.5527274,22.6343918 L16.2018996,23.6639792 C16.3282315,23.2102345 16.4908936,22.7943261 16.632088,22.3337064 L27.8740937,21.3087028 C27.7328993,21.7761974 27.6864905,22.1737722 27.5527274,22.6343918 Z M26.0664703,27.1664116 L14.7156426,28.1959989 C14.8419744,27.7422542 15.0046365,27.3263458 15.145831,26.8657261 L26.3878367,25.8407225 C26.2466422,26.3082171 26.2002335,26.7057919 26.0664703,27.1664116 Z M25.3233418,29.4324214 L13.9725141,30.4620088 C14.0988459,30.008264 14.261508,29.5923556 14.4027024,29.131736 L25.6447081,28.1067323 C25.5035137,28.5742269 25.4571049,28.9718018 25.3233418,29.4324214 Z" id="Shape" fill="#334051"></path>
                <circle id="Oval-3-Copy-2" fill="#6A89CC" opacity="0.06" cx="24.75" cy="33.75" r="13.75"></circle>
            </g>
        </g>
    </g>
</svg>