<?xml version="1.0" encoding="UTF-8"?>
<svg width="51px" height="44px" viewBox="0 0 51 44" version="1.1" xmlns="http://www.w3.org/2000/svg" xmlns:xlink="http://www.w3.org/1999/xlink">
    <!-- Generator: sketchtool 51.3 (57544) - http://www.bohemiancoding.com/sketch -->
    <title>F50E9A59-116F-481A-B7FD-51AE519D360C</title>
    <desc>Created with sketchtool.</desc>
    <defs></defs>
    <g id="New-Perspectives" stroke="none" stroke-width="1" fill="none" fill-rule="evenodd">
        <g id="D_inscription-Step_3-Domaines" transform="translate(-271.000000, -1532.000000)" fill-rule="nonzero">
            <g id="Ico-Bâtiment" transform="translate(271.000000, 1532.000000)">
                <circle id="Oval-3-Copy-2" fill="#6A89CC" opacity="0.06" cx="35" cy="19" r="14"></circle>
                <g id="noun_Trowel_2135813" fill="#334051">
                    <path d="M8.84224657,21.5469008 C8.84189939,21.5465269 8.84181927,21.5460462 8.8414454,21.5456724 L8.41502217,21.119463 C8.37229441,21.0768421 8.32294382,21.0448764 8.27028184,21.0235392 C8.11229588,20.9594476 7.9245073,20.9914934 7.79632395,21.1196767 L1.25811942,27.6580906 C-0.419373142,29.3353685 -0.419373142,32.0646035 1.25811942,33.7418814 C2.09686571,34.5806271 3.19838781,35 4.29990991,35 C5.4018593,35 6.5033814,34.5806271 7.34212769,33.7418814 L13.8803323,27.2034674 C13.9216447,27.162155 13.9536104,27.1133118 13.9754283,27.060276 C14.0190907,26.953964 14.019064,26.8342996 13.975455,26.7279877 C13.9536638,26.6748984 13.9216981,26.6260286 13.8803323,26.584556 L13.453909,26.1583466 C13.4538823,26.15832 13.4538823,26.1583466 13.4538556,26.15832 L13.303801,26.0082655 L14.5962896,24.7155908 C14.8504664,24.8720545 15.141496,24.9600469 15.4475871,24.9600469 C15.8834105,24.9600469 16.2935971,24.7902041 16.6020917,24.4817097 L17.6728498,23.4109523 C17.7548871,23.3289151 17.8010331,23.2176093 17.8010331,23.1016034 C17.8010331,22.9855976 17.7548871,22.8742918 17.6728498,22.7922546 L16.3391823,21.4586413 L19.4473344,18.3507049 L24.1311534,23.0345209 C24.5157034,23.4192843 25.028864,23.6280093 25.5591157,23.6280093 C25.700972,23.6280093 25.84411,23.6130546 25.9863935,23.5825043 C26.6602106,23.4382981 27.208408,22.967652 27.4528109,22.3235311 L34.860953,2.82557684 C35.1549201,2.05177727 34.9754634,1.20598144 34.391802,0.618474895 C33.8089951,0.0307546989 32.9646942,-0.15511102 32.1861941,0.13436949 L12.6531905,7.50512 C12.0045828,7.74653178 11.5294499,8.29408793 11.3820391,8.9700409 C11.2346283,9.64642117 11.438867,10.3424563 11.9285274,10.8321163 L16.61256,15.5159322 L13.5044613,18.6240289 L12.2075397,17.3271616 C12.0366286,17.1562506 11.7597526,17.1562506 11.5888415,17.3271616 L10.5180834,18.397919 C9.97429233,18.9417097 9.89911813,19.7751145 10.2842824,20.4038533 L8.99174038,21.6963945 L8.84224657,21.5469008 Z M1.87681765,28.2767885 L8.10567308,22.0477234 L8.22274718,22.1647974 C8.22277387,22.1648241 8.22277387,22.1647974 8.2228006,22.1648241 L10.2195765,24.1615186 L1.58947333,32.7918299 C0.551962799,31.4488966 0.645750241,29.5078551 1.87681765,28.2767885 Z M6.72342951,33.1231836 C5.49230872,34.353903 3.55177327,34.4483313 2.20822502,33.4104743 L10.8382747,24.7802165 L12.8344097,26.7762433 C12.8347569,26.7766172 12.834837,26.7770978 12.8352109,26.7774717 L12.9489469,26.8907804 L12.952285,26.8941185 L6.72342951,33.1231836 Z M12.5472256,10.2134184 C12.2652223,9.93120167 12.1519936,9.546011 12.2370219,9.15654756 C12.3220502,8.76729778 12.584826,8.46435803 12.9604032,8.32463826 L32.4934068,0.953887707 C32.9501667,0.783617604 33.4270088,0.888941527 33.7709674,1.23503629 C34.1144987,1.58091741 34.2161908,2.05925461 34.0431433,2.51473242 L26.6350012,22.0129003 C26.4939995,22.3835636 26.1906323,22.6437755 25.8030914,22.726881 C25.4155504,22.8097728 25.0310004,22.6969716 24.7498516,22.415823 L20.0660594,17.7320337 L22.9698124,14.8284427 C23.7508762,14.0471658 23.7504489,12.7758016 22.9689579,11.9940974 C22.5903898,11.6155296 22.0870566,11.4070181 21.5516775,11.4068045 C21.5516775,11.4068045 21.5516775,11.4068045 21.5512502,11.4068045 C21.0162985,11.4068045 20.5129652,11.6153159 20.1348244,11.9936701 L17.2312582,14.8972344 L12.5472256,10.2134184 Z M20.7535226,12.612368 C20.9667342,12.3993701 21.2500194,12.2818688 21.5512502,12.2818688 C21.5516775,12.2818688 21.5516775,12.2818688 21.5516775,12.2818688 C21.8533356,12.2820825 22.1370481,12.3995838 22.3502597,12.6127953 C22.7903558,13.0533183 22.790783,13.7696491 22.3511142,14.2097449 L15.7204841,20.8399701 L14.1231596,19.2427267 L20.7535226,12.612368 Z M11.1367816,19.0166168 L11.8981907,18.2552083 L16.7448025,23.1016034 L15.9833935,23.8630119 C15.6971173,24.1497151 15.1980569,24.1492879 14.9117808,23.8630119 L11.1367816,20.0884425 C10.8415327,19.79298 10.8415327,19.3120792 11.1367816,19.0166168 Z M10.8682643,21.0572675 L13.9429284,24.1315825 L12.6851028,25.3895676 L9.61046529,22.3150656 L10.8682643,21.0572675 Z" id="Shape"></path>
                </g>
                <g id="noun_bricklayer_2146068" transform="translate(19.000000, 12.000000)" fill="#334051">
                    <path d="M31.6,0 L15.8,0 C15.5789062,0 15.4,0.17890624 15.4,0.4 L15.4,7.80859376 L11.8,7.80859376 C11.5789062,7.80859376 11.4,7.9875 11.4,8.20859376 L11.4,15.6171875 L7.8,15.6171875 C7.57890624,15.6171875 7.4,15.7960938 7.4,16.0171875 L7.4,23.4257813 L3.8,23.4257813 C3.57890624,23.4257813 3.4,23.6046875 3.4,23.8257813 L3.4,31.2 L0.4,31.2 C0.17890624,31.2 0,31.3789062 0,31.6 C0,31.8210938 0.17890624,32 0.4,32 L31.6,32 C31.8210938,32 32,31.8210938 32,31.6 L32,0.4 C32,0.17890624 31.8210938,0 31.6,0 Z M21.85,24.2257812 L21.85,31.2 L13.55,31.2 L13.55,24.2257812 L21.85,24.2257812 Z M18.1,23.4257813 L18.1,16.4171875 L26,16.4171875 L26,23.4257813 L18.1,23.4257813 Z M31.2,8.60859376 L31.2,15.6171875 L22.65,15.6171875 L22.65,8.60859376 L31.2,8.60859376 Z M26.8,16.4171875 L31.2,16.4171875 L31.2,23.4257813 L26.8,23.4257813 L26.8,16.4171875 Z M31.2,7.80859376 L24.35,7.80859376 L24.35,0.8 L31.2,0.8 L31.2,7.80859376 Z M16.2,0.8 L23.55,0.8 L23.55,7.80859376 L16.2,7.80859376 L16.2,0.8 Z M12.2,8.60859376 L21.85,8.60859376 L21.85,15.6171875 L12.2,15.6171875 L12.2,8.60859376 Z M8.2,16.4171875 L17.3,16.4171875 L17.3,23.4257813 L8.2,23.4257813 L8.2,16.4171875 Z M4.2,24.2257812 L12.75,24.2257812 L12.75,31.2 L4.2,31.2 L4.2,24.2257812 Z M22.65,31.2 L22.65,24.2257812 L31.2,24.2257812 L31.2,31.2 L22.65,31.2 Z" id="Shape"></path>
                </g>
            </g>
        </g>
    </g>
</svg>