<?xml version="1.0" encoding="UTF-8"?>
<svg width="35px" height="40px" viewBox="0 0 35 40" version="1.1" xmlns="http://www.w3.org/2000/svg" xmlns:xlink="http://www.w3.org/1999/xlink">
    <!-- Generator: sketchtool 51.3 (57544) - http://www.bohemiancoding.com/sketch -->
    <title>F147BCDE-87E3-4210-81C4-4029F8BB76E7</title>
    <desc>Created with sketchtool.</desc>
    <defs></defs>
    <g id="New-Perspectives" stroke="none" stroke-width="1" fill="none" fill-rule="evenodd">
        <g id="D_inscription-Step_3-Domaines" transform="translate(-281.000000, -1631.000000)" fill-rule="nonzero">
            <g id="Ico-Hôtellerie" transform="translate(281.000000, 1631.000000)">
                <circle id="Oval-3-Copy" fill="#6A89CC" opacity="0.1" cx="17" cy="13" r="13"></circle>
                <g id="noun_Hotel_959371" transform="translate(0.000000, 5.000000)" fill="#334051">
                    <path d="M0.6125,34.9125 L33.99375,34.9125 C34.25625,34.9125 34.43125,34.7375 34.43125,34.475 C34.43125,34.2125 34.25625,34.0375 33.99375,34.0375 L32.33125,34.0375 L32.33125,32.725 C33.25,32.50625 33.90625,31.71875 33.90625,30.75625 L33.90625,29.53125 C33.90625,28.39375 32.9875,27.51875 31.89375,27.51875 C30.8,27.51875 29.88125,28.4375 29.88125,29.53125 L29.88125,30.75625 C29.88125,31.71875 30.58125,32.55 31.45625,32.725 L31.45625,34.0375 L29.05,34.0375 L29.05,26.46875 L29.44375,26.46875 C29.70625,26.46875 29.88125,26.29375 29.88125,26.03125 L29.88125,23.45 C29.88125,23.1875 29.70625,23.0125 29.44375,23.0125 L28.30625,23.0125 C28.30625,23.0125 28.30625,23.0125 28.30625,22.96875 L28.30625,11.375 L28.74375,11.375 C29.00625,11.375 29.18125,11.2 29.18125,10.9375 L29.18125,8.00625 C29.18125,7.74375 29.00625,7.56875 28.74375,7.56875 L5.8625,7.56875 C5.6,7.56875 5.425,7.74375 5.425,8.00625 L5.425,10.9375 C5.425,11.2 5.6,11.375 5.8625,11.375 L6.3,11.375 L6.3,34.0375 L3.71875,34.0375 L3.71875,31.9375 C4.50625,31.71875 5.11875,31.01875 5.11875,30.14375 L5.11875,27.825 C5.11875,26.81875 4.2875,25.9875 3.28125,25.9875 C2.275,25.9875 1.44375,26.81875 1.44375,27.825 L1.44375,30.14375 C1.44375,31.01875 2.05625,31.71875 2.84375,31.9375 L2.84375,34.0375 L0.6125,34.0375 C0.35,34.0375 0.175,34.2125 0.175,34.475 C0.175,34.7375 0.35,34.9125 0.6125,34.9125 Z M30.75625,30.75625 L30.75625,29.53125 C30.75625,28.875 31.28125,28.39375 31.89375,28.39375 C32.50625,28.39375 33.03125,28.91875 33.03125,29.53125 L33.03125,30.75625 C33.03125,31.4125 32.50625,31.89375 31.89375,31.89375 C31.28125,31.89375 30.75625,31.4125 30.75625,30.75625 Z M2.275,30.14375 L2.275,27.825 C2.275,27.3 2.7125,26.8625 3.2375,26.8625 C3.7625,26.8625 4.2,27.3 4.2,27.825 L4.2,30.14375 C4.2,30.66875 3.7625,31.10625 3.2375,31.10625 C2.7125,31.10625 2.275,30.66875 2.275,30.14375 Z M24.5875,34.0375 L22.3125,34.0375 L22.3125,29.61875 L24.54375,29.61875 L24.54375,34.0375 L24.5875,34.0375 Z M21.2625,34.0375 L19.03125,34.0375 L19.03125,29.61875 L21.2625,29.61875 L21.2625,34.0375 Z M28.175,34.0375 L25.4625,34.0375 L25.4625,29.18125 C25.4625,28.91875 25.2875,28.74375 25.025,28.74375 L18.55,28.74375 C18.2875,28.74375 18.1125,28.91875 18.1125,29.18125 L18.1125,34.08125 L15.1375,34.08125 L15.1375,26.46875 L28.13125,26.46875 L28.13125,34.0375 L28.175,34.0375 Z M29.00625,25.59375 L14.30625,25.59375 L14.30625,23.8875 L29.00625,23.8875 L29.00625,25.59375 Z M27.43125,23.0125 L17.71875,23.0125 C17.71875,23.0125 17.71875,23.0125 17.71875,22.96875 L17.71875,11.375 L27.43125,11.375 L27.43125,23.0125 C27.43125,23.0125 27.43125,23.0125 27.43125,23.0125 Z M6.3,8.44375 L28.30625,8.44375 L28.30625,10.5 L6.3,10.5 L6.3,8.44375 Z M7.175,11.375 L16.8875,11.375 L16.8875,22.96875 C16.8875,22.96875 16.8875,22.96875 16.8875,23.0125 L13.86875,23.0125 C13.60625,23.0125 13.43125,23.1875 13.43125,23.45 L13.43125,26.03125 C13.43125,26.29375 13.60625,26.46875 13.86875,26.46875 L14.30625,26.46875 L14.30625,34.08125 L7.175,34.08125 L7.175,11.375 Z" id="Shape"></path>
                    <path d="M19.6,13.69375 C19.3375,13.69375 19.1625,13.86875 19.1625,14.13125 L19.1625,16.1 C19.1625,16.3625 19.3375,16.5375 19.6,16.5375 C19.8625,16.5375 20.0375,16.3625 20.0375,16.1 L20.0375,14.13125 C20.0375,13.86875 19.81875,13.69375 19.6,13.69375 Z" id="Shape"></path>
                    <path d="M22.44375,13.69375 C22.18125,13.69375 22.00625,13.86875 22.00625,14.13125 L22.00625,16.1 C22.00625,16.3625 22.18125,16.5375 22.44375,16.5375 C22.70625,16.5375 22.88125,16.3625 22.88125,16.1 L22.88125,14.13125 C22.88125,13.86875 22.70625,13.69375 22.44375,13.69375 Z" id="Shape"></path>
                    <path d="M25.2875,13.69375 C25.025,13.69375 24.85,13.86875 24.85,14.13125 L24.85,16.1 C24.85,16.3625 25.025,16.5375 25.2875,16.5375 C25.55,16.5375 25.725,16.3625 25.725,16.1 L25.725,14.13125 C25.725,13.86875 25.55,13.69375 25.2875,13.69375 Z" id="Shape"></path>
                    <path d="M19.6,18.85625 C19.3375,18.85625 19.1625,19.03125 19.1625,19.29375 L19.1625,21.2625 C19.1625,21.525 19.3375,21.7 19.6,21.7 C19.8625,21.7 20.0375,21.525 20.0375,21.2625 L20.0375,19.29375 C20.0375,19.03125 19.81875,18.85625 19.6,18.85625 Z" id="Shape"></path>
                    <path d="M22.44375,18.85625 C22.18125,18.85625 22.00625,19.03125 22.00625,19.29375 L22.00625,21.2625 C22.00625,21.525 22.18125,21.7 22.44375,21.7 C22.70625,21.7 22.88125,21.525 22.88125,21.2625 L22.88125,19.29375 C22.88125,19.03125 22.70625,18.85625 22.44375,18.85625 Z" id="Shape"></path>
                    <path d="M25.2875,18.85625 C25.025,18.85625 24.85,19.03125 24.85,19.29375 L24.85,21.2625 C24.85,21.525 25.025,21.7 25.2875,21.7 C25.55,21.7 25.725,21.525 25.725,21.2625 L25.725,19.29375 C25.725,19.03125 25.55,18.85625 25.2875,18.85625 Z" id="Shape"></path>
                    <path d="M9.0125,13.69375 C8.75,13.69375 8.575,13.86875 8.575,14.13125 L8.575,16.1 C8.575,16.3625 8.75,16.5375 9.0125,16.5375 C9.275,16.5375 9.45,16.3625 9.45,16.1 L9.45,14.13125 C9.45,13.86875 9.23125,13.69375 9.0125,13.69375 Z" id="Shape"></path>
                    <path d="M11.85625,13.69375 C11.59375,13.69375 11.41875,13.86875 11.41875,14.13125 L11.41875,16.1 C11.41875,16.3625 11.59375,16.5375 11.85625,16.5375 C12.11875,16.5375 12.29375,16.3625 12.29375,16.1 L12.29375,14.13125 C12.29375,13.86875 12.075,13.69375 11.85625,13.69375 Z" id="Shape"></path>
                    <path d="M14.7,16.49375 C14.9625,16.49375 15.1375,16.31875 15.1375,16.05625 L15.1375,14.0875 C15.1375,13.825 14.9625,13.65 14.7,13.65 C14.4375,13.65 14.2625,13.825 14.2625,14.0875 L14.2625,16.05625 C14.2625,16.31875 14.48125,16.49375 14.7,16.49375 Z" id="Shape"></path>
                    <path d="M9.0125,18.85625 C8.75,18.85625 8.575,19.03125 8.575,19.29375 L8.575,21.2625 C8.575,21.525 8.75,21.7 9.0125,21.7 C9.275,21.7 9.45,21.525 9.45,21.2625 L9.45,19.29375 C9.45,19.03125 9.23125,18.85625 9.0125,18.85625 Z" id="Shape"></path>
                    <path d="M11.85625,18.85625 C11.59375,18.85625 11.41875,19.03125 11.41875,19.29375 L11.41875,21.2625 C11.41875,21.525 11.59375,21.7 11.85625,21.7 C12.11875,21.7 12.29375,21.525 12.29375,21.2625 L12.29375,19.29375 C12.29375,19.03125 12.075,18.85625 11.85625,18.85625 Z" id="Shape"></path>
                    <path d="M14.7,21.65625 C14.9625,21.65625 15.1375,21.48125 15.1375,21.21875 L15.1375,19.25 C15.1375,18.9875 14.9625,18.8125 14.7,18.8125 C14.4375,18.8125 14.2625,18.9875 14.2625,19.25 L14.2625,21.21875 C14.2625,21.48125 14.48125,21.65625 14.7,21.65625 Z" id="Shape"></path>
                    <path d="M9.0125,24.01875 C8.75,24.01875 8.575,24.19375 8.575,24.45625 L8.575,26.425 C8.575,26.6875 8.75,26.8625 9.0125,26.8625 C9.275,26.8625 9.45,26.6875 9.45,26.425 L9.45,24.45625 C9.45,24.19375 9.23125,24.01875 9.0125,24.01875 Z" id="Shape"></path>
                    <path d="M11.85625,24.01875 C11.59375,24.01875 11.41875,24.19375 11.41875,24.45625 L11.41875,26.425 C11.41875,26.6875 11.59375,26.8625 11.85625,26.8625 C12.11875,26.8625 12.29375,26.6875 12.29375,26.425 L12.29375,24.45625 C12.29375,24.19375 12.075,24.01875 11.85625,24.01875 Z" id="Shape"></path>
                    <path d="M9.0125,29.18125 C8.75,29.18125 8.575,29.35625 8.575,29.61875 L8.575,31.5875 C8.575,31.85 8.75,32.025 9.0125,32.025 C9.275,32.025 9.45,31.85 9.45,31.5875 L9.45,29.61875 C9.45,29.35625 9.23125,29.18125 9.0125,29.18125 Z" id="Shape"></path>
                    <path d="M11.85625,29.18125 C11.59375,29.18125 11.41875,29.35625 11.41875,29.61875 L11.41875,31.5875 C11.41875,31.85 11.59375,32.025 11.85625,32.025 C12.11875,32.025 12.29375,31.85 12.29375,31.5875 L12.29375,29.61875 C12.29375,29.35625 12.075,29.18125 11.85625,29.18125 Z" id="Shape"></path>
                    <path d="M8.05,1.96875 C8.00625,1.8375 7.875,1.70625 7.74375,1.6625 L6.60625,1.35625 L5.99375,0.35 C5.90625,0.21875 5.775,0.13125 5.64375,0.13125 C5.5125,0.13125 5.3375,0.21875 5.29375,0.35 L4.68125,1.35625 L3.54375,1.6625 C3.4125,1.70625 3.28125,1.79375 3.2375,1.96875 C3.19375,2.1 3.2375,2.275 3.325,2.40625 L4.1125,3.325 L4.025,4.50625 C4.025,4.6375 4.06875,4.8125 4.2,4.9 C4.33125,4.9875 4.4625,4.9875 4.6375,4.94375 L5.73125,4.50625 L6.825,4.94375 C6.86875,4.94375 6.9125,4.9875 7,4.9875 C7.0875,4.9875 7.175,4.94375 7.2625,4.9 C7.39375,4.8125 7.4375,4.68125 7.4375,4.50625 L7.35,3.325 L8.1375,2.40625 C8.05,2.275 8.09375,2.1 8.05,1.96875 Z M6.43125,2.84375 C6.34375,2.93125 6.34375,3.0625 6.34375,3.15 L6.3875,3.80625 L5.775,3.54375 C5.73125,3.54375 5.6875,3.5 5.6,3.5 C5.5125,3.5 5.46875,3.5 5.425,3.54375 L4.8125,3.85 L4.85625,3.19375 C4.85625,3.0625 4.8125,2.975 4.76875,2.8875 L4.33125,2.3625 L4.9875,2.1875 C5.11875,2.14375 5.20625,2.1 5.25,2.0125 L5.6,1.44375 L5.95,2.0125 C5.99375,2.1 6.125,2.1875 6.2125,2.1875 L6.86875,2.3625 L6.43125,2.84375 Z" id="Shape"></path>
                    <path d="M13.825,1.96875 C13.78125,1.8375 13.65,1.70625 13.51875,1.6625 L12.38125,1.35625 L11.76875,0.35 C11.59375,0.0875 11.2,0.0875 11.025,0.35 L10.4125,1.35625 L9.275,1.6625 C9.14375,1.70625 9.0125,1.79375 8.96875,1.96875 C8.925,2.1 8.96875,2.275 9.05625,2.40625 L9.84375,3.325 L9.75625,4.50625 C9.75625,4.6375 9.8,4.8125 9.93125,4.9 C10.01875,4.94375 10.10625,4.9875 10.19375,4.9875 C10.2375,4.9875 10.325,4.9875 10.36875,4.94375 L11.4625,4.50625 L12.55625,4.94375 C12.6875,4.9875 12.8625,4.9875 12.99375,4.9 C13.125,4.8125 13.16875,4.68125 13.16875,4.50625 L13.08125,3.325 L13.86875,2.40625 C13.86875,2.275 13.86875,2.1 13.825,1.96875 Z M12.20625,2.84375 C12.11875,2.93125 12.11875,3.0625 12.11875,3.15 L12.1625,3.80625 L11.55,3.54375 C11.50625,3.54375 11.4625,3.5 11.375,3.5 C11.2875,3.5 11.24375,3.5 11.2,3.54375 L10.5875,3.80625 L10.63125,3.15 C10.63125,3.01875 10.5875,2.93125 10.54375,2.84375 L10.10625,2.31875 L10.7625,2.14375 C10.89375,2.1 10.98125,2.05625 11.025,1.96875 L11.375,1.4 L11.725,1.96875 C11.76875,2.05625 11.9,2.14375 11.9875,2.14375 L12.64375,2.31875 L12.20625,2.84375 Z" id="Shape"></path>
                    <path d="M19.64375,1.96875 C19.6,1.8375 19.46875,1.70625 19.3375,1.6625 L18.2,1.35625 L17.5875,0.35 C17.4125,0.0875 17.01875,0.0875 16.84375,0.35 L16.23125,1.35625 L15.09375,1.6625 C14.9625,1.70625 14.83125,1.79375 14.7875,1.96875 C14.74375,2.1 14.7875,2.275 14.875,2.40625 L15.6625,3.325 L15.575,4.50625 C15.575,4.6375 15.61875,4.8125 15.75,4.9 C15.88125,4.9875 16.0125,4.9875 16.1875,4.94375 L17.28125,4.50625 L18.375,4.94375 C18.41875,4.94375 18.4625,4.9875 18.55,4.9875 C18.6375,4.9875 18.725,4.94375 18.8125,4.9 C18.94375,4.8125 18.9875,4.68125 18.9875,4.50625 L18.9,3.325 L19.6875,2.40625 C19.64375,2.275 19.6875,2.1 19.64375,1.96875 Z M17.98125,2.84375 C17.89375,2.93125 17.89375,3.0625 17.89375,3.15 L17.9375,3.80625 L17.325,3.54375 C17.28125,3.54375 17.2375,3.5 17.15,3.5 C17.0625,3.5 17.01875,3.5 16.975,3.54375 L16.3625,3.80625 L16.40625,3.15 C16.40625,3.01875 16.3625,2.93125 16.31875,2.84375 L15.88125,2.31875 L16.5375,2.14375 C16.66875,2.1 16.75625,2.05625 16.8,1.96875 L17.15,1.4 L17.5,1.96875 C17.54375,2.05625 17.675,2.14375 17.7625,2.14375 L18.41875,2.31875 L17.98125,2.84375 Z" id="Shape"></path>
                    <path d="M25.41875,1.96875 C25.375,1.8375 25.24375,1.70625 25.1125,1.6625 L23.975,1.35625 L23.3625,0.35 C23.275,0.21875 23.14375,0.13125 23.0125,0.13125 C22.88125,0.13125 22.70625,0.21875 22.6625,0.35 L22.05,1.35625 L20.9125,1.6625 C20.78125,1.70625 20.65,1.79375 20.60625,1.96875 C20.5625,2.1 20.60625,2.275 20.69375,2.40625 L21.48125,3.325 L21.39375,4.50625 C21.39375,4.6375 21.4375,4.8125 21.56875,4.9 C21.7,4.9875 21.83125,4.9875 22.00625,4.94375 L23.1,4.50625 L24.19375,4.94375 C24.2375,4.94375 24.28125,4.9875 24.36875,4.9875 C24.45625,4.9875 24.54375,4.94375 24.63125,4.9 C24.7625,4.8125 24.80625,4.68125 24.80625,4.50625 L24.71875,3.325 L25.50625,2.40625 C25.41875,2.275 25.4625,2.1 25.41875,1.96875 Z M23.75625,2.84375 C23.66875,2.93125 23.66875,3.0625 23.66875,3.15 L23.7125,3.80625 L23.1,3.54375 C23.0125,3.5 22.88125,3.5 22.79375,3.54375 L22.18125,3.80625 L22.225,3.15 C22.225,3.01875 22.18125,2.93125 22.1375,2.84375 L21.7,2.31875 L22.3125,2.1875 C22.44375,2.14375 22.53125,2.1 22.575,2.0125 L22.925,1.44375 L23.275,2.0125 C23.31875,2.1 23.45,2.1875 23.5375,2.1875 L24.19375,2.3625 L23.75625,2.84375 Z" id="Shape"></path>
                    <path d="M31.19375,1.96875 C31.15,1.8375 31.01875,1.70625 30.8875,1.6625 L29.75,1.35625 L29.1375,0.35 C28.9625,0.0875 28.56875,0.0875 28.39375,0.35 L27.78125,1.35625 L26.64375,1.6625 C26.5125,1.70625 26.38125,1.79375 26.3375,1.96875 C26.29375,2.1 26.3375,2.275 26.425,2.40625 L27.2125,3.325 L27.125,4.50625 C27.125,4.6375 27.16875,4.8125 27.3,4.9 C27.43125,4.9875 27.5625,4.9875 27.7375,4.94375 L28.83125,4.50625 L29.925,4.94375 C29.96875,4.94375 30.0125,4.9875 30.1,4.9875 C30.1875,4.9875 30.275,4.94375 30.3625,4.9 C30.49375,4.8125 30.5375,4.68125 30.5375,4.50625 L30.45,3.325 L31.2375,2.40625 C31.19375,2.275 31.2375,2.1 31.19375,1.96875 Z M29.575,2.84375 C29.4875,2.93125 29.4875,3.0625 29.4875,3.15 L29.53125,3.80625 L28.875,3.5875 C28.83125,3.5875 28.7875,3.54375 28.7,3.54375 C28.6125,3.54375 28.56875,3.54375 28.525,3.5875 L27.9125,3.85 L27.95625,3.19375 C27.95625,3.0625 27.9125,2.975 27.86875,2.8875 L27.43125,2.3625 L28.0875,2.1875 C28.21875,2.14375 28.30625,2.1 28.35,2.0125 L28.7,1.44375 L29.05,2.0125 C29.09375,2.1 29.225,2.1875 29.3125,2.1875 L29.96875,2.3625 L29.575,2.84375 Z" id="Shape"></path>
                </g>
            </g>
        </g>
    </g>
</svg>