<?xml version="1.0" encoding="UTF-8"?>
<svg width="51px" height="44px" viewBox="0 0 51 44" version="1.1" xmlns="http://www.w3.org/2000/svg" xmlns:xlink="http://www.w3.org/1999/xlink">
    <!-- Generator: sketchtool 51.3 (57544) - http://www.bohemiancoding.com/sketch -->
    <title>4483FE11-3DCF-4C33-AB25-B9966BD61895</title>
    <desc>Created with sketchtool.</desc>
    <defs></defs>
    <g id="New-Perspectives" stroke="none" stroke-width="1" fill="none" fill-rule="evenodd">
        <g id="D_inscription-Step_3-Domaines" transform="translate(-273.000000, -1722.000000)" fill-rule="nonzero">
            <g id="Ico-Industrie" transform="translate(273.000000, 1722.000000)">
                <circle id="Oval-3-Copy-5" fill="#6A89CC" opacity="0.1" cx="37.75" cy="13.25" r="13.25"></circle>
                <g id="noun_Industry_1777241" transform="translate(0.000000, 9.000000)" fill="#334051">
                    <path d="M37.3598485,11.730303 C37.1758612,11.6414565 36.9571966,11.666211 36.7977273,11.7939394 L35,13.2575758 L34.5545455,3.99318182 L34.3954545,0.578030303 C34.3813133,0.295555461 34.1479799,0.0738886783 33.8651515,0.0742424242 L31.3992424,0.0742424242 C31.1164141,0.0738886783 30.8830806,0.295555461 30.8689394,0.578030303 L30.0681818,17.2825758 L25.6401515,20.8939394 L25.6401515,12.2075758 C25.6408499,12.0027461 25.5235233,11.8158283 25.3387576,11.7274128 C25.1539918,11.6389973 24.9348272,11.6648948 24.7757576,11.7939394 L13.6393939,20.8939394 L13.6393939,12.1969697 C13.640868,11.9910693 13.5230213,11.8029281 13.3371212,11.7143939 C13.1521358,11.6270219 12.9333899,11.6538492 12.775,11.7833333 L0.710606061,21.5992424 C0.589410555,21.700189 0.519440818,21.8498465 0.51969697,22.0075758 L0.51969697,34.4060606 C0.51969697,34.6989389 0.757121724,34.9363636 1.05,34.9363636 L37.1212121,34.9363636 C37.4140904,34.9363636 37.6515152,34.6989389 37.6515152,34.4060606 L37.6515152,12.1969697 C37.6489297,11.9991936 37.5364918,11.819293 37.3598485,11.730303 Z M33.3507576,1.12424242 L33.4621212,3.46287879 L31.8181818,3.46287879 L31.9295455,1.12424242 L33.3507576,1.12424242 Z M31.7598485,4.52348485 L33.5151515,4.52348485 L33.9712121,14.1007576 L31.1765152,16.3810606 L31.7598485,4.52348485 Z M15.6598485,33.8757576 L15.6598485,29.3045455 L22.4954545,29.3045455 L22.4954545,33.8757576 L15.6598485,33.8757576 Z M36.575,33.8757576 L23.5560606,33.8757576 L23.5560606,28.7742424 C23.5560606,28.4813641 23.3186359,28.2439394 23.0257576,28.2439394 L15.1295455,28.2439394 C14.8366672,28.2439394 14.5992424,28.4813641 14.5992424,28.7742424 L14.5992424,33.8757576 L1.59090909,33.8757576 L1.59090909,22.2727273 L12.5363636,13.3212121 L12.5363636,22.0075758 C12.5369411,22.2115618 12.6544707,22.3971349 12.8386364,22.4848485 C13.0226236,22.573695 13.2412882,22.5489405 13.4007576,22.4212121 L24.5371212,13.3212121 L24.5371212,22.0075758 C24.5356472,22.2134762 24.6534938,22.4016173 24.8393939,22.4901515 C25.0379753,22.6016446 25.2855702,22.5738969 25.4545455,22.4212121 L36.5909091,13.3265152 L36.575,33.8757576 Z" id="Shape"></path>
                    <path d="M6.51742424,28.2969697 L4.31666667,28.2969697 C4.02378839,28.2969697 3.78636364,28.5343945 3.78636364,28.8272727 L3.78636364,31.0174242 C3.78636364,31.3103025 4.02378839,31.5477273 4.31666667,31.5477273 L6.51742424,31.5477273 C6.81030252,31.5477273 7.04772727,31.3103025 7.04772727,31.0174242 L7.04772727,28.8272727 C7.04772727,28.5343945 6.81030252,28.2969697 6.51742424,28.2969697 Z M5.98712121,30.4871212 L4.8469697,30.4871212 L4.8469697,29.3575758 L5.98712121,29.3575758 L5.98712121,30.4871212 Z" id="Shape"></path>
                    <path d="M11.9530303,28.2969697 L9.75757576,28.2969697 C9.46469748,28.2969697 9.22727273,28.5343945 9.22727273,28.8272727 L9.22727273,31.0174242 C9.22727273,31.3103025 9.46469748,31.5477273 9.75757576,31.5477273 L11.9530303,31.5477273 C12.2459086,31.5477273 12.4833333,31.3103025 12.4833333,31.0174242 L12.4833333,28.8272727 C12.4833333,28.5343945 12.2459086,28.2969697 11.9530303,28.2969697 Z M11.4227273,30.4871212 L10.2878788,30.4871212 L10.2878788,29.3575758 L11.4227273,29.3575758 L11.4227273,30.4871212 Z" id="Shape"></path>
                    <path d="M31.6856061,31.5477273 L33.8810606,31.5477273 C34.1739389,31.5477273 34.4113636,31.3103025 34.4113636,31.0174242 L34.4113636,28.8272727 C34.4113636,28.5343945 34.1739389,28.2969697 33.8810606,28.2969697 L31.6856061,28.2969697 C31.3927278,28.2969697 31.155303,28.5343945 31.155303,28.8272727 L31.155303,31.0174242 C31.155303,31.3103025 31.3927278,31.5477273 31.6856061,31.5477273 Z M32.2159091,29.3575758 L33.3507576,29.3575758 L33.3507576,30.4871212 L32.2159091,30.4871212 L32.2159091,29.3575758 Z" id="Shape"></path>
                    <path d="M26.25,31.5477273 L28.4454545,31.5477273 C28.7383328,31.5477273 28.9757576,31.3103025 28.9757576,31.0174242 L28.9757576,28.8272727 C28.9757576,28.5343945 28.7383328,28.2969697 28.4454545,28.2969697 L26.25,28.2969697 C25.9571217,28.2969697 25.719697,28.5343945 25.719697,28.8272727 L25.719697,31.0174242 C25.719697,31.3103025 25.9571217,31.5477273 26.25,31.5477273 Z M26.780303,29.3575758 L27.9151515,29.3575758 L27.9151515,30.4871212 L26.780303,30.4871212 L26.780303,29.3575758 Z" id="Shape"></path>
                </g>
            </g>
        </g>
    </g>
</svg>