<?xml version="1.0" encoding="UTF-8"?>
<svg width="40px" height="48px" viewBox="0 0 40 48" version="1.1" xmlns="http://www.w3.org/2000/svg" xmlns:xlink="http://www.w3.org/1999/xlink">
    <!-- Generator: sketchtool 51.3 (57544) - http://www.bohemiancoding.com/sketch -->
    <title>DD1E68A6-E3C9-45A1-85DA-7B1D407C5E0B</title>
    <desc>Created with sketchtool.</desc>
    <defs></defs>
    <g id="New-Perspectives" stroke="none" stroke-width="1" fill="none" fill-rule="evenodd">
        <g id="D_inscription-Step_3-Domaines" transform="translate(-277.000000, -1813.000000)" fill-rule="nonzero">
            <g id="Ico-Maintenance-&amp;-entretien" transform="translate(277.000000, 1813.000000)">
                <circle id="Oval-3-Copy-2" fill="#6A89CC" opacity="0.06" cx="26.25" cy="13.75" r="13.75"></circle>
                <g id="noun_tools_1219896" transform="translate(0.000000, 7.000000)" fill="#334051">
                    <path d="M9.29772152,9.75749383 C8.53974684,10.5162469 8.53974684,11.7497901 9.29772152,12.5075309 C9.67696203,12.8866543 10.1746835,13.075963 10.6729114,13.075963 C11.1711392,13.075963 11.6688608,12.8866543 12.0481013,12.5075309 C12.8060759,11.7497901 12.8060759,10.5162469 12.0481013,9.75749383 C11.2896203,8.99924691 10.0562025,8.99924691 9.29772152,9.75749383 Z M11.3321519,11.7918025 C10.9681013,12.1547284 10.3777215,12.1547284 10.0136709,11.7918025 C9.65012658,11.4283704 9.65012658,10.8371605 10.0136709,10.4737284 C10.195443,10.2925185 10.4339241,10.2014074 10.6729114,10.2014074 C10.9118987,10.2014074 11.1498734,10.2920123 11.3321519,10.4737284 C11.6956962,10.8371605 11.6956962,11.4283704 11.3321519,11.7918025 Z" id="Shape"></path>
                    <path d="M1.19746835,36.4824074 C1.1878481,37.5630864 1.60405063,38.5794815 2.36810127,39.3432963 C3.12405063,40.0990123 4.12658228,40.5135679 5.19392405,40.5135679 C5.20607595,40.5135679 5.21822785,40.5135679 5.22987342,40.5135679 C6.31088608,40.5034444 7.32,40.0706667 8.07088608,39.2931852 L20.7073418,26.2151975 L33.2982278,39.1818272 C34,39.910716 34.9432911,40.317679 35.955443,40.3278025 C35.9675949,40.3283086 35.9802532,40.3283086 35.9929114,40.3283086 C36.9908861,40.3283086 37.9275949,39.9400741 38.6344304,39.233963 C39.3503797,38.5182346 39.7392405,37.5666296 39.7291139,36.5547901 C39.7189873,35.5434568 39.3124051,34.6004568 38.5843038,33.9004198 L25.5260759,21.2278765 L27.915443,18.7557284 C28.1068354,18.558321 28.1043038,18.245 27.9113924,18.0491111 L31.1382278,14.8232716 C31.7174684,14.4395926 32.281519,14.3540494 32.8612658,14.5605679 C35.2349367,15.4063827 37.2936709,20.8082593 37.8870886,22.8182716 C37.9488608,23.027321 38.1382278,23.1736049 38.356962,23.1806914 C38.3620253,23.1811975 38.3675949,23.1811975 38.3726582,23.1811975 C38.5848101,23.1811975 38.7751899,23.0485802 38.8481013,22.848642 C41.4911392,15.6129012 35.6774684,9.68662963 35.6187342,9.62791358 L32.6035443,6.61416049 C32.1098734,6.12114815 31.2860759,6.14240741 30.7387342,6.69008642 C30.6162025,6.81258025 30.4313924,6.83535802 30.3341772,6.73867901 L28.7260759,5.13107407 C28.675443,5.08045679 28.6460759,5.00301235 28.6470886,4.92455556 C28.6475949,4.87140741 28.6622785,4.79345679 28.7296203,4.72967901 C28.9974684,4.47406173 29.1544304,4.12075309 29.1589873,3.76035802 C29.163038,3.42071605 29.0364557,3.1048642 28.8020253,2.87 L26.1483544,0.217148148 C25.9503797,0.0192345679 25.6303797,0.0192345679 25.4324051,0.217148148 L19.9802532,5.66812346 C19.7822785,5.86603704 19.7822785,6.18593827 19.9802532,6.38385185 L22.6339241,9.0367037 C23.1270886,9.53022222 23.9508861,9.50744444 24.4703797,8.98861728 C24.5367089,8.92230864 24.6197468,8.88434568 24.7043038,8.8802963 C24.7564557,8.87979012 24.8212658,8.88788889 24.8744304,8.94053086 L26.5037975,10.5693951 C26.5564557,10.622037 26.5655696,10.6908765 26.5635443,10.738963 C26.5594937,10.8234938 26.521519,10.9065062 26.4551899,10.9728148 L23.6389873,13.7881481 C23.4425316,13.6211111 23.1508861,13.6226296 22.9625316,13.8038395 L20.4126582,16.2658642 L15.8192405,11.8085062 C17.1275949,8.64391358 16.4081013,4.95441975 13.9751899,2.52175309 C10.8967089,-0.555777778 6.0156962,-0.82708642 2.62025316,1.8915679 C2.5078481,1.98166667 2.43949367,2.11479012 2.43139241,2.25904938 C2.42329114,2.4022963 2.47696203,2.54301235 2.57873418,2.64475309 L7.85873418,7.92160494 L6.76151899,9.01848148 L2.37924051,4.63755556 C2.27797468,4.53530864 2.12860759,4.48367901 1.99341772,4.49025926 C1.84962025,4.49835802 1.71594937,4.56669136 1.62582278,4.67906173 C-0.544303797,7.38759259 -0.363544304,11.2582963 2.01518987,13.7628395 L1.91240506,13.8655926 C1.71443038,14.0635062 1.71443038,14.3834074 1.91240506,14.581321 C4.34531646,17.0134815 8.03594937,17.7322469 11.2020253,16.4248025 L15.5797468,20.933284 L2.41822785,33.6422716 C1.64050633,34.3929259 1.20759494,35.4017284 1.19746835,36.4824074 Z M27.1711392,11.6890494 C27.4167089,11.4435556 27.5605063,11.1216296 27.5751899,10.783 C27.5903797,10.4281728 27.4637975,10.097642 27.2192405,9.85366667 L25.5908861,8.22581481 C25.3463291,7.98082716 25.0156962,7.85934568 24.6607595,7.86946914 C24.3220253,7.88414815 24,8.02739506 23.7544304,8.27339506 C23.6313924,8.39639506 23.4465823,8.41714815 23.3498734,8.32148148 L21.0541772,6.02649383 L25.7903797,1.29175309 L28.0855696,3.58623457 C28.1372152,3.6378642 28.1468354,3.70265432 28.1463291,3.74871605 C28.1453165,3.83830864 28.1032911,3.92840741 28.0303797,3.99775309 C27.7792405,4.23717284 27.6389873,4.5621358 27.6344304,4.91291358 C27.6303797,5.26419753 27.7675949,5.60485185 28.0101266,5.84781481 L29.6182278,7.45541975 C30.1108861,7.9484321 30.9351899,7.92616049 31.483038,7.37898765 C31.6060759,7.25598765 31.7908861,7.2347284 31.8875949,7.33090123 L34.9027848,10.3446543 C34.9529114,10.3952716 39.5124051,15.0424444 38.3296203,20.9651728 C37.4734177,18.640321 35.6349367,14.4755309 33.201519,13.6084568 C32.2962025,13.2845062 31.3964557,13.4221852 30.5291139,14.0133951 C30.5032911,14.0311111 30.4789873,14.051358 30.4567089,14.0736296 L27.1959494,17.3333827 L24.3605063,14.4988148 L27.1711392,11.6890494 Z M23.3083544,14.8784444 L26.841519,18.4105185 L24.8,20.5237901 L21.1402532,16.9719753 L23.3083544,14.8784444 Z M2.08151899,5.77290123 L6.04506329,9.73471605 L2.73063291,13.0481235 C0.847594937,11.0477284 0.595949367,8.04004938 2.08151899,5.77290123 Z M11.32,15.3147654 C11.2475949,15.3147654 11.1751899,15.3299506 11.1068354,15.3618395 C8.40708861,16.6146173 5.21265823,16.1433704 2.99797468,14.212321 L8.9321519,8.27997531 C9.13012658,8.08206173 9.13012658,7.76216049 8.9321519,7.56424691 L3.71037975,2.34358025 C6.67139241,0.316864198 10.683038,0.661061728 13.2597468,3.23798765 C15.478481,5.45654321 16.0794937,8.86258025 14.755443,11.714358 C14.6648101,11.9097407 14.7073418,12.1405556 14.8622785,12.2908889 L37.8810127,34.6288025 C38.4131646,35.140037 38.7098734,35.8274198 38.7164557,36.5649136 C38.7240506,37.3029136 38.4405063,37.9963704 37.918481,38.5182346 C37.396962,39.0395926 36.6865823,39.3286173 35.9655696,39.315963 C35.2278481,39.3083704 34.5397468,39.0117531 34.0268354,38.4787531 L11.6835443,15.468642 C11.5863291,15.3679136 11.4541772,15.3147654 11.32,15.3147654 Z M16.284557,21.6601481 L20.0020253,25.4883333 L7.34278481,38.5906173 C6.78227848,39.1706914 6.02886076,39.4941358 5.22177215,39.5017284 C4.43189873,39.4910988 3.6556962,39.1975185 3.08455696,38.6275679 C2.51392405,38.0566049 2.2035443,37.2978519 2.21012658,36.4910123 C2.21772152,35.6836667 2.54075949,34.9309877 3.12151899,34.3706543 L16.284557,21.6601481 Z" id="Shape"></path>
                </g>
            </g>
        </g>
    </g>
</svg>