<?xml version="1.0" encoding="UTF-8"?>
<svg width="39px" height="44px" viewBox="0 0 39 44" version="1.1" xmlns="http://www.w3.org/2000/svg" xmlns:xlink="http://www.w3.org/1999/xlink">
    <!-- Generator: sketchtool 51.3 (57544) - http://www.bohemiancoding.com/sketch -->
    <title>72848BB7-7F3B-4E29-B89B-E6FB581AA1CD</title>
    <desc>Created with sketchtool.</desc>
    <defs></defs>
    <g id="New-Perspectives" stroke="none" stroke-width="1" fill="none" fill-rule="evenodd">
        <g id="D_inscription-Step_3-Domaines" transform="translate(-279.000000, -1914.000000)" fill-rule="nonzero">
            <g id="ico-Santé" transform="translate(279.000000, 1914.000000)">
                <path d="M38.9847656,28.9029485 C38.9209734,28.5071242 38.6800079,28.161504 38.3296875,27.9633608 C37.3790625,27.3783918 35.1975,26.8904124 33.0921094,27.9360825 C32.2146094,28.3725361 31.3310156,28.8968866 30.5083594,29.4000206 C30.4892164,29.3624243 30.4678508,29.3259893 30.444375,29.2909072 C30.1671094,28.8847629 29.6491406,28.6847216 28.8965625,28.6847216 C27.9642187,28.6847216 26.2396875,29.594 23.9088281,30.894268 C23.2042933,31.3101007 22.4769919,31.6865203 21.7303125,32.0217732 C21.2428125,31.9641856 20.7675,31.9187216 20.2495312,31.8702268 C19.4603906,31.7944536 18.5615625,31.7126186 17.3610937,31.567134 C16.9475966,31.4139434 16.5538291,31.2124943 16.1880469,30.9670103 C13.5016979,29.3769741 10.5346655,28.3122108 7.4465625,27.83 C2.65078125,27.0086186 0.609375,27.9360825 0.508828125,27.9876082 C0.306831512,28.0774061 0.169632634,28.2690621 0.150388874,28.4883195 C0.131145114,28.707577 0.232880177,28.9199847 0.416177052,29.0432459 C0.599473926,29.1665071 0.835531808,29.1812541 1.03289062,29.0817732 C1.05117187,29.0817732 2.89148437,28.2785773 7.239375,29.0241856 C10.1877599,29.4853071 13.020376,30.5027567 15.5847656,32.0217732 C16.2977344,32.4248866 16.7669531,32.6946392 17.2026562,32.7522268 C18.4214062,32.9158969 19.3354687,33.0007629 20.1367969,33.0765361 C21.4514435,33.1730104 22.7570682,33.366512 24.0428906,33.6554433 C26.3219531,34.1676701 27.8179687,35.0830103 28.2567187,36.228701 C28.4803174,36.8215364 28.3959809,37.4858947 28.03125,38.0048247 L27.5711719,38.3079175 C26.6296875,38.5018969 24.496875,37.8926804 23.2567969,37.5380619 C22.4102034,37.2526149 21.5377519,37.0496008 20.6517187,36.9318763 C18.031334,36.8344102 15.4081689,37.0265346 12.8303906,37.5047216 C12.612501,37.5429325 12.4325494,37.6956235 12.3602578,37.9036349 C12.2879661,38.1116464 12.3346932,38.3422941 12.4823349,38.5062143 C12.6299765,38.6701344 12.8553343,38.7415707 13.0710937,38.6928454 C15.5500707,38.2377883 18.071517,38.0528201 20.5907812,38.1412165 C21.381286,38.2578285 22.1601395,38.4423958 22.9185937,38.6928454 C23.8935937,38.9716907 24.8807812,39.2505361 25.7796094,39.4111753 C22.6900781,41.2721649 19.8351562,42.6936701 18.4945312,42.6936701 C15.8559375,42.6936701 4.89023437,37.4016701 0.886640625,35.3648866 C0.588922308,35.2243692 0.232845127,35.3447449 0.0828435866,35.6366188 C-0.0671579535,35.9284928 0.0432652693,36.286112 0.332109375,36.4438969 C0.941484375,36.7469897 15.0271875,43.9060412 18.4975781,43.9060412 C20.2708594,43.9060412 24.1495312,41.8874433 28.0221094,39.4323918 C28.3818124,39.341319 28.7023785,39.1372305 28.9361719,38.8504536 C33.515625,35.852866 37.8696094,32.406701 38.390625,31.1852371 C38.5321644,30.8832503 38.6069706,30.5545855 38.61,30.2214021 C38.893534,29.8426548 39.0269431,29.3733114 38.9847656,28.9029485 Z M33.6375,29.0211546 C35.2858594,28.2028041 36.9890625,28.5695464 37.6898437,28.9938763 C37.7094931,29.0061782 37.7278646,29.0203924 37.7446875,29.0363093 C37.0439062,28.7908041 35.9683594,28.9423505 34.5210937,29.4939794 C33.4696948,29.8980647 32.4728403,30.4305351 31.5534375,31.0791546 C30.6850781,31.6429072 29.4998437,32.4157938 27.3365625,33.582701 C26.995472,33.388622 26.6411726,33.2184761 26.27625,33.0735052 C27.1567969,32.6673608 28.201875,32.1642268 28.6436719,31.9338763 C29.1860156,31.6307835 29.8197656,31.2488866 30.493125,30.8336495 C31.468125,30.2335258 32.5710937,29.551567 33.6375,29.0211546 Z M24.496875,31.9490309 C25.8832031,31.1791753 28.2049219,29.8940619 28.8904687,29.8940619 C29.0792453,29.8717381 29.2705114,29.9032738 29.4419531,29.9849897 C29.4251829,29.9675829 29.4144985,29.9452632 29.4114844,29.9213402 C29.4104262,29.9122779 29.4104262,29.9031242 29.4114844,29.8940619 L29.5790625,29.9607423 C29.0184375,30.306268 28.4913281,30.6275464 28.055625,30.8700206 C27.3975,31.2246392 25.1976562,32.2339381 24.5425781,32.5309691 L24.3140625,32.4824742 L23.765625,32.3551753 L24.496875,31.9490309 Z M37.269375,30.7033196 C36.8732812,31.6125979 33.4607812,34.340433 29.59125,36.9591546 C29.5995198,36.560727 29.5301984,36.1644726 29.3871094,35.7922474 C29.1719411,35.2517966 28.8365196,34.7668412 28.4060156,34.3737732 C30.3011719,33.3341649 31.3919531,32.6218969 32.2085156,32.0914845 C33.0575029,31.4906501 33.9787189,30.9978336 34.9507031,30.6245155 C36.66,29.9698351 37.3089844,30.1244124 37.3882031,30.1941237 C37.4029318,30.371872 37.3647867,30.5500044 37.2785156,30.7063505 L37.269375,30.7033196 Z" id="Shape" fill="#334051"></path>
                <path d="M23,10 L23,2 C23,1.44771525 22.5522847,1 22,1 L18,1 C17.4477153,1 17,1.44771525 17,2 L17,10 L9,10 C8.44771525,10 8,10.4477153 8,11 L8,15 C8,15.5522847 8.44771525,16 9,16 L17,16 L17,24 C17,24.5522847 17.4477153,25 18,25 L22,25 C22.5522847,25 23,24.5522847 23,24 L23,16 L31,16 C31.5522847,16 32,15.5522847 32,15 L32,11 C32,10.4477153 31.5522847,10 31,10 L23,10 Z M24,9 L31,9 C32.1045695,9 33,9.8954305 33,11 L33,15 C33,16.1045695 32.1045695,17 31,17 L24,17 L24,24 C24,25.1045695 23.1045695,26 22,26 L18,26 C16.8954305,26 16,25.1045695 16,24 L16,17 L9,17 C7.8954305,17 7,16.1045695 7,15 L7,11 C7,9.8954305 7.8954305,9 9,9 L16,9 L16,2 C16,0.8954305 16.8954305,2.02906125e-16 18,0 L22,0 C23.1045695,-2.02906125e-16 24,0.8954305 24,2 L24,9 Z" id="Combined-Shape" fill="#334051"></path>
                <ellipse id="Oval-3-Copy-6" fill="#6A89CC" opacity="0.1" cx="20" cy="13.0343643" rx="13" ry="12.9656357"></ellipse>
            </g>
        </g>
    </g>
</svg>