<?xml version="1.0" encoding="UTF-8"?>
<svg width="39px" height="49px" viewBox="0 0 39 49" version="1.1" xmlns="http://www.w3.org/2000/svg" xmlns:xlink="http://www.w3.org/1999/xlink">
    <!-- Generator: sketchtool 51.3 (57544) - http://www.bohemiancoding.com/sketch -->
    <title>22FD3EAE-B112-4C7C-9BA8-B39396632D86</title>
    <desc>Created with sketchtool.</desc>
    <defs></defs>
    <g id="New-Perspectives" stroke="none" stroke-width="1" fill="none" fill-rule="evenodd">
        <g id="D_inscription-Step_3-Domaines" transform="translate(-279.000000, -2006.000000)" fill-rule="nonzero">
            <g id="ico-Services" transform="translate(279.000000, 2006.000000)">
                <g id="noun_care_1628819" transform="translate(0.000000, 12.628866)" fill="#334051">
                    <path d="M38.9847656,21.2740825 C38.9209734,20.8782582 38.6800079,20.532638 38.3296875,20.3344948 C37.3790625,19.7495258 35.1975,19.2615464 33.0921094,20.3072165 C32.2146094,20.7436701 31.3310156,21.2680206 30.5083594,21.7711546 C30.4892164,21.7335583 30.4678508,21.6971233 30.444375,21.6620412 C30.1671094,21.2558969 29.6491406,21.0558557 28.8965625,21.0558557 C27.9642187,21.0558557 26.2396875,21.965134 23.9088281,23.2654021 C23.2042933,23.6812347 22.4769919,24.0576543 21.7303125,24.3929072 C21.2428125,24.3353196 20.7675,24.2898557 20.2495312,24.2413608 C19.4603906,24.1655876 18.5615625,24.0837526 17.3610937,23.938268 C16.9475966,23.7850774 16.5538291,23.5836284 16.1880469,23.3381443 C13.5016979,21.7481081 10.5346655,20.6833448 7.4465625,20.201134 C2.65078125,19.3797526 0.609375,20.3072165 0.508828125,20.3587423 C0.306831512,20.4485401 0.169632634,20.6401961 0.150388874,20.8594535 C0.131145114,21.078711 0.232880177,21.2911187 0.416177052,21.4143799 C0.599473926,21.5376411 0.835531808,21.5523881 1.03289062,21.4529072 C1.05117187,21.4529072 2.89148437,20.6497113 7.239375,21.3953196 C10.1877599,21.8564411 13.020376,22.8738907 15.5847656,24.3929072 C16.2977344,24.7960206 16.7669531,25.0657732 17.2026562,25.1233608 C18.4214062,25.2870309 19.3354687,25.3718969 20.1367969,25.4476701 C21.4514435,25.5441444 22.7570682,25.7376461 24.0428906,26.0265773 C26.3219531,26.5388041 27.8179687,27.4541443 28.2567187,28.5998351 C28.4803174,29.1926704 28.3959809,29.8570288 28.03125,30.3759588 L27.5711719,30.6790515 C26.6296875,30.8730309 24.496875,30.2638144 23.2567969,29.9091959 C22.4102034,29.6237489 21.5377519,29.4207349 20.6517187,29.3030103 C18.031334,29.2055442 15.4081689,29.3976686 12.8303906,29.8758557 C12.612501,29.9140665 12.4325494,30.0667575 12.3602578,30.2747689 C12.2879661,30.4827804 12.3346932,30.7134281 12.4823349,30.8773483 C12.6299765,31.0412684 12.8553343,31.1127047 13.0710937,31.0639794 C15.5500707,30.6089223 18.071517,30.4239541 20.5907812,30.5123505 C21.381286,30.6289626 22.1601395,30.8135299 22.9185937,31.0639794 C23.8935937,31.3428247 24.8807812,31.6216701 25.7796094,31.7823093 C22.6900781,33.643299 19.8351562,35.0648041 18.4945312,35.0648041 C15.8559375,35.0648041 4.89023437,29.7728041 0.886640625,27.7360206 C0.588922308,27.5955032 0.232845127,27.7158789 0.0828435866,28.0077529 C-0.0671579535,28.2996268 0.0432652693,28.657246 0.332109375,28.8150309 C0.941484375,29.1181237 15.0271875,36.2771753 18.4975781,36.2771753 C20.2708594,36.2771753 24.1495312,34.2585773 28.0221094,31.8035258 C28.3818124,31.712453 28.7023785,31.5083645 28.9361719,31.2215876 C33.515625,28.224 37.8696094,24.7778351 38.390625,23.5563711 C38.5321644,23.2543843 38.6069706,22.9257195 38.61,22.5925361 C38.893534,22.2137889 39.0269431,21.7444454 38.9847656,21.2740825 Z M33.6375,21.3922887 C35.2858594,20.5739381 36.9890625,20.9406804 37.6898437,21.3650103 C37.7094931,21.3773122 37.7278646,21.3915264 37.7446875,21.4074433 C37.0439062,21.1619381 35.9683594,21.3134845 34.5210937,21.8651134 C33.4696948,22.2691987 32.4728403,22.8016692 31.5534375,23.4502887 C30.6850781,24.0140412 29.4998437,24.7869278 27.3365625,25.9538351 C26.995472,25.759756 26.6411726,25.5896101 26.27625,25.4446392 C27.1567969,25.0384948 28.201875,24.5353608 28.6436719,24.3050103 C29.1860156,24.0019175 29.8197656,23.6200206 30.493125,23.2047835 C31.468125,22.6046598 32.5710937,21.922701 33.6375,21.3922887 Z M24.496875,24.3201649 C25.8832031,23.5503093 28.2049219,22.2651959 28.8904687,22.2651959 C29.0792453,22.2428721 29.2705114,22.2744078 29.4419531,22.3561237 C29.4251829,22.338717 29.4144985,22.3163972 29.4114844,22.2924742 C29.4104262,22.2834119 29.4104262,22.2742582 29.4114844,22.2651959 L29.5790625,22.3318763 C29.0184375,22.6774021 28.4913281,22.9986804 28.055625,23.2411546 C27.3975,23.5957732 25.1976562,24.6050722 24.5425781,24.9021031 L24.3140625,24.8536082 L23.765625,24.7263093 L24.496875,24.3201649 Z M37.269375,23.0744536 C36.8732812,23.983732 33.4607812,26.711567 29.59125,29.3302887 C29.5995198,28.931861 29.5301984,28.5356066 29.3871094,28.1633814 C29.1719411,27.6229306 28.8365196,27.1379752 28.4060156,26.7449072 C30.3011719,25.705299 31.3919531,24.9930309 32.2085156,24.4626186 C33.0575029,23.8617841 33.9787189,23.3689676 34.9507031,22.9956495 C36.66,22.3409691 37.3089844,22.4955464 37.3882031,22.5652577 C37.4029318,22.743006 37.3647867,22.9211384 37.2785156,23.0774845 L37.269375,23.0744536 Z" id="Shape"></path>
                    <path d="M18.9302344,20.1496082 C18.7997709,20.1498319 18.6726793,20.108398 18.5676562,20.0314021 L17.8729687,19.5252371 C14.3538281,16.9731959 7.8,12.220701 7.8,5.91334021 C7.80314882,3.21227336 9.67424568,0.868414791 12.3182294,0.253509956 C14.9622131,-0.361394878 17.6839848,0.914311457 18.890625,3.33402062 C20.0977735,0.913301225 22.8212168,-0.362323946 25.4659839,0.254208631 C28.1107509,0.870741208 29.9809258,3.21720371 29.98125,5.91940206 C29.98125,12.181299 23.5340625,16.9156082 20.0728125,19.4585567 L19.2989063,20.0314021 C19.1922103,20.1096428 19.0627781,20.1511422 18.9302344,20.1496082 Z M13.65,1.3063299 C11.0936231,1.30966936 9.02210703,3.3703432 9.01875,5.91334021 C9.01875,11.6054227 15.234375,16.1184742 18.5859375,18.5432165 L18.9241406,18.7887216 L19.3446094,18.4856289 C22.6352344,16.0608866 28.7594531,11.5690515 28.7594531,5.91940206 C28.7594531,3.37502053 26.6859719,1.31239175 24.1282031,1.31239175 C21.5704344,1.31239175 19.4969531,3.37502053 19.4969531,5.91940206 C19.4969531,6.25418911 19.2241266,6.52558763 18.8875781,6.52558763 C18.5510296,6.52558763 18.2782031,6.25418911 18.2782031,5.91940206 C18.2782081,3.37521939 16.2075639,1.31134471 13.65,1.3063299 Z" id="Shape"></path>
                </g>
                <ellipse id="Oval-3-Copy-6" fill="#6A89CC" opacity="0.1" cx="13.4220779" cy="13.3865979" rx="13.4220779" ry="13.3865979"></ellipse>
            </g>
        </g>
    </g>
</svg>