<?xml version="1.0" encoding="UTF-8"?>
<svg width="45px" height="43px" viewBox="0 0 45 43" version="1.1" xmlns="http://www.w3.org/2000/svg" xmlns:xlink="http://www.w3.org/1999/xlink">
    <!-- Generator: sketchtool 51.3 (57544) - http://www.bohemiancoding.com/sketch -->
    <title>C915BFA6-E57C-4EFF-B9E6-4F0CC58C733E</title>
    <desc>Created with sketchtool.</desc>
    <defs></defs>
    <g id="New-Perspectives" stroke="none" stroke-width="1" fill="none" fill-rule="evenodd">
        <g id="D_inscription-Step_3-Domaines" transform="translate(-277.000000, -2100.000000)" fill-rule="nonzero">
            <g id="Ico-Administratif" transform="translate(277.000000, 2100.000000)">
                <ellipse id="Oval-3-Copy-6" fill="#6A89CC" opacity="0.1" cx="32" cy="14" rx="13" ry="14"></ellipse>
                <g id="noun_Desk_2322487" transform="translate(0.000000, 5.000000)" fill="#334051">
                    <path d="M37.525284,17.1391968 L23.0314936,17.1391968 C22.7697681,16.9328628 22.0873349,16.3024963 21.9393338,15.2811767 L28.120204,15.2811767 C28.9595335,15.2811767 29.6424014,14.5981323 29.6424014,13.7583008 L29.6424014,1.7680298 C29.6424014,0.793212903 28.8496627,0 27.8754285,0 L10.0045017,0 C9.03026753,0 8.2377606,0.793212903 8.2377606,1.7680298 L8.2377606,13.7583008 C8.2377606,14.5981323 8.92039673,15.2811768 9.75972623,15.2811768 L15.9409152,15.2811768 C15.7936385,16.3046707 15.1131754,16.9317032 14.8485235,17.1391968 L0.474716052,17.1391968 C0.212555963,17.1391968 0,17.3518799 0,17.6141968 L0,37.525 C0,37.7873169 0.212555963,38 0.474716052,38 L10.6004465,38 C10.8626066,38 11.0751626,37.7873169 11.0751626,37.525 L11.0751626,21.7808838 L26.9248374,21.7808838 L26.9248374,37.525 C26.9248374,37.7873169 27.1373934,38 27.3995535,38 L37.5252839,38 C37.787444,38 38,37.7873169 38,37.525 L38,17.6141968 C38,17.3518799 37.7874441,17.1391968 37.525284,17.1391968 Z M10.0045017,0.95 L27.8754285,0.95 C28.3262697,0.95 28.6929693,1.31691893 28.6929693,1.7680298 L28.6929693,11.4030152 L9.18719275,11.4030152 L9.18719275,1.7680298 C9.18719275,1.31691893 9.55389234,0.95 10.0045017,0.95 Z M9.18719275,13.7583008 L9.18719275,12.3530152 L28.6929693,12.3530152 L28.6929693,13.7583008 C28.6929693,14.0741944 28.4361405,14.3311768 28.120204,14.3311768 L9.75972623,14.3311768 C9.44402154,14.3311767 9.18719275,14.0741943 9.18719275,13.7583008 Z M16.8996191,15.2811767 L20.9803112,15.2811767 C21.0634096,16.0712005 21.3854018,16.6904053 21.7230691,17.1391968 L16.1568612,17.1391968 C16.4945285,16.6904053 16.8165206,16.0712005 16.8996191,15.2811767 Z M14.9996249,18.0891968 C15.0008997,18.0891968 15.0021167,18.0896606 15.0033916,18.0896606 C15.0044926,18.0896606 15.0055646,18.0891968 15.0066657,18.0891968 L22.8732646,18.0891968 C22.8743656,18.0891968 22.8754377,18.0896606 22.8765388,18.0896606 C22.8778136,18.0896606 22.8790305,18.0891968 22.8803054,18.0891968 L37.050568,18.0891968 L37.050568,20.8308838 L0.949432103,20.8308838 L0.949432103,18.0891968 L14.9996249,18.0891968 Z M0.949432103,25.7070557 L10.1257305,25.7070557 L10.1257305,28.3719727 L0.949432103,28.3719727 L0.949432103,25.7070557 Z M0.949432103,37.05 L0.949432103,29.3219727 L10.1257305,29.3219727 L10.1257305,37.05 L0.949432103,37.05 Z M10.1257305,24.7570557 L0.949432103,24.7570557 L0.949432103,21.7808838 L10.1257305,21.7808838 L10.1257305,24.7570557 Z M37.0505679,21.7808838 L37.0505679,24.7570557 L27.8742696,24.7570557 L27.8742696,21.7808838 L37.0505679,21.7808838 Z M27.8742696,25.7070557 L37.0505679,25.7070557 L37.0505679,28.3719727 L27.8742696,28.3719727 L27.8742696,25.7070557 Z M27.8742696,37.05 L27.8742696,29.3219727 L37.0505679,29.3219727 L37.0505679,37.05 L27.8742696,37.05 Z" id="Shape"></path>
                    <path d="M5.47125645,31 L3.52874355,31 C3.23674699,31 3,31.2238769 3,31.5 C3,31.7761231 3.23674699,32 3.52874355,32 L5.47125645,32 C5.76325301,32 6,31.7761231 6,31.5 C6,31.2238769 5.76325301,31 5.47125645,31 Z" id="Shape"></path>
                    <path d="M33.4712565,31 L31.5287435,31 C31.236747,31 31,31.2238769 31,31.5 C31,31.7761231 31.236747,32 31.5287435,32 L33.4712565,32 C33.763253,32 34,31.7761231 34,31.5 C34,31.2238769 33.763253,31 33.4712565,31 Z" id="Shape"></path>
                </g>
            </g>
        </g>
    </g>
</svg>