<?xml version="1.0" encoding="UTF-8"?>
<svg width="42px" height="46px" viewBox="0 0 42 46" version="1.1" xmlns="http://www.w3.org/2000/svg" xmlns:xlink="http://www.w3.org/1999/xlink">
    <!-- Generator: sketchtool 51.3 (57544) - http://www.bohemiancoding.com/sketch -->
    <title>B819D541-4D9D-453C-90F0-CBA896EAE1AF</title>
    <desc>Created with sketchtool.</desc>
    <defs>
        <path d="M25.1056146,44.6478258 C25.0968368,44.6486852 25.0861813,44.6496877 25.0733665,44.6510722 C25.0116398,44.657708 24.9495376,44.6596176 24.8875292,44.6615272 C24.8258025,44.6634368 24.7640288,44.6607634 24.7023021,44.6580422 C24.6657824,44.6559894 24.6293566,44.6527908 24.5929308,44.6491626 C24.5864061,44.6481123 24.5796467,44.6469665 24.571526,44.6456298 C24.4502318,44.6251016 24.3316132,44.5911584 24.2146845,44.5531573 C24.2070332,44.5506271 24.1120257,44.5127214 24.1007131,44.5099048 C24.0588422,44.4899017 24.0174876,44.4687051 23.9764616,44.4469834 C23.8751641,44.393228 23.7796872,44.3289699 23.6869328,44.26137 C23.7357979,44.2954086 23.6082606,44.1910011 23.6029563,44.1862271 C23.5399622,44.1290345 23.4820377,44.0663041 23.4250519,44.0030007 C23.4229396,44.0007092 23.3557678,43.9144429 23.3458164,43.9038923 C23.3152112,43.859685 23.2862959,43.8142365 23.2580378,43.7685015 C23.2272917,43.7188996 23.2000663,43.6671971 23.1727,43.6156378 C23.1713857,43.6131553 23.1168408,43.4927549 23.1157612,43.4961921 C23.0743128,43.3871538 23.0426749,43.2743918 23.0155902,43.1609136 C23.0006632,43.0984696 22.9904301,43.0350231 22.9802441,42.9717675 C23.0025408,43.1102137 22.9773807,42.8589577 22.9764888,42.8326052 C22.9741418,42.7693496 22.9764419,42.7060463 22.978695,42.6428384 C22.9791175,42.6320492 22.989773,42.5202897 22.9879892,42.5170433 C23.0053572,42.4105352 23.0311275,42.3055548 23.0606061,42.2019111 C23.0750169,42.1511157 23.0926195,42.1014183 23.1105508,42.0518164 C23.088348,42.115788 23.14984,41.9623515 23.154534,41.9526125 C23.2130688,41.8300637 23.285451,41.714867 23.3629028,41.6038713 C23.3397611,41.6398673 23.4358952,41.5173663 23.4400729,41.5125923 C23.4823193,41.4641838 23.5281332,41.4192127 23.5738063,41.374337 C23.6154894,41.3333283 23.6598951,41.2955182 23.7044416,41.2579945 C23.6456252,41.3090286 23.7955061,41.1955982 23.7974776,41.1943092 C23.8817827,41.1371166 23.951724,41.0939119 24.0177692,41.0592526 C24.0394088,41.0510413 24.0609075,41.0420662 24.0821246,41.0320407 C24.097615,41.0247843 24.1097256,41.0191032 24.1195831,41.0145201 C24.1808404,40.9899817 24.2437407,40.9700264 24.306547,40.9503097 C24.3374808,40.9406185 24.368837,40.932264 24.4002871,40.9244346 C24.4101446,40.9220476 24.4203307,40.9196129 24.4306107,40.9171781 C24.4407498,40.9148389 24.450889,40.9124519 24.4609812,40.9101126 C24.4742653,40.907105 24.4874556,40.9040019 24.5014908,40.9008988 C24.5033684,40.9004214 24.5053399,40.9001349 24.5072645,40.8997053 C24.5307347,40.8960293 24.6186073,40.8831395 24.6303893,40.8801796 C24.7472711,40.869629 24.8649978,40.8701064 24.9820673,40.8754533 C24.9831,40.8755011 24.9868083,40.875883 24.9918779,40.8764081 C25.2511301,40.9023787 25.5166723,40.9847303 25.7485113,41.1131034 C25.7631098,41.1216011 25.7778491,41.1299079 25.7923067,41.1385966 C25.794466,41.1399333 25.7965783,41.1412223 25.7987376,41.1425113 C25.8202833,41.1556398 25.8416412,41.169007 25.8629052,41.1825174 C25.8713545,41.1880553 25.8798038,41.1937364 25.8882531,41.1994652 C25.9146336,41.2187044 25.9827912,41.2681631 25.985279,41.267638 C25.9979999,41.2783795 26.0107677,41.2890255 26.0232069,41.3001012 C26.0317501,41.3074532 26.0400585,41.3151871 26.0485078,41.3227778 C26.0673779,41.3400597 26.086201,41.3574371 26.1048364,41.3749577 C26.1109856,41.3809252 26.1170409,41.3870359 26.1231432,41.3930511 C26.1376008,41.4071822 26.1519177,41.421552 26.1659059,41.4361604 C26.1969336,41.4684805 26.2270224,41.5017075 26.2565949,41.5353643 C26.2799713,41.5654405 26.3498656,41.6542371 26.3310894,41.6265001 C26.4296644,41.7661875 26.5617549,42.0293308 26.6004339,42.143716 C26.6364372,42.2502718 26.6616442,42.3601695 26.6825797,42.4706877 C26.6756794,42.4405637 26.6961455,42.5784371 26.6971312,42.5914701 C26.7021539,42.6542483 26.7025294,42.7173607 26.702858,42.7803298 C26.7032335,42.843108 26.6990558,42.9058385 26.694925,42.9684257 C26.6939862,42.9832251 26.6932821,42.9948259 26.6928127,43.0043262 C26.6911228,43.0135878 26.6891983,43.0248067 26.6869451,43.0389378 C26.663381,43.1829218 26.6227775,43.3234208 26.5757432,43.4610555 C26.5708144,43.4755684 26.5670122,43.4870261 26.5639611,43.4962399 C26.5596895,43.5053582 26.5542444,43.5170068 26.5473442,43.5323314 C26.521433,43.589333 26.491532,43.6443773 26.4617717,43.6992784 C26.4317768,43.7544182 26.3977919,43.8073142 26.3639478,43.8599715 C26.3599578,43.8661299 26.2706771,43.9848595 26.2945228,43.9566451 C26.1076528,44.1873251 25.9818054,44.2799409 25.7675691,44.4095074 C25.710114,44.4423048 25.6522833,44.4732404 25.5932322,44.5029347 C25.5817318,44.508759 25.5720621,44.5136285 25.5640352,44.5177819 C25.5534267,44.5212669 25.5369037,44.5272344 25.5119313,44.5366392 C25.3931719,44.5816581 25.2697654,44.6128324 25.1458426,44.6389462 C25.1286624,44.6426222 25.1156129,44.6454866 25.1056146,44.6478258 M11.5267696,17.0258515 C11.5304779,17.0189292 11.5771837,16.9564852 11.5931434,16.9327584 C11.6220118,16.9045918 11.6674032,16.8597638 11.658156,16.862676 C11.6853345,16.8437232 11.7134049,16.8257252 11.7414753,16.8092071 C11.76856,16.7933097 11.7955977,16.77746 11.8226354,16.7615625 C12.7814414,16.1986116 13.7402944,15.635613 14.6990534,15.0726144 C15.0860307,15.7542948 15.4730079,16.4359753 15.8600321,17.117608 C16.2835759,17.863642 17.4194414,17.1908412 16.9948648,16.4429453 C16.6091081,15.7633654 16.2232574,15.0837855 15.8375006,14.4041579 C16.6486319,13.927903 17.4598102,13.4515526 18.2709884,12.9752977 C18.4136875,12.8914661 18.5563865,12.8076823 18.6990855,12.7238984 C18.7296907,12.7059004 18.7603898,12.6879024 18.7910419,12.6699044 C18.7959237,12.66704 18.8008055,12.6641279 18.8057343,12.6612635 C18.8190654,12.6534341 18.8425356,12.6414036 18.8553034,12.6343381 C18.9125708,12.6185361 19.0214727,12.5918972 18.9914777,12.5916107 C19.0410468,12.5881257 19.0908507,12.5894624 19.1404198,12.5910856 C19.0012883,12.5865503 19.1823376,12.6006813 19.2074508,12.6068398 C19.2193737,12.6097519 19.3136301,12.6492807 19.3202957,12.6495672 C19.3607584,12.6724824 19.3993434,12.6989304 19.4375999,12.7253306 C19.3327818,12.6531477 19.4831322,12.7808046 19.4916284,12.7898275 C19.499045,12.7976569 19.5051942,12.804054 19.5106862,12.8095919 C19.5133149,12.8177554 19.521905,12.8347509 19.5411506,12.8665458 C19.5447181,12.8724655 19.547957,12.8785285 19.5512897,12.884496 C19.6134859,12.9940118 19.6755881,13.1034797 19.7377842,13.2129955 C20.8160537,15.1124773 21.8943702,17.0119114 22.9726397,18.9113456 C22.985783,18.9359794 22.9946078,18.9513995 23.0004285,18.9605656 C23.0027755,18.9675834 23.0054511,18.9753173 23.008643,18.9845311 C23.0292499,19.0432991 23.0409381,19.1048838 23.0524854,19.1659911 C23.0249783,19.0203839 23.0450219,19.2106758 23.0447872,19.2333523 C23.0446933,19.2444758 23.0446933,19.2537373 23.0448341,19.2616622 C23.0426279,19.2706851 23.0400462,19.2821427 23.037042,19.2970853 C22.9988794,19.484847 22.9240094,19.5816161 22.7801368,19.6718449 C22.7791042,19.6724655 22.7780715,19.6730384 22.7770857,19.673659 C21.8426887,20.2223356 20.9083387,20.7710122 19.9739887,21.3196411 C19.9735193,21.3199275 19.9731437,21.3202617 19.9726743,21.3205004 C19.2189043,21.7631463 18.4650873,22.2057445 17.7113172,22.6483427 C16.8836159,23.1343366 16.0559146,23.6203782 15.2282603,24.1064199 C14.1690486,22.240547 13.1098369,20.3746742 12.0506252,18.5087536 C11.8777435,18.2041242 11.7048148,17.8994471 11.5318861,17.5948177 C11.5276615,17.5873702 11.5233899,17.5799228 11.5192122,17.5725231 C11.5072424,17.5514697 11.4986053,17.5371477 11.4924561,17.5277429 C11.4897336,17.5181471 11.4860253,17.5061166 11.4801577,17.488787 C11.4250027,17.3243702 11.451571,17.1661596 11.5267696,17.0258515 M26.2292286,19.1901953 L27.6773421,18.3398969 C27.9440109,18.1833573 28.100088,18.1377655 28.4315346,18.1541881 C28.4433167,18.1548087 28.4531272,18.1551906 28.4614357,18.1554771 C28.4711054,18.1575776 28.4837324,18.1601078 28.5003024,18.163211 C28.5606678,18.1745253 28.6197659,18.1919027 28.6786762,18.2091846 C28.6869847,18.2116671 28.778143,18.2476154 28.7922721,18.2511482 C28.8339553,18.2719628 28.8748404,18.2944007 28.9152092,18.3176023 C28.9628068,18.3449097 29.0078228,18.3766091 29.0525101,18.4085949 C28.9869342,18.3633851 29.122733,18.4746194 29.12907,18.4806347 C29.27022,18.6145456 29.2414455,18.5866176 29.341945,18.7566678 C29.6142936,19.2174072 29.8709641,19.6885062 30.1351451,20.1540673 C31.5427489,22.6336388 32.9503528,25.1132102 34.3579566,27.5927816 C35.3645011,29.3659433 36.3710456,31.1390095 37.37759,32.9121234 C37.3841617,32.9237242 37.3907803,32.9352773 37.397305,32.9469259 C37.4084299,32.9664516 37.4184752,32.9856908 37.4296001,33.0060281 C37.4434006,33.0324761 37.455699,33.0596879 37.4682321,33.0867565 C37.4663075,33.0852766 37.473067,33.105041 37.4889328,33.1475296 C37.5093519,33.2082073 37.5235749,33.2707945 37.537704,33.3331908 C37.5415531,33.3555809 37.5443226,33.3713351 37.546341,33.3816947 C37.5487819,33.4106729 37.5514575,33.4396511 37.5524902,33.4686771 C37.5559169,33.5313121 37.5531943,33.5938993 37.550331,33.6564865 C37.5485942,33.6750097 37.5473737,33.6889498 37.5465288,33.6992139 C37.5412715,33.7284308 37.536108,33.7577432 37.5295363,33.7867214 C37.5166277,33.84759 37.4978515,33.9069787 37.4791223,33.9661286 C37.4718934,33.9854633 37.4666831,33.9997376 37.4632095,34.0095243 C37.45016,34.0372136 37.4372514,34.0649505 37.4228876,34.0920192 C37.3945356,34.1476841 37.3606445,34.2003414 37.3269413,34.25276 C37.3202288,34.2623557 37.3147837,34.2701851 37.3099019,34.2771552 C37.2853051,34.3066108 37.2600511,34.3354458 37.2336236,34.3632782 C37.1025189,34.506212 37.1296035,34.4774725 36.9647017,34.5781085 C36.8036489,34.6727294 36.6425492,34.7672547 36.4815434,34.8618755 C34.1525921,36.2293421 31.8236876,37.5968563 29.4948771,38.9643706 C28.666237,39.4509374 27.8376907,39.9374087 27.0091445,40.4239277 C26.6690608,40.0988656 26.2571113,39.8449839 25.7956395,39.6851979 C25.2316028,39.489941 24.6194052,39.4862173 24.0467785,39.6399403 C23.2881735,38.3036003 22.5295217,36.967308 21.7709168,35.630968 C20.2826222,33.0094654 18.7944216,30.387915 17.306221,27.7664123 C16.8326855,26.9323455 16.359197,26.0982788 15.8857085,25.2642598 C17.2789016,24.4462337 18.6720478,23.6282076 20.065194,22.8100383 C20.9038324,24.2874502 21.7425178,25.7648621 22.5812031,27.2421786 C22.8304101,27.6811963 23.4641534,27.6694999 23.7160829,27.2421786 C24.0328371,26.7049596 24.3495914,26.1676928 24.6663457,25.6304261 C25.2807965,25.620162 25.8952941,25.6098501 26.5098388,25.5995383 C27.0075016,25.5911838 27.3293724,25.0379241 27.077349,24.593846 C26.2397902,23.1184392 25.4021845,21.6430801 24.5647196,20.167721 C25.1195559,19.841895 25.6743453,19.5160213 26.2292286,19.1901953 M24.6110498,24.2947067 C24.3951706,24.298335 24.1515026,24.2764223 23.9585304,24.3913326 C23.7750401,24.5006574 23.6802203,24.703314 23.5750267,24.8817663 L23.1881434,25.5380013 C23.1785675,25.5543284 23.1689447,25.5706078 23.159322,25.5868872 C22.5074127,24.4384521 21.8554565,23.290017 21.2035473,22.1415819 C21.810159,21.7852977 22.4167707,21.4291091 23.0234293,21.0728727 C23.0770353,21.041412 23.1306413,21.0099035 23.1842473,20.9783951 C23.2606195,20.9335672 23.3380243,20.8897895 23.4137862,20.8436249 C23.417917,20.8411901 23.4220947,20.8387076 23.4262724,20.8362729 C24.0782286,21.9848035 24.7302317,23.1332863 25.3822348,24.2817692 C25.3803572,24.2818169 25.3784796,24.2818169 25.3766019,24.2818646 C25.1214336,24.2861612 24.8662182,24.2904101 24.6110498,24.2947067 M41.0172601,32.1985525 C40.2938606,32.6232959 39.5705079,33.0479916 38.8472022,33.472735 C38.8376264,33.1099105 38.7547765,32.7418345 38.5940523,32.3904676 C38.5207313,32.2303952 38.4222032,32.0785818 38.335645,31.9260045 C37.863377,31.0941338 37.3912497,30.2623108 36.9189817,29.4305356 C35.435522,26.8173397 33.9521093,24.2040961 32.4685558,21.5908524 C31.9291629,20.6405864 31.389723,19.6903203 30.8502831,18.7401019 C30.7342932,18.5358699 30.6183972,18.3316379 30.5025012,18.1274059 C30.0597587,17.3476674 29.3066927,16.8908426 28.4314877,16.8175139 C27.7376606,16.7594142 27.1610439,17.0993235 26.5891212,17.4351272 C25.9661742,17.8009116 25.3432273,18.1667437 24.7202334,18.5325281 C24.5815243,18.6140204 24.4427683,18.6955127 24.3040122,18.7769573 C24.2701682,18.6166939 24.216703,18.4586265 24.1428656,18.3065744 C24.1325856,18.2833727 24.1208505,18.2600756 24.1075194,18.2366829 C22.9903363,16.2686941 21.8731062,14.3006574 20.7558761,12.3327163 C20.3030883,11.5350752 19.5064146,11.0998768 18.5964737,11.3153277 C18.2506632,11.3972019 17.9129735,11.6416788 17.6077196,11.8209428 C16.4255708,12.5150356 15.2435159,13.2091285 14.061508,13.9032214 C13.0941119,14.4712327 12.1267157,15.0392441 11.1594135,15.6073031 C10.9645167,15.7217361 10.7895226,15.8670569 10.6413785,16.0344335 C10.5335562,15.8442848 10.4257809,15.6541839 10.3179586,15.4640352 C9.26053069,13.5993558 8.20314968,11.7346765 7.14576868,9.87004486 C6.85318873,9.35402245 6.56056185,8.83804779 6.26793496,8.32207312 C6.11059051,8.04460784 5.81857385,7.96244718 5.52580615,8.01491352 C3.84397608,8.31653527 2.16214601,8.61806155 0.480269003,8.91963557 C0.127088914,8.9829389 -0.0670099259,9.41584584 0.021144275,9.74171955 C0.122770391,10.1174339 0.477170932,10.2717298 0.829553034,10.2085697 C2.33962793,9.93783576 3.84960894,9.66705409 5.35963689,9.39632015 C5.76323104,10.1079814 6.16677825,10.8196426 6.57037241,11.5313038 C7.75726217,13.6244671 8.94429275,15.7175827 10.1312295,17.810746 C11.6504577,20.4899664 13.1698268,23.1691391 14.6890551,25.8483595 C16.1651921,28.4513868 17.641282,31.0544618 19.117419,33.6574891 C20.1748469,35.5222639 21.232181,37.3868478 22.2896559,39.2515271 C22.4775116,39.5828909 22.6654143,39.9143025 22.853317,40.2456186 C22.6985543,40.370793 22.5555736,40.5107192 22.4279425,40.66449 C21.601227,41.6605865 21.4667895,42.9939666 21.9798488,44.1703297 C22.3312451,44.9758478 23.0619674,45.5579902 23.8652597,45.8420914 C24.6822585,46.1309188 25.606798,46.0077972 26.3619763,45.6009086 C26.377138,45.5936521 26.3924406,45.5848679 26.4076963,45.5763224 C26.4153476,45.5720258 26.4232805,45.5681589 26.4309318,45.5638145 C26.4330911,45.562621 26.4348279,45.5612366 26.4369402,45.5599476 C27.4675182,44.9336456 28.103233,43.7556117 28.0064417,42.5284055 C27.9784652,42.1742219 27.8948173,41.8368906 27.7645106,41.5242409 C29.4179886,40.5533033 31.0715135,39.5823658 32.7250385,38.6114283 C34.3580974,37.6524735 35.9912972,36.6935187 37.6243561,35.734564 C37.6249194,35.7341821 37.6254827,35.7339434 37.6260459,35.7336092 L37.6273133,35.7327976 L37.7395011,35.6669163 C39.053224,34.89558 40.3668999,34.1241482 41.6806228,33.3527642 C42.4141616,32.9220533 41.7526765,31.7666959 41.0172601,32.1985525" id="path-1"></path>
    </defs>
    <g id="New-Perspectives" stroke="none" stroke-width="1" fill="none" fill-rule="evenodd">
        <g id="D_inscription-Step_3-Domaines" transform="translate(-276.000000, -2196.000000)">
            <g id="Ico-Transport-&amp;-logistique" transform="translate(276.000000, 2196.000000)">
                <ellipse id="Oval-3-Copy-6" fill="#6A89CC" fill-rule="nonzero" opacity="0.1" cx="16.4220779" cy="13.3865979" rx="13.4220779" ry="13.3865979"></ellipse>
                <mask id="mask-2" fill="white">
                    <use xlink:href="#path-1"></use>
                </mask>
                <use id="Fill-1" fill="#334051" xlink:href="#path-1"></use>
            </g>
        </g>
    </g>
</svg>